<svg width="24" height="24" viewBox="0 0 24 24" fill="none" xmlns="http://www.w3.org/2000/svg">
<path d="M20.8753 12.8744L19.0831 17.4536C18.4541 19.0457 18.144 19.8499 17.5667 20.4654C16.6792 21.4091 15.3954 21.9672 14.0341 22H13.9566C13.0949 22 12.2161 21.7046 10.5101 21.1301L10.3378 21.0645C9.51927 20.7854 9.07124 20.6295 8.65766 20.3915C7.98561 19.9894 7.42556 19.4396 7.03784 18.7913C6.79659 18.381 6.6415 17.9378 6.3744 17.1172L6.09046 15.9257C5.81475 15.0968 6.18524 14.1859 6.98654 13.7264C7.48627 13.4391 8.09801 13.3653 8.65806 13.5294C9.20948 13.6853 9.66614 14.0546 9.916 14.547L10.0625 14.8424L10.681 8.82353C11.0343 7.90441 12.2937 6.43235 13.2673 6.76061C13.4741 6.83447 13.655 6.92474 13.8187 7.04783C14.2237 6.20257 15.2662 5.79224 16.1881 6.10409C16.662 6.26001 17.0497 6.58827 17.2651 7.02321C17.4547 7.40892 17.4978 7.83565 17.3771 8.24598C17.5667 8.24598 17.7649 8.2788 17.963 8.34445C18.4455 8.51679 18.8333 8.84505 19.0487 9.27999C19.2296 9.66569 19.2641 10.0924 19.1521 10.4863C19.3502 10.4945 19.5484 10.5274 19.7466 10.593C20.2377 10.7654 20.6168 11.0936 20.8322 11.5368C21.039 11.9635 21.0562 12.4395 20.8753 12.8744Z" fill="#9D75EC"/>
<path d="M18.1302 13.5649L17.7124 14.6989L17.431 15.4578L16.3908 18.2203C15.7769 19.8658 15.4785 20.6844 14.9755 21.2471C14.2081 22.1083 13.1082 22.6028 11.9401 22.6284C11.1813 22.6454 10.3457 22.347 8.666 21.7502C7.7878 21.4347 7.34443 21.2812 6.96927 21.051C6.39801 20.6929 5.92053 20.1984 5.58801 19.6186C5.37485 19.2434 5.23843 18.8001 4.96559 17.9304L3.7719 14.068C3.58433 13.4796 3.84011 12.8402 4.37727 12.5162C5.08496 12.0899 6.01432 12.3627 6.3639 13.096L7.15685 14.7671L9.40779 8.75608C9.638 8.13366 10.3457 7.80966 10.9852 8.03987C11.6332 8.27008 11.9572 8.96071 11.7269 9.58313L12.2897 8.07397C12.5284 7.45155 13.2361 7.12755 13.8756 7.35776C14.5151 7.57945 14.8476 8.27008 14.6174 8.90102L14.0461 10.4102C14.2848 9.77923 14.9925 9.46376 15.632 9.68544C16.2715 9.91565 16.604 10.6063 16.3738 11.2287L15.811 12.7464C16.0413 12.1154 16.7489 11.7914 17.3969 12.0217C18.0364 12.2519 18.3689 12.9425 18.1302 13.5649Z" fill="#E0D1FF"/>
<path fill-rule="evenodd" clip-rule="evenodd" d="M13.636 7.78911C13.3482 7.68695 13.0486 7.83804 12.9552 8.08818L12.3918 9.59744C12.3917 9.59762 12.3918 9.59727 12.3918 9.59744L11.1235 12.995C10.9862 13.3626 10.5769 13.5494 10.2093 13.4121C9.84168 13.2749 9.65491 12.8656 9.79215 12.498L11.0603 9.10098C11.1503 8.85989 11.0296 8.57396 10.7496 8.47461C10.4618 8.37246 10.1622 8.52355 10.0688 8.77369L7.82471 14.7852C7.72494 15.0524 7.47502 15.2341 7.19003 15.2465C6.90504 15.259 6.64025 15.0998 6.51758 14.8422L5.72056 13.1689C5.55576 12.8229 5.10129 12.6759 4.74299 12.8894C4.47625 13.0483 4.36494 13.3525 4.44911 13.6246L5.64269 17.483C5.92307 18.3894 6.03495 18.7375 6.20453 19.0336C6.47738 19.51 6.86825 19.9142 7.34343 20.2087C7.6399 20.3923 7.99347 20.5219 8.90294 20.8446C9.75005 21.1452 10.3548 21.3595 10.8429 21.499C11.3255 21.637 11.6491 21.688 11.93 21.683C12.8986 21.6655 13.8112 21.2471 14.4423 20.5377C14.6242 20.3332 14.7907 20.0609 14.9922 19.612C15.1962 19.1574 15.4169 18.5674 15.7263 17.7384L17.0414 14.2156C17.0456 14.2043 17.0501 14.1931 17.0549 14.1821L17.4649 13.0836C17.5549 12.8425 17.4342 12.5566 17.1543 12.4572C16.8665 12.3551 16.5669 12.5062 16.4735 12.7563L15.769 14.6435C15.6317 15.0111 15.2225 15.1979 14.8548 15.0607C14.4872 14.9234 14.3004 14.5142 14.4377 14.1465L15.7058 10.7495C15.7958 10.5084 15.6751 10.2225 15.3952 10.1232C15.1073 10.021 14.8077 10.1721 14.7143 10.4222L13.4462 13.8192C13.309 14.1869 12.8997 14.3736 12.5321 14.2364C12.1644 14.0992 11.9777 13.6899 12.1149 13.3223L13.9466 8.41547C14.0366 8.17438 13.9159 7.88845 13.636 7.78911ZM15.3496 8.67512C15.5677 7.73625 15.036 6.77803 14.1113 6.44988C13.1854 6.12134 12.1523 6.52605 11.7123 7.39002C11.566 7.28492 11.4027 7.1985 11.2249 7.13539C10.2299 6.7823 9.11105 7.2761 8.73752 8.27671L7.07967 12.7177L7.00351 12.5578C6.46938 11.4364 5.0738 11.0381 4.01565 11.6686C3.19858 12.1554 2.8089 13.1309 3.09153 14.0445L4.28511 17.903C4.29362 17.9305 4.30203 17.9577 4.31033 17.9846C4.55696 18.7822 4.71414 19.2906 4.97139 19.7398C5.36293 20.4235 5.92134 20.9993 6.59499 21.4166C7.03707 21.6905 7.5444 21.8705 8.3478 22.1555C8.37411 22.1648 8.40074 22.1743 8.4277 22.1838L8.45018 22.1918C9.26985 22.4827 9.91632 22.7121 10.4523 22.8653C10.9988 23.0216 11.4752 23.1125 11.9556 23.1038C13.3154 23.0793 14.6056 22.4921 15.504 21.4823C15.8222 21.1247 16.0589 20.7058 16.2886 20.1939C16.5137 19.6924 16.7501 19.0593 17.049 18.2585L18.0783 15.5013C18.083 15.4903 18.0875 15.4791 18.0917 15.4678L18.7963 13.5806C19.1732 12.5709 18.6324 11.4739 17.6296 11.118C17.4581 11.0572 17.2831 11.0215 17.1087 11.0092C17.3269 10.0703 16.7951 9.11208 15.8704 8.78393C15.699 8.72311 15.5239 8.68741 15.3496 8.67512Z" fill="#6F3AD0"/>
<path d="M4.16486 6.80518L6.9005 8.03654" stroke="#9D75EC" stroke-linecap="round"/>
<path d="M11.0291 2L11.1579 4.99723" stroke="#9D75EC" stroke-linecap="round"/>
<path d="M8.58722 6.01575L6.56795 2.56284" stroke="#9D75EC" stroke-linecap="round"/>
</svg>
