<svg width="24" height="24" viewBox="0 0 24 24" fill="none" xmlns="http://www.w3.org/2000/svg">
<path d="M7.18182 14.7464C7.18182 13.7925 7.95515 13.0192 8.9091 13.0192C9.86304 13.0192 10.6364 13.7925 10.6364 14.7464V19.9283C10.6364 20.8822 9.86304 21.6555 8.9091 21.6555C7.95515 21.6555 7.18182 20.8822 7.18182 19.9283V14.7464Z" fill="#E0D1FF"/>
<path fill-rule="evenodd" clip-rule="evenodd" d="M16.6154 4.28049C16.6154 4.01137 16.355 3.81903 16.0978 3.89818L2 8.23595V12.6206L16.0978 16.9583C16.355 17.0375 16.6154 16.8451 16.6154 16.576V4.28049ZM18.0769 17.2719C18.0769 17.4475 18.1915 17.6025 18.3593 17.6542L18.7648 17.779C19.8755 18.1207 21 17.2902 21 16.1281V4.72845C21 3.56633 19.8755 2.7358 18.7648 3.07756L18.3593 3.20232C18.1915 3.25396 18.0769 3.40903 18.0769 3.58463V17.2719Z" fill="url(#paint0_linear_694_2100)"/>
<path d="M2 8.70104C2 8.22406 2.38666 7.8374 2.86364 7.8374C3.34061 7.8374 3.72727 8.22407 3.72727 8.70104V12.1556C3.72727 12.6326 3.34061 13.0192 2.86364 13.0192C2.38666 13.0192 2 12.6326 2 12.1556V8.70104Z" fill="#E0D1FF"/>
<defs>
<linearGradient id="paint0_linear_694_2100" x1="2" y1="3" x2="2" y2="17.8565" gradientUnits="userSpaceOnUse">
<stop stop-color="#A86CEA"/>
<stop offset="1" stop-color="#6F3AD0"/>
</linearGradient>
</defs>
</svg>
