<svg width="24" height="24" viewBox="0 0 24 24" fill="none" xmlns="http://www.w3.org/2000/svg">
<path d="M13.0911 8.13934C13.6615 7.56895 13.9467 7.28375 14.2627 7.14737C14.7179 6.95088 15.2339 6.95088 15.6891 7.14737C16.0051 7.28375 16.2903 7.56895 16.8607 8.13934C17.4311 8.70973 17.7162 8.99493 17.8526 9.31088C18.0491 9.76606 18.0491 10.2821 17.8526 10.7373C17.7162 11.0533 17.4311 11.3385 16.8607 11.9089L10.6098 18.1597C9.40816 19.3614 8.80734 19.9622 8.05483 20.3182C7.30232 20.6742 6.45674 20.7576 4.76558 20.9245L4 21L4.07554 20.2344C4.24241 18.5433 4.32585 17.6977 4.68184 16.9452C5.03783 16.1927 5.63865 15.5918 6.84029 14.3902L13.0911 8.13934Z" fill="#E0D1FF" stroke="#6F3AD0" stroke-linejoin="round"/>
<path fill-rule="evenodd" clip-rule="evenodd" d="M12.8767 9.12329C10.2068 7.16166 7.44539 6.55461 6.17154 7.82846C4.60944 9.39056 5.87577 13.1896 8.99996 16.3137C12.1242 19.4379 15.7882 20.8392 17.4852 19.1422C18.8246 17.8029 18.2341 15.2384 16.39 12.6811L15.3138 13.7572C15.8442 14.523 16.2309 15.2628 16.4624 15.9279C16.9156 17.2297 16.6687 17.8374 16.4246 18.0815C16.1805 18.3256 15.5728 18.5725 14.271 18.1193C13.0231 17.6849 11.512 16.7045 10.0606 15.2531C8.62749 13.8199 7.67516 12.2822 7.25142 11.011C6.79595 9.64457 7.06933 9.05199 7.2322 8.88912C7.39506 8.72626 7.98765 8.45287 9.35405 8.90834C10.1029 9.15797 10.9443 9.59102 11.8023 10.1977L12.8767 9.12329Z" fill="#6F3AD0"/>
<path fill-rule="evenodd" clip-rule="evenodd" d="M20.2977 15.7995L20.0621 14.8919C19.9662 14.646 19.8561 14.4543 19.6271 14.3732L19.1641 14.2604C19.0678 14.2309 19 14.1213 19 13.9952C19 13.8692 19.0678 13.7596 19.1641 13.7301L19.6271 13.6172C19.9013 13.5261 19.9774 13.3704 20.0621 13.1306L20.2977 12.2005C20.3595 12.0648 20.427 11.998 20.5 12L20.531 12.0034C20.5922 12.0185 20.6493 12.0842 20.7023 12.2005L20.9379 13.1306C21.0226 13.3704 21.0987 13.5261 21.3729 13.6172L21.8359 13.7301C21.9322 13.7596 22 13.8692 22 13.9952C22 14.1213 21.9322 14.2309 21.8359 14.2604L21.3729 14.3732C21.1439 14.4543 21.0338 14.646 20.9379 14.8919L20.7023 15.7995C20.6627 15.9332 20.5952 16 20.5 16C20.4048 16 20.3373 15.9332 20.2977 15.7995Z" fill="#9D75EC"/>
<path fill-rule="evenodd" clip-rule="evenodd" d="M2.29771 8.79954L2.06212 7.89188C1.96624 7.646 1.85608 7.4543 1.62714 7.37324L1.16411 7.26041C1.06784 7.23088 1 7.12126 1 6.99523C1 6.86921 1.06784 6.75959 1.16411 6.73006L1.62714 6.61723C1.90129 6.52611 1.97736 6.37042 2.06212 6.13056L2.29771 5.2005C2.35955 5.06478 2.42698 4.99796 2.5 5.00005L2.53095 5.00337C2.59217 5.01846 2.64929 5.08417 2.70229 5.2005L2.93788 6.13056C3.02264 6.37042 3.09871 6.52611 3.37286 6.61723L3.83589 6.73006C3.93216 6.75959 4 6.86921 4 6.99523C4 7.12126 3.93216 7.23088 3.83589 7.26041L3.37286 7.37324C3.14392 7.4543 3.03376 7.646 2.93788 7.89188L2.70229 8.79954C2.66267 8.93318 2.59524 9 2.5 9C2.40476 9 2.33733 8.93318 2.29771 8.79954Z" fill="#9D75EC"/>
<path fill-rule="evenodd" clip-rule="evenodd" d="M8.73028 5.74943L8.41616 4.61485C8.28832 4.3075 8.14144 4.06787 7.83619 3.96654L7.21881 3.82551C7.09045 3.7886 7 3.65157 7 3.49404C7 3.33651 7.09045 3.19948 7.21881 3.16257L7.83619 3.02154C8.20172 2.90764 8.30315 2.71303 8.41616 2.41319L8.73028 1.25063C8.81273 1.08098 8.90264 0.997453 9 1.00006L9.04127 1.00422C9.1229 1.02307 9.19905 1.10521 9.26972 1.25063L9.58384 2.41319C9.69685 2.71303 9.79828 2.90764 10.1638 3.02154L10.7812 3.16257C10.9095 3.19948 11 3.33651 11 3.49404C11 3.65157 10.9095 3.7886 10.7812 3.82551L10.1638 3.96654C9.85856 4.06787 9.71168 4.3075 9.58384 4.61485L9.26972 5.74943C9.21689 5.91648 9.12698 6 9 6C8.87302 6 8.78311 5.91648 8.73028 5.74943Z" fill="#9D75EC"/>
</svg>
