<svg width="24" height="24" viewBox="0 0 24 24" fill="none" xmlns="http://www.w3.org/2000/svg">
<rect x="0.883883" width="4.75" height="18.75" rx="1.375" transform="matrix(0.707107 0.707107 0.707107 -0.707107 3.25888 17.5171)" fill="#E0D1FF" stroke="#6F3AD0" stroke-width="1.25"/>
<path d="M4.41421 16.7279C3.63316 17.5089 3.63317 18.7753 4.41421 19.5563L5.82843 20.9705C6.60948 21.7516 7.87581 21.7516 8.65685 20.9705L14.3137 15.3137L10.0711 11.071L4.41421 16.7279Z" fill="url(#paint0_linear_694_2077)"/>
<path fill-rule="evenodd" clip-rule="evenodd" d="M18.1628 21.6993L17.7702 20.3378C17.6104 19.969 17.4268 19.6814 17.0452 19.5599L16.2735 19.3906C16.1131 19.3463 16 19.1819 16 18.9928C16 18.8038 16.1131 18.6394 16.2735 18.5951L17.0452 18.4258C17.5021 18.2892 17.6289 18.0556 17.7702 17.6958L18.1628 16.3008C18.2659 16.0972 18.3783 15.9969 18.5 16.0001L18.5516 16.0051C18.6536 16.0277 18.7488 16.1263 18.8372 16.3008L19.2298 17.6958C19.3711 18.0556 19.4979 18.2892 19.9548 18.4258L20.7265 18.5951C20.8869 18.6394 21 18.8038 21 18.9928C21 19.1819 20.8869 19.3463 20.7265 19.3906L19.9548 19.5599C19.5732 19.6814 19.3896 19.969 19.2298 20.3378L18.8372 21.6993C18.7711 21.8998 18.6587 22 18.5 22C18.3413 22 18.2289 21.8998 18.1628 21.6993Z" fill="#9D75EC"/>
<path fill-rule="evenodd" clip-rule="evenodd" d="M4.29771 11.7995L4.06212 10.8919C3.96624 10.646 3.85608 10.4543 3.62714 10.3732L3.16411 10.2604C3.06784 10.2309 3 10.1213 3 9.99523C3 9.86921 3.06784 9.75959 3.16411 9.73006L3.62714 9.61723C3.90129 9.52611 3.97736 9.37042 4.06212 9.13056L4.29771 8.2005C4.35955 8.06478 4.42698 7.99796 4.5 8.00005L4.53095 8.00337C4.59217 8.01846 4.64929 8.08417 4.70229 8.2005L4.93788 9.13056C5.02264 9.37042 5.09871 9.52611 5.37286 9.61723L5.83589 9.73006C5.93216 9.75959 6 9.86921 6 9.99523C6 10.1213 5.93216 10.2309 5.83589 10.2604L5.37286 10.3732C5.14392 10.4543 5.03376 10.646 4.93788 10.8919L4.70229 11.7995C4.66267 11.9332 4.59524 12 4.5 12C4.40476 12 4.33733 11.9332 4.29771 11.7995Z" fill="#9D75EC"/>
<path fill-rule="evenodd" clip-rule="evenodd" d="M7.73028 7.74943L7.41616 6.61485C7.28832 6.3075 7.14144 6.06787 6.83619 5.96654L6.21881 5.82551C6.09045 5.7886 6 5.65157 6 5.49404C6 5.33651 6.09045 5.19948 6.21881 5.16257L6.83619 5.02154C7.20172 4.90764 7.30315 4.71303 7.41616 4.41319L7.73028 3.25063C7.81273 3.08098 7.90264 2.99745 8 3.00006L8.04127 3.00422C8.1229 3.02307 8.19905 3.10521 8.26972 3.25063L8.58384 4.41319C8.69685 4.71303 8.79828 4.90764 9.16381 5.02154L9.78119 5.16257C9.90955 5.19948 10 5.33651 10 5.49404C10 5.65157 9.90955 5.7886 9.78119 5.82551L9.16381 5.96654C8.85856 6.06787 8.71168 6.3075 8.58384 6.61485L8.26972 7.74943C8.21689 7.91648 8.12698 8 8 8C7.87302 8 7.78311 7.91648 7.73028 7.74943Z" fill="#9D75EC"/>
<defs>
<linearGradient id="paint0_linear_694_2077" x1="3" y1="18.1421" x2="10.0711" y2="11.071" gradientUnits="userSpaceOnUse">
<stop stop-color="#A86CEA"/>
<stop offset="1" stop-color="#6F3AD0"/>
</linearGradient>
</defs>
</svg>
