<svg width="24" height="24" viewBox="0 0 24 24" fill="none" xmlns="http://www.w3.org/2000/svg">
<path d="M8 12C10.2091 12 12 10.2091 12 8C12 5.79086 10.2091 4 8 4C5.79086 4 4 5.79086 4 8C4 10.2091 5.79086 12 8 12Z" fill="#E0D1FF" stroke="#6F3AD0"/>
<path fill-rule="evenodd" clip-rule="evenodd" d="M14.8719 18.6116C14.9558 19.0056 15 19.4143 15 19.8333C15 20.4777 14.4777 21 13.8333 21H2.16667C1.52234 21 1 20.4777 1 19.8333C1 16.6117 3.61167 14 6.83333 14H9.16667C9.86364 14 10.5321 14.1222 11.1517 14.3464C11.6021 16.3112 13.0172 17.9079 14.8719 18.6116Z" fill="#E0D1FF"/>
<mask id="mask0_9_121" style="mask-type:luminance" maskUnits="userSpaceOnUse" x="0" y="13" width="16" height="9">
<path d="M16 13H0V22H16V13Z" fill="white"/>
<path fill-rule="evenodd" clip-rule="evenodd" d="M14.8719 18.6116C14.9558 19.0056 15 19.4143 15 19.8333C15 20.4777 14.4777 21 13.8333 21H2.16667C1.52234 21 1 20.4777 1 19.8333C1 16.6117 3.61167 14 6.83333 14H9.16667C9.86364 14 10.5321 14.1222 11.1517 14.3464C11.6021 16.3112 13.0172 17.9079 14.8719 18.6116Z" fill="black"/>
</mask>
<g mask="url(#mask0_9_121)">
<path d="M14.8719 18.6116L15.8499 18.4032L15.7363 17.8701L15.2266 17.6767L14.8719 18.6116ZM11.1517 14.3464L12.1264 14.1229L12.0045 13.5916L11.4919 13.4061L11.1517 14.3464ZM13.8938 18.8201C13.9633 19.1459 14 19.4848 14 19.8333H16C16 19.3438 15.9484 18.8653 15.8499 18.4032L13.8938 18.8201ZM14 19.8333C14 19.9254 13.9254 20 13.8333 20V22C15.03 22 16 21.03 16 19.8333H14ZM13.8333 20H2.16667V22H13.8333V20ZM2.16667 20C2.07462 20 2 19.9254 2 19.8333H0C0 21.03 0.970051 22 2.16667 22V20ZM2 19.8333C2 17.164 4.16396 15 6.83333 15V13C3.05939 13 0 16.0594 0 19.8333H2ZM6.83333 15H9.16667V13H6.83333V15ZM9.16667 15C9.74596 15 10.2993 15.1015 10.8114 15.2868L11.4919 13.4061C10.7648 13.143 9.98132 13 9.16667 13V15ZM10.177 14.5699C10.7031 16.8644 12.3536 18.7257 14.5171 19.5466L15.2266 17.6767C13.6808 17.0901 12.5012 15.7579 12.1264 14.1229L10.177 14.5699Z" fill="#6F3AD0"/>
</g>
<mask id="mask1_9_121" style="mask-type:luminance" maskUnits="userSpaceOnUse" x="0" y="13" width="16" height="9">
<path d="M0 13H16V22H0V13Z" fill="white"/>
</mask>
<g mask="url(#mask1_9_121)">
<path d="M1.1281 18.6116L0.1501 18.4032L0.2637 17.8701L0.7734 17.6767L1.1281 18.6116ZM4.8483 14.3464L3.8736 14.1229L3.9955 13.5916L4.5081 13.4061L4.8483 14.3464ZM2.1062 18.8201C2.0367 19.1459 2 19.4848 2 19.8333H0C0 19.3438 0.0515998 18.8653 0.1501 18.4032L2.1062 18.8201ZM2 19.8333C2 19.9254 2.0746 20 2.1667 20V22C0.97 22 0 21.03 0 19.8333H2ZM2.1667 20H13.8333V22H2.1667V20ZM13.8333 20C13.9254 20 14 19.9254 14 19.8333H16C16 21.03 15.0299 22 13.8333 22V20ZM14 19.8333C14 17.164 11.836 15 9.16667 15V13C12.9406 13 16 16.0594 16 19.8333H14ZM9.16667 15H6.83333V13H9.16667V15ZM6.83333 15C6.25404 15 5.7007 15.1015 5.1886 15.2868L4.5081 13.4061C5.2352 13.143 6.01868 13 6.83333 13V15ZM5.823 14.5699C5.2969 16.8644 3.6464 18.7257 1.4829 19.5466L0.7734 17.6767C2.3192 17.0901 3.4988 15.7579 3.8736 14.1229L5.823 14.5699Z" fill="#6F3AD0"/>
</g>
<path fill-rule="evenodd" clip-rule="evenodd" d="M1.1281 18.6116C1.0442 19.0056 1 19.4143 1 19.8333C1 20.4777 1.5223 21 2.1667 21H13.8333C14.4777 21 15 20.4777 15 19.8333C15 16.6117 12.3883 14 9.16667 14H6.83333C6.13636 14 5.4679 14.1222 4.8483 14.3464C4.3979 16.3112 2.9828 17.9079 1.1281 18.6116Z" fill="#E0D1FF"/>
<path fill-rule="evenodd" clip-rule="evenodd" d="M14.8719 18.6116C14.9558 19.0056 15 19.4143 15 19.8333C15 20.4777 14.4777 21 13.8333 21H2.16667C1.52234 21 1 20.4777 1 19.8333C1 16.6117 3.61167 14 6.83333 14H9.16667C9.86364 14 10.5321 14.1222 11.1517 14.3464C11.6021 16.3112 13.0172 17.9079 14.8719 18.6116Z" fill="#E0D1FF"/>
<path fill-rule="evenodd" clip-rule="evenodd" d="M19.5845 1.07263C20.1386 1.20882 20.7451 1.4623 21.186 1.74208C21.9689 2.23886 22.6678 3.07382 23.0176 3.93013C23.133 4.2126 23.274 4.74742 23.3231 5.08875C23.373 5.43479 23.3418 6.29785 23.2671 6.63863C22.9952 7.8801 22.2259 8.9884 21.1617 9.6718C20.7536 9.934 20.1528 10.1819 19.689 10.2796C19.462 10.3275 19.4404 10.3384 19.3843 10.4329C18.7371 11.5244 17.5779 12.5629 16.2984 13.1974C16.012 13.3395 15.1772 13.6631 14.9113 13.7351C14.7109 13.7894 14.6784 13.7913 14.5895 13.7547C14.4332 13.6902 14.3561 13.5732 14.3728 13.4258C14.3901 13.273 14.4378 13.22 14.7174 13.0427C14.977 12.878 15.3417 12.5136 15.5322 12.2285C15.9479 11.6065 16.1553 10.9317 16.1855 10.1041L16.2011 9.6735L15.9153 9.452C15.5481 9.1673 15.1509 8.7698 14.8889 8.4248C14.6536 8.1148 14.3557 7.5412 14.2215 7.1395C13.893 6.15617 13.9322 4.94039 14.3237 3.96607C14.8034 2.77239 15.8067 1.78552 17.0316 1.30243C17.3361 1.18235 17.4677 1.14428 17.8106 1.07722C18.2294 0.995289 18.2524 0.993659 18.8284 1.00508C19.226 1.01298 19.4077 1.0292 19.5845 1.07263Z" fill="#E0D1FF"/>
<path fill-rule="evenodd" clip-rule="evenodd" d="M19.5845 1.07263C20.1386 1.20882 20.7451 1.4623 21.186 1.74208C21.9689 2.23886 22.6678 3.07382 23.0176 3.93013C23.133 4.2126 23.274 4.74742 23.3231 5.08875C23.373 5.43479 23.3418 6.29785 23.2671 6.63863C22.9952 7.8801 22.2259 8.9884 21.1617 9.6718C20.7536 9.934 20.1528 10.1819 19.689 10.2796C19.462 10.3275 19.4404 10.3384 19.3843 10.4329C18.7371 11.5244 17.5779 12.5629 16.2984 13.1974C16.012 13.3395 15.1772 13.6631 14.9113 13.7351C14.7109 13.7894 14.6784 13.7913 14.5895 13.7547C14.4332 13.6902 14.3561 13.5732 14.3728 13.4258C14.3901 13.273 14.4378 13.22 14.7174 13.0427C14.977 12.878 15.3417 12.5136 15.5322 12.2285C15.9479 11.6065 16.1553 10.9317 16.1855 10.1041L16.2011 9.6735L15.9153 9.452C15.5481 9.1673 15.1509 8.7698 14.8889 8.4248C14.6536 8.1148 14.3557 7.5412 14.2215 7.1395C13.893 6.15617 13.9322 4.94039 14.3237 3.96607C14.8034 2.77239 15.8067 1.78552 17.0316 1.30243C17.3361 1.18235 17.4677 1.14428 17.8106 1.07722C18.2294 0.995289 18.2524 0.993659 18.8284 1.00508C19.226 1.01298 19.4077 1.0292 19.5845 1.07263Z" fill="#E0D1FF"/>
<path d="M19.5845 1.07263C20.1386 1.20882 20.7451 1.4623 21.186 1.74208C21.9689 2.23886 22.6678 3.07382 23.0176 3.93013C23.133 4.2126 23.274 4.74742 23.3231 5.08875C23.373 5.43479 23.3418 6.29785 23.2671 6.63863C22.9952 7.8801 22.2259 8.9884 21.1617 9.6718C20.7536 9.934 20.1528 10.1819 19.689 10.2796C19.462 10.3275 19.4404 10.3384 19.3843 10.4329C18.7371 11.5244 17.5779 12.5629 16.2984 13.1974C16.012 13.3395 15.1772 13.6631 14.9113 13.7351C14.7109 13.7894 14.6784 13.7913 14.5895 13.7547C14.4332 13.6902 14.3561 13.5732 14.3728 13.4258C14.3901 13.273 14.4378 13.22 14.7174 13.0427C14.977 12.878 15.3417 12.5136 15.5322 12.2285C15.9479 11.6065 16.1553 10.9317 16.1855 10.1041L16.2011 9.6735L15.9153 9.452C15.5481 9.1673 15.1509 8.7698 14.8889 8.4248C14.6536 8.1148 14.3557 7.5412 14.2215 7.1395C13.893 6.15617 13.9322 4.94039 14.3237 3.96607C14.8034 2.77239 15.8067 1.78552 17.0316 1.30243C17.3361 1.18235 17.4677 1.14428 17.8106 1.07722C18.2294 0.995289 18.2524 0.993659 18.8284 1.00508C19.226 1.01298 19.4077 1.0292 19.5845 1.07263Z" stroke="#6F3AD0"/>
<path d="M18.3701 2.90253C18.1602 2.99483 17.9975 3.22179 17.9467 3.49327C17.912 3.67886 17.9709 4.07864 18.0832 4.41796C18.1215 4.53382 18.1528 4.64303 18.1528 4.66065C18.1528 4.67828 18.0297 4.57513 17.8793 4.43148C17.58 4.1457 17.3688 3.99846 17.1554 3.92692C16.7583 3.79386 16.3618 3.9562 16.205 4.31608C16.1515 4.43895 16.1419 4.50239 16.1533 4.6595C16.1851 5.09887 16.4472 5.31087 17.2348 5.53467C17.4263 5.5891 17.589 5.6396 17.5964 5.64695C17.6244 5.67451 17.5688 5.69575 17.3335 5.74754C16.4854 5.93414 16.1475 6.19959 16.1475 6.67941C16.1475 7.0995 16.465 7.4105 16.8945 7.4112C17.2043 7.4116 17.4232 7.2927 17.8894 6.87068C18.0317 6.74179 18.155 6.63634 18.1633 6.63634C18.1716 6.63634 18.1476 6.72356 18.1099 6.83012C17.8129 7.6714 17.9 8.1477 18.392 8.3739C18.7642 8.5449 19.1937 8.3747 19.3719 7.9856C19.4738 7.7631 19.4419 7.3538 19.2833 6.84665C19.2511 6.74371 19.2319 6.65239 19.2407 6.64372C19.2495 6.63505 19.3913 6.7558 19.5558 6.91205C19.918 7.2561 20.1384 7.3831 20.4101 7.4046C20.6364 7.4226 20.8142 7.3636 20.9802 7.2156C21.1499 7.0642 21.2168 6.91641 21.2164 6.69376C21.2158 6.38375 21.049 6.13121 20.743 5.97711C20.6038 5.90701 19.9191 5.689 19.8381 5.689C19.6921 5.689 19.8142 5.63073 20.1602 5.53519C20.627 5.40632 20.8334 5.30588 21.0063 5.12341C21.1626 4.95846 21.2187 4.81688 21.2149 4.59698C21.2115 4.40131 21.1566 4.26616 21.0198 4.11671C20.8682 3.95109 20.6634 3.87172 20.4233 3.88556C20.1363 3.90212 19.9474 4.00854 19.5713 4.36554C19.3983 4.52972 19.2485 4.65589 19.2384 4.64593C19.2283 4.63593 19.2479 4.53391 19.2821 4.41917C19.3792 4.09285 19.4323 3.80661 19.4323 3.61042C19.4323 3.29209 19.2464 3.00944 18.9591 2.89093C18.8157 2.83177 18.5177 2.83762 18.3701 2.90253Z" fill="#9D75EC"/>
</svg>
