<svg width="24" height="24" viewBox="0 0 24 24" fill="none" xmlns="http://www.w3.org/2000/svg">
<path d="M18.9117 11.367L18.4217 12.697L18.0917 13.587L16.8717 16.827C16.1517 18.757 15.8017 19.717 15.2117 20.377C14.3117 21.387 13.0217 21.967 11.6517 21.997C10.7617 22.017 9.78172 21.667 7.81172 20.967C6.78172 20.597 6.26172 20.417 5.82172 20.147C5.15172 19.727 4.59172 19.147 4.20172 18.467C3.95172 18.027 3.79172 17.507 3.47172 16.487L2.07172 11.957C1.85172 11.267 2.15172 10.517 2.78172 10.137C3.61172 9.63702 4.70172 9.95702 5.11172 10.817L6.04172 12.777L8.68172 5.72702C8.95172 4.99702 9.78172 4.61702 10.5317 4.88702C11.2917 5.15702 11.6717 5.96702 11.4017 6.69702L12.0617 4.92702C12.3417 4.19702 13.1717 3.81702 13.9217 4.08702C14.6717 4.34702 15.0617 5.15702 14.7917 5.89702L14.1217 7.66702C14.4017 6.92702 15.2317 6.55702 15.9817 6.81702C16.7317 7.08702 17.1217 7.89702 16.8517 8.62702L16.1917 10.407C16.4617 9.66702 17.2917 9.28702 18.0517 9.55702C18.8017 9.82702 19.1917 10.637 18.9117 11.367Z" fill="#E0D1FF"/>
<path d="M18.4154 12.6997L16.873 16.8314C16.1547 18.7556 15.7956 19.7177 15.209 20.377C14.312 21.3851 13.0203 21.9748 11.6549 21.9995C10.762 22.0156 9.7783 21.6665 7.81092 20.9683C6.77913 20.6022 6.26324 20.4191 5.82165 20.1455C5.14795 19.7281 4.59127 19.1534 4.20166 18.4731C3.94628 18.0272 3.78743 17.5137 3.46974 16.4867L2.06985 11.9613C1.85476 11.266 2.14855 10.5155 2.78412 10.1369C3.61475 9.64198 4.69966 9.96175 5.10953 10.8223L6.0443 12.7848L8.6763 5.73429C8.9501 5.00083 9.78191 4.62265 10.5342 4.88961C11.2865 5.15657 11.6743 5.96757 11.4005 6.70103M11.4005 6.70103L12.0616 4.93029C12.3354 4.19683 13.1672 3.81866 13.9194 4.08562C14.6717 4.35257 15.0596 5.16357 14.7858 5.89704L14.1248 7.66777M11.4005 6.70103L9.91322 10.6852M14.1248 7.66777C14.3986 6.93431 15.2304 6.55613 15.9826 6.82309C16.7349 7.09005 17.1228 7.90105 16.849 8.63451L16.188 10.4052M14.1248 7.66777L12.6374 11.6519M18.0859 13.5854L18.9122 11.372C19.186 10.6385 18.7981 9.82752 18.0458 9.56056C17.2936 9.2936 16.4618 9.67178 16.188 10.4052M16.188 10.4052L15.3617 12.6187" stroke="#6F3AD0" stroke-width="1.5" stroke-linecap="round" stroke-linejoin="round"/>
<path d="M20.6873 9.06569C21.8254 10.361 21.7648 12.3296 20.552 13.4626" stroke="#9D75EC" stroke-linecap="round"/>
<path d="M8.90752 2.16355C7.18641 2.05912 5.66871 3.31434 5.51764 4.96716" stroke="#9D75EC" stroke-linecap="round"/>
</svg>
