<svg width="24" height="24" viewBox="0 0 24 24" fill="none" xmlns="http://www.w3.org/2000/svg">
<line x1="6" y1="2" x2="6" y2="6" stroke="#6F3AD0" stroke-width="2"/>
<line x1="16" y1="2" x2="16" y2="6" stroke="#6F3AD0" stroke-width="2"/>
<path d="M2.5 7C2.5 5.61929 3.61929 4.5 5 4.5H17C18.3807 4.5 19.5 5.61929 19.5 7V19C19.5 20.3807 18.3807 21.5 17 21.5H5C3.61929 21.5 2.5 20.3807 2.5 19V7Z" fill="#E0D1FF" stroke="#6F3AD0"/>
<line x1="20" y1="8.5" x2="2" y2="8.5" stroke="#6F3AD0"/>
<line x1="15" y1="13" x2="5" y2="13" stroke="#6F3AD0" stroke-width="2"/>
<line x1="13" y1="17" x2="5" y2="17" stroke="#6F3AD0" stroke-width="2"/>
<path d="M14 15.917V18H16.083L22.2266 11.8564L20.1436 9.77336L14 15.917ZM23.8375 10.2455C24.0542 10.0289 24.0542 9.67893 23.8375 9.4623L22.5377 8.16248C22.3211 7.94584 21.9711 7.94584 21.7545 8.16248L20.738 9.179L22.821 11.262L23.8375 10.2455Z" fill="#9D75EC"/>
</svg>
