<svg width="16" height="16" viewBox="0 0 16 16" fill="none" xmlns="http://www.w3.org/2000/svg">
<path fill-rule="evenodd" clip-rule="evenodd" d="M3.57538 0.142944C4.31757 0.142944 4.90936 0.329466 5.35077 0.702515C5.79218 1.07556 6.01874 1.59997 6.03046 2.27576V5.13513C6.03046 5.70545 6.11053 6.16052 6.27069 6.50037V6.59998H4.81757C4.75507 6.47888 4.70038 6.28162 4.6535 6.00818C4.20038 6.48084 3.64569 6.71716 2.98944 6.71716C2.35272 6.71716 1.83319 6.53552 1.43085 6.17224C1.0285 5.80896 0.827332 5.35974 0.827332 4.82458C0.827332 4.1488 1.07831 3.63025 1.58026 3.26892C2.08222 2.90759 2.79998 2.72693 3.73358 2.72693H4.60663V2.31091C4.60663 1.98279 4.51483 1.72009 4.33124 1.52283C4.14764 1.32556 3.86835 1.22693 3.49335 1.22693C3.16913 1.22693 2.9035 1.30798 2.69647 1.47009C2.48944 1.6322 2.38593 1.83826 2.38593 2.08826H0.962097C0.962097 1.7406 1.07733 1.41541 1.3078 1.11267C1.53827 0.809935 1.85174 0.572633 2.24823 0.400757C2.64472 0.228881 3.08709 0.142944 3.57538 0.142944ZM4.60663 3.62341H3.83905C3.3117 3.62341 2.91522 3.71521 2.6496 3.8988C2.38397 4.0824 2.25116 4.34216 2.25116 4.6781C2.25116 4.95154 2.34198 5.16931 2.52362 5.33142C2.70526 5.49353 2.94842 5.57458 3.25311 5.57458C3.53436 5.57458 3.79901 5.50623 4.04706 5.36951C4.29511 5.23279 4.48163 5.0492 4.60663 4.81873V3.62341ZM3.64645 8.64645C3.84171 8.45118 4.15829 8.45118 4.35355 8.64645L6.85355 11.1464C7.04882 11.3417 7.04882 11.6583 6.85355 11.8536L4.35355 14.3536C4.15829 14.5488 3.84171 14.5488 3.64645 14.3536C3.45118 14.1583 3.45118 13.8417 3.64645 13.6464L5.29289 12H5.29226H5.28485H5.27745H5.27006H5.26266H5.25527H5.24789H5.24051H5.23314H5.22577H5.2184H5.21104H5.20368H5.19633H5.18898H5.18163H5.17429H5.16696H5.15963H5.1523H5.14498H5.13766H5.13034H5.12303H5.11573H5.10843H5.10113H5.09384H5.08655H5.07927H5.07199H5.06471H5.05744H5.05017H5.04291H5.03565H5.0284H5.02115H5.01391H5.00667H4.99943H4.9922H4.98497H4.97775H4.97053H4.96332H4.95611H4.9489H4.9417H4.93451H4.92731H4.92013H4.91294H4.90576H4.89859H4.89142H4.88425H4.87709H4.86993H4.86278H4.85563H4.84848H4.84134H4.83421H4.82708H4.81995H4.81283H4.80571H4.7986H4.79149H4.78438H4.77728H4.77018H4.76309H4.756H4.74892H4.74184H4.73477H4.7277H4.72063H4.71357H4.70651H4.69946H4.69241H4.68536H4.67832H4.67129H4.66426H4.65723H4.65021H4.64319H4.63618H4.62917H4.62216H4.61516H4.60816H4.60117H4.59418H4.5872H4.58022H4.57325H4.56628H4.55931H4.55235H4.54539H4.53844H4.53149H4.52455H4.51761H4.51067H4.50374H4.49681H4.48989H4.48297H4.47606H4.46915H4.46224H4.45534H4.44845H4.44156H4.43467H4.42778H4.42091H4.41403H4.40716H4.4003H4.39343H4.38658H4.37972H4.37288H4.36603H4.35919H4.35236H4.34552H4.3387H4.33188H4.32506H4.31824H4.31143H4.30463H4.29783H4.29103H4.28424H4.27745H4.27067H4.26389H4.25712H4.25035H4.24358H4.23682H4.23006H4.22331H4.21656H4.20982H4.20308H4.19634H4.18961H4.18289H4.17616H4.16945H4.16273H4.15602H4.14932H4.14262H4.13592H4.12923H4.12254H4.11586H4.10918H4.10251H4.09584H4.08917H4.08251H4.07585H4.0692H4.06255H4.05591H4.04927H4.04263H4.036H4.02938H4.02275H4.01614H4.00952H4.00291H3.99631H3.98971H3.98311H3.97652H3.96993H3.96335H3.95677H3.9502H3.94363H3.93706H3.9305H3.92394H3.91739H3.91084H3.9043H3.89776H3.89122H3.88469H3.87817H3.87164H3.86513H3.85861H3.85211H3.8456H3.8391H3.8326H3.82611H3.81963H3.81314H3.80666H3.80019H3.79372H3.78725H3.78079H3.77434H3.76788H3.76144H3.75499H3.74855H3.74212H3.73569H3.72926H3.72284H3.71642H3.71001H3.7036H3.6972H3.6908H3.6844H3.67801H3.67162H3.66524H3.65886H3.65249H3.64612H3.63975H3.63339H3.62703H3.62068H3.61433H3.60799H3.60165H3.59531H3.58898H3.58266H3.57634H3.57002H3.56371H3.5574H3.55109H3.54479H3.5385H3.53221H3.52592H3.51964H3.51336H3.50708H3.50081H3.49455H3.48829H3.48203H3.47578H3.46953H3.46329H3.45705H3.45081H3.44458H3.43836H3.43214H3.42592H3.41971H3.4135H3.40729H3.40109H3.3949H3.38871H3.38252H3.37634H3.37016H3.36398H3.35781H3.35165H3.34549H3.33933H3.33318H3.32703H3.32089H3.31475H3.30862H3.30248H3.29636H3.29024H3.28412H3.27801H3.2719H3.26579H3.25969H3.2536H3.24751H3.24142H3.23534H3.22926H3.22319H3.21712H3.21105H3.20499H3.19894H3.19288H3.18684H3.18079H3.17475H3.16872H3.16269H3.15666H3.15064H3.14462H3.13861H3.1326H3.1266H3.1206H3.1146H3.10861H3.10263H3.09664H3.09067H3.08469H3.07872H3.07276H3.0668H3.06084H3.05489H3.04894H3.043H3.03706H3.03113H3.02519H3.01927H3.01335H3.00743H3.00152H2.99561H2.98971H2.98381H2.97791H2.97202H2.96613H2.96025H2.95437H2.9485H2.94263H2.93677H2.9309H2.92505H2.9192H2.91335H2.90751H2.90167H2.89583H2.89H2.88418H2.87836H2.87254H2.86673H2.86092H2.85511H2.84932H2.84352H2.83773H2.83194H2.82616H2.82038H2.81461H2.80884H2.80308H2.79732H2.79156H2.78581H2.78006H2.77432H2.76858H2.76284H2.75711H2.75139H2.74567H2.73995H2.73424H2.72853H2.72283H2.71713H2.71143H2.70574H2.70005H2.69437H2.68869H2.68302H2.67735H2.67169H2.66603H2.66037H2.65472H2.64907H2.64343H2.63779H2.63216H2.62653H2.6209H2.61528H2.60966H2.60405H2.59844H2.59284H2.58724H2.58165H2.57606H2.57047C1.81426 12 1.16809 11.8709 0.702357 11.5274C0.205234 11.1607 0 10.6168 0 10V9.9961V9.9922V9.98832V9.98444V9.98056V9.9767V9.97284V9.96899V9.96515V9.96132V9.95749V9.95367V9.94986V9.94606V9.94226V9.93848V9.9347V9.93092V9.92716V9.9234V9.91965V9.91591V9.91217V9.90845V9.90473V9.90102V9.89731V9.89362V9.88993V9.88625V9.88257V9.87891V9.87525V9.8716V9.86795V9.86432V9.86069V9.85707V9.85346V9.84985V9.84626V9.84267V9.83908V9.83551V9.83194V9.82838V9.82483V9.82129V9.81775V9.81422V9.8107V9.80719V9.80368V9.80019V9.7967V9.79321V9.78974V9.78627V9.78281V9.77936V9.77591V9.77248V9.76905V9.76562V9.76221V9.7588V9.75541V9.75201V9.74863V9.74525V9.74189V9.73853V9.73517V9.73183V9.72849V9.72516V9.72184V9.71852V9.71521V9.71191V9.70862V9.70534V9.70206V9.69879V9.69553V9.69228V9.68903V9.68579V9.68256V9.67934V9.67612V9.67291V9.66971V9.66652V9.66333V9.66016V9.65699V9.65382V9.65067V9.64752V9.64438V9.64125V9.63813V9.63501V9.6319V9.6288V9.62571V9.62262V9.61954V9.61647V9.61341V9.61035V9.6073V9.60426V9.60123V9.59821V9.59519V9.59218V9.58918V9.58618V9.58319V9.58022V9.57724V9.57428V9.57132V9.56837V9.56543V9.5625V9.55957V9.55666V9.55375V9.55084V9.54795V9.54506V9.54218V9.53931V9.53644V9.53358V9.53074V9.52789V9.52506V9.52223V9.51941V9.5166V9.5138V9.511V9.50821V9.50543V9.50266V9.49989V9.49714V9.49438V9.49164V9.48891V9.48618V9.48346V9.48075V9.47804V9.47535V9.47266V9.46997V9.4673V9.46463V9.46198V9.45932V9.45668V9.45404V9.45142V9.4488V9.44618V9.44358V9.44098V9.43839V9.43581V9.43323V9.43066V9.4281V9.42555V9.42301V9.42047V9.41794V9.41542V9.41291V9.4104V9.4079V9.40541V9.40293V9.40045V9.39798V9.39552V9.39307V9.39062V9.38819V9.38576V9.38334V9.38092V9.37851V9.37611V9.37372V9.37134V9.36896V9.36659V9.36423V9.36188V9.35953V9.35719V9.35486V9.35254V9.35022V9.34792V9.34562V9.34332V9.34104V9.33876V9.33649V9.33423V9.33197V9.32973V9.32749V9.32526V9.32303V9.32082V9.31861V9.31641V9.31421V9.31203V9.30985V9.30768V9.30552V9.30336V9.30121V9.29907V9.29694V9.29482V9.2927V9.29059V9.28849V9.28639V9.28431V9.28223V9.28016V9.27809V9.27604V9.27399V9.27195V9.26991V9.26789V9.26587V9.26386V9.26186V9.25986V9.25787V9.25589V9.25392V9.25196V9.25V9.24805V9.24611V9.24417V9.24225V9.24033V9.23842V9.23652V9.23462V9.23273V9.23085V9.22898V9.22711V9.22525V9.2234V9.22156V9.21973V9.2179V9.21608V9.21427V9.21246V9.21067V9.20888V9.2071V9.20532V9.20356V9.2018V9.20005V9.1983V9.19657V9.19484V9.19312V9.19141V9.1897V9.188V9.18631V9.18463V9.18296V9.18129V9.17963V9.17798V9.17633V9.1747V9.17307V9.17145V9.16983V9.16823V9.16663V9.16504V9.16346V9.16188V9.16031V9.15875V9.1572V9.15565V9.15412V9.15259V9.15107V9.14955V9.14804V9.14655V9.14505V9.14357V9.14209V9.14062V9.13916V9.13771V9.13626V9.13483V9.1334V9.13197V9.13056V9.12915V9.12775V9.12636V9.12497V9.1236V9.12223V9.12086V9.11951V9.11816V9.11683V9.11549V9.11417V9.11285V9.11155V9.11024V9.10895V9.10767V9.10639V9.10512V9.10386V9.1026V9.10135V9.10011V9.09888V9.09766V9.09644V9.09523V9.09403V9.09283V9.09165V9.09047V9.0893V9.08813V9.08698V9.08583V9.08469V9.08356V9.08243V9.08131V9.0802V9.0791V9.07801V9.07692V9.07584V9.07477V9.0737V9.07265V9.0716V9.07056V9.06952V9.0685V9.06748V9.06647V9.06546V9.06447V9.06348V9.0625V9.06153V9.06056V9.0596V9.05865V9.05771V9.05678V9.05585V9.05493V9.05402V9.05312V9.05222V9.05133V9.05045V9.04958V9.04871V9.04785V9.047V9.04616V9.04532V9.04449V9.04367V9.04286V9.04206V9.04126V9.04047V9.03969V9.03891V9.03815V9.03739V9.03664V9.03589V9.03516V9.03443V9.03371V9.03299V9.03229V9.03159V9.0309V9.03022V9.02954V9.02887V9.02821V9.02756V9.02692V9.02628V9.02565V9.02503V9.02441V9.02381V9.02321V9.02262V9.02203V9.02146V9.02089V9.02033V9.01978V9.01923V9.01869V9.01816V9.01764V9.01712V9.01662V9.01612V9.01562V9.01514V9.01466V9.01419V9.01373V9.01328V9.01283V9.01239V9.01196V9.01154V9.01112V9.01072V9.01031V9.00992V9.00954V9.00916V9.00879V9.00843V9.00807V9.00772V9.00739V9.00705V9.00673V9.00641V9.0061V9.0058V9.00551V9.00522V9.00494V9.00467V9.00441V9.00415V9.00391V9.00367V9.00343V9.00321V9.00299V9.00278V9.00258V9.00238V9.0022V9.00202V9.00185V9.00168V9.00153V9.00138V9.00124V9.0011V9.00098V9.00086V9.00075V9.00064V9.00055V9.00046V9.00038V9.00031V9.00024V9.00019V9.00014V9.0001V9.00006V9.00003V9.00002V9C0 8.72386 0.223858 8.5 0.5 8.5C0.776142 8.5 1 8.72386 1 9V9.00002V9.00003V9.00006V9.0001V9.00014V9.00019V9.00024V9.00031V9.00038V9.00046V9.00055V9.00064V9.00075V9.00086V9.00098V9.0011V9.00124V9.00138V9.00153V9.00168V9.00185V9.00202V9.0022V9.00238V9.00258V9.00278V9.00299V9.00321V9.00343V9.00367V9.00391V9.00415V9.00441V9.00467V9.00494V9.00522V9.00551V9.0058V9.0061V9.00641V9.00673V9.00705V9.00739V9.00772V9.00807V9.00843V9.00879V9.00916V9.00954V9.00992V9.01031V9.01072V9.01112V9.01154V9.01196V9.01239V9.01283V9.01328V9.01373V9.01419V9.01466V9.01514V9.01562V9.01612V9.01662V9.01712V9.01764V9.01816V9.01869V9.01923V9.01978V9.02033V9.02089V9.02146V9.02203V9.02262V9.02321V9.02381V9.02441V9.02503V9.02565V9.02628V9.02692V9.02756V9.02821V9.02887V9.02954V9.03022V9.0309V9.03159V9.03229V9.03299V9.03371V9.03443V9.03516V9.03589V9.03664V9.03739V9.03815V9.03891V9.03969V9.04047V9.04126V9.04206V9.04286V9.04367V9.04449V9.04532V9.04616V9.047V9.04785V9.04871V9.04958V9.05045V9.05133V9.05222V9.05312V9.05402V9.05493V9.05585V9.05678V9.05771V9.05865V9.0596V9.06056V9.06153V9.0625V9.06348V9.06447V9.06546V9.06647V9.06748V9.0685V9.06952V9.07056V9.0716V9.07265V9.0737V9.07477V9.07584V9.07692V9.07801V9.0791V9.0802V9.08131V9.08243V9.08356V9.08469V9.08583V9.08698V9.08813V9.0893V9.09047V9.09165V9.09283V9.09403V9.09523V9.09644V9.09766V9.09888V9.10011V9.10135V9.1026V9.10386V9.10512V9.10639V9.10767V9.10895V9.11024V9.11155V9.11285V9.11417V9.11549V9.11683V9.11816V9.11951V9.12086V9.12223V9.1236V9.12497V9.12636V9.12775V9.12915V9.13056V9.13197V9.1334V9.13483V9.13626V9.13771V9.13916V9.14062V9.14209V9.14357V9.14505V9.14655V9.14804V9.14955V9.15107V9.15259V9.15412V9.15565V9.1572V9.15875V9.16031V9.16188V9.16346V9.16504V9.16663V9.16823V9.16983V9.17145V9.17307V9.1747V9.17633V9.17798V9.17963V9.18129V9.18296V9.18463V9.18631V9.188V9.1897V9.19141V9.19312V9.19484V9.19657V9.1983V9.20005V9.2018V9.20356V9.20532V9.2071V9.20888V9.21067V9.21246V9.21427V9.21608V9.2179V9.21973V9.22156V9.2234V9.22525V9.22711V9.22898V9.23085V9.23273V9.23462V9.23652V9.23842V9.24033V9.24225V9.24417V9.24611V9.24805V9.25V9.25196V9.25392V9.25589V9.25787V9.25986V9.26186V9.26386V9.26587V9.26789V9.26991V9.27195V9.27399V9.27604V9.27809V9.28016V9.28223V9.28431V9.28639V9.28849V9.29059V9.2927V9.29482V9.29694V9.29907V9.30121V9.30336V9.30552V9.30768V9.30985V9.31203V9.31421V9.31641V9.31861V9.32082V9.32303V9.32526V9.32749V9.32973V9.33197V9.33423V9.33649V9.33876V9.34104V9.34332V9.34562V9.34792V9.35022V9.35254V9.35486V9.35719V9.35953V9.36188V9.36423V9.36659V9.36896V9.37134V9.37372V9.37611V9.37851V9.38092V9.38334V9.38576V9.38819V9.39062V9.39307V9.39552V9.39798V9.40045V9.40293V9.40541V9.4079V9.4104V9.41291V9.41542V9.41794V9.42047V9.42301V9.42555V9.4281V9.43066V9.43323V9.43581V9.43839V9.44098V9.44358V9.44618V9.4488V9.45142V9.45404V9.45668V9.45932V9.46198V9.46463V9.4673V9.46997V9.47266V9.47535V9.47804V9.48075V9.48346V9.48618V9.48891V9.49164V9.49438V9.49714V9.49989V9.50266V9.50543V9.50821V9.511V9.5138V9.5166V9.51941V9.52223V9.52506V9.52789V9.53074V9.53358V9.53644V9.53931V9.54218V9.54506V9.54795V9.55084V9.55375V9.55666V9.55957V9.5625V9.56543V9.56837V9.57132V9.57428V9.57724V9.58022V9.58319V9.58618V9.58918V9.59218V9.59519V9.59821V9.60123V9.60426V9.6073V9.61035V9.61341V9.61647V9.61954V9.62262V9.62571V9.6288V9.6319V9.63501V9.63813V9.64125V9.64438V9.64752V9.65067V9.65382V9.65699V9.66016V9.66333V9.66652V9.66971V9.67291V9.67612V9.67934V9.68256V9.68579V9.68903V9.69228V9.69553V9.69879V9.70206V9.70534V9.70862V9.71191V9.71521V9.71852V9.72184V9.72516V9.72849V9.73183V9.73517V9.73853V9.74189V9.74525V9.74863V9.75201V9.75541V9.7588V9.76221V9.76562V9.76905V9.77248V9.77591V9.77936V9.78281V9.78627V9.78974V9.79321V9.7967V9.80019V9.80368V9.80719V9.8107V9.81422V9.81775V9.82129V9.82483V9.82838V9.83194V9.83551V9.83908V9.84267V9.84626V9.84985V9.85346V9.85707V9.86069V9.86432V9.86795V9.8716V9.87525V9.87891V9.88257V9.88625V9.88993V9.89362V9.89731V9.90102V9.90473V9.90845V9.91217V9.91591V9.91965V9.9234V9.92716V9.93092V9.9347V9.93848V9.94226V9.94606V9.94986V9.95367V9.95749V9.96132V9.96515V9.96899V9.97284V9.9767V9.98056V9.98444V9.98832V9.9922V9.9961V10C1 10.3832 1.11523 10.5893 1.29596 10.7226C1.50808 10.8791 1.89715 11 2.57047 11H2.57606H2.58165H2.58724H2.59284H2.59844H2.60405H2.60966H2.61528H2.6209H2.62653H2.63216H2.63779H2.64343H2.64907H2.65472H2.66037H2.66603H2.67169H2.67735H2.68302H2.68869H2.69437H2.70005H2.70574H2.71143H2.71713H2.72283H2.72853H2.73424H2.73995H2.74567H2.75139H2.75711H2.76284H2.76858H2.77432H2.78006H2.78581H2.79156H2.79732H2.80308H2.80884H2.81461H2.82038H2.82616H2.83194H2.83773H2.84352H2.84932H2.85511H2.86092H2.86673H2.87254H2.87836H2.88418H2.89H2.89583H2.90167H2.90751H2.91335H2.9192H2.92505H2.9309H2.93677H2.94263H2.9485H2.95437H2.96025H2.96613H2.97202H2.97791H2.98381H2.98971H2.99561H3.00152H3.00743H3.01335H3.01927H3.02519H3.03113H3.03706H3.043H3.04894H3.05489H3.06084H3.0668H3.07276H3.07872H3.08469H3.09067H3.09664H3.10263H3.10861H3.1146H3.1206H3.1266H3.1326H3.13861H3.14462H3.15064H3.15666H3.16269H3.16872H3.17475H3.18079H3.18684H3.19288H3.19894H3.20499H3.21105H3.21712H3.22319H3.22926H3.23534H3.24142H3.24751H3.2536H3.25969H3.26579H3.2719H3.27801H3.28412H3.29024H3.29636H3.30248H3.30862H3.31475H3.32089H3.32703H3.33318H3.33933H3.34549H3.35165H3.35781H3.36398H3.37016H3.37634H3.38252H3.38871H3.3949H3.40109H3.40729H3.4135H3.41971H3.42592H3.43214H3.43836H3.44458H3.45081H3.45705H3.46329H3.46953H3.47578H3.48203H3.48829H3.49455H3.50081H3.50708H3.51336H3.51964H3.52592H3.53221H3.5385H3.54479H3.55109H3.5574H3.56371H3.57002H3.57634H3.58266H3.58898H3.59531H3.60165H3.60799H3.61433H3.62068H3.62703H3.63339H3.63975H3.64612H3.65249H3.65886H3.66524H3.67162H3.67801H3.6844H3.6908H3.6972H3.7036H3.71001H3.71642H3.72284H3.72926H3.73569H3.74212H3.74855H3.75499H3.76144H3.76788H3.77434H3.78079H3.78725H3.79372H3.80019H3.80666H3.81314H3.81963H3.82611H3.8326H3.8391H3.8456H3.85211H3.85861H3.86513H3.87164H3.87817H3.88469H3.89122H3.89776H3.9043H3.91084H3.91739H3.92394H3.9305H3.93706H3.94363H3.9502H3.95677H3.96335H3.96993H3.97652H3.98311H3.98971H3.99631H4.00291H4.00952H4.01614H4.02275H4.02938H4.036H4.04263H4.04927H4.05591H4.06255H4.0692H4.07585H4.08251H4.08917H4.09584H4.10251H4.10918H4.11586H4.12254H4.12923H4.13592H4.14262H4.14932H4.15602H4.16273H4.16945H4.17616H4.18289H4.18961H4.19634H4.20308H4.20982H4.21656H4.22331H4.23006H4.23682H4.24358H4.25035H4.25712H4.26389H4.27067H4.27745H4.28424H4.29103H4.29783H4.30463H4.31143H4.31824H4.32506H4.33188H4.3387H4.34552H4.35236H4.35919H4.36603H4.37288H4.37972H4.38658H4.39343H4.4003H4.40716H4.41403H4.42091H4.42778H4.43467H4.44156H4.44845H4.45534H4.46224H4.46915H4.47606H4.48297H4.48989H4.49681H4.50374H4.51067H4.51761H4.52455H4.53149H4.53844H4.54539H4.55235H4.55931H4.56628H4.57325H4.58022H4.5872H4.59418H4.60117H4.60816H4.61516H4.62216H4.62917H4.63618H4.64319H4.65021H4.65723H4.66426H4.67129H4.67832H4.68536H4.69241H4.69946H4.70651H4.71357H4.72063H4.7277H4.73477H4.74184H4.74892H4.756H4.76309H4.77018H4.77728H4.78438H4.79149H4.7986H4.80571H4.81283H4.81995H4.82708H4.83421H4.84134H4.84848H4.85563H4.86278H4.86993H4.87709H4.88425H4.89142H4.89859H4.90576H4.91294H4.92013H4.92731H4.93451H4.9417H4.9489H4.95611H4.96332H4.97053H4.97775H4.98497H4.9922H4.99943H5.00667H5.01391H5.02115H5.0284H5.03565H5.04291H5.05017H5.05744H5.06471H5.07199H5.07927H5.08655H5.09384H5.10113H5.10843H5.11573H5.12303H5.13034H5.13766H5.14498H5.1523H5.15963H5.16696H5.17429H5.18163H5.18898H5.19633H5.20368H5.21104H5.2184H5.22577H5.23314H5.24051H5.24789H5.25527H5.26266H5.27006H5.27745H5.28485H5.29226H5.29289L3.64645 9.35355C3.45118 9.15829 3.45118 8.84171 3.64645 8.64645ZM11.8536 6.35355C11.6583 6.54882 11.3417 6.54882 11.1464 6.35355L8.64645 3.85355C8.45118 3.65829 8.45118 3.34171 8.64645 3.14645L11.1464 0.646446C11.3417 0.451184 11.6583 0.451184 11.8536 0.646446C12.0488 0.841709 12.0488 1.15829 11.8536 1.35355L10.2071 3H10.2077H10.2151H10.2225H10.2299H10.2373H10.2447H10.2521H10.2595H10.2669H10.2742H10.2816H10.289H10.2963H10.3037H10.311H10.3184H10.3257H10.333H10.3404H10.3477H10.355H10.3623H10.3697H10.377H10.3843H10.3916H10.3989H10.4062H10.4135H10.4207H10.428H10.4353H10.4426H10.4498H10.4571H10.4643H10.4716H10.4788H10.4861H10.4933H10.5006H10.5078H10.515H10.5223H10.5295H10.5367H10.5439H10.5511H10.5583H10.5655H10.5727H10.5799H10.5871H10.5942H10.6014H10.6086H10.6157H10.6229H10.6301H10.6372H10.6444H10.6515H10.6587H10.6658H10.6729H10.68H10.6872H10.6943H10.7014H10.7085H10.7156H10.7227H10.7298H10.7369H10.744H10.7511H10.7582H10.7652H10.7723H10.7794H10.7864H10.7935H10.8005H10.8076H10.8146H10.8217H10.8287H10.8357H10.8428H10.8498H10.8568H10.8638H10.8708H10.8778H10.8848H10.8918H10.8988H10.9058L10.9128 3H10.9198H10.9268H10.9337H10.9407H10.9477H10.9546H10.9616H10.9685H10.9755H10.9824H10.9893H10.9963H11.0032H11.0101H11.017H11.0239H11.0309H11.0378H11.0447H11.0516H11.0584H11.0653H11.0722H11.0791H11.086H11.0928H11.0997H11.1066H11.1134H11.1203H11.1271H11.134H11.1408H11.1476H11.1545H11.1613H11.1681H11.1749H11.1818H11.1886H11.1954H11.2022H11.209H11.2158H11.2225H11.2293H11.2361H11.2429H11.2497H11.2564H11.2632H11.2699H11.2767H11.2834H11.2902H11.2969H11.3037H11.3104H11.3171H11.3238H11.3306H11.3373H11.344H11.3507H11.3574H11.3641H11.3708H11.3775H11.3841H11.3908H11.3975H11.4042H11.4108H11.4175H11.4241H11.4308H11.4374H11.4441H11.4507H11.4574H11.464H11.4706H11.4772H11.4839H11.4905H11.4971H11.5037H11.5103H11.5169H11.5235H11.5301H11.5367H11.5432H11.5498H11.5564H11.5629H11.5695H11.5761H11.5826H11.5892H11.5957H11.6022H11.6088H11.6153H11.6218H11.6284H11.6349H11.6414H11.6479H11.6544H11.6609H11.6674H11.6739H11.6804H11.6869H11.6933H11.6998H11.7063H11.7127H11.7192H11.7257H11.7321H11.7386H11.745H11.7514H11.7579H11.7643H11.7707H11.7772H11.7836H11.79H11.7964H11.8028H11.8092H11.8156H11.822H11.8284H11.8348H11.8411H11.8475H11.8539H11.8602H11.8666H11.873H11.8793H11.8857H11.892H11.8984H11.9047H11.911H11.9173H11.9237H11.93H11.9363H11.9426H11.9489H11.9552H11.9615H11.9678H11.9741H11.9804H11.9866H11.9929H11.9992H12.0055H12.0117H12.018H12.0242H12.0305H12.0367H12.043H12.0492H12.0554H12.0616H12.0679H12.0741H12.0803H12.0865H12.0927H12.0989H12.1051H12.1113H12.1175H12.1237H12.1298H12.136H12.1422H12.1484H12.1545H12.1607H12.1668H12.173H12.1791H12.1853H12.1914H12.1975H12.2036H12.2098H12.2159H12.222H12.2281H12.2342H12.2403H12.2464H12.2525H12.2586H12.2647H12.2707H12.2768H12.2829H12.2889H12.295H12.3011H12.3071H12.3132H12.3192H12.3252H12.3313H12.3373H12.3433H12.3494H12.3554H12.3614H12.3674H12.3734H12.3794H12.3854H12.3914H12.3974H12.4034H12.4093H12.4153H12.4213H12.4272H12.4332H12.4392H12.4451H12.4511H12.457H12.4629H12.4689H12.4748H12.4807H12.4867H12.4926H12.4985H12.5044H12.5103H12.5162H12.5221H12.528H12.5339H12.5397H12.5456H12.5515H12.5574H12.5632H12.5691H12.575H12.5808H12.5867H12.5925H12.5983H12.6042H12.61H12.6158H12.6216H12.6275H12.6333H12.6391H12.6449H12.6507H12.6565H12.6623H12.6681H12.6738H12.6796H12.6854H12.6912H12.6969H12.7027H12.7084H12.7142H12.7199H12.7257H12.7314H12.7372H12.7429H12.7486H12.7543H12.76H12.7658H12.7715H12.7772H12.7829H12.7886H12.7943H12.7999H12.8056H12.8113H12.817H12.8226H12.8283H12.834H12.8396H12.8453H12.8509H12.8566H12.8622H12.8678H12.8735H12.8791H12.8847H12.8903H12.8959H12.9016H12.9072H12.9128H12.9184H12.9239H12.9295C13.6857 3 14.3319 3.12909 14.7976 3.47262C15.2948 3.83931 15.5 4.38324 15.5 5V5.0039V5.0078V5.01168V5.01556V5.01944V5.0233V5.02716V5.03101V5.03485V5.03868V5.04251V5.04633V5.05014V5.05394V5.05774V5.06152V5.0653V5.06908V5.07284V5.0766V5.08035V5.08409V5.08783V5.09155V5.09527V5.09898V5.10269V5.10638V5.11007V5.11375V5.11743V5.12109V5.12475V5.1284V5.13205V5.13568V5.13931V5.14293V5.14654V5.15015V5.15374V5.15733V5.16092V5.16449V5.16806V5.17162V5.17517V5.17871V5.18225V5.18578V5.1893V5.19281V5.19632V5.19981V5.2033V5.20679V5.21026V5.21373V5.21719V5.22064V5.22409V5.22752V5.23095V5.23438V5.23779V5.2412V5.24459V5.24799V5.25137V5.25475V5.25811V5.26147V5.26483V5.26817V5.27151V5.27484V5.27816V5.28148V5.28479V5.28809V5.29138V5.29466V5.29794V5.30121V5.30447V5.30772V5.31097V5.31421V5.31744V5.32066V5.32388V5.32709V5.33029V5.33348V5.33667V5.33984V5.34301V5.34618V5.34933V5.35248V5.35562V5.35875V5.36187V5.36499V5.3681V5.3712V5.37429V5.37738V5.38046V5.38353V5.38659V5.38965V5.3927V5.39574V5.39877V5.40179V5.40481V5.40782V5.41082V5.41382V5.41681V5.41978V5.42276V5.42572V5.42868V5.43163V5.43457V5.4375V5.44043V5.44334V5.44625V5.44916V5.45205V5.45494V5.45782V5.46069V5.46356V5.46642V5.46926V5.47211V5.47494V5.47777V5.48059V5.4834V5.4862V5.489V5.49179V5.49457V5.49734V5.50011V5.50286V5.50562V5.50836V5.51109V5.51382V5.51654V5.51925V5.52196V5.52465V5.52734V5.53003V5.5327V5.53537V5.53802V5.54068V5.54332V5.54596V5.54858V5.5512V5.55382V5.55642V5.55902V5.56161V5.56419V5.56677V5.56934V5.5719V5.57445V5.57699V5.57953V5.58206V5.58458V5.58709V5.5896V5.5921V5.59459V5.59707V5.59955V5.60202V5.60448V5.60693V5.60938V5.61181V5.61424V5.61666V5.61908V5.62149V5.62389V5.62628V5.62866V5.63104V5.63341V5.63577V5.63812V5.64047V5.64281V5.64514V5.64746V5.64978V5.65208V5.65438V5.65668V5.65896V5.66124V5.66351V5.66577V5.66803V5.67027V5.67251V5.67474V5.67697V5.67918V5.68139V5.68359V5.68579V5.68797V5.69015V5.69232V5.69448V5.69664V5.69879V5.70093V5.70306V5.70518V5.7073V5.70941V5.71151V5.71361V5.71569V5.71777V5.71984V5.72191V5.72396V5.72601V5.72805V5.73009V5.73211V5.73413V5.73614V5.73814V5.74014V5.74213V5.74411V5.74608V5.74804V5.75V5.75195V5.75389V5.75583V5.75775V5.75967V5.76158V5.76348V5.76538V5.76727V5.76915V5.77102V5.77289V5.77475V5.7766V5.77844V5.78027V5.7821V5.78392V5.78573V5.78754V5.78933V5.79112V5.7929V5.79468V5.79644V5.7982V5.79995V5.8017V5.80343V5.80516V5.80688V5.80859V5.8103V5.812V5.81369V5.81537V5.81704V5.81871V5.82037V5.82202V5.82367V5.8253V5.82693V5.82855V5.83017V5.83177V5.83337V5.83496V5.83654V5.83812V5.83969V5.84125V5.8428V5.84435V5.84588V5.84741V5.84893V5.85045V5.85196V5.85345V5.85495V5.85643V5.85791V5.85938V5.86084V5.86229V5.86374V5.86517V5.8666V5.86803V5.86944V5.87085V5.87225V5.87364V5.87503V5.8764V5.87777V5.87914V5.88049V5.88184V5.88317V5.88451V5.88583V5.88715V5.88845V5.88976V5.89105V5.89233V5.89361V5.89488V5.89614V5.8974V5.89865V5.89989V5.90112V5.90234V5.90356V5.90477V5.90597V5.90717V5.90835V5.90953V5.9107V5.91187V5.91302V5.91417V5.91531V5.91644V5.91757V5.91869V5.9198V5.9209V5.92199V5.92308V5.92416V5.92523V5.9263V5.92735V5.9284V5.92944V5.93048V5.9315V5.93252V5.93353V5.93454V5.93553V5.93652V5.9375V5.93847V5.93944V5.9404V5.94135V5.94229V5.94322V5.94415V5.94507V5.94598V5.94688V5.94778V5.94867V5.94955V5.95042V5.95129V5.95215V5.953V5.95384V5.95468V5.95551V5.95633V5.95714V5.95794V5.95874V5.95953V5.96031V5.96109V5.96185V5.96261V5.96336V5.96411V5.96484V5.96557V5.96629V5.96701V5.96771V5.96841V5.9691V5.96978V5.97046V5.97113V5.97179V5.97244V5.97308V5.97372V5.97435V5.97497V5.97559V5.97619V5.97679V5.97738V5.97797V5.97854V5.97911V5.97967V5.98022V5.98077V5.98131V5.98184V5.98236V5.98288V5.98338V5.98388V5.98438V5.98486V5.98534V5.98581V5.98627V5.98672V5.98717V5.98761V5.98804V5.98846V5.98888V5.98928V5.98969V5.99008V5.99046V5.99084V5.99121V5.99157V5.99193V5.99228V5.99261V5.99295V5.99327V5.99359V5.9939V5.9942V5.99449V5.99478V5.99506V5.99533V5.99559V5.99585V5.99609V5.99633V5.99657V5.99679V5.99701V5.99722V5.99742V5.99762V5.9978V5.99798V5.99815V5.99832V5.99847V5.99862V5.99876V5.9989V5.99902V5.99914V5.99925V5.99936V5.99945V5.99954V5.99962V5.99969V5.99976V5.99981V5.99986V5.9999V5.99994V5.99997V5.99998V6C15.5 6.27614 15.2761 6.5 15 6.5C14.7239 6.5 14.5 6.27614 14.5 6V5.99998V5.99997V5.99994V5.9999V5.99986V5.99981V5.99976V5.99969V5.99962V5.99954V5.99945V5.99936V5.99925V5.99914V5.99902V5.9989V5.99876V5.99862V5.99847V5.99832V5.99815V5.99798V5.9978V5.99762V5.99742V5.99722V5.99701V5.99679V5.99657V5.99633V5.99609V5.99585V5.99559V5.99533V5.99506V5.99478V5.99449V5.9942V5.9939V5.99359V5.99327V5.99295V5.99261V5.99228V5.99193V5.99157V5.99121V5.99084V5.99046V5.99008V5.98969V5.98928V5.98888V5.98846V5.98804V5.98761V5.98717V5.98672V5.98627V5.98581V5.98534V5.98486V5.98438V5.98388V5.98338V5.98288V5.98236V5.98184V5.98131V5.98077V5.98022V5.97967V5.97911V5.97854V5.97797V5.97738V5.97679V5.97619V5.97559V5.97497V5.97435V5.97372V5.97308V5.97244V5.97179V5.97113V5.97046V5.96978V5.9691V5.96841V5.96771V5.96701V5.96629V5.96557V5.96484V5.96411V5.96336V5.96261V5.96185V5.96109V5.96031V5.95953V5.95874V5.95794V5.95714V5.95633V5.95551V5.95468V5.95384V5.953V5.95215V5.95129V5.95042V5.94955V5.94867V5.94778V5.94688V5.94598V5.94507V5.94415V5.94322V5.94229V5.94135V5.9404V5.93944V5.93847V5.9375V5.93652V5.93553V5.93454V5.93353V5.93252V5.9315V5.93048V5.92944V5.9284V5.92735V5.9263V5.92523V5.92416V5.92308V5.92199V5.9209V5.9198V5.91869V5.91757V5.91644V5.91531V5.91417V5.91302V5.91187V5.9107V5.90953V5.90835V5.90717V5.90597V5.90477V5.90356V5.90234V5.90112V5.89989V5.89865V5.8974V5.89614V5.89488V5.89361V5.89233V5.89105V5.88976V5.88845V5.88715V5.88583V5.88451V5.88317V5.88184V5.88049V5.87914V5.87777V5.8764V5.87503V5.87364V5.87225V5.87085V5.86944V5.86803V5.8666V5.86517V5.86374V5.86229V5.86084V5.85938V5.85791V5.85643V5.85495V5.85345V5.85196V5.85045V5.84893V5.84741V5.84588V5.84435V5.8428V5.84125V5.83969V5.83812V5.83654V5.83496V5.83337V5.83177V5.83017V5.82855V5.82693V5.8253V5.82367V5.82202V5.82037V5.81871V5.81704V5.81537V5.81369V5.812V5.8103V5.80859V5.80688V5.80516V5.80343V5.8017V5.79995V5.7982V5.79644V5.79468V5.7929V5.79112V5.78933V5.78754V5.78573V5.78392V5.7821V5.78027V5.77844V5.7766V5.77475V5.77289V5.77102V5.76915V5.76727V5.76538V5.76348V5.76158V5.75967V5.75775V5.75583V5.75389V5.75195V5.75V5.74804V5.74608V5.74411V5.74213V5.74014V5.73814V5.73614V5.73413V5.73211V5.73009V5.72805V5.72601V5.72396V5.72191V5.71984V5.71777V5.71569V5.71361V5.71151V5.70941V5.7073V5.70518V5.70306V5.70093V5.69879V5.69664V5.69448V5.69232V5.69015V5.68797V5.68579V5.68359V5.68139V5.67918V5.67697V5.67474V5.67251V5.67027V5.66803V5.66577V5.66351V5.66124V5.65896V5.65668V5.65438V5.65208V5.64978V5.64746V5.64514V5.64281V5.64047V5.63812V5.63577V5.63341V5.63104V5.62866V5.62628V5.62389V5.62149V5.61908V5.61666V5.61424V5.61181V5.60938V5.60693V5.60448V5.60202V5.59955V5.59707V5.59459V5.5921V5.5896V5.58709V5.58458V5.58206V5.57953V5.57699V5.57445V5.5719V5.56934V5.56677V5.56419V5.56161V5.55902V5.55642V5.55382V5.5512V5.54858V5.54596V5.54332V5.54068V5.53802V5.53537V5.5327V5.53003V5.52734V5.52465V5.52196V5.51925V5.51654V5.51382V5.51109V5.50836V5.50562V5.50286V5.50011V5.49734V5.49457V5.49179V5.489V5.4862V5.4834V5.48059V5.47777V5.47494V5.47211V5.46926V5.46642V5.46356V5.46069V5.45782V5.45494V5.45205V5.44916V5.44625V5.44334V5.44043V5.4375V5.43457V5.43163V5.42868V5.42572V5.42276V5.41978V5.41681V5.41382V5.41082V5.40782V5.40481V5.40179V5.39877V5.39574V5.3927V5.38965V5.38659V5.38353V5.38046V5.37738V5.37429V5.3712V5.3681V5.36499V5.36187V5.35875V5.35562V5.35248V5.34933V5.34618V5.34301V5.33984V5.33667V5.33348V5.33029V5.32709V5.32388V5.32066V5.31744V5.31421V5.31097V5.30772V5.30447V5.30121V5.29794V5.29466V5.29138V5.28809V5.28479V5.28148V5.27816V5.27484V5.27151V5.26817V5.26483V5.26147V5.25811V5.25475V5.25137V5.24799V5.24459V5.2412V5.23779V5.23438V5.23095V5.22752V5.22409V5.22064V5.21719V5.21373V5.21026V5.20679V5.2033V5.19981V5.19632V5.19281V5.1893V5.18578V5.18225V5.17871V5.17517V5.17162V5.16806V5.16449V5.16092V5.15733V5.15374V5.15015V5.14654V5.14293V5.13931V5.13568V5.13205V5.1284V5.12475V5.12109V5.11743V5.11375V5.11007V5.10638V5.10269V5.09898V5.09527V5.09155V5.08783V5.08409V5.08035V5.0766V5.07284V5.06908V5.0653V5.06152V5.05774V5.05394V5.05014V5.04633V5.04251V5.03868V5.03485V5.03101V5.02716V5.0233V5.01944V5.01556V5.01168V5.0078V5.0039V5C14.5 4.61676 14.3848 4.41069 14.204 4.27738C13.9919 4.12091 13.6029 4 12.9295 4H12.9239H12.9184H12.9128H12.9072H12.9016H12.8959H12.8903H12.8847H12.8791H12.8735H12.8678H12.8622H12.8566H12.8509H12.8453H12.8396H12.834H12.8283H12.8226H12.817H12.8113H12.8056H12.7999H12.7943H12.7886H12.7829H12.7772H12.7715H12.7658H12.76H12.7543H12.7486H12.7429H12.7372H12.7314H12.7257H12.7199H12.7142H12.7084H12.7027H12.6969H12.6912H12.6854H12.6796H12.6738H12.6681H12.6623H12.6565H12.6507H12.6449H12.6391H12.6333H12.6275H12.6216H12.6158H12.61H12.6042H12.5983H12.5925H12.5867H12.5808H12.575H12.5691H12.5632H12.5574H12.5515H12.5456H12.5397H12.5339H12.528H12.5221H12.5162H12.5103H12.5044H12.4985H12.4926H12.4867H12.4807H12.4748H12.4689H12.4629H12.457H12.4511H12.4451H12.4392H12.4332H12.4272H12.4213H12.4153H12.4093H12.4034H12.3974H12.3914H12.3854H12.3794H12.3734H12.3674H12.3614H12.3554H12.3494H12.3433H12.3373H12.3313H12.3252H12.3192H12.3132H12.3071H12.3011H12.295H12.2889H12.2829H12.2768H12.2707H12.2647H12.2586H12.2525H12.2464H12.2403H12.2342H12.2281H12.222H12.2159H12.2098H12.2036H12.1975H12.1914H12.1853H12.1791H12.173H12.1668H12.1607H12.1545H12.1484H12.1422H12.136H12.1298H12.1237H12.1175H12.1113H12.1051H12.0989H12.0927H12.0865H12.0803H12.0741H12.0679H12.0616H12.0554H12.0492H12.043H12.0367H12.0305H12.0242H12.018H12.0117H12.0055H11.9992H11.9929H11.9866H11.9804H11.9741H11.9678H11.9615H11.9552H11.9489H11.9426H11.9363H11.93H11.9237H11.9173H11.911H11.9047H11.8984H11.892H11.8857H11.8793H11.873H11.8666H11.8602H11.8539H11.8475H11.8411H11.8348H11.8284H11.822H11.8156H11.8092H11.8028H11.7964H11.79H11.7836H11.7772H11.7707H11.7643H11.7579H11.7514H11.745H11.7386H11.7321H11.7257H11.7192H11.7127H11.7063H11.6998H11.6933H11.6869H11.6804H11.6739H11.6674H11.6609H11.6544H11.6479H11.6414H11.6349H11.6284H11.6218H11.6153H11.6088H11.6022H11.5957H11.5892H11.5826H11.5761H11.5695H11.5629H11.5564H11.5498H11.5432H11.5367H11.5301H11.5235H11.5169H11.5103H11.5037H11.4971H11.4905H11.4839H11.4772H11.4706H11.464H11.4574H11.4507H11.4441H11.4374H11.4308H11.4241H11.4175H11.4108H11.4042H11.3975H11.3908H11.3841H11.3775H11.3708H11.3641H11.3574H11.3507H11.344H11.3373H11.3306H11.3238H11.3171H11.3104H11.3037H11.2969H11.2902H11.2834H11.2767H11.2699H11.2632H11.2564H11.2497H11.2429H11.2361H11.2293H11.2225H11.2158H11.209H11.2022H11.1954H11.1886H11.1818H11.1749H11.1681H11.1613H11.1545H11.1476H11.1408H11.134H11.1271H11.1203H11.1134H11.1066H11.0997H11.0928H11.086H11.0791H11.0722H11.0653H11.0584H11.0516H11.0447H11.0378H11.0309H11.0239H11.017H11.0101H11.0032H10.9963H10.9893H10.9824H10.9755H10.9685H10.9616H10.9546H10.9477H10.9407H10.9337H10.9268H10.9198H10.9128L10.9058 4H10.8988H10.8918H10.8848H10.8778H10.8708H10.8638H10.8568H10.8498H10.8428H10.8357H10.8287H10.8217H10.8146H10.8076H10.8005H10.7935H10.7864H10.7794H10.7723H10.7652H10.7582H10.7511H10.744H10.7369H10.7298H10.7227H10.7156H10.7085H10.7014H10.6943H10.6872H10.68H10.6729H10.6658H10.6587H10.6515H10.6444H10.6372H10.6301H10.6229H10.6157H10.6086H10.6014H10.5942H10.5871H10.5799H10.5727H10.5655H10.5583H10.5511H10.5439H10.5367H10.5295H10.5223H10.515H10.5078H10.5006H10.4933H10.4861H10.4788H10.4716H10.4643H10.4571H10.4498H10.4426H10.4353H10.428H10.4207H10.4135H10.4062H10.3989H10.3916H10.3843H10.377H10.3697H10.3623H10.355H10.3477H10.3404H10.333H10.3257H10.3184H10.311H10.3037H10.2963H10.289H10.2816H10.2742H10.2669H10.2595H10.2521H10.2447H10.2373H10.2299H10.2225H10.2151H10.2077H10.2071L11.8536 5.64645C12.0488 5.84171 12.0488 6.15829 11.8536 6.35355Z" fill="#6f3ad0"/>
<path d="M13.528 9.992L14.552 10.288C13.544 13.168 11.68 14.848 8.816 15.744C8.704 15.504 8.4 15.04 8.208 14.808C10.976 14.08 12.696 12.6 13.528 9.992ZM10.44 10.056C11.248 12.424 12.976 14.128 15.824 14.768C15.592 14.992 15.28 15.448 15.128 15.728C12.128 14.944 10.48 13.112 9.48 10.344L10.44 10.056ZM8.352 9.472H15.68V10.416H8.352V9.472ZM11.496 8.208H12.488V10.048H11.496V8.208Z" fill="#6f3ad0"/>
</svg>
