<?xml version="1.0" encoding="UTF-8"?>
<svg width="16px" height="16px" viewBox="0 0 16 16" version="1.1" xmlns="http://www.w3.org/2000/svg" xmlns:xlink="http://www.w3.org/1999/xlink">
    <title>ico_ai_spellingcheck</title>
    <g id="Symbols" stroke="none" stroke-width="1" fill="none" fill-rule="evenodd">
        <g id="ico/16/ai_spellingcheck" fill-rule="nonzero">
            <g id="맞춤법-검사" transform="translate(0.580000, 0.040000)">
                <path d="M1.59,8.09 C0.68,8.09 0,7.53 0,6.55 C0,5.37 1.03,4.78 3.34,4.52 C3.34,3.82 3.11,3.15 2.22,3.15 C1.59,3.15 1.02,3.44 0.59,3.73 L0.23,3.1 C0.73,2.78 1.5,2.39 2.37,2.39 C3.69,2.39 4.25,3.28 4.25,4.62 L4.25,7.96 L3.5,7.96 L3.42,7.31 L3.39,7.31 C2.87,7.74 2.26,8.09 1.59,8.09 Z M1.85,7.36 C2.38,7.36 2.81,7.11 3.34,6.64 L3.34,5.12 C1.51,5.34 0.89,5.79 0.89,6.49 C0.89,7.11 1.31,7.36 1.85,7.36 Z M8.03666667,8.09 C7.53666667,8.09 6.96666667,7.84 6.48666667,7.4 L6.45666667,7.4 L6.37666667,7.96 L5.64666667,7.96 L5.64666667,0 L6.55666667,0 L6.55666667,2.18 L6.52666667,3.16 C7.01666667,2.73 7.62666667,2.39 8.22666667,2.39 C9.63666667,2.39 10.3966667,3.49 10.3966667,5.15 C10.3966667,7.02 9.28666667,8.09 8.03666667,8.09 Z M7.88666667,7.33 C8.78666667,7.33 9.44666667,6.52 9.44666667,5.17 C9.44666667,3.97 9.04666667,3.16 8.01666667,3.16 C7.55666667,3.16 7.07666667,3.42 6.55666667,3.91 L6.55666667,6.76 C7.03666667,7.18 7.52666667,7.33 7.88666667,7.33 Z M13.6333333,8.09 C12.1933333,8.09 11.0833333,7.05 11.0833333,5.25 C11.0833333,3.44 12.3133333,2.39 13.7033333,2.39 C14.4133333,2.39 14.9033333,2.69 15.2933333,3.03 L14.8233333,3.64 C14.5033333,3.35 14.1733333,3.15 13.7333333,3.15 C12.7533333,3.15 12.0333333,4 12.0333333,5.25 C12.0333333,6.5 12.7133333,7.33 13.7133333,7.33 C14.2133333,7.33 14.6533333,7.1 14.9933333,6.79 L15.3833333,7.4 C14.9033333,7.84 14.2833333,8.09 13.6333333,8.09 Z" id="abc" fill="#72787F"></path>
                <path d="M1.59,8.09 C0.68,8.09 0,7.53 0,6.55 C0,5.37 1.03,4.78 3.34,4.52 C3.34,3.82 3.11,3.15 2.22,3.15 C1.59,3.15 1.02,3.44 0.59,3.73 L0.23,3.1 C0.73,2.78 1.5,2.39 2.37,2.39 C3.69,2.39 4.25,3.28 4.25,4.62 L4.25,7.96 L3.5,7.96 L3.42,7.31 L3.39,7.31 C2.87,7.74 2.26,8.09 1.59,8.09 Z M1.85,7.36 C2.38,7.36 2.81,7.11 3.34,6.64 L3.34,5.12 C1.51,5.34 0.89,5.79 0.89,6.49 C0.89,7.11 1.31,7.36 1.85,7.36 Z M8.03666667,8.09 C7.53666667,8.09 6.96666667,7.84 6.48666667,7.4 L6.45666667,7.4 L6.37666667,7.96 L5.64666667,7.96 L5.64666667,0 L6.55666667,0 L6.55666667,2.18 L6.52666667,3.16 C7.01666667,2.73 7.62666667,2.39 8.22666667,2.39 C9.63666667,2.39 10.3966667,3.49 10.3966667,5.15 C10.3966667,7.02 9.28666667,8.09 8.03666667,8.09 Z M7.88666667,7.33 C8.78666667,7.33 9.44666667,6.52 9.44666667,5.17 C9.44666667,3.97 9.04666667,3.16 8.01666667,3.16 C7.55666667,3.16 7.07666667,3.42 6.55666667,3.91 L6.55666667,6.76 C7.03666667,7.18 7.52666667,7.33 7.88666667,7.33 Z M13.6333333,8.09 C12.1933333,8.09 11.0833333,7.05 11.0833333,5.25 C11.0833333,3.44 12.3133333,2.39 13.7033333,2.39 C14.4133333,2.39 14.9033333,2.69 15.2933333,3.03 L14.8233333,3.64 C14.5033333,3.35 14.1733333,3.15 13.7333333,3.15 C12.7533333,3.15 12.0333333,4 12.0333333,5.25 C12.0333333,6.5 12.7133333,7.33 13.7133333,7.33 C14.2133333,7.33 14.6533333,7.1 14.9933333,6.79 L15.3833333,7.4 C14.9033333,7.84 14.2833333,8.09 13.6333333,8.09 Z" id="abc-copy" fill="#72787F"></path>
                <polyline id="Path" stroke="#72787F" stroke-linecap="round" stroke-linejoin="round" points="3.42 11.9446488 6.9652878 15.16 12.42 10.16"></polyline>
            </g>
        </g>
    </g>
</svg>