<?xml version="1.0" encoding="UTF-8"?>
<svg width="24px" height="24px" viewBox="0 0 24 24" version="1.1" xmlns="http://www.w3.org/2000/svg" xmlns:xlink="http://www.w3.org/1999/xlink">
    <title>ico_table</title>
    <g id="Symbols" stroke="none" stroke-width="1" fill="none" fill-rule="evenodd">
        <g id="ico/table" fill="#6f3ad0" fill-rule="nonzero">
            <path d="M20,3 C21.1,3 22,3.9 22,5 L22,19 C22,20.1 21.1,21 20,21 L5,21 C3.9,21 3,20.1 3,19 L3,5 C3,3.9 3.9,3 5,3 Z M14,15 L11,15 L11,19 L14,19 L14,15 Z M5,15 L5,19 L9,19 L9,15 L5,15 Z M20,15 L16,15 L16,19 L20,19 L20,15 Z M14,10 L11,10 L11,13 L14,13 L14,10 Z M20,10 L16,10 L16,13 L20,13 L20,10 Z M20,5 L5,5 L5,8 L20,8 L20,5 Z M5,13 L9,13 L9,10 L5,10 L5,13 Z" id="Combined-Shape"></path>
        </g>
    </g>
</svg>