<?xml version="1.0" encoding="UTF-8"?>
<svg width="16px" height="16px" viewBox="0 0 16 16" version="1.1" xmlns="http://www.w3.org/2000/svg" xmlns:xlink="http://www.w3.org/1999/xlink">
    <title>ico_ai_summary</title>
    <g id="Symbols" stroke="none" stroke-width="1" fill="none" fill-rule="evenodd">
        <g id="Group" transform="translate(0.500000, 1.000000)">
            <path d="M14.5,5.5 C14.5,5.77614237 14.2761424,6 14,6 C13.7238576,6 13.5,5.77614237 13.5,5.5 L13.5,1 L9,1 C8.72385763,1 8.5,0.776142375 8.5,0.5 C8.5,0.223857625 8.72385763,5.07265313e-17 9,0 L14.5,0 L14.5,5.5 Z" id="Combined-Shape" fill="#6f3ad0" transform="translate(11.500000, 3.000000) scale(-1, -1) translate(-11.500000, -3.000000) "></path>
            <path d="M1,8 C1.27614237,8 1.5,8.22385763 1.5,8.5 L1.5,13 L6,13 C6.27614237,13 6.5,13.2238576 6.5,13.5 C6.5,13.7761424 6.27614237,14 6,14 L0.5,14 L0.5,8.5 C0.5,8.22385763 0.723857625,8 1,8 Z" id="Combined-Shape" fill="#6f3ad0" transform="translate(3.500000, 11.000000) scale(-1, -1) translate(-3.500000, -11.000000) "></path>
            <line x1="14.5" y1="3.69482223e-13" x2="9" y2="5.5" id="Path-15" stroke="#6f3ad0" stroke-linecap="round"></line>
            <line x1="5.5" y1="9" x2="-1.59158797e-12" y2="14.5" id="Path-15" stroke="#6f3ad0" stroke-linecap="round"></line>
        </g>
    </g>
</svg>