<?xml version="1.0" encoding="UTF-8"?>
<svg width="16px" height="16px" viewBox="0 0 16 16" version="1.1" xmlns="http://www.w3.org/2000/svg" xmlns:xlink="http://www.w3.org/1999/xlink">
    <title>ico_changing_style</title>
    <g id="Symbols" stroke="none" stroke-width="1" fill="none" fill-rule="evenodd">
        <g id="Group-4">
            <path d="M4.0751886,11.4487454 L3.33538433,8.95266617 C3.03427709,8.2765061 2.68834242,7.74931599 1.96942067,7.52639797 L0.515354252,7.21611558 C0.213040005,7.13491324 0,6.83346175 0,6.48688959 C0,6.14031743 0.213040005,5.83886594 0.515354252,5.75766361 L1.96942067,5.44738121 C2.83031488,5.1968033 3.06920256,4.76865771 3.33538433,4.10902845 L4.0751886,1.5513847 C4.26938587,1.17814797 4.4811401,0.994396444 4.71045129,1.00013012 L4.8076526,1.00927397 C4.99990539,1.05076393 5.17925918,1.2314675 5.34571398,1.5513847 L6.08551824,4.10902845 C6.35170001,4.76865771 6.5905877,5.1968033 7.4514819,5.44738121 L8.90554833,5.75766361 C9.20786257,5.83886594 9.42090258,6.14031743 9.42090258,6.48688959 C9.42090258,6.83346175 9.20786257,7.13491324 8.90554833,7.21611558 L7.4514819,7.52639797 C6.73256016,7.74931599 6.38662548,8.2765061 6.08551824,8.95266617 L5.34571398,11.4487454 C5.22128349,11.8162485 5.00952926,12 4.71045129,12 C4.41137332,12 4.19961909,11.8162485 4.0751886,11.4487454 Z" id="Path" fill="#6f3ad0"></path>
            <path d="M11.424,8.605 L11.9525139,10.4242185 C12.2136747,11.0764844 12.4535587,11.4789466 13.2977369,11.7197845 L14.33857,11.9418872 C14.3479692,11.9554255 14.3515655,11.9727759 14.3515655,11.9904652 C14.3515655,12.0081544 14.3479692,12.0255048 14.33857,12.0390431 L13.29424,12.2618921 C12.6001244,12.4687057 12.2458167,12.9488864 11.9555385,13.6109894 L11.425,15.398 L10.896027,13.6109894 C10.6299387,13.0040616 10.3100477,12.5499992 9.72393469,12.3192377 L9.55732553,12.2618921 L8.51299553,12.0390431 C8.50359633,12.0255048 8.5,12.0081544 8.5,11.9904652 C8.5,11.9727759 8.50359633,11.9554255 8.51299553,11.9418872 L9.55382857,11.7197845 C10.3980069,11.4789466 10.6378908,11.0764844 10.8990516,10.4242185 L11.424,8.605 Z" id="Path" stroke="#6f3ad0"></path>
            <path d="M12.2228301,5.69931568 L11.8193005,4.33781791 C11.6550602,3.96900333 11.4663686,3.68144508 11.0742295,3.55985344 L10.2811023,3.3906085 C10.1162036,3.34631631 10,3.18188823 10,2.99284887 C10,2.80380951 10.1162036,2.63938142 10.2811023,2.59508924 L11.0742295,2.4258443 C11.5438081,2.28916544 11.6741105,2.05563148 11.8193005,1.6958337 L12.2228301,0.300755292 C12.3287559,0.0971716202 12.4442582,-0.00305648509 12.5693371,7.09759491e-05 L12.622356,0.00505852732 C12.7272211,0.0276894137 12.8250505,0.126255002 12.915844,0.300755292 L13.3193736,1.6958337 C13.4645636,2.05563148 13.594866,2.28916544 14.0644447,2.4258443 L14.8575718,2.59508924 C15.0224705,2.63938142 15.1386741,2.80380951 15.1386741,2.99284887 C15.1386741,3.18188823 15.0224705,3.34631631 14.8575718,3.3906085 L14.0644447,3.55985344 C13.6723055,3.68144508 13.4836139,3.96900333 13.3193736,4.33781791 L12.915844,5.69931568 C12.8479728,5.89977189 12.7324705,6 12.5693371,6 C12.4062036,6 12.2907013,5.89977189 12.2228301,5.69931568 Z" id="Path" fill="#6f3ad0"></path>
        </g>
    </g>
</svg>