<?xml version="1.0" encoding="UTF-8"?>
<svg width="24px" height="24px" viewBox="0 0 24 24" version="1.1" xmlns="http://www.w3.org/2000/svg" xmlns:xlink="http://www.w3.org/1999/xlink">
    <title>ico_table_of_contents</title>
    <g id="Symbols" stroke="none" stroke-width="1" fill="none" fill-rule="evenodd">
        <g id="ico/table_of_contents" fill="#6f3ad0">
            <path d="M10,3 L21,3 C21.5522847,3 22,3.44771525 22,4 C22,4.55228475 21.5522847,5 21,5 L10,5 C9.44771525,5 9,4.55228475 9,4 C9,3.44771525 9.44771525,3 10,3 Z M10,8 L21,8 C21.5522847,8 22,8.44771525 22,9 C22,9.55228475 21.5522847,10 21,10 L10,10 C9.44771525,10 9,9.55228475 9,9 C9,8.44771525 9.44771525,8 10,8 Z M5,2 C6.1045695,2 7,2.8954305 7,4 C7,5.1045695 6.1045695,6 5,6 C3.8954305,6 3,5.1045695 3,4 C3,2.8954305 3.8954305,2 5,2 Z M5,7 C6.1045695,7 7,7.8954305 7,9 C7,10.1045695 6.1045695,11 5,11 C3.8954305,11 3,10.1045695 3,9 C3,7.8954305 3.8954305,7 5,7 Z M5,12 C6.1045695,12 7,12.8954305 7,14 C7,15.1045695 6.1045695,16 5,16 C3.8954305,16 3,15.1045695 3,14 C3,12.8954305 3.8954305,12 5,12 Z M5,17 C6.1045695,17 7,17.8954305 7,19 C7,20.1045695 6.1045695,21 5,21 C3.8954305,21 3,20.1045695 3,19 C3,17.8954305 3.8954305,17 5,17 Z M10,13 L21,13 C21.5522847,13 22,13.4477153 22,14 C22,14.5522847 21.5522847,15 21,15 L10,15 C9.44771525,15 9,14.5522847 9,14 C9,13.4477153 9.44771525,13 10,13 Z M10,18 L21,18 C21.5522847,18 22,18.4477153 22,19 C22,19.5522847 21.5522847,20 21,20 L10,20 C9.44771525,20 9,19.5522847 9,19 C9,18.4477153 9.44771525,18 10,18 Z" id="Combined-Shape"></path>
        </g>
    </g>
</svg>