<svg width="13" height="12" viewBox="0 0 13 12" fill="none" xmlns="http://www.w3.org/2000/svg">
<path d="M12.0312 6.24219L7.21875 10.8359C6.94531 11.082 6.53516 11.082 6.28906 10.8086C6.04297 10.5352 6.04297 10.125 6.31641 9.87891L9.95312 6.40625H0.65625C0.273438 6.40625 0 6.13281 0 5.75C0 5.39453 0.273438 5.09375 0.65625 5.09375H9.95312L6.31641 1.64844C6.04297 1.40234 6.04297 0.964844 6.28906 0.71875C6.53516 0.445312 6.97266 0.445312 7.21875 0.691406L12.0312 5.28516C12.168 5.42188 12.25 5.58594 12.25 5.75C12.25 5.94141 12.168 6.10547 12.0312 6.24219Z" fill="#454C53"/>
</svg>
