<svg width="24" height="24" viewBox="0 0 24 24" fill="none" xmlns="http://www.w3.org/2000/svg">
<mask id="mask0_6188_32582" style="mask-type:alpha" maskUnits="userSpaceOnUse" x="0" y="0" width="24" height="24">
<path fill-rule="evenodd" clip-rule="evenodd" d="M13.4633 7.1906L13.9128 8.73858L13.9217 8.76541C13.9667 8.90111 14.0307 9.05552 14.1233 9.21206C14.3699 9.07863 14.6727 9 15 9C15.7725 9 16.4086 9.43797 16.491 10.0009L16.5191 9.98857C16.5063 10.0777 16.5 10.1659 16.5 10.2519C16.5 10.953 16.9191 11.8019 17.839 12.0614L17.8783 12.0724L18.221 12.1492L18.5105 13.1746L18.5189 13.2008C18.5974 13.4441 18.749 13.7763 19.0568 14.0566C19.3967 14.3663 19.8229 14.517 20.25 14.517C20.6771 14.517 21.1033 14.3663 21.4432 14.0566C21.751 13.7763 21.9026 13.4441 21.9811 13.2008L21.9895 13.1746L22.279 12.1492L22.6217 12.0724L22.661 12.0614C23.5809 11.8019 24 10.953 24 10.2519V24H0V0H15.7382C14.673 -5.05568e-06 14.162 0.877097 14.009 1.17738L13.9423 1.30827L13.4707 2.97253L12.72 3.13606L12.6816 3.1466C11.7291 3.40775 11.25 4.2856 11.25 5.0673C11.25 5.84901 11.7291 6.72685 12.6816 6.98801L12.72 6.99855L13.447 7.15691C13.4521 7.1672 13.4576 7.1784 13.4633 7.1906ZM15.7382 0H24V10.2519C24 9.55083 23.5809 8.70195 22.661 8.44252L22.6217 8.43143L22.2679 8.35216L21.9614 7.23951L21.8975 7.11059C21.7835 6.88068 21.427 6.22287 20.6279 6.04181L20.5368 6.02117L20.3435 6.00207L20.2894 6.00065C20.1937 5.99814 20.1028 6.00289 20.0163 6.0138C20.172 5.71387 20.25 5.38276 20.25 5.0673C20.25 4.2856 19.7709 3.40775 18.8184 3.1466L18.78 3.13606L18.0293 2.97253L17.5577 1.30827L17.491 1.17738C17.344 0.888864 16.9538 0.221693 16.1346 0.041224L16.0458 0.0216595L15.8409 0.00198598L15.7883 0.000641661C15.7714 0.000212145 15.7548 0 15.7382 0Z" fill="#D9D9D9"/>
</mask>
<g mask="url(#mask0_6188_32582)">
<mask id="path-2-outside-1_6188_32582" maskUnits="userSpaceOnUse" x="1.75" y="4" width="19" height="17" fill="black">
<rect fill="white" x="1.75" y="4" width="19" height="17"/>
<path fill-rule="evenodd" clip-rule="evenodd" d="M6.1875 6C4.84131 6 3.75 7.09131 3.75 8.4375V13.3125C3.75 14.6587 4.84131 15.75 6.1875 15.75H10.5V19L13.75 15.75H16.3125C17.6587 15.75 18.75 14.6587 18.75 13.3125V8.4375C18.75 7.09131 17.6587 6 16.3125 6H6.1875Z"/>
</mask>
<path d="M10.5 15.75H12C12 14.9216 11.3284 14.25 10.5 14.25V15.75ZM10.5 19H9C9 19.6067 9.36546 20.1536 9.92597 20.3858C10.4865 20.618 11.1317 20.4897 11.5607 20.0607L10.5 19ZM13.75 15.75V14.25C13.3522 14.25 12.9706 14.408 12.6893 14.6893L13.75 15.75ZM5.25 8.4375C5.25 7.91973 5.66973 7.5 6.1875 7.5V4.5C4.01288 4.5 2.25 6.26288 2.25 8.4375H5.25ZM5.25 13.3125V8.4375H2.25V13.3125H5.25ZM6.1875 14.25C5.66973 14.25 5.25 13.8303 5.25 13.3125H2.25C2.25 15.4871 4.01288 17.25 6.1875 17.25V14.25ZM10.5 14.25H6.1875V17.25H10.5V14.25ZM9 15.75V19H12V15.75H9ZM11.5607 20.0607L14.8107 16.8107L12.6893 14.6893L9.43934 17.9393L11.5607 20.0607ZM16.3125 14.25H13.75V17.25H16.3125V14.25ZM17.25 13.3125C17.25 13.8303 16.8303 14.25 16.3125 14.25V17.25C18.4871 17.25 20.25 15.4871 20.25 13.3125H17.25ZM17.25 8.4375V13.3125H20.25V8.4375H17.25ZM16.3125 7.5C16.8303 7.5 17.25 7.91973 17.25 8.4375H20.25C20.25 6.26288 18.4871 4.5 16.3125 4.5V7.5ZM6.1875 7.5H16.3125V4.5H6.1875V7.5Z" fill="#454C53" mask="url(#path-2-outside-1_6188_32582)"/>
<circle cx="7.875" cy="10.875" r="1.125" fill="#454C53"/>
<circle cx="11.25" cy="10.875" r="1.125" fill="#454C53"/>
<circle cx="14.625" cy="10.875" r="1.125" fill="#454C53"/>
</g>
<path fill-rule="evenodd" clip-rule="evenodd" d="M14.8742 6.67033L15.3454 8.29312C15.4247 8.53205 15.5595 8.65151 15.75 8.65151C15.9405 8.65151 16.0753 8.53205 16.1546 8.29312L16.6258 6.67033C16.8175 6.23073 17.0378 5.88798 17.4957 5.74306L18.4218 5.54133C18.6143 5.48854 18.75 5.29255 18.75 5.06723C18.75 4.84191 18.6143 4.64593 18.4218 4.59314L17.4957 4.39141C16.9474 4.2285 16.7953 3.95015 16.6258 3.5213L16.1546 1.85848C16.0486 1.65049 15.9343 1.533 15.8119 1.50603L15.75 1.50008C15.604 1.49636 15.4691 1.61582 15.3454 1.85848L14.8742 3.5213C14.7047 3.95015 14.5526 4.2285 14.0043 4.39141L13.0782 4.59314C12.8857 4.64593 12.75 4.84191 12.75 5.06723C12.75 5.29255 12.8857 5.48854 13.0782 5.54133L14.0043 5.74306C14.4622 5.88798 14.6825 6.23073 14.8742 6.67033ZM19.5932 11.4885L19.9466 12.7404C20.006 12.9247 20.1071 13.0169 20.25 13.0169C20.3929 13.0169 20.494 12.9247 20.5534 12.7404L20.9068 11.4885C21.0506 11.1494 21.2159 10.885 21.5593 10.7732L22.2538 10.6176C22.3982 10.5769 22.5 10.4257 22.5 10.2519C22.5 10.078 22.3982 9.92686 22.2538 9.88613L21.5593 9.73052C21.1481 9.60484 21.034 9.39011 20.9068 9.05929L20.5534 7.77654C20.4739 7.61609 20.3883 7.52546 20.2964 7.50465L20.25 7.50007C20.1405 7.49719 20.0393 7.58935 19.9466 7.77654L19.5932 9.05929C19.466 9.39011 19.3519 9.60484 18.9407 9.73052L18.2462 9.88613C18.1018 9.92686 18 10.078 18 10.2519C18 10.4257 18.1018 10.5769 18.2462 10.6176L18.9407 10.7732C19.2841 10.885 19.4494 11.1494 19.5932 11.4885Z" fill="#9D75EC"/>
</svg>
