<svg width="24" height="24" viewBox="0 0 24 24" fill="none" xmlns="http://www.w3.org/2000/svg">
<mask id="mask0_6188_14819" style="mask-type:alpha" maskUnits="userSpaceOnUse" x="3" y="3" width="18" height="18">
<path fill-rule="evenodd" clip-rule="evenodd" d="M11.25 3.75H3.75V20.25H11.25V3.75ZM12 3.75V20.25H13.5V3.75H12ZM14.25 3.75V20.25H20.25V3.75H14.25Z" fill="#D9D9D9"/>
</mask>
<g mask="url(#mask0_6188_14819)">
<rect x="4.5" y="4.5" width="15" height="15" rx="3.75" stroke="#6F3AD0" stroke-width="1.5" stroke-linejoin="bevel"/>
<rect x="12" y="3.75" width="1.5" height="16.5" fill="#6F3AD0"/>
<rect x="5.25" y="12.75" width="1.5" height="1.5" fill="#6F3AD0"/>
<rect x="6.75" y="11.25" width="1.5" height="1.5" fill="#6F3AD0"/>
<rect x="8.25" y="9.75" width="1.5" height="1.5" fill="#6F3AD0"/>
<rect x="9.75" y="11.25" width="1.5" height="1.5" fill="#6F3AD0"/>
<mask id="mask1_6188_14819" style="mask-type:alpha" maskUnits="userSpaceOnUse" x="13" y="12" width="8" height="9">
<rect x="13.5" y="12" width="6.75" height="8.25" fill="#D9D9D9"/>
</mask>
<g mask="url(#mask1_6188_14819)">
<path d="M12.9471 14.7568L13.4373 15.2915L13.9881 14.8194L16.1631 12.9551L19.5 15.3819V15.75C19.5 17.8211 17.8211 19.5 15.75 19.5H8.25C6.17893 19.5 4.5 17.8211 4.5 15.75V15.3259L9.3335 10.8146L12.9471 14.7568Z" stroke="#6F3AD0" stroke-width="1.5"/>
</g>
</g>
<rect x="12" y="1.5" width="1.5" height="1.5" fill="#6F3AD0"/>
<rect x="12" y="21" width="1.5" height="1.5" fill="#6F3AD0"/>
</svg>
