<svg width="24" height="24" viewBox="0 0 24 24" fill="none" xmlns="http://www.w3.org/2000/svg">
<path d="M4 12.25L9.07176 7.51636C9.3765 7.23193 9.85469 7.25057 10.1364 7.55785L13.75 11.5L15.925 9.63567C16.1888 9.40959 16.5733 9.39423 16.8543 9.59856L20.5 12.25V15.5H4V12.25Z" fill="#C6A9FF"/>
<rect x="4.75" y="4.75" width="15" height="15" rx="3.75" stroke="#6F3AD0" stroke-width="1.5" stroke-linejoin="bevel"/>
<path d="M13.1971 15.0068L13.6873 15.5415L14.2381 15.0694L16.4131 13.2051L19.75 15.6319V16C19.75 18.0711 18.0711 19.75 16 19.75H8.5C6.42893 19.75 4.75 18.0711 4.75 16V15.5759L9.5835 11.0646L13.1971 15.0068Z" fill="white" stroke="#6F3AD0" stroke-width="1.5"/>
</svg>
