<svg width="24" height="24" viewBox="0 0 24 24" fill="none" xmlns="http://www.w3.org/2000/svg">
<mask id="mask0_6188_4065" style="mask-type:alpha" maskUnits="userSpaceOnUse" x="0" y="0" width="24" height="24">
<path fill-rule="evenodd" clip-rule="evenodd" d="M24 0H0V24H24V0ZM10.5 3.5C10.5 4.66667 10.6 7.2 11 8C11.1356 8.27114 11.2344 8.65257 11.3463 9.08447C11.647 10.2454 12.0423 11.7711 13.5 12.5C15.5 13.5 19 13.5 20 13C20.8 12.6 22.3333 10.8333 23 10L22.5 4L20.5 1.5H12.5L10.5 3.5Z" fill="#D9D9D9"/>
</mask>
<g mask="url(#mask0_6188_4065)">
<rect x="4.5" y="4.5" width="15" height="15" rx="3.75" stroke="#454C53" stroke-width="1.5" stroke-linejoin="bevel"/>
<path d="M12.9471 14.7568L13.4373 15.2915L13.9881 14.8194L16.1631 12.9551L19.5 15.3819V15.75C19.5 17.8211 17.8211 19.5 15.75 19.5H8.25C6.17893 19.5 4.5 17.8211 4.5 15.75V15.3259L9.3335 10.8146L12.9471 14.7568Z" stroke="#454C53" stroke-width="1.5"/>
</g>
<path d="M14.7734 5.04297C14.4414 5.39453 14.1875 5.78516 14.0508 6.21484C13.9336 6.54688 13.5625 6.72266 13.25 6.60547C12.918 6.48828 12.7422 6.13672 12.8594 5.80469C13.0742 5.19922 13.4258 4.63281 13.8945 4.16406C15.5938 2.46484 18.3477 2.46484 20.0664 4.14453L20.8867 3.32422C21.0039 3.20703 21.2188 3.16797 21.3945 3.22656C21.5703 3.30469 21.6875 3.48047 21.6875 3.65625V6.15625C21.6875 6.42969 21.4727 6.625 21.2188 6.625H21.043H18.7188C18.5234 6.625 18.3477 6.52734 18.2695 6.35156C18.2109 6.17578 18.25 5.96094 18.3867 5.82422L19.1875 5.02344C17.957 3.83203 16.0039 3.83203 14.7734 5.04297ZM12.3125 8.34375C12.3125 8.08984 12.5078 7.875 12.7812 7.875H12.918H12.9375H15.2812C15.457 7.875 15.6328 7.99219 15.7109 8.16797C15.7695 8.34375 15.7305 8.55859 15.6133 8.67578L14.793 9.49609C16.0234 10.6875 17.9961 10.6875 19.207 9.47656C19.5391 9.125 19.793 8.73438 19.9492 8.30469C20.0469 7.97266 20.418 7.79688 20.7305 7.91406C21.0625 8.03125 21.2383 8.38281 21.1211 8.71484C20.9062 9.32031 20.5547 9.86719 20.0859 10.3555C18.3867 12.0547 15.6328 12.0547 13.9141 10.375L13.1133 11.1758C12.9766 11.3125 12.7617 11.3516 12.5859 11.293C12.4102 11.2148 12.3125 11.0391 12.3125 10.8438V8.51953V8.5V8.34375Z" fill="#454C53"/>
</svg>
