<svg width="22" height="23" viewBox="0 0 22 23" fill="none" xmlns="http://www.w3.org/2000/svg">
<path d="M19.5312 11.625C19.5312 8.58984 17.8906 5.80078 15.2656 4.24219C12.5996 2.72461 9.35938 2.72461 6.73438 4.24219C4.06836 5.80078 2.46875 8.58984 2.46875 11.625C2.46875 14.7012 4.06836 17.4902 6.73438 19.0488C9.35938 20.5664 12.5996 20.5664 15.2656 19.0488C17.8906 17.4902 19.5312 14.7012 19.5312 11.625ZM0.5 11.625C0.5 7.89258 2.46875 4.44727 5.75 2.56055C8.99023 0.673828 12.9688 0.673828 16.25 2.56055C19.4902 4.44727 21.5 7.89258 21.5 11.625C21.5 15.3984 19.4902 18.8438 16.25 20.7305C12.9688 22.6172 8.99023 22.6172 5.75 20.7305C2.46875 18.8438 0.5 15.3984 0.5 11.625ZM10.3848 16.5879C9.97461 16.998 9.35938 16.998 8.99023 16.5879C8.58008 16.2188 8.58008 15.6035 8.99023 15.1934L12.5586 11.625L8.99023 8.05664C8.58008 7.6875 8.58008 7.07227 8.99023 6.66211C9.35938 6.29297 9.97461 6.29297 10.3848 6.66211L14.6504 10.9688C15.0195 11.3379 15.0195 11.9531 14.6504 12.3223L10.3848 16.5879Z" fill="#454C53"/>
</svg>
