<svg width="22" height="23" viewBox="0 0 22 23" fill="none" xmlns="http://www.w3.org/2000/svg">
<path d="M2.46875 11.625C2.46875 14.7012 4.06836 17.4902 6.73438 19.0488C9.35938 20.5664 12.5996 20.5664 15.2656 19.0488C17.8906 17.4902 19.5312 14.7012 19.5312 11.625C19.5312 8.58984 17.8906 5.80078 15.2656 4.24219C12.5996 2.72461 9.35938 2.72461 6.73438 4.24219C4.06836 5.80078 2.46875 8.58984 2.46875 11.625ZM21.5 11.625C21.5 15.3984 19.4902 18.8438 16.25 20.7305C12.9688 22.6172 8.99023 22.6172 5.75 20.7305C2.46875 18.8438 0.5 15.3984 0.5 11.625C0.5 7.89258 2.46875 4.44727 5.75 2.56055C8.99023 0.673828 12.9688 0.673828 16.25 2.56055C19.4902 4.44727 21.5 7.89258 21.5 11.625ZM11.6152 6.66211V6.70312C11.9844 6.29297 12.5996 6.29297 12.9688 6.70312C13.3789 7.07227 13.3789 7.6875 12.9688 8.09766L9.40039 11.666L12.9688 15.2344C13.3789 15.6035 13.3789 16.2188 12.9688 16.5879C12.5996 16.998 11.9844 16.998 11.6152 16.5879L7.34961 12.3223C6.93945 11.9531 6.93945 11.3379 7.34961 10.9277L11.6152 6.66211Z" fill="#454C53"/>
</svg>
