<svg width="14" height="11" viewBox="0 0 14 11" fill="none" xmlns="http://www.w3.org/2000/svg">
<path d="M8.4082 3.08105C8.01855 3.24512 7.54688 3.14258 7.25977 2.81445C6.80859 2.30176 6.15234 1.95312 5.41406 1.95312C4.04004 1.95312 2.95312 3.06055 2.95312 4.41406V4.43457C2.95312 4.84473 2.68652 5.21387 2.29688 5.35742C1.51758 5.62402 0.984375 6.3623 0.984375 7.20312C0.984375 8.29004 1.86621 9.17188 2.95312 9.17188H10.3359H10.3975C10.3975 9.17188 10.418 9.17188 10.4385 9.17188C11.3818 9.13086 12.1406 8.33105 12.1406 7.36719C12.1406 6.62891 11.6895 5.99316 11.0537 5.72656C10.6436 5.54199 10.3975 5.11133 10.4795 4.66016C10.4795 4.57812 10.5 4.49609 10.5 4.41406C10.5 3.61426 9.82324 2.9375 9.02344 2.9375C8.79785 2.9375 8.59277 2.99902 8.4082 3.08105ZM10.5 10.1562H10.3359H9.51562H2.95312C1.3125 10.1562 0 8.84375 0 7.20312C0 5.93164 0.820312 4.82422 1.96875 4.43457V4.41406C1.96875 2.52734 3.50684 0.96875 5.41406 0.96875C6.43945 0.96875 7.38281 1.44043 8.01855 2.17871C8.32617 2.03516 8.6543 1.95312 9.02344 1.95312C10.377 1.95312 11.4844 3.06055 11.4844 4.41406C11.4844 4.55762 11.4639 4.68066 11.4434 4.82422C12.4277 5.25488 13.125 6.23926 13.125 7.36719C13.125 8.86426 11.9561 10.0742 10.5 10.1562Z" fill="#9EA4AA"/>
</svg>
