<svg width="20" height="21" viewBox="0 0 20 21" fill="none" xmlns="http://www.w3.org/2000/svg">
<path fill-rule="evenodd" clip-rule="evenodd" d="M10 18C14.1421 18 17.5 14.6421 17.5 10.5C17.5 6.35786 14.1421 3 10 3C5.85786 3 2.5 6.35786 2.5 10.5C2.5 14.6421 5.85786 18 10 18ZM8.3458 14.0485C8.85518 14.3142 9.41299 14.447 10.0192 14.447C10.8442 14.447 11.5396 14.2204 12.1052 13.7673C12.417 13.5175 12.7284 12.9718 12.945 12.5324C13.1127 12.1922 12.9196 11.7966 12.5552 11.6914L12.412 11.6501C12.0884 11.5567 11.7491 11.73 11.6051 12.0345C11.4862 12.2861 11.3379 12.5556 11.2005 12.6798C10.9067 12.9454 10.513 13.0782 10.0192 13.0782C9.67549 13.0782 9.36143 13.0017 9.07705 12.8485C8.79268 12.6954 8.56611 12.4657 8.39736 12.1595C8.22861 11.8532 8.14424 11.4845 8.14424 11.0532V9.85322C8.14424 9.42197 8.22861 9.05322 8.39736 8.74697C8.56611 8.44072 8.79268 8.21104 9.07705 8.05791C9.36143 7.90479 9.67549 7.82822 10.0192 7.82822C10.513 7.82822 10.9067 7.96104 11.2005 8.22666C11.3379 8.35087 11.4862 8.6203 11.6051 8.87196C11.7491 9.17645 12.0884 9.3497 12.412 9.25632L12.5552 9.215C12.9196 9.10984 13.1127 8.71421 12.945 8.37402C12.7284 7.93464 12.417 7.38897 12.1052 7.13916C11.5396 6.68604 10.8442 6.45947 10.0192 6.45947C9.41299 6.45947 8.85518 6.59229 8.3458 6.85791C7.83643 7.12354 7.43018 7.50947 7.12705 8.01572C6.82393 8.52197 6.67236 9.11572 6.67236 9.79697V11.1095C6.67236 11.797 6.82393 12.3923 7.12705 12.8954C7.43018 13.3985 7.83643 13.7829 8.3458 14.0485Z" fill="#9EA4AA"/>
</svg>
