<svg width="24" height="24" viewBox="0 0 24 24" fill="none" xmlns="http://www.w3.org/2000/svg">
<path opacity="0.4" d="M10.2 4.7999C10.9092 4.7999 11.6114 4.93958 12.2665 5.21095C12.9217 5.48233 13.517 5.88009 14.0184 6.38153C14.5198 6.88296 14.9176 7.47825 15.189 8.13341C15.4603 8.78857 15.6 9.49076 15.6 10.1999C15.6 10.909 15.4603 11.6112 15.189 12.2664C14.9176 12.9216 14.5198 13.5168 14.0184 14.0183C13.517 14.5197 12.9217 14.9175 12.2665 15.1889C11.6114 15.4602 10.9092 15.5999 10.2 15.5999C9.49089 15.5999 8.78869 15.4602 8.13353 15.1889C7.47838 14.9175 6.88308 14.5197 6.38165 14.0183C5.88021 13.5168 5.48245 12.9216 5.21107 12.2664C4.9397 11.6112 4.80002 10.909 4.80002 10.1999C4.80002 9.49076 4.9397 8.78857 5.21107 8.13341C5.48245 7.47825 5.88021 6.88296 6.38165 6.38153C6.88308 5.88009 7.47838 5.48233 8.13353 5.21095C8.78869 4.93958 9.49089 4.7999 10.2 4.7999ZM10.2 17.9999C12.2687 17.9999 14.2527 17.1781 15.7155 15.7153C17.1782 14.2526 18 12.2686 18 10.1999C18 8.13121 17.1782 6.14725 15.7155 4.68447C14.2527 3.22169 12.2687 2.3999 10.2 2.3999C8.13134 2.3999 6.14738 3.22169 4.68459 4.68447C3.22181 6.14725 2.40002 8.13121 2.40002 10.1999C2.40002 12.2686 3.22181 14.2526 4.68459 15.7153C6.14738 17.1781 8.13134 17.9999 10.2 17.9999Z" fill="#6F3AD0"/>
<path d="M14.8013 16.5L19.5525 21.2475C20.0213 21.7163 20.7825 21.7163 21.2513 21.2475C21.72 20.7788 21.72 20.0175 21.2513 19.5488L16.5 14.8013C16.0238 15.45 15.45 16.0238 14.8013 16.5Z" fill="#6F3AD0"/>
</svg>
