<svg width="16" height="22" viewBox="0 0 16 22" fill="none" xmlns="http://www.w3.org/2000/svg">
<path d="M13.125 19.1562C13.4531 19.1562 13.7812 18.8691 13.7812 18.5V6.6875H10.5C9.76172 6.6875 9.1875 6.11328 9.1875 5.375V2.09375H2.625C2.25586 2.09375 1.96875 2.42188 1.96875 2.75V18.5C1.96875 18.8691 2.25586 19.1562 2.625 19.1562H13.125ZM0 2.75C0 1.31445 1.14844 0.125 2.625 0.125H9.39258C10.0898 0.125 10.7461 0.412109 11.2383 0.904297L14.9707 4.63672C15.4629 5.12891 15.75 5.78516 15.75 6.48242V18.5C15.75 19.9766 14.5605 21.125 13.125 21.125H2.625C1.14844 21.125 0 19.9766 0 18.5V2.75Z" fill="#454C53"/>
</svg>
