<svg width="916" height="115" viewBox="0 0 916 115" fill="none" xmlns="http://www.w3.org/2000/svg">
<path fill-rule="evenodd" clip-rule="evenodd" d="M383.404 47.9509V47.704C383.404 21.4777 403.037 0 430.977 0C447.982 0 458.249 5.92489 467.079 14.362L456.666 26.357C449.289 19.5027 441.375 14.8993 430.832 14.8993C413.304 14.8993 400.395 29.3921 400.395 47.4426V47.704C400.395 65.7546 413.174 80.378 430.832 80.378C442.159 80.378 449.406 75.8908 457.32 68.5137L467.732 79.0566C458.119 89.0766 447.576 95.3936 430.309 95.3936C403.43 95.3936 383.404 74.4386 383.404 47.9509ZM0 1.58287H16.2063V39.9349H60.2218V1.58287H76.4281V93.8252H60.2218V54.9504H16.2063V93.8252H0V1.58287ZM143.359 24.2514L125.163 72.2604L106.967 24.2514H89.8317L111.179 86.8112H120.473L109.059 114.998H126.47L160.771 24.2514H143.359ZM185.995 24.2514H170.05V114.911H185.995V83.021C190.86 89.4832 198.106 95.2774 209.709 95.2774C226.177 95.2774 241.991 82.2369 241.991 59.1763V58.9149C241.991 35.7236 226.046 22.8137 209.709 22.8137C198.382 22.8137 191.136 28.6079 185.995 35.8543V24.2514ZM225.785 58.9149V59.1763C225.785 72.8848 216.694 81.4527 205.89 81.4527C195.086 81.4527 185.603 72.4928 185.603 59.1763V58.9149C185.603 45.5984 195.086 36.6385 205.89 36.6385C216.694 36.6385 225.785 45.4677 225.785 58.9149ZM249.789 59.2924V59.0311C249.789 39.1362 263.89 22.7992 283.785 22.7992C305.93 22.7992 317.127 40.1963 317.127 60.2218C317.127 61.5623 317.015 62.9028 316.895 64.3461L316.865 64.7091H265.734C267.448 76.0361 275.478 82.3676 285.76 82.3676C293.529 82.3676 299.076 79.4632 304.609 74.0611L313.961 82.3676C307.368 90.2674 298.277 95.4081 285.498 95.4081C265.342 95.4081 249.789 80.7847 249.789 59.307V59.2924ZM301.312 54.1517C300.252 43.8703 294.197 35.8398 283.654 35.8398C273.895 35.8398 267.056 43.3475 265.603 54.1517H301.312ZM344.268 24.2514H328.323V93.8398H344.268V67.3521C344.268 48.8949 354.012 39.8042 367.982 39.8042H368.911V22.9299C356.655 22.4071 348.61 29.5228 344.268 39.9349V24.2514ZM494.612 1.58287H478.405H478.391V93.8252H543.1V79.0711H494.612V1.58287ZM544.305 47.9654V47.704C544.305 21.7391 564.331 0 592.663 0C620.995 0 640.759 21.4777 640.759 47.4426V47.704C640.759 73.669 620.733 95.4081 592.401 95.4081C564.07 95.4081 544.305 73.9304 544.305 47.9654ZM623.769 47.9509V47.704C623.769 29.7842 610.728 14.8848 592.401 14.8848C574.075 14.8848 561.296 29.5083 561.296 47.4281V47.6895C561.296 65.6094 574.336 80.3635 592.663 80.3635C610.989 80.3635 623.769 65.8708 623.769 47.9509ZM656.835 1.58287H638.915L677.252 94.4787H691.614L729.836 1.58287H712.308L684.644 72.4782L656.835 1.58287ZM755.931 0.929415H770.947L811.535 93.8252H794.399L785.047 71.5488H741.424L731.941 93.8252H715.343L755.931 0.929415ZM779.122 57.2013L763.178 20.3015L747.363 57.2013H779.122ZM878.771 40.5884L915.54 93.8252H897.707L874.516 60.2363L851.31 93.8252H833.492L865.6 47.3265L833.55 0.914879H851.383L874.516 34.4166L897.649 0.914879H915.482L892.305 34.4602L887.949 40.5884H878.771Z" fill="url(#paint0_linear_6_952)"/>
<defs>
<linearGradient id="paint0_linear_6_952" x1="19.9965" y1="47.37" x2="885.64" y2="47.37" gradientUnits="userSpaceOnUse">
<stop stop-color="#FF0088"/>
<stop offset="0.53" stop-color="#A94EFF"/>
<stop offset="1" stop-color="#00CFFF"/>
</linearGradient>
</defs>
</svg>
