<svg width="24" height="24" viewBox="0 0 24 24" fill="none" xmlns="http://www.w3.org/2000/svg">
<path fill-rule="evenodd" clip-rule="evenodd" d="M20.0612 23H4.93866C4.42206 23 4 22.5561 4 22.0136V22.0091C4 22.0091 4 3.11822 4 1.98694C4 1.44444 4.42206 1 4.93866 1H16L21 6V22.0136C21 22.5561 20.5774 23 20.0612 23Z" fill="#B4B6B8"/>
<path fill-rule="evenodd" clip-rule="evenodd" d="M16 5.06419C16 5.57872 16.4209 6 16.9358 6H21L16 1C16 1 16 4.75244 16 5.06419Z" fill="#8C8C8C"/>
<path fill-rule="evenodd" clip-rule="evenodd" d="M8.01797 8C8.88945 8 9.62696 8.57178 9.7751 9.60134L9.7887 9.7134H8.91483C8.85733 9.24004 8.46639 8.88003 8.01797 8.88003C7.20733 8.88003 6.90263 9.68006 6.90263 10.5134C6.90263 11.3068 7.20733 12.1068 8.01797 12.1068C8.54228 12.1068 8.84868 11.7097 8.93717 11.1327L8.94933 11.0401H9.8232C9.7312 12.2268 9.02406 12.9869 8.01797 12.9869C6.74739 12.9869 6 11.8868 6 10.5134C6 9.10004 6.74739 8 8.01797 8ZM12.4418 8C13.3617 8 14.21 8.40584 14.2638 9.42901L14.2665 9.53339H13.2967C13.2648 8.96004 12.8756 8.81337 12.3971 8.81337C12.0781 8.81337 11.708 8.95337 11.708 9.35338C11.708 9.65458 11.8544 9.73986 12.5397 9.93069L13.2391 10.1188C13.661 10.2371 14.4196 10.5291 14.4196 11.4601C14.4196 12.3335 13.7624 12.9869 12.5247 12.9869C11.5481 12.9869 10.6314 12.4988 10.5867 11.4016L10.5851 11.2935H11.5549C11.5549 11.9268 12.027 12.1735 12.563 12.1735C12.9139 12.1735 13.4498 12.0668 13.4498 11.5801C13.4498 11.0668 12.7671 10.9801 12.0972 10.7934L11.9413 10.7486C11.3199 10.561 10.7382 10.2647 10.7382 9.44005C10.7382 8.46668 11.6187 8 12.4418 8ZM16.1495 8.00205L17.0894 11.5052H17.1012L18.053 8.00205H19.0107L17.6096 12.9847H16.5633L15.1918 8.00205H16.1495Z" fill="white"/>
</svg>
