<svg width="24" height="24" viewBox="0 0 24 24" fill="none" xmlns="http://www.w3.org/2000/svg">
<path d="M19.0312 8.65625C19.0312 10.2866 17.7085 11.6094 16.0781 11.6094C15.186 11.6094 14.3862 11.2402 13.8325 10.5942L11.064 11.9785C11.1255 12.1938 11.1562 12.4092 11.1562 12.5938C11.1562 12.8091 11.1255 13.0244 11.064 13.2397L13.8325 14.5933C14.3862 13.978 15.186 13.5781 16.0781 13.5781C17.7085 13.5781 19.0312 14.9009 19.0312 16.5312C19.0312 18.1616 17.7085 19.4844 16.0781 19.4844C14.4478 19.4844 13.125 18.1616 13.125 16.5312C13.125 16.3467 13.125 16.1313 13.1865 15.916L10.418 14.5317C9.86426 15.1777 9.06445 15.5469 8.20312 15.5469C6.57275 15.5469 5.25 14.2241 5.25 12.5938C5.25 10.9634 6.57275 9.64062 8.20312 9.64062C9.06445 9.64062 9.86426 10.0405 10.418 10.6558L13.1865 9.30225C13.125 9.08691 13.125 8.87158 13.125 8.65625C13.125 7.02588 14.4478 5.70312 16.0781 5.70312C17.7085 5.70312 19.0312 7.02588 19.0312 8.65625ZM8.20312 14.0703C8.72607 14.0703 9.1875 13.7935 9.46436 13.332C9.74121 12.9014 9.74121 12.3169 9.46436 11.8555C9.1875 11.4248 8.72607 11.1172 8.20312 11.1172C7.64941 11.1172 7.18799 11.4248 6.91113 11.8555C6.63428 12.3169 6.63428 12.9014 6.91113 13.332C7.18799 13.7935 7.64941 14.0703 8.20312 14.0703ZM17.5547 8.65625C17.5547 8.1333 17.2471 7.67188 16.8164 7.39502C16.355 7.11816 15.7705 7.11816 15.3398 7.39502C14.8784 7.67188 14.6016 8.1333 14.6016 8.65625C14.6016 9.20996 14.8784 9.67139 15.3398 9.94824C15.7705 10.2251 16.355 10.2251 16.8164 9.94824C17.2471 9.67139 17.5547 9.20996 17.5547 8.65625ZM16.0781 18.0078C16.6011 18.0078 17.0625 17.731 17.3394 17.2695C17.6162 16.8389 17.6162 16.2544 17.3394 15.793C17.0625 15.3623 16.6011 15.0547 16.0781 15.0547C15.5244 15.0547 15.063 15.3623 14.7861 15.793C14.5093 16.2544 14.5093 16.8389 14.7861 17.2695C15.063 17.731 15.5244 18.0078 16.0781 18.0078Z" fill="#454C53"/>
</svg>
