<svg width="32" height="33" viewBox="0 0 32 33" fill="none" xmlns="http://www.w3.org/2000/svg">
<path d="M16 26.625C12.2266 26.625 8.78125 24.6562 6.89453 21.375C5.00781 18.1348 5.00781 14.1562 6.89453 10.875C8.78125 7.63477 12.2266 5.625 16 5.625C19.7324 5.625 23.1777 7.63477 25.0645 10.875C26.9512 14.1562 26.9512 18.1348 25.0645 21.375C23.1777 24.6562 19.7324 26.625 16 26.625ZM20.6348 14.1973H20.5938C21.0039 13.8281 21.0039 13.2129 20.5938 12.8027C20.2246 12.4336 19.6094 12.4336 19.2402 12.8027L14.6875 17.3965L12.7598 15.4688C12.3496 15.0586 11.7344 15.0586 11.3652 15.4688C10.9551 15.8379 10.9551 16.4531 11.3652 16.8223L13.9902 19.4473C14.3594 19.8574 14.9746 19.8574 15.3848 19.4473L20.6348 14.1973Z" fill="#6F3AD0"/>
</svg>
