<svg width="24" height="24" viewBox="0 0 24 24" fill="none" xmlns="http://www.w3.org/2000/svg">
<path d="M8.09479 18.8235L7.18611 15.7601C6.81627 14.9303 6.39137 14.2833 5.50834 14.0097L3.72235 13.6289C3.35103 13.5292 3.08936 13.1592 3.08936 12.7339C3.08936 12.3086 3.35103 11.9386 3.72235 11.839L5.50834 11.4581C6.56575 11.1506 6.85917 10.6252 7.18611 9.81563L8.09479 6.6767C8.33332 6.21864 8.59341 5.99312 8.87507 6.00016L8.99446 6.01138C9.2306 6.0623 9.45089 6.28407 9.65534 6.6767L10.564 9.81563C10.891 10.6252 11.1844 11.1506 12.2418 11.4581L14.0278 11.839C14.3991 11.9386 14.6608 12.3086 14.6608 12.7339C14.6608 13.1592 14.3991 13.5292 14.0278 13.6289L12.2418 14.0097C11.3588 14.2833 10.9339 14.9303 10.564 15.7601L9.65534 18.8235C9.50251 19.2745 9.24242 19.5 8.87507 19.5C8.50772 19.5 8.24763 19.2745 8.09479 18.8235Z" fill="#6F3AD0"/>
<path opacity="0.6" d="M17.0096 11.9616L16.4697 10.0895C16.2499 9.58238 15.9975 9.18699 15.4728 9.0198L14.4117 8.78709C14.1911 8.72618 14.0356 8.5001 14.0356 8.24017C14.0356 7.98024 14.1911 7.75415 14.4117 7.69325L15.4728 7.46054C16.1011 7.2726 16.2754 6.95149 16.4697 6.45677L17.0096 4.53854C17.1513 4.25861 17.3058 4.1208 17.4731 4.1251L17.5441 4.13196C17.6844 4.16307 17.8153 4.2986 17.9367 4.53854L18.4766 6.45677C18.6709 6.95149 18.8452 7.2726 19.4734 7.46054L20.5346 7.69325C20.7552 7.75415 20.9106 7.98024 20.9106 8.24017C20.9106 8.5001 20.7552 8.72618 20.5346 8.78709L19.4734 9.0198C18.9488 9.18699 18.6963 9.58238 18.4766 10.0895L17.9367 11.9616C17.8459 12.2372 17.6914 12.375 17.4731 12.375C17.2549 12.375 17.1004 12.2372 17.0096 11.9616Z" fill="#6F3AD0"/>
<path opacity="0.3" d="M16.4281 19.6119L16.0846 18.4206C15.9447 18.0979 15.7841 17.8463 15.4502 17.7399L14.775 17.5918C14.6346 17.553 14.5356 17.4092 14.5356 17.2437C14.5356 17.0783 14.6346 16.9345 14.775 16.8957L15.4502 16.7476C15.85 16.628 15.961 16.4237 16.0846 16.1089L16.4281 14.8882C16.5183 14.71 16.6167 14.6223 16.7231 14.6251L16.7683 14.6294C16.8576 14.6492 16.9409 14.7355 17.0182 14.8882L17.3617 16.1089C17.4853 16.4237 17.5963 16.628 17.9961 16.7476L18.6713 16.8957C18.8117 16.9345 18.9106 17.0783 18.9106 17.2437C18.9106 17.4092 18.8117 17.553 18.6713 17.5918L17.9961 17.7399C17.6622 17.8463 17.5015 18.0979 17.3617 18.4206L17.0182 19.6119C16.9604 19.7873 16.862 19.875 16.7231 19.875C16.5843 19.875 16.4859 19.7873 16.4281 19.6119Z" fill="#6F3AD0"/>
</svg>
