<svg width="24" height="24" viewBox="0 0 24 24" fill="none" xmlns="http://www.w3.org/2000/svg">
<path d="M7.96875 18.6172H15.8438C16.0898 18.6172 16.3359 18.4019 16.3359 18.125V9.26562H13.875C13.3213 9.26562 12.8906 8.83496 12.8906 8.28125V5.82031H7.96875C7.69189 5.82031 7.47656 6.06641 7.47656 6.3125V18.125C7.47656 18.4019 7.69189 18.6172 7.96875 18.6172ZM7.96875 4.34375H13.0444C13.5674 4.34375 14.0596 4.55908 14.4287 4.92822L17.228 7.72754C17.5972 8.09668 17.8125 8.58887 17.8125 9.11182V18.125C17.8125 19.2324 16.9204 20.0938 15.8438 20.0938H7.96875C6.86133 20.0938 6 19.2324 6 18.125V6.3125C6 5.23584 6.86133 4.34375 7.96875 4.34375ZM9.69141 12.2188H14.1211C14.521 12.2188 14.8594 12.5571 14.8594 12.957C14.8594 13.3877 14.521 13.6953 14.1211 13.6953H9.69141C9.26074 13.6953 8.95312 13.3877 8.95312 12.957C8.95312 12.5571 9.26074 12.2188 9.69141 12.2188ZM9.69141 15.1719H14.1211C14.521 15.1719 14.8594 15.5103 14.8594 15.9102C14.8594 16.3408 14.521 16.6484 14.1211 16.6484H9.69141C9.26074 16.6484 8.95312 16.3408 8.95312 15.9102C8.95312 15.5103 9.26074 15.1719 9.69141 15.1719Z" fill="#454C53"/>
</svg>
