<svg width="24" height="24" viewBox="0 0 24 24" fill="none" xmlns="http://www.w3.org/2000/svg">
<path fill-rule="evenodd" clip-rule="evenodd" d="M20.0611 23H4.93862C4.42207 23 4 22.5561 4 22.0136V22.0091C4 22.0091 4 2.89207 4 1.98693C4 1.44444 4.42207 1 4.93862 1H15.9853L20.9966 6.00227L21 22.0136C21 22.5561 20.5772 23 20.0611 23Z" fill="#FD8900"/>
<path fill-rule="evenodd" clip-rule="evenodd" d="M16 5.06419C16 5.57875 16.4209 6 16.9358 6H21L16 1C16 1 16 4.63062 16 5.06419Z" fill="#BD4100"/>
<path fill-rule="evenodd" clip-rule="evenodd" d="M7.00182 13.0081L15.9888 13.0174V13.9951L7.00182 13.9961V13.0081ZM15.9994 10.0034V10.9927H12.0047V10.0034H15.9994ZM8.98704 7.00115V8.99372H10.9804C10.9805 10.0986 10.0894 10.9919 8.99022 10.9919C7.89107 10.9919 7 10.0986 7 8.99655C7 7.94463 7.81191 7.08283 8.84169 7.00666L8.98704 7.00115ZM15.9994 7V7.98807H12.0047V7H15.9994Z" fill="white"/>
</svg>
