<svg width="24" height="24" viewBox="0 0 24 24" fill="none" xmlns="http://www.w3.org/2000/svg">
<path fill-rule="evenodd" clip-rule="evenodd" d="M22 5.0056V19.9648C22 20.3866 21.7349 20.7495 21.358 20.9108C21.3525 20.9126 21.3478 20.9161 21.343 20.9183C21.3126 20.9303 21.2804 20.9367 21.2489 20.9467C21.213 20.9577 21.1789 20.9716 21.1412 20.9787C21.1288 20.9815 21.1145 20.9808 21.1013 20.9829C21.0442 20.9922 20.9863 21 20.9263 21H3.07886H3.07374C2.48267 21 2 20.5348 2 19.9658V2.84155C2 2.37671 2.39074 2 2.87379 2H11.6264C12.0754 2 12.2479 2.30596 12.4121 2.64483L13.1131 3.97143H20.9204H20.9263C21.5163 3.97143 22 4.43626 22 5.0056Z" fill="#ECA909"/>
<path fill-rule="evenodd" clip-rule="evenodd" d="M3.0512 7L21.1492 7.00524C21.6195 7.00524 22 7.38927 22 7.8631V20.9458C22 21.5258 21.53 22 20.9545 22H20.9495H3.04588C2.98701 22 2.93068 21.992 2.87507 21.9826C2.8622 21.9804 2.8483 21.9812 2.83617 21.9783C2.79948 21.971 2.76629 21.9569 2.73133 21.9457C2.70067 21.9355 2.6693 21.929 2.63974 21.9167C2.63509 21.9145 2.63045 21.9109 2.62509 21.9091C2.25816 21.7446 2 21.3747 2 20.9458V8.05422C2 7.47384 2.47104 7 3.0455 7H3.0512Z" fill="#FFC900"/>
<path fill-rule="evenodd" clip-rule="evenodd" d="M8.25004 15.5097C8.49769 15.5097 8.73598 15.5451 8.95881 15.6108C8.55692 16.1178 8.31075 16.7388 8.27899 17.4195L8.27549 17.5663L8.275 18.0092L6 18.0098V17.5518C6.00143 16.398 7.00838 15.5097 8.25004 15.5097ZM15.75 15.5097C16.9564 15.5097 17.9409 16.3479 17.9974 17.4529L18 17.554V18.0098L15.4315 18.0092L15.4326 17.5699C15.4326 16.8666 15.2049 16.2212 14.8122 15.6915C15.0972 15.5744 15.415 15.5097 15.75 15.5097ZM11.75 15.0097C13.2312 15.0097 14.4387 16.075 14.4977 17.4763L14.5 17.5848V18.0098H9V17.5819C9.00165 16.1286 10.2324 15.0097 11.75 15.0097ZM15.8601 11.846C16.5454 11.846 17.1012 12.4104 17.1012 13.1069C17.1012 13.8033 16.5454 15.0403 15.8601 15.0403C15.1746 15.0403 14.6192 13.8033 14.6192 13.1069C14.6192 12.4104 15.1746 11.846 15.8601 11.846ZM8.12028 11.846C8.80571 11.846 9.36153 12.4104 9.36153 13.1069C9.36153 13.8033 8.80571 15.0403 8.12028 15.0403C7.43492 15.0403 6.87946 13.8033 6.87946 13.1069C6.87946 12.4104 7.43492 11.846 8.12028 11.846ZM11.9869 10C12.9056 10 13.6506 10.7472 13.6506 11.6691C13.6506 12.591 12.9056 14.2283 11.9869 14.2283C11.0681 14.2283 10.3235 12.591 10.3235 11.6691C10.3235 10.7472 11.0681 10 11.9869 10Z" fill="#E59A0C"/>
</svg>
