<svg width="22" height="22" viewBox="0 0 22 22" fill="none" xmlns="http://www.w3.org/2000/svg">
<title>ico_toast_new_success</title>
<path d="M11 2.09375C7.92383 2.09375 5.13477 3.73438 3.57617 6.35938C2.05859 9.02539 2.05859 12.2656 3.57617 14.8906C5.13477 17.5566 7.92383 19.1562 11 19.1562C14.0352 19.1562 16.8242 17.5566 18.3828 14.8906C19.9004 12.2656 19.9004 9.02539 18.3828 6.35938C16.8242 3.73438 14.0352 2.09375 11 2.09375ZM11 21.125C7.22656 21.125 3.78125 19.1562 1.89453 15.875C0.0078125 12.6348 0.0078125 8.65625 1.89453 5.375C3.78125 2.13477 7.22656 0.125 11 0.125C14.7324 0.125 18.1777 2.13477 20.0645 5.375C21.9512 8.65625 21.9512 12.6348 20.0645 15.875C18.1777 19.1562 14.7324 21.125 11 21.125ZM15.6348 8.69727L10.3848 13.9473C9.97461 14.3574 9.35938 14.3574 8.99023 13.9473L6.36523 11.3223C5.95508 10.9531 5.95508 10.3379 6.36523 9.96875C6.73438 9.55859 7.34961 9.55859 7.75977 9.96875L9.6875 11.8965L14.2402 7.34375C14.6094 6.93359 15.2246 6.93359 15.6348 7.34375C16.0039 7.71289 16.0039 8.32812 15.6348 8.69727Z" fill="#51B41B"/>
</svg>
