<svg width="20" height="20" viewBox="0 0 20 20" fill="none" xmlns="http://www.w3.org/2000/svg">
<path fill-rule="evenodd" clip-rule="evenodd" d="M10 17.5C14.1421 17.5 17.5 14.1421 17.5 10C17.5 5.85786 14.1421 2.5 10 2.5C5.85786 2.5 2.5 5.85786 2.5 10C2.5 14.1421 5.85786 17.5 10 17.5ZM8.3458 13.5485C8.85518 13.8142 9.41299 13.947 10.0192 13.947C10.8442 13.947 11.5396 13.7204 12.1052 13.2673C12.417 13.0175 12.7284 12.4718 12.945 12.0324C13.1127 11.6922 12.9196 11.2966 12.5552 11.1914L12.412 11.1501C12.0884 11.0567 11.7491 11.23 11.6051 11.5345C11.4862 11.7861 11.3379 12.0556 11.2005 12.1798C10.9067 12.4454 10.513 12.5782 10.0192 12.5782C9.67549 12.5782 9.36143 12.5017 9.07705 12.3485C8.79268 12.1954 8.56611 11.9657 8.39736 11.6595C8.22861 11.3532 8.14424 10.9845 8.14424 10.5532V9.35322C8.14424 8.92197 8.22861 8.55322 8.39736 8.24697C8.56611 7.94072 8.79268 7.71104 9.07705 7.55791C9.36143 7.40479 9.67549 7.32822 10.0192 7.32822C10.513 7.32822 10.9067 7.46104 11.2005 7.72666C11.3379 7.85087 11.4862 8.1203 11.6051 8.37196C11.7491 8.67645 12.0884 8.8497 12.412 8.75632L12.5552 8.715C12.9196 8.60984 13.1127 8.21421 12.945 7.87402C12.7284 7.43464 12.417 6.88897 12.1052 6.63916C11.5396 6.18604 10.8442 5.95947 10.0192 5.95947C9.41299 5.95947 8.85518 6.09229 8.3458 6.35791C7.83643 6.62354 7.43018 7.00947 7.12705 7.51572C6.82393 8.02197 6.67236 8.61572 6.67236 9.29697V10.6095C6.67236 11.297 6.82393 11.8923 7.12705 12.3954C7.43018 12.8985 7.83643 13.2829 8.3458 13.5485Z" fill="#9EA4AA"/>
</svg>
