<svg width="24" height="24" viewBox="0 0 24 24" fill="none" xmlns="http://www.w3.org/2000/svg">
<path d="M5.21533 12.6475C5.06152 12.4937 5 12.3091 5 12.0938C5 11.9092 5.06152 11.7246 5.21533 11.5708L10.6294 6.40283C10.937 6.12598 11.3984 6.12598 11.6753 6.43359C11.9521 6.71045 11.9521 7.20264 11.6445 7.47949L7.55322 11.3555H18.043C18.4429 11.3555 18.7812 11.6938 18.7812 12.0938C18.7812 12.5244 18.4429 12.832 18.043 12.832H7.55322L11.6445 16.7388C11.9521 17.0156 11.9521 17.4771 11.6753 17.7847C11.3984 18.0923 10.937 18.0923 10.6294 17.8154L5.21533 12.6475Z" fill="#454C53"/>
</svg>
