<?xml version="1.0" encoding="UTF-8"?>
<svg width="16px" height="16px" viewBox="0 0 16 16" version="1.1" xmlns="http://www.w3.org/2000/svg" xmlns:xlink="http://www.w3.org/1999/xlink">
    <title>ico_credit</title>
    <g id="Symbols" stroke="none" stroke-width="1" fill="none" fill-rule="evenodd">
        <g id="Group-3">
            <circle id="Oval" fill="#FED460" cx="8" cy="8" r="8"></circle>
            <path d="M8.02,12.21 C7.37333333,12.21 6.77833333,12.0683333 6.235,11.785 C5.69166667,11.5016667 5.25833333,11.0916667 4.935,10.555 C4.61166667,10.0183333 4.45,9.38333333 4.45,8.65 L4.45,7.25 C4.45,6.52333333 4.61166667,5.89 4.935,5.35 C5.25833333,4.81 5.69166667,4.39833333 6.235,4.115 C6.77833333,3.83166667 7.37333333,3.69 8.02,3.69 C8.9,3.69 9.64166667,3.93166667 10.245,4.415 C10.5553082,4.66358941 10.8652857,5.11818005 11.1749325,5.77877192 C11.31658,6.0783504 11.1862363,6.43518899 10.8857514,6.57488681 C10.8583091,6.58764496 10.8299409,6.59830861 10.8010352,6.60728516 L10.480918,6.69966797 C10.1916758,6.78327654 9.8851755,6.63975487 9.76484233,6.36376282 C9.59379293,5.97552945 9.43217882,5.71260851 9.28,5.575 C8.96666667,5.29166667 8.54666667,5.15 8.02,5.15 C7.65333333,5.15 7.31833333,5.23166667 7.015,5.395 C6.71166667,5.55833333 6.47,5.80333333 6.29,6.13 C6.11,6.45666667 6.02,6.85 6.02,7.31 L6.02,8.59 C6.02,9.05 6.11,9.44333333 6.29,9.77 C6.47,10.0966667 6.71166667,10.3416667 7.015,10.505 C7.31833333,10.6683333 7.65333333,10.75 8.02,10.75 C8.54666667,10.75 8.96666667,10.6083333 9.28,10.325 C9.43217882,10.1873915 9.59379293,9.92447055 9.76484233,9.53623718 C9.8851755,9.26024513 10.1916758,9.11672346 10.480918,9.20033203 L10.8010352,9.29271484 C11.1189922,9.38604349 11.3016117,9.71917013 11.2087818,10.0372727 C11.2003039,10.066324 11.1896403,10.0946922 11.1749325,10.1212281 C10.8652857,10.78182 10.5553082,11.2364106 10.245,11.485 C9.64166667,11.9683333 8.9,12.21 8.02,12.21 Z" id="Path" fill="#CE7700" fill-rule="nonzero"></path>
        </g>
    </g>
</svg>