<svg width="36" height="36" viewBox="0 0 36 36" fill="none" xmlns="http://www.w3.org/2000/svg">
<path fill-rule="evenodd" clip-rule="evenodd" d="M35.3903 22.6625C35.788 21.1754 36 19.6125 36 18C36 8.05887 27.9411 0 18 0C8.05887 0 0 8.05887 0 18C0 27.9411 8.05887 36 18 36C19.6125 36 21.1754 35.788 22.6625 35.3903C21.0183 33.7596 20 31.4987 20 29C20 24.0294 24.0294 20 29 20C31.4987 20 33.7596 21.0183 35.3903 22.6625Z" fill="url(#paint0_linear_1360_33288)"/>
<path d="M24.7055 10.0238L7.15714 14.1536C6.30526 14.3975 6.0801 15.5282 6.87736 15.9187L12.4834 19.1021L21.4382 13.8248L14.6861 21.7272L16.8477 27.8009C17.1627 28.5961 18.2465 28.6285 18.5766 27.7628L25.6909 11.1982C25.9992 10.5863 25.4196 9.89548 24.7055 10.0238Z" fill="white"/>
<path d="M36 29C36 32.866 32.866 36 29 36C25.134 36 22 32.866 22 29C22 25.134 25.134 22 29 22C32.866 22 36 25.134 36 29Z" fill="#9D75EC"/>
<path d="M29.0174 32.6838C28.4516 32.6838 27.931 32.5598 27.4556 32.3119C26.9801 32.064 26.601 31.7052 26.3181 31.2356C26.0351 30.7661 25.8937 30.2104 25.8937 29.5688V28.3438C25.8937 27.7079 26.0351 27.1538 26.3181 26.6813C26.601 26.2088 26.9801 25.8486 27.4556 25.6006C27.931 25.3527 28.4516 25.2288 29.0174 25.2288C29.7874 25.2288 30.4364 25.4402 30.9643 25.8631C31.2732 26.1106 31.5816 26.669 31.7843 27.0899C31.9187 27.3689 31.7612 27.6918 31.4636 27.7777L31.1837 27.8585C30.9194 27.9347 30.6417 27.7937 30.527 27.5437C30.4117 27.2922 30.2597 27.0046 30.1199 26.8781C29.8458 26.6302 29.4783 26.5063 29.0174 26.5063C28.6966 26.5063 28.4035 26.5777 28.1381 26.7206C27.8726 26.8636 27.6612 27.0779 27.5037 27.3638C27.3462 27.6496 27.2674 27.9938 27.2674 28.3963V29.5163C27.2674 29.9188 27.3462 30.2629 27.5037 30.5488C27.6612 30.8346 27.8726 31.049 28.1381 31.1919C28.4035 31.3348 28.6966 31.4063 29.0174 31.4063C29.4783 31.4063 29.8458 31.2823 30.1199 31.0344C30.2597 30.908 30.4117 30.6203 30.527 30.3688C30.6417 30.1188 30.9194 29.9778 31.1837 30.054L31.4636 30.1348C31.7612 30.2207 31.9187 30.5436 31.7843 30.8226C31.5816 31.2435 31.2732 31.8019 30.9643 32.0494C30.4364 32.4723 29.7874 32.6838 29.0174 32.6838Z" fill="#EDE5FE"/>
<defs>
<linearGradient id="paint0_linear_1360_33288" x1="36" y1="18" x2="0" y2="18" gradientUnits="userSpaceOnUse">
<stop stop-color="#A86CEA"/>
<stop offset="1" stop-color="#6F3AD0"/>
</linearGradient>
</defs>
</svg>
