<svg width="24" height="24" viewBox="0 0 24 24" fill="none" xmlns="http://www.w3.org/2000/svg">
<circle cx="11.7119" cy="12" r="9.375" fill="#9D75EC" stroke="white" stroke-width="0.75"/>
<path d="M11.7345 16.7364C11.007 16.7364 10.3376 16.577 9.72639 16.2582C9.11514 15.9395 8.62764 15.4782 8.26389 14.8745C7.90014 14.2707 7.71826 13.5564 7.71826 12.7314V11.1564C7.71826 10.3389 7.90014 9.62637 8.26389 9.01887C8.62764 8.41137 9.11514 7.94824 9.72639 7.62949C10.3376 7.31074 11.007 7.15137 11.7345 7.15137C12.7245 7.15137 13.5589 7.42324 14.2376 7.96699C14.6348 8.28513 15.0313 9.00316 15.2919 9.54423C15.4647 9.90301 15.2622 10.3182 14.8796 10.4286L14.5197 10.5324C14.18 10.6305 13.8229 10.4492 13.6755 10.1277C13.5271 9.80434 13.3318 9.43454 13.152 9.27199C12.7995 8.95324 12.327 8.79387 11.7345 8.79387C11.322 8.79387 10.9451 8.88574 10.6039 9.06949C10.2626 9.25324 9.99076 9.52887 9.78826 9.89637C9.58576 10.2639 9.48451 10.7064 9.48451 11.2239V12.6639C9.48451 13.1814 9.58576 13.6239 9.78826 13.9914C9.99076 14.3589 10.2626 14.6345 10.6039 14.8182C10.9451 15.002 11.322 15.0939 11.7345 15.0939C12.327 15.0939 12.7995 14.9345 13.152 14.6157C13.3318 14.4532 13.5271 14.0834 13.6755 13.76C13.8229 13.4386 14.18 13.2573 14.5197 13.3553L14.8796 13.4592C15.2622 13.5696 15.4647 13.9847 15.2919 14.3435C15.0313 14.8846 14.6348 15.6026 14.2376 15.9207C13.5589 16.4645 12.7245 16.7364 11.7345 16.7364Z" fill="#EDE5FE"/>
</svg>
