<svg width="48" height="48" viewBox="0 0 48 48" fill="none" xmlns="http://www.w3.org/2000/svg">
<circle cx="37.5" cy="33" r="9.1875" stroke="#454C53" stroke-width="2.625"/>
<path fill-rule="evenodd" clip-rule="evenodd" d="M36.2349 34.2635H33.9635C33.2353 34.2635 32.6992 33.7274 32.6992 32.9992C32.6992 32.3195 33.2272 31.7349 33.9635 31.7349H36.2349V29.4635C36.2349 28.7838 36.7629 28.1992 37.4992 28.1992C38.1872 28.1992 38.7635 28.7755 38.7635 29.4635V31.7349H41.0349C41.7229 31.7349 42.2992 32.3112 42.2992 32.9992C42.2992 33.7355 41.7147 34.2635 41.0349 34.2635H38.7635V36.5349C38.7635 37.2713 38.179 37.7992 37.4992 37.7992C36.771 37.7992 36.2349 37.2631 36.2349 36.5349V34.2635Z" fill="#454C53"/>
<path fill-rule="evenodd" clip-rule="evenodd" d="M9.45312 14.4375C9.45312 13.9453 9.88379 13.4531 10.4375 13.4531H38C38.4922 13.4531 38.9844 13.9453 38.9844 14.4375V21.0909C40.0149 21.218 41.005 21.4758 41.9375 21.8472V14.4375C41.9375 12.2842 40.1533 10.5 38 10.5H10.4375C8.22266 10.5 6.5 12.2842 6.5 14.4375V30.1875C6.5 32.4023 8.22266 34.125 10.4375 34.125H12.4062H18.8047H23.2344H25.552C25.5176 33.7546 25.5 33.3794 25.5 33C25.5 29.6971 26.8344 26.7058 28.9935 24.536L25.4023 19.0518C25.0947 18.6826 24.6641 18.375 24.1719 18.375C23.6182 18.375 23.1875 18.6826 22.8799 19.0518L17.7734 26.8652L15.9893 24.4043C15.6816 24.0352 15.251 23.7891 14.8203 23.7891C14.3281 23.7891 13.8975 24.0352 13.5898 24.4043L9.45312 30.0221V14.4375ZM18.3125 18.375C18.3125 17.3291 17.3896 16.4062 16.3438 16.4062C15.2363 16.4062 14.375 17.3291 14.375 18.375C14.375 19.4824 15.2363 20.3438 16.3438 20.3438C17.3896 20.3438 18.3125 19.4824 18.3125 18.375Z" fill="#454C53"/>
</svg>
