<svg width="16" height="16" viewBox="0 0 16 16" fill="none" xmlns="http://www.w3.org/2000/svg">
<circle cx="8" cy="8" r="8" fill="#9D75EC"/>
<path d="M8.01995 12.2099C7.37328 12.2099 6.77828 12.0683 6.23495 11.7849C5.69162 11.5016 5.25828 11.0916 4.93495 10.5549C4.61162 10.0183 4.44995 9.38328 4.44995 8.64994V7.24994C4.44995 6.52327 4.61162 5.88994 4.93495 5.34994C5.25828 4.80994 5.69162 4.39827 6.23495 4.11494C6.77828 3.83161 7.37328 3.68994 8.01995 3.68994C8.89995 3.68994 9.64162 3.93161 10.245 4.41494C10.598 4.69773 10.9504 5.33598 11.1821 5.81693C11.3357 6.13585 11.1557 6.50486 10.8156 6.60302L10.4957 6.69533C10.1937 6.78249 9.87627 6.62133 9.74523 6.33559C9.6134 6.04814 9.43974 5.71943 9.27995 5.57494C8.96662 5.29161 8.54662 5.14994 8.01995 5.14994C7.65328 5.14994 7.31828 5.23161 7.01495 5.39494C6.71162 5.55827 6.46995 5.80327 6.28995 6.12994C6.10995 6.45661 6.01995 6.84994 6.01995 7.30994V8.58994C6.01995 9.04994 6.10995 9.44327 6.28995 9.76994C6.46995 10.0966 6.71162 10.3416 7.01495 10.5049C7.31828 10.6683 7.65328 10.7499 8.01995 10.7499C8.54662 10.7499 8.96662 10.6083 9.27995 10.3249C9.43974 10.1805 9.6134 9.85174 9.74523 9.56429C9.87627 9.27856 10.1937 9.11739 10.4957 9.20455L10.8156 9.29686C11.1557 9.39502 11.3357 9.76404 11.1821 10.083C10.9504 10.5639 10.598 11.2021 10.245 11.4849C9.64162 11.9683 8.89995 12.2099 8.01995 12.2099Z" fill="#EDE5FE"/>
</svg>
