<svg width="24" height="24" viewBox="0 0 24 24" fill="none" xmlns="http://www.w3.org/2000/svg">
<path fill-rule="evenodd" clip-rule="evenodd" d="M20.0611 23H4.93862C4.42207 23 4 22.5561 4 22.0136V22.0091C4 22.0091 4 2.89207 4 1.98693C4 1.44444 4.42207 1 4.93862 1H15.9853L20.9966 6.00227L21 22.0136C21 22.5561 20.5772 23 20.0611 23Z" fill="#FD8900"/>
<mask id="mask0_535_72301" style="mask-type:luminance" maskUnits="userSpaceOnUse" x="4" y="1" width="17" height="22">
<path fill-rule="evenodd" clip-rule="evenodd" d="M20.0611 23H4.93862C4.42207 23 4 22.5561 4 22.0136V22.0091C4 22.0091 4 2.89207 4 1.98693C4 1.44444 4.42207 1 4.93862 1H15.9853L20.9966 6.00227L21 22.0136C21 22.5561 20.5772 23 20.0611 23Z" fill="white"/>
</mask>
<g mask="url(#mask0_535_72301)">
<path fill-rule="evenodd" clip-rule="evenodd" d="M7.00182 13.0081L15.9888 13.0174V13.9951L7.00182 13.9961V13.0081ZM15.9994 10.0034V10.9927H12.0047V10.0034H15.9994ZM8.98704 7.00115V8.99372H10.9804C10.9805 10.0986 10.0894 10.9919 8.99022 10.9919C7.89107 10.9919 7 10.0986 7 8.99655C7 7.94463 7.81191 7.08283 8.84169 7.00666L8.98704 7.00115ZM15.9994 7V7.98807H12.0047V7H15.9994Z" fill="white"/>
<path fill-rule="evenodd" clip-rule="evenodd" d="M16 5.06419C16 5.57875 16.4209 6 16.9358 6H21L16 1C16 1 16 4.63062 16 5.06419Z" fill="#BD4100"/>
<g opacity="0.4">
<path opacity="0.3" fill-rule="evenodd" clip-rule="evenodd" d="M14.162 26.6928L12.9448 19.7404L10.8597 19.0933C10.7553 19.0604 10.7061 19.1174 10.7517 19.2188L14.1049 26.7056C14.1502 26.8075 14.2775 26.8927 14.3872 26.8945C14.2775 26.8927 14.1816 26.8026 14.162 26.6928Z" fill="white"/>
<path opacity="0.5" fill-rule="evenodd" clip-rule="evenodd" d="M14.3481 26.8894C14.6782 26.9701 14.1874 26.8885 14.1526 26.691L12.5133 17.2748C12.4937 17.1639 12.5612 17.1084 12.6618 17.1507L14.7242 18.0852L14.5619 26.3066C14.5619 26.3066 14.2582 26.8693 14.3481 26.8894Z" fill="white"/>
<path opacity="0.7" fill-rule="evenodd" clip-rule="evenodd" d="M17.7631 17.2557L15.0717 15.8083C14.9752 15.755 14.8899 15.8037 14.8827 15.9158L14.2008 26.6872C14.1948 26.7857 14.2582 26.8693 14.3481 26.8894C14.2629 26.8694 14.9777 26.7082 15.0057 26.6135L17.7631 17.2557Z" fill="white"/>
<path fill-rule="evenodd" clip-rule="evenodd" d="M24.3928 19.1631L17.8282 15.1367C17.7348 15.0789 17.6322 15.1197 17.6002 15.2282L17.1091 16.905L16.5615 18.7768L16.0063 20.675L14.2453 26.6957C14.2168 26.7893 14.2629 26.8694 14.3481 26.8894C14.3604 26.8924 14.3732 26.8943 14.3872 26.8945L21.3623 26.9997C21.3882 27.0001 21.4119 26.9945 21.4334 26.9861C21.4236 26.9909 21.4136 26.9945 21.402 26.9961C21.3898 26.998 21.3769 26.9999 21.3623 26.9997C21.4726 27.0015 21.5956 26.9167 21.636 26.8127L24.4901 19.4578C24.5302 19.3539 24.4868 19.2206 24.3928 19.1631Z" fill="white"/>
</g>
</g>
</svg>
