<svg width="22" height="22" viewBox="0 0 22 22" fill="none" xmlns="http://www.w3.org/2000/svg">
<title>ico_toast_new_info</title>
<path d="M11 2.09375C7.92383 2.09375 5.13477 3.73438 3.57617 6.35938C2.05859 9.02539 2.05859 12.2656 3.57617 14.8906C5.13477 17.5566 7.92383 19.1562 11 19.1562C14.0352 19.1562 16.8242 17.5566 18.3828 14.8906C19.9004 12.2656 19.9004 9.02539 18.3828 6.35938C16.8242 3.73438 14.0352 2.09375 11 2.09375ZM11 21.125C7.22656 21.125 3.78125 19.1562 1.89453 15.875C0.0078125 12.6348 0.0078125 8.65625 1.89453 5.375C3.78125 2.13477 7.22656 0.125 11 0.125C14.7324 0.125 18.1777 2.13477 20.0645 5.375C21.9512 8.65625 21.9512 12.6348 20.0645 15.875C18.1777 19.1562 14.7324 21.125 11 21.125ZM9.35938 13.9062H10.3438V11.2812H9.35938C8.78516 11.2812 8.375 10.8711 8.375 10.2969C8.375 9.76367 8.78516 9.3125 9.35938 9.3125H11.3281C11.8613 9.3125 12.3125 9.76367 12.3125 10.2969V13.9062H12.6406C13.1738 13.9062 13.625 14.3574 13.625 14.8906C13.625 15.4648 13.1738 15.875 12.6406 15.875H9.35938C8.78516 15.875 8.375 15.4648 8.375 14.8906C8.375 14.3574 8.78516 13.9062 9.35938 13.9062ZM11 8C10.2617 8 9.6875 7.42578 9.6875 6.6875C9.6875 5.99023 10.2617 5.375 11 5.375C11.6973 5.375 12.3125 5.99023 12.3125 6.6875C12.3125 7.42578 11.6973 8 11 8Z" fill="#1D7FF9"/>
</svg>
