<svg width="19" height="17" viewBox="0 0 19 17" fill="none" xmlns="http://www.w3.org/2000/svg">
<path d="M0.787109 9.36328C0.582031 9.1582 0.5 8.91211 0.5 8.625C0.5 8.37891 0.582031 8.13281 0.787109 7.92773L8.00586 1.03711C8.41602 0.667969 9.03125 0.667969 9.40039 1.07812C9.76953 1.44727 9.76953 2.10352 9.35938 2.47266L3.9043 7.64062H17.8906C18.4238 7.64062 18.875 8.0918 18.875 8.625C18.875 9.19922 18.4238 9.60938 17.8906 9.60938H3.9043L9.35938 14.8184C9.76953 15.1875 9.76953 15.8027 9.40039 16.2129C9.03125 16.623 8.41602 16.623 8.00586 16.2539L0.787109 9.36328Z" fill="#454C53"/>
</svg>
