<svg width="32" height="32" viewBox="0 0 32 32" fill="none" xmlns="http://www.w3.org/2000/svg">
<circle cx="16" cy="16" r="9.5" stroke="#454C53" stroke-width="2"/>
<path d="M16.0262 21.5255C15.1775 21.5255 14.3965 21.3396 13.6834 20.9677C12.9703 20.5958 12.4015 20.0577 11.9771 19.3533C11.5528 18.649 11.3406 17.8155 11.3406 16.853V15.0155C11.3406 14.0618 11.5528 13.2305 11.9771 12.5218C12.4015 11.813 12.9703 11.2727 13.6834 10.9008C14.3965 10.529 15.1775 10.343 16.0262 10.343C17.1812 10.343 18.1546 10.6602 18.9465 11.2946C19.4098 11.6657 19.8724 12.5034 20.1765 13.1347C20.3781 13.5533 20.1418 14.0376 19.6954 14.1664L19.2756 14.2876C18.8792 14.402 18.4626 14.1905 18.2906 13.8154C18.1176 13.4382 17.8897 13.0067 17.68 12.8171C17.2687 12.4452 16.7175 12.2593 16.0262 12.2593C15.545 12.2593 15.1053 12.3665 14.7071 12.5808C14.309 12.7952 13.9918 13.1168 13.7556 13.5455C13.5193 13.9743 13.4012 14.4905 13.4012 15.0943V16.7743C13.4012 17.378 13.5193 17.8943 13.7556 18.323C13.9918 18.7518 14.309 19.0733 14.7071 19.2877C15.1053 19.5021 15.545 19.6093 16.0262 19.6093C16.7175 19.6093 17.2687 19.4233 17.68 19.0515C17.8897 18.8618 18.1176 18.4304 18.2906 18.0531C18.4626 17.6781 18.8792 17.4665 19.2756 17.5809L19.6954 17.7021C20.1418 17.8309 20.3781 18.3153 20.1765 18.7338C19.8724 19.3651 19.4098 20.2028 18.9465 20.574C18.1546 21.2083 17.1812 21.5255 16.0262 21.5255Z" fill="#454C53"/>
</svg>
