<svg width="24" height="24" viewBox="0 0 24 24" fill="none" xmlns="http://www.w3.org/2000/svg">
<path d="M5.47656 5.94141V11.1094C5.47656 11.8169 5.99951 12.3398 6.70703 12.3398H17.2275L14.5513 9.66357C14.2437 9.38672 14.2437 8.92529 14.5513 8.61768C14.8281 8.34082 15.2896 8.34082 15.5972 8.61768L19.5347 12.5859C19.8115 12.8628 19.8115 13.3242 19.5347 13.6011L15.5972 17.5386C15.2896 17.8462 14.8281 17.8462 14.5513 17.5386C14.2437 17.2617 14.2437 16.8003 14.5513 16.4927L17.2275 13.8164H6.70703C5.19971 13.8164 4 12.6167 4 11.1094V5.94141C4 5.5415 4.30762 5.20312 4.73828 5.20312C5.13818 5.20312 5.47656 5.5415 5.47656 5.94141Z" fill="#6F3AD0"/>
</svg>
