<svg width="24" height="24" viewBox="0 0 24 24" fill="none" xmlns="http://www.w3.org/2000/svg">
<path fill-rule="evenodd" clip-rule="evenodd" d="M20.0611 23H4.93862C4.42206 23 4 22.5561 4 22.0136V22.0091V1.98694C4 1.44442 4.42206 1 4.93862 1C6.11872 1.00032 15.9976 1.00298 15.9976 1.00298L20.9966 6.00228L21 22.0136C21 22.5561 20.5772 23 20.0611 23Z" fill="#1D7FF9"/>
<path fill-rule="evenodd" clip-rule="evenodd" d="M16 5.06418C16 5.57872 16.4208 6 16.9357 6H21L16 1C16 1 16 4.61458 16 5.06418Z" fill="#0044CC"/>
<path fill-rule="evenodd" clip-rule="evenodd" d="M7.01306 7H15.0111L15 8H7L7.01306 7ZM7.00199 10H15V11H7L7.00199 10ZM12 13H7.01121L7 14H12V13Z" fill="white"/>
</svg>
