<svg width="32" height="32" viewBox="0 0 32 32" fill="none" xmlns="http://www.w3.org/2000/svg">
<path d="M16 7.09375C12.9238 7.09375 10.1348 8.73438 8.57617 11.3594C7.05859 14.0254 7.05859 17.2656 8.57617 19.8906C10.1348 22.5566 12.9238 24.1562 16 24.1562C19.0352 24.1562 21.8242 22.5566 23.3828 19.8906C24.9004 17.2656 24.9004 14.0254 23.3828 11.3594C21.8242 8.73438 19.0352 7.09375 16 7.09375ZM16 26.125C12.2266 26.125 8.78125 24.1562 6.89453 20.875C5.00781 17.6348 5.00781 13.6562 6.89453 10.375C8.78125 7.13477 12.2266 5.125 16 5.125C19.7324 5.125 23.1777 7.13477 25.0645 10.375C26.9512 13.6562 26.9512 17.6348 25.0645 20.875C23.1777 24.1562 19.7324 26.125 16 26.125ZM12.6777 12.3027C13.0469 11.9336 13.6621 11.9336 14.0312 12.3027L15.959 14.2305L17.8867 12.3027C18.2969 11.9336 18.9121 11.9336 19.2812 12.3027C19.6914 12.7129 19.6914 13.3281 19.2812 13.6973L17.3535 15.625L19.2812 17.5527C19.6914 17.9629 19.6914 18.5781 19.2812 18.9473C18.9121 19.3574 18.2969 19.3574 17.8867 18.9473L15.959 17.0195L14.0312 18.9473C13.6621 19.3574 13.0469 19.3574 12.6777 18.9473C12.2676 18.5781 12.2676 17.9629 12.6777 17.5527L14.6055 15.625L12.6777 13.6973C12.2676 13.3281 12.2676 12.7129 12.6777 12.3027Z" fill="#454C53"/>
</svg>
