<svg width="32" height="32" viewBox="0 0 32 32" fill="none" xmlns="http://www.w3.org/2000/svg">
<rect width="32" height="32" rx="16" fill="#6F3AD0"/>
<path d="M16.5977 8.65625L22.5039 14.8438C22.8203 15.1953 22.8203 15.7227 22.4688 16.0391C22.1172 16.3555 21.5898 16.3555 21.2734 16.0039L16.8438 11.3281V23.2812C16.8438 23.7734 16.457 24.125 16 24.125C15.5078 24.125 15.1562 23.7734 15.1562 23.2812V11.3281L10.6914 16.0039C10.375 16.3555 9.84766 16.3555 9.49609 16.0391C9.14453 15.7227 9.14453 15.1602 9.46094 14.8438L15.3672 8.65625C15.543 8.48047 15.7539 8.375 16 8.375C16.2109 8.375 16.4219 8.48047 16.5977 8.65625Z" fill="white"/>
</svg>
