<svg width="24" height="24" viewBox="0 0 24 24" fill="none" xmlns="http://www.w3.org/2000/svg">
<path d="M17.0742 18.9844H6.73828C6.30762 18.9844 6 18.6768 6 18.2461C6 17.8462 6.30762 17.5078 6.73828 17.5078H17.0742C17.4741 17.5078 17.8125 17.8462 17.8125 18.2461C17.8125 18.6768 17.4741 18.9844 17.0742 18.9844ZM11.3525 14.8315L7.41504 10.6479C7.13818 10.3403 7.16895 9.87891 7.4458 9.60205C7.75342 9.3252 8.21484 9.3252 8.4917 9.63281L11.168 12.4629V9.87891V5.94141C11.168 5.5415 11.4756 5.20312 11.9062 5.20312C12.3062 5.20312 12.6445 5.5415 12.6445 5.94141V9.87891V12.4629L15.29 9.63281C15.5669 9.3252 16.0283 9.3252 16.3359 9.60205C16.6436 9.87891 16.6436 10.3403 16.3667 10.6479L12.4292 14.8315C12.2754 14.9854 12.0908 15.0469 11.9062 15.0469C11.6909 15.0469 11.5063 14.9854 11.3525 14.8315Z" fill="white"/>
</svg>
