<svg width="32" height="32" viewBox="0 0 32 32" fill="none" xmlns="http://www.w3.org/2000/svg">
<path d="M9.125 6.4375H22.25C23.6855 6.4375 24.875 7.62695 24.875 9.0625V22.1875C24.875 23.6641 23.6855 24.8125 22.25 24.8125H9.125C7.64844 24.8125 6.5 23.6641 6.5 22.1875V9.0625C6.5 7.62695 7.64844 6.4375 9.125 6.4375ZM20.3223 13.6973H20.2812C20.6914 13.3281 20.6914 12.7129 20.2812 12.3027C19.9121 11.9336 19.2969 11.9336 18.9277 12.3027L14.375 16.8965L12.4473 14.9688C12.0371 14.5586 11.4219 14.5586 11.0527 14.9688C10.6426 15.3379 10.6426 15.9531 11.0527 16.3223L13.6777 18.9473C14.0469 19.3574 14.6621 19.3574 15.0723 18.9473L20.3223 13.6973Z" fill="#6F3AD0"/>
</svg>
