<svg width="24" height="24" viewBox="0 0 24 24" fill="none" xmlns="http://www.w3.org/2000/svg">
<path d="M17.6338 20.2102C17.9296 20.2102 18.2254 19.9492 18.2254 19.6136V7.96591H15.2676C14.6021 7.96591 14.0845 7.44389 14.0845 6.77273V3.78977H6.3662C6.03345 3.78977 5.77465 4.08807 5.77465 4.38636V19.6136C5.77465 19.9492 6.03345 20.2102 6.3662 20.2102H17.6338ZM4 4.38636C4 3.08132 5.03521 2 6.3662 2H14.2694C14.8979 2 15.4894 2.26101 15.9331 2.70845L19.2975 6.10156C19.7412 6.54901 20 7.1456 20 7.77947V19.6136C20 20.956 18.9278 22 17.6338 22H6.3662C5.03521 22 4 20.956 4 19.6136V4.38636Z" fill="#26282B"/>
<rect x="8" y="11" width="8" height="2" rx="1" fill="#26282B"/>
<rect x="8" y="15" width="6" height="2" rx="1" fill="#26282B"/>
</svg>
