<svg width="24" height="24" viewBox="0 0 24 24" fill="none" xmlns="http://www.w3.org/2000/svg">
<path fill-rule="evenodd" clip-rule="evenodd" d="M20.0437 2C20.0437 2 5.03798 2 3.95096 2C3.42823 2 3 2.44589 3 2.99164V19.0081C3 19.5539 3.42823 20 3.95096 20H3.95529H20.0491C20.5718 20 21 19.553 21 19.0075V2.99164C21 2.44589 20.5718 2 20.0491 2H20.0437Z" fill="#009FD2"/>
<path fill-rule="evenodd" clip-rule="evenodd" d="M5.875 4C6.76204 4.00021 15 4.00211 15 4.00211L19 8V17.087C19 17.5912 18.6082 18 18.125 18H5.875C5.39175 18 5 17.5912 5 17.087V4.91305C5 4.40879 5.39175 4 5.875 4Z" fill="#F7F7F7"/>
<path fill-rule="evenodd" clip-rule="evenodd" d="M19 8H15.7458C15.5195 8 15.3182 7.89332 15.1816 7.72962C15.07 7.59614 15 7.42583 15 7.23785C15 6.94139 15 4.00531 15 4.00531V4L19 8Z" fill="#ACAEB0"/>
<path fill-rule="evenodd" clip-rule="evenodd" d="M11.995 10.9945V11.994H7.00629V10.9945H11.995ZM12.9996 8.99078V10.0026H7.00538V8.99078H12.9996ZM12.9996 7L13 7.99781H7L7.00538 7H12.9996Z" fill="#A0A2A4"/>
<path fill-rule="evenodd" clip-rule="evenodd" d="M9.0015 14.008H2.99237V21.0219C2.99237 21.5586 3.42167 21.9972 3.94569 21.9972H3.95003H20.0472C20.5712 21.9972 21.0005 21.5577 21.0005 21.0208V14.008H14.9925L13.7961 17.0059H10.1979L9.0015 14.008Z" fill="#00BDDF"/>
</svg>
