<svg width="24" height="24" viewBox="0 0 24 24" fill="none" xmlns="http://www.w3.org/2000/svg">
<path fill-rule="evenodd" clip-rule="evenodd" d="M20.0473 23H4.93784C4.42172 23 4 22.5561 4 22.0136V22.009C4 22.009 4 2.77224 4 1.98693C4 1.44442 4.42172 1 4.93784 1H15.9749L21 5.99984L20.9853 22.0136C20.9853 22.5561 20.5629 23 20.0473 23Z" fill="#F85C5C"/>
<mask id="mask0_535_72297" style="mask-type:luminance" maskUnits="userSpaceOnUse" x="4" y="1" width="17" height="22">
<path fill-rule="evenodd" clip-rule="evenodd" d="M20.0473 23H4.93784C4.42172 23 4 22.5561 4 22.0136V22.009C4 22.009 4 2.77224 4 1.98693C4 1.44442 4.42172 1 4.93784 1H15.9749L21 5.99984L20.9853 22.0136C20.9853 22.5561 20.5629 23 20.0473 23Z" fill="white"/>
</mask>
<g mask="url(#mask0_535_72297)">
<g opacity="0.4">
<path fill-rule="evenodd" clip-rule="evenodd" d="M15.9578 20.4779H18.0923C19.6506 20.4779 20.9182 19.2486 20.9182 17.7376C20.9182 16.2266 19.6506 14.9973 18.0923 14.9973H14.149C13.7468 14.9973 13.4209 15.3134 13.4209 15.7034C13.4209 16.0933 13.7468 16.4094 14.149 16.4094H18.0923C18.8475 16.4094 19.462 17.0053 19.462 17.7376C19.462 18.47 18.8475 19.0658 18.0923 19.0658H15.9578V17.7411C15.9578 17.3511 15.6318 17.035 15.2297 17.035C14.8275 17.035 14.5015 17.3511 14.5015 17.7411V23.5411C14.5015 23.9311 14.8275 24.2472 15.2297 24.2472C15.6318 24.2472 15.9578 23.9311 15.9578 23.5411V20.4779Z" fill="white"/>
<path fill-rule="evenodd" clip-rule="evenodd" d="M15.9578 20.4779H18.0923C19.6506 20.4779 20.9182 19.2486 20.9182 17.7376C20.9182 16.2266 19.6506 14.9973 18.0923 14.9973H14.149C13.7468 14.9973 13.4209 15.3134 13.4209 15.7034C13.4209 16.0933 13.7468 16.4094 14.149 16.4094H18.0923C18.8475 16.4094 19.462 17.0053 19.462 17.7376C19.462 18.47 18.8475 19.0658 18.0923 19.0658H15.9578V17.7411C15.9578 17.3511 15.6318 17.035 15.2297 17.035C14.8275 17.035 14.5015 17.3511 14.5015 17.7411V23.5411C14.5015 23.9311 14.8275 24.2472 15.2297 24.2472C15.6318 24.2472 15.9578 23.9311 15.9578 23.5411V20.4779Z" fill="white"/>
</g>
</g>
<path fill-rule="evenodd" clip-rule="evenodd" d="M16 5.06419C16 5.57872 16.4209 6 16.9358 6H21L16 1C16 1 16 4.54453 16 5.06419Z" fill="#B40000"/>
<path fill-rule="evenodd" clip-rule="evenodd" d="M9.5868 8.0873C9.86005 8.16239 10.0887 8.32515 10.2735 8.5758C10.4575 8.82651 10.5497 9.15054 10.5497 9.54682C10.5497 9.85272 10.4964 10.1107 10.3901 10.3189C10.2843 10.5277 10.1494 10.6917 9.98509 10.811C9.82124 10.93 9.65526 11.0089 9.48604 11.047C9.25622 11.0949 8.92365 11.1185 8.48724 11.1185H7.97761V13.0001H7.0145V8.01239H8.44181C9.0276 8.01239 9.40911 8.03767 9.5868 8.0873ZM12.4145 8.01239C12.8 8.01239 13.0934 8.04397 13.2954 8.10798C13.5667 8.19401 13.7993 8.34736 13.9934 8.56681C14.1867 8.78753 14.3343 9.05665 14.4354 9.37502C14.5363 9.6937 14.5869 10.0867 14.5869 10.5538C14.5869 10.9648 14.5396 11.3185 14.4448 11.6153C14.3292 11.9787 14.1637 12.2722 13.9489 12.4967C13.7867 12.6668 13.5675 12.799 13.2924 12.8946C13.0863 12.9653 12.8098 13.0001 12.4651 13.0001H11.0491V8.01239H12.4145ZM18.4998 8.01239V8.85597H16.062V10.0371H18.1486V10.8807H16.062V13.0001H14.9895V8.01239H18.4998ZM12.3565 8.86012L11.9843 8.8562V12.1599H12.339C12.5998 12.1599 12.788 12.1439 12.9042 12.1123C13.0552 12.0711 13.1809 12.0025 13.2815 11.9044C13.3813 11.8071 13.4629 11.6468 13.5261 11.4232C13.5889 11.1999 13.6208 10.8953 13.6208 10.5097C13.6208 10.1245 13.5889 9.82886 13.5261 9.62171C13.4629 9.41568 13.3742 9.25457 13.2609 9.13844C13.1472 9.02311 13.0028 8.9449 12.8282 8.90366C12.7349 8.88126 12.5777 8.86664 12.3565 8.86012ZM8.46631 8.8569L7.97761 8.8562V10.2714H8.38652C8.76587 10.2714 9.01935 10.2452 9.14726 10.1934C9.27589 10.1417 9.3759 10.0596 9.4484 9.94834C9.52127 9.83721 9.55732 9.70796 9.55732 9.56064C9.55732 9.37924 9.50654 9.22965 9.40458 9.11145C9.3026 8.99362 9.17391 8.92001 9.01745 8.89029C8.91908 8.8709 8.73502 8.8597 8.46631 8.8569Z" fill="white"/>
</svg>
