<svg width="24" height="17" viewBox="0 0 24 17" fill="none" xmlns="http://www.w3.org/2000/svg">
<path d="M2.625 2.71875C2.25586 2.71875 1.96875 3.04688 1.96875 3.375V13.875C1.96875 14.2441 2.25586 14.5312 2.625 14.5312H3.4043L6.72656 10.0195C6.93164 9.77344 7.21875 9.60938 7.54688 9.60938C7.83398 9.60938 8.12109 9.77344 8.32617 10.0195L9.51562 11.6602L12.9199 6.45117C13.125 6.20508 13.4121 6 13.7812 6C14.1094 6 14.3965 6.20508 14.6016 6.45117L19.8926 14.5312H21C21.3281 14.5312 21.6562 14.2441 21.6562 13.875V3.375C21.6562 3.04688 21.3281 2.71875 21 2.71875H2.625ZM3.9375 16.5H2.625C1.14844 16.5 0 15.3516 0 13.875V3.375C0 1.93945 1.14844 0.75 2.625 0.75H21C22.4355 0.75 23.625 1.93945 23.625 3.375V13.875C23.625 15.3516 22.4355 16.5 21 16.5H19.3594H11.1562H8.20312H3.9375ZM6.5625 4.6875C7.25977 4.6875 7.875 5.30273 7.875 6C7.875 6.73828 7.25977 7.3125 6.5625 7.3125C5.82422 7.3125 5.25 6.73828 5.25 6C5.25 5.30273 5.82422 4.6875 6.5625 4.6875Z" fill="#454C53"/>
</svg>
