<svg width="22" height="19" viewBox="0 0 22 19" fill="none" xmlns="http://www.w3.org/2000/svg">
<path d="M2.46875 12.9062V16.1875C2.46875 16.5566 2.75586 16.8438 3.125 16.8438H18.875C19.2031 16.8438 19.5312 16.5566 19.5312 16.1875V12.9062H16.168L15.3066 14.6289C15.0605 15.2031 14.4863 15.5312 13.8711 15.5312H8.08789C7.47266 15.5312 6.89844 15.2031 6.65234 14.6289L5.79102 12.9062H2.46875ZM19.1211 10.9375L17.1113 2.93945C17.0293 2.61133 16.7832 2.40625 16.4961 2.40625H5.50391C5.17578 2.40625 4.92969 2.61133 4.84766 2.93945L2.83789 10.9375H5.99609C6.61133 10.9375 7.18555 11.3066 7.43164 11.8809L8.29297 13.5625H13.666L14.5273 11.8809C14.7734 11.3066 15.3477 10.9375 15.9629 10.9375H19.1211ZM0.5 12.5781C0.5 12.373 0.5 12.168 0.541016 11.9629L2.91992 2.44727C3.24805 1.25781 4.27344 0.4375 5.50391 0.4375H16.4961C17.6855 0.4375 18.752 1.25781 19.0391 2.44727L21.418 11.9629C21.459 12.168 21.5 12.373 21.5 12.5781V16.1875C21.5 17.6641 20.3105 18.8125 18.875 18.8125H3.125C1.64844 18.8125 0.5 17.6641 0.5 16.1875V12.5781Z" fill="#454C53"/>
</svg>
