<svg width="80" height="81" viewBox="0 0 80 81" fill="none" xmlns="http://www.w3.org/2000/svg">
<path d="M56.0938 60V33.75H44.6094C41.8408 33.75 39.6875 31.5967 39.6875 28.8281V17.3438H26.5625C24.7168 17.3438 23.2812 18.8818 23.2812 20.625V60C23.2812 61.8457 24.7168 63.2812 26.5625 63.2812H52.8125C54.5557 63.2812 56.0938 61.8457 56.0938 60ZM55.9912 30.4688C55.8887 30.2637 55.7861 29.9561 55.5811 29.751L43.6865 17.8564C43.4814 17.6514 43.1738 17.5488 42.9688 17.4463V28.8281C42.9688 29.751 43.6865 30.4688 44.6094 30.4688H55.9912ZM20 20.625C20 17.0361 22.8711 14.0625 26.5625 14.0625H42.5586C43.7891 14.0625 45.1221 14.6777 46.0449 15.6006L57.8369 27.3926C58.7598 28.3154 59.375 29.6484 59.375 30.8789V60C59.375 63.6914 56.4014 66.5625 52.8125 66.5625H26.5625C22.8711 66.5625 20 63.6914 20 60V20.625Z" fill="#C9CDD2"/>
</svg>
