<svg width="33" height="32" viewBox="0 0 33 32" fill="none" xmlns="http://www.w3.org/2000/svg">
<circle cx="23.5" cy="21" r="6.125" stroke="#454C53" stroke-width="1.75"/>
<path fill-rule="evenodd" clip-rule="evenodd" d="M22.6569 21.8427H21.1427C20.6572 21.8427 20.2998 21.4853 20.2998 20.9998C20.2998 20.5466 20.6518 20.1569 21.1427 20.1569H22.6569V18.6427C22.6569 18.1895 23.0089 17.7998 23.4998 17.7998C23.9585 17.7998 24.3427 18.184 24.3427 18.6427V20.1569H25.8569C26.3156 20.1569 26.6998 20.5411 26.6998 20.9998C26.6998 21.4907 26.3101 21.8427 25.8569 21.8427H24.3427V23.3569C24.3427 23.8478 23.953 24.1998 23.4998 24.1998C23.0143 24.1998 22.6569 23.8424 22.6569 23.3569V21.8427Z" fill="#454C53"/>
<path fill-rule="evenodd" clip-rule="evenodd" d="M6.46875 9.625C6.46875 9.29688 6.75586 8.96875 7.125 8.96875H25.5C25.8281 8.96875 26.1562 9.29688 26.1562 9.625V13.4515C26.8633 13.7003 27.5248 14.0456 28.125 14.4716V9.625C28.125 8.18945 26.9355 7 25.5 7H7.125C5.64844 7 4.5 8.18945 4.5 9.625V20.125C4.5 21.6016 5.64844 22.75 7.125 22.75H8.4375H12.7031H15.6562H15.692C15.5663 22.1868 15.5 21.6011 15.5 21C15.5 18.4899 16.6561 16.2497 18.4648 14.783L17.1016 12.7012C16.8965 12.4551 16.6094 12.25 16.2812 12.25C15.9121 12.25 15.625 12.4551 15.4199 12.7012L12.0156 17.9102L10.8262 16.2695C10.6211 16.0234 10.334 15.8594 10.0469 15.8594C9.71875 15.8594 9.43164 16.0234 9.22656 16.2695L6.46875 20.0147V9.625ZM12.375 12.25C12.375 11.5527 11.7598 10.9375 11.0625 10.9375C10.3242 10.9375 9.75 11.5527 9.75 12.25C9.75 12.9883 10.3242 13.5625 11.0625 13.5625C11.7598 13.5625 12.375 12.9883 12.375 12.25Z" fill="#454C53"/>
</svg>
