<svg width="13" height="12" viewBox="0 0 13 12" fill="none" xmlns="http://www.w3.org/2000/svg">
<path d="M12.0312 6.74219L7.21875 11.3359C6.94531 11.582 6.53516 11.582 6.28906 11.3086C6.04297 11.0352 6.04297 10.625 6.31641 10.3789L9.95312 6.90625H0.65625C0.273438 6.90625 0 6.63281 0 6.25C0 5.89453 0.273438 5.59375 0.65625 5.59375H9.95312L6.31641 2.14844C6.04297 1.90234 6.04297 1.46484 6.28906 1.21875C6.53516 0.945312 6.97266 0.945312 7.21875 1.19141L12.0312 5.78516C12.168 5.92188 12.25 6.08594 12.25 6.25C12.25 6.44141 12.168 6.60547 12.0312 6.74219Z" fill="#D8D8D8"/>
</svg>
