<svg width="24" height="25" viewBox="0 0 24 25" fill="none" xmlns="http://www.w3.org/2000/svg">
<mask id="mask0_8504_91342" style="mask-type:alpha" maskUnits="userSpaceOnUse" x="0" y="0" width="24" height="25">
<path fill-rule="evenodd" clip-rule="evenodd" d="M24 0.25H0V24.25H24V0.25ZM10.5 3.75C10.5 4.91667 10.6 7.45 11 8.25C11.1356 8.52114 11.2344 8.90257 11.3463 9.33447C11.647 10.4954 12.0423 12.0211 13.5 12.75C15.5 13.75 19 13.75 20 13.25C20.8 12.85 22.3333 11.0833 23 10.25L22.5 4.25L20.5 1.75H12.5L10.5 3.75Z" fill="#D9D9D9"/>
</mask>
<g mask="url(#mask0_8504_91342)">
<rect x="4.5" y="4.75" width="15" height="15" rx="3.75" stroke="#C6A9FF" stroke-width="1.5" stroke-linejoin="bevel"/>
<path d="M12.9471 15.0068L13.4373 15.5415L13.9881 15.0694L16.1631 13.2051L19.5 15.6319V16C19.5 18.0711 17.8211 19.75 15.75 19.75H8.25C6.17893 19.75 4.5 18.0711 4.5 16V15.5759L9.3335 11.0646L12.9471 15.0068Z" stroke="#C6A9FF" stroke-width="1.5"/>
</g>
<path d="M14.7734 5.29297C14.4414 5.64453 14.1875 6.03516 14.0508 6.46484C13.9336 6.79688 13.5625 6.97266 13.25 6.85547C12.918 6.73828 12.7422 6.38672 12.8594 6.05469C13.0742 5.44922 13.4258 4.88281 13.8945 4.41406C15.5938 2.71484 18.3477 2.71484 20.0664 4.39453L20.8867 3.57422C21.0039 3.45703 21.2188 3.41797 21.3945 3.47656C21.5703 3.55469 21.6875 3.73047 21.6875 3.90625V6.40625C21.6875 6.67969 21.4727 6.875 21.2188 6.875H21.043H18.7188C18.5234 6.875 18.3477 6.77734 18.2695 6.60156C18.2109 6.42578 18.25 6.21094 18.3867 6.07422L19.1875 5.27344C17.957 4.08203 16.0039 4.08203 14.7734 5.29297ZM12.3125 8.59375C12.3125 8.33984 12.5078 8.125 12.7812 8.125H12.918H12.9375H15.2812C15.457 8.125 15.6328 8.24219 15.7109 8.41797C15.7695 8.59375 15.7305 8.80859 15.6133 8.92578L14.793 9.74609C16.0234 10.9375 17.9961 10.9375 19.207 9.72656C19.5391 9.375 19.793 8.98438 19.9492 8.55469C20.0469 8.22266 20.418 8.04688 20.7305 8.16406C21.0625 8.28125 21.2383 8.63281 21.1211 8.96484C20.9062 9.57031 20.5547 10.1172 20.0859 10.6055C18.3867 12.3047 15.6328 12.3047 13.9141 10.625L13.1133 11.4258C12.9766 11.5625 12.7617 11.6016 12.5859 11.543C12.4102 11.4648 12.3125 11.2891 12.3125 11.0938V8.76953V8.75V8.59375Z" fill="#C6A9FF"/>
</svg>
