<svg width="24" height="25" viewBox="0 0 24 25" fill="none" xmlns="http://www.w3.org/2000/svg">
<path fill-rule="evenodd" clip-rule="evenodd" d="M8.82176 7.51617L3.75 12.2498V15.2498L8.82176 10.5162C9.1265 10.2317 9.60469 10.2504 9.88637 10.5577L13.5 14.4998L15.675 12.6355C15.9388 12.4094 16.3233 12.394 16.6043 12.5984L20.25 15.2498V12.2498L16.6043 9.59837C16.3233 9.39404 15.9388 9.4094 15.675 9.63548L13.5 11.4998L9.88637 7.55766C9.60469 7.25038 9.1265 7.23174 8.82176 7.51617Z" fill="#E0D1FF"/>
<rect x="4.5" y="4.75" width="15" height="15" rx="3.75" stroke="#C6A9FF" stroke-width="1.5" stroke-linejoin="bevel"/>
<path d="M12.9471 15.0068L13.4373 15.5415L13.9881 15.0694L16.1631 13.2051L19.5 15.6319V16C19.5 18.0711 17.8211 19.75 15.75 19.75H8.25C6.17893 19.75 4.5 18.0711 4.5 16V15.5759L9.3335 11.0646L12.9471 15.0068Z" stroke="#C6A9FF" stroke-width="1.5"/>
</svg>
