<svg width="24" height="25" viewBox="0 0 24 25" fill="none" xmlns="http://www.w3.org/2000/svg">
<mask id="mask0_8504_91344" style="mask-type:alpha" maskUnits="userSpaceOnUse" x="3" y="4" width="18" height="17">
<path d="M20.25 4H3.75V20.5L20.25 4Z" fill="#D9D9D9"/>
</mask>
<g mask="url(#mask0_8504_91344)">
<rect x="4.5" y="4.75" width="15" height="15" rx="3.75" fill="#511BB2" stroke="#E0D1FF" stroke-width="1.5" stroke-linejoin="bevel" stroke-dasharray="1.5 1.5"/>
<path d="M12.9471 15.0068L13.4373 15.5415L13.9881 15.0694L16.1631 13.2051L19.5 15.6319V16C19.5 18.0711 17.8211 19.75 15.75 19.75H8.25C6.17893 19.75 4.5 18.0711 4.5 16V15.5759L8.22702 12.0974C8.8365 11.5285 9.79289 11.5658 10.3562 12.1804L12.9471 15.0068Z" stroke="#E0D1FF" stroke-width="1.5"/>
</g>
<mask id="mask1_8504_91344" style="mask-type:alpha" maskUnits="userSpaceOnUse" x="3" y="4" width="18" height="17">
<path d="M3.75 20.5H20.25V4L3.75 20.5Z" fill="#D9D9D9"/>
</mask>
<g mask="url(#mask1_8504_91344)">
<rect x="4.5" y="4.75" width="15" height="15" rx="3.75" stroke="#C6A9FF" stroke-width="1.5" stroke-linejoin="bevel"/>
<path d="M12.9471 15.0068L13.4373 15.5415L13.9881 15.0694L16.1631 13.2051L19.5 15.6319V16C19.5 18.0711 17.8211 19.75 15.75 19.75H8.25C6.17893 19.75 4.5 18.0711 4.5 16V15.5759L9.3335 11.0646L12.9471 15.0068Z" stroke="#C6A9FF" stroke-width="1.5"/>
</g>
</svg>
