<svg width="24" height="25" viewBox="0 0 24 25" fill="none" xmlns="http://www.w3.org/2000/svg">
<mask id="mask0_8504_91347" style="mask-type:alpha" maskUnits="userSpaceOnUse" x="3" y="4" width="18" height="17">
<path fill-rule="evenodd" clip-rule="evenodd" d="M11.25 4H3.75V20.5H11.25V4ZM12 4V20.5H13.5V4H12ZM14.25 4V20.5H20.25V4H14.25Z" fill="#D9D9D9"/>
</mask>
<g mask="url(#mask0_8504_91347)">
<rect x="4.5" y="4.75" width="15" height="15" rx="3.75" stroke="#C6A9FF" stroke-width="1.5" stroke-linejoin="bevel"/>
<rect x="12" y="4" width="1.5" height="16.5" fill="#C6A9FF"/>
<rect x="5.25" y="13" width="1.5" height="1.5" fill="#C6A9FF"/>
<rect x="6.75" y="11.5" width="1.5" height="1.5" fill="#C6A9FF"/>
<rect x="8.25" y="10" width="1.5" height="1.5" fill="#C6A9FF"/>
<rect x="9.75" y="11.5" width="1.5" height="1.5" fill="#C6A9FF"/>
<mask id="mask1_8504_91347" style="mask-type:alpha" maskUnits="userSpaceOnUse" x="13" y="12" width="8" height="9">
<rect x="13.5" y="12.25" width="6.75" height="8.25" fill="#D9D9D9"/>
</mask>
<g mask="url(#mask1_8504_91347)">
<path d="M12.9471 15.0068L13.4373 15.5415L13.9881 15.0694L16.1631 13.2051L19.5 15.6319V16C19.5 18.0711 17.8211 19.75 15.75 19.75H8.25C6.17893 19.75 4.5 18.0711 4.5 16V15.5759L9.3335 11.0646L12.9471 15.0068Z" stroke="#C6A9FF" stroke-width="1.5"/>
</g>
</g>
<rect x="12" y="1.75" width="1.5" height="1.5" fill="#C6A9FF"/>
<rect x="12" y="21.25" width="1.5" height="1.5" fill="#C6A9FF"/>
</svg>
