<svg width="24" height="25" viewBox="0 0 24 25" fill="none" xmlns="http://www.w3.org/2000/svg">
<rect x="4.5" y="4.75" width="15" height="15" rx="3.75" stroke="#C6A9FF" stroke-width="1.5" stroke-linejoin="bevel"/>
<path d="M12.9471 15.0068L13.4373 15.5415L13.9881 15.0694L16.1631 13.2051L19.5 15.6319V16C19.5 18.0711 17.8211 19.75 15.75 19.75H8.25C6.17893 19.75 4.5 18.0711 4.5 16V15.5759L9.3335 11.0646L12.9471 15.0068Z" stroke="#C6A9FF" stroke-width="1.5"/>
<path fill-rule="evenodd" clip-rule="evenodd" d="M4.76568 9.51568L9.26568 5.01568L8.73535 4.48535L4.23535 8.98535L4.76568 9.51568ZM4.76568 12.5157L12.2657 5.01568L11.7354 4.48535L4.23535 11.9854L4.76568 12.5157ZM16.0157 5.01568L7.01568 14.0157L6.48535 13.4854L15.4854 4.48535L16.0157 5.01568ZM11.5157 13.2657L18.2657 6.51568L17.7354 5.98535L10.9854 12.7354L11.5157 13.2657ZM19.7657 8.76568L13.0157 15.5157L12.4854 14.9854L19.2354 8.23535L19.7657 8.76568ZM17.5157 14.7657L19.7657 12.5157L19.2354 11.9854L16.9854 14.2354L17.5157 14.7657Z" fill="#C6A9FF"/>
</svg>
