<svg width="24" height="24" viewBox="0 0 24 24" fill="none" xmlns="http://www.w3.org/2000/svg">
<path fill-rule="evenodd" clip-rule="evenodd" d="M8.82176 7.26617L3.75 11.9998V14.9998L8.82176 10.2662C9.1265 9.98174 9.60469 10.0004 9.88637 10.3077L13.5 14.2498L15.675 12.3855C15.9388 12.1594 16.3233 12.144 16.6043 12.3484L20.25 14.9998V11.9998L16.6043 9.34837C16.3233 9.14404 15.9388 9.1594 15.675 9.38548L13.5 11.2498L9.88637 7.30766C9.60469 7.00038 9.1265 6.98174 8.82176 7.26617Z" fill="#9E9E9E"/>
<rect x="4.5" y="4.5" width="15" height="15" rx="3.75" stroke="#D8D8D8" stroke-width="1.5" stroke-linejoin="bevel"/>
<path d="M12.9471 14.7568L13.4373 15.2915L13.9881 14.8194L16.1631 12.9551L19.5 15.3819V15.75C19.5 17.8211 17.8211 19.5 15.75 19.5H8.25C6.17893 19.5 4.5 17.8211 4.5 15.75V15.3259L9.3335 10.8146L12.9471 14.7568Z" stroke="#D8D8D8" stroke-width="1.5"/>
</svg>
