<svg width="24" height="24" viewBox="0 0 24 24" fill="none" xmlns="http://www.w3.org/2000/svg">
<mask id="mask0_8504_91345" style="mask-type:alpha" maskUnits="userSpaceOnUse" x="0" y="0" width="24" height="24">
<path fill-rule="evenodd" clip-rule="evenodd" d="M13.4633 7.1906L13.9128 8.73858L13.9217 8.76541C13.9667 8.90111 14.0307 9.05552 14.1233 9.21206C14.3699 9.07863 14.6727 9 15 9C15.7725 9 16.4086 9.43797 16.491 10.0009L16.5191 9.98857C16.5063 10.0777 16.5 10.1659 16.5 10.2519C16.5 10.953 16.9191 11.8019 17.839 12.0614L17.8783 12.0724L18.221 12.1492L18.5105 13.1746L18.5189 13.2008C18.5974 13.4441 18.749 13.7763 19.0568 14.0566C19.3967 14.3663 19.8229 14.517 20.25 14.517C20.6771 14.517 21.1033 14.3663 21.4432 14.0566C21.751 13.7763 21.9026 13.4441 21.9811 13.2008L21.9895 13.1746L22.279 12.1492L22.6217 12.0724L22.661 12.0614C23.5809 11.8019 24 10.953 24 10.2519V24H0V0H15.7382C14.673 -5.05568e-06 14.162 0.877097 14.009 1.17738L13.9423 1.30827L13.4707 2.97253L12.72 3.13606L12.6816 3.1466C11.7291 3.40775 11.25 4.2856 11.25 5.0673C11.25 5.84901 11.7291 6.72685 12.6816 6.98801L12.72 6.99855L13.447 7.15691C13.4521 7.1672 13.4576 7.1784 13.4633 7.1906ZM15.7382 0H24V10.2519C24 9.55083 23.5809 8.70195 22.661 8.44252L22.6217 8.43143L22.2679 8.35216L21.9614 7.23951L21.8975 7.11059C21.7835 6.88068 21.427 6.22287 20.6279 6.04181L20.5368 6.02117L20.3435 6.00207L20.2894 6.00065C20.1937 5.99814 20.1028 6.00289 20.0163 6.0138C20.172 5.71387 20.25 5.38276 20.25 5.0673C20.25 4.2856 19.7709 3.40775 18.8184 3.1466L18.78 3.13606L18.0293 2.97253L17.5577 1.30827L17.491 1.17738C17.344 0.888864 16.9538 0.221693 16.1346 0.041224L16.0458 0.0216595L15.8409 0.00198598L15.7883 0.000641661C15.7714 0.000212145 15.7548 0 15.7382 0Z" fill="#D9D9D9"/>
</mask>
<g mask="url(#mask0_8504_91345)">
<mask id="path-2-outside-1_8504_91345" maskUnits="userSpaceOnUse" x="2" y="4" width="19" height="17" fill="black">
<rect fill="white" x="2" y="4" width="19" height="17"/>
<path fill-rule="evenodd" clip-rule="evenodd" d="M6.4375 6C5.09131 6 4 7.09131 4 8.4375V13.3125C4 14.6587 5.09131 15.75 6.4375 15.75H10.75V19L14 15.75H16.5625C17.9087 15.75 19 14.6587 19 13.3125V8.4375C19 7.09131 17.9087 6 16.5625 6H6.4375Z"/>
</mask>
<path d="M10.75 15.75H12.25C12.25 14.9216 11.5784 14.25 10.75 14.25V15.75ZM10.75 19H9.25C9.25 19.6067 9.61546 20.1536 10.176 20.3858C10.7365 20.618 11.3817 20.4897 11.8107 20.0607L10.75 19ZM14 15.75V14.25C13.6022 14.25 13.2206 14.408 12.9393 14.6893L14 15.75ZM5.5 8.4375C5.5 7.91973 5.91973 7.5 6.4375 7.5V4.5C4.26288 4.5 2.5 6.26288 2.5 8.4375H5.5ZM5.5 13.3125V8.4375H2.5V13.3125H5.5ZM6.4375 14.25C5.91973 14.25 5.5 13.8303 5.5 13.3125H2.5C2.5 15.4871 4.26288 17.25 6.4375 17.25V14.25ZM10.75 14.25H6.4375V17.25H10.75V14.25ZM9.25 15.75V19H12.25V15.75H9.25ZM11.8107 20.0607L15.0607 16.8107L12.9393 14.6893L9.68934 17.9393L11.8107 20.0607ZM16.5625 14.25H14V17.25H16.5625V14.25ZM17.5 13.3125C17.5 13.8303 17.0803 14.25 16.5625 14.25V17.25C18.7371 17.25 20.5 15.4871 20.5 13.3125H17.5ZM17.5 8.4375V13.3125H20.5V8.4375H17.5ZM16.5625 7.5C17.0803 7.5 17.5 7.91973 17.5 8.4375H20.5C20.5 6.26288 18.7371 4.5 16.5625 4.5V7.5ZM6.4375 7.5H16.5625V4.5H6.4375V7.5Z" fill="#C6A9FF" mask="url(#path-2-outside-1_8504_91345)"/>
<circle cx="7.875" cy="10.875" r="1.125" fill="#C6A9FF"/>
<circle cx="11.25" cy="10.875" r="1.125" fill="#C6A9FF"/>
<circle cx="14.625" cy="10.875" r="1.125" fill="#C6A9FF"/>
</g>
<path fill-rule="evenodd" clip-rule="evenodd" d="M15.1242 6.67033L15.5954 8.29312C15.6747 8.53205 15.8095 8.65151 16 8.65151C16.1905 8.65151 16.3253 8.53205 16.4046 8.29312L16.8758 6.67033C17.0675 6.23073 17.2878 5.88798 17.7457 5.74306L18.6718 5.54133C18.8643 5.48854 19 5.29255 19 5.06723C19 4.84191 18.8643 4.64593 18.6718 4.59314L17.7457 4.39141C17.1974 4.2285 17.0453 3.95015 16.8758 3.5213L16.4046 1.85848C16.2986 1.65049 16.1843 1.533 16.0619 1.50603L16 1.50008C15.854 1.49636 15.7191 1.61582 15.5954 1.85848L15.1242 3.5213C14.9547 3.95015 14.8026 4.2285 14.2543 4.39141L13.3282 4.59314C13.1357 4.64593 13 4.84191 13 5.06723C13 5.29255 13.1357 5.48854 13.3282 5.54133L14.2543 5.74306C14.7122 5.88798 14.9325 6.23073 15.1242 6.67033ZM19.8432 11.4885L20.1966 12.7404C20.256 12.9247 20.3571 13.0169 20.5 13.0169C20.6429 13.0169 20.744 12.9247 20.8034 12.7404L21.1568 11.4885C21.3006 11.1494 21.4659 10.885 21.8093 10.7732L22.5038 10.6176C22.6482 10.5769 22.75 10.4257 22.75 10.2519C22.75 10.078 22.6482 9.92686 22.5038 9.88613L21.8093 9.73052C21.3981 9.60484 21.284 9.39011 21.1568 9.05929L20.8034 7.77654C20.7239 7.61609 20.6383 7.52546 20.5464 7.50465L20.5 7.50007C20.3905 7.49719 20.2893 7.58935 20.1966 7.77654L19.8432 9.05929C19.716 9.39011 19.6019 9.60484 19.1907 9.73052L18.4962 9.88613C18.3518 9.92686 18.25 10.078 18.25 10.2519C18.25 10.4257 18.3518 10.5769 18.4962 10.6176L19.1907 10.7732C19.5341 10.885 19.6994 11.1494 19.8432 11.4885Z" fill="#E0D1FF"/>
</svg>
