<svg width="24" height="24" viewBox="0 0 24 24" fill="none" xmlns="http://www.w3.org/2000/svg">
<rect x="4.5" y="4.5" width="15" height="15" rx="3.75" stroke="#6F3AD0" stroke-width="1.5" stroke-linejoin="bevel"/>
<path d="M12.9471 14.7568L13.4373 15.2915L13.9881 14.8194L16.1631 12.9551L19.5 15.3819V15.75C19.5 17.8211 17.8211 19.5 15.75 19.5H8.25C6.17893 19.5 4.5 17.8211 4.5 15.75V15.3259L9.3335 10.8146L12.9471 14.7568Z" stroke="#6F3AD0" stroke-width="1.5"/>
<path fill-rule="evenodd" clip-rule="evenodd" d="M4.76568 9.26617L9.26568 4.76617L8.73535 4.23584L4.23535 8.73584L4.76568 9.26617ZM4.76568 12.2662L12.2657 4.76617L11.7354 4.23584L4.23535 11.7358L4.76568 12.2662ZM16.0157 4.76617L7.01568 13.7662L6.48535 13.2358L15.4854 4.23584L16.0157 4.76617ZM11.5157 13.0162L18.2657 6.26617L17.7354 5.73584L10.9854 12.4858L11.5157 13.0162ZM19.7657 8.51617L13.0157 15.2662L12.4854 14.7358L19.2354 7.98584L19.7657 8.51617ZM17.5157 14.5162L19.7657 12.2662L19.2354 11.7358L16.9854 13.9858L17.5157 14.5162Z" fill="#6F3AD0"/>
</svg>
