<svg width="32" height="32" viewBox="0 0 32 32" fill="none" xmlns="http://www.w3.org/2000/svg">
<g clip-path="url(#clip0_7192_53470)">
<path d="M23.0843 24.3563C23.4358 24.7078 24.0056 24.7078 24.3571 24.3563C24.7085 24.0049 24.7085 23.435 24.3571 23.0835L23.0843 24.3563ZM24.3571 23.0835L19.2712 17.9976L17.9984 19.2704L23.0843 24.3563L24.3571 23.0835Z" fill="#454C53"/>
<circle cx="15.3977" cy="15.3977" r="5.23096" transform="rotate(-45 15.3977 15.3977)" stroke="#454C53" stroke-width="1.8"/>
<path fill-rule="evenodd" clip-rule="evenodd" d="M11.2992 9.56031L11.2992 6.8L19.6992 6.8V9.70912C19.957 9.90459 20.2045 10.1199 20.4397 10.3551C20.8547 10.7701 21.2079 11.2235 21.4992 11.7039V6C21.4992 5.44772 21.0515 5 20.4992 5L10.4992 5C9.94689 5 9.49917 5.44772 9.49917 6L9.49917 11.3874C9.74706 11.0237 10.0323 10.6778 10.355 10.3551C10.6515 10.0586 10.9676 9.79368 11.2992 9.56031ZM11.2992 21.2346C10.9676 21.0013 10.6515 20.7363 10.355 20.4398C10.0323 20.1172 9.74706 19.7713 9.49917 19.4075L9.49917 25C9.49917 25.5523 9.94689 26 10.4992 26L20.4992 26C21.0515 26 21.4992 25.5523 21.4992 25L21.4992 24.1855L19.6992 22.3855V24.2L11.2992 24.2L11.2992 21.2346Z" fill="#454C53"/>
</g>
<defs>
<clipPath id="clip0_7192_53470">
<rect width="21" height="21" fill="white" transform="translate(5 5)"/>
</clipPath>
</defs>
</svg>
