<svg width="32" height="32" viewBox="0 0 32 32" fill="none" xmlns="http://www.w3.org/2000/svg">
<path d="M14.0312 22.1875V22.8438L16.9844 20.6289C17.3125 20.3828 17.7227 20.2188 18.1738 20.2188H23.875C24.2031 20.2188 24.5312 19.9316 24.5312 19.5625V7.75C24.5312 7.42188 24.2031 7.09375 23.875 7.09375H8.125C7.75586 7.09375 7.46875 7.42188 7.46875 7.75V19.5625C7.46875 19.9316 7.75586 20.2188 8.125 20.2188H12.0625C13.1289 20.2188 14.0312 21.1211 14.0312 22.1875ZM13.9902 25.3457L13.7852 25.4688L13.0879 26.002C12.8828 26.166 12.6367 26.166 12.3906 26.084C12.1855 25.9609 12.0625 25.7559 12.0625 25.4688V24.6074V24.3613V24.3203V24.1562V22.1875H10.0938H8.125C6.64844 22.1875 5.5 21.0391 5.5 19.5625V7.75C5.5 6.31445 6.64844 5.125 8.125 5.125H23.875C25.3105 5.125 26.5 6.31445 26.5 7.75V19.5625C26.5 21.0391 25.3105 22.1875 23.875 22.1875H18.1738L14.0312 25.3047L13.9902 25.3457ZM15.0156 17.2656V14.6406H12.3906C11.8164 14.6406 11.4062 14.2305 11.4062 13.6562C11.4062 13.123 11.8164 12.6719 12.3906 12.6719H15.0156V10.0469C15.0156 9.51367 15.4258 9.0625 16 9.0625C16.5332 9.0625 16.9844 9.51367 16.9844 10.0469V12.6719H19.6094C20.1426 12.6719 20.5938 13.123 20.5938 13.6562C20.5938 14.2305 20.1426 14.6406 19.6094 14.6406H16.9844V17.2656C16.9844 17.8398 16.5332 18.25 16 18.25C15.4258 18.25 15.0156 17.8398 15.0156 17.2656Z" fill="#9EA4AA"/>
</svg>
