<svg width="24" height="24" viewBox="0 0 24 24" fill="none" xmlns="http://www.w3.org/2000/svg">
<path d="M12.6289 6.43359V11.3555H17.5508C17.9507 11.3555 18.2891 11.6938 18.2891 12.0938C18.2891 12.5244 17.9507 12.832 17.5508 12.832H12.6289V17.7539C12.6289 18.1846 12.2905 18.4922 11.8906 18.4922C11.46 18.4922 11.1523 18.1846 11.1523 17.7539V12.832H6.23047C5.7998 12.832 5.49219 12.5244 5.49219 12.0938C5.49219 11.6938 5.7998 11.3555 6.23047 11.3555H11.1523V6.43359C11.1523 6.03369 11.46 5.69531 11.8906 5.69531C12.2905 5.69531 12.6289 6.03369 12.6289 6.43359Z" fill="#20808D"/>
</svg>
