<svg width="24" height="24" viewBox="0 0 24 24" fill="none" xmlns="http://www.w3.org/2000/svg">
<path d="M18.5352 12.6475L13.1211 17.8154C12.8135 18.0923 12.3521 18.0923 12.0752 17.7847C11.7983 17.4771 11.7983 17.0156 12.106 16.7388L16.1973 12.832H5.73828C5.30762 12.832 5 12.5244 5 12.0938C5 11.6938 5.30762 11.3555 5.73828 11.3555H16.1973L12.106 7.47949C11.7983 7.20264 11.7983 6.71045 12.0752 6.43359C12.3521 6.12598 12.8442 6.12598 13.1211 6.40283L18.5352 11.5708C18.689 11.7246 18.7812 11.9092 18.7812 12.0938C18.7812 12.3091 18.689 12.4937 18.5352 12.6475Z" fill="white"/>
</svg>
