<?xml version="1.0" encoding="UTF-8"?>
<svg width="16px" height="16px" viewBox="0 0 16 16" version="1.1" xmlns="http://www.w3.org/2000/svg" xmlns:xlink="http://www.w3.org/1999/xlink">
    <title>ico_creating_text</title>
    <g id="Symbols" stroke="none" stroke-width="1" fill="none" fill-rule="evenodd">
        <g id="ico/16/creating_text">
            <g id="Group-5" transform="translate(7.485281, 8.485281) rotate(-315.000000) translate(-7.485281, -8.485281) translate(4.985281, -1.014719)">
                <path d="M2.5,0.665 C3.00672126,0.665 3.46547126,0.870389371 3.79754094,1.20245906 C4.12961063,1.53452874 4.335,1.99327874 4.335,2.5 L4.335,15.7592368 L2.75735413,17.6524118 L0.665,15.7570979 L0.665,2.5 C0.665,1.99327874 0.870389371,1.53452874 1.20245906,1.20245906 C1.53452874,0.870389371 1.99327874,0.665 2.5,0.665 Z" id="Rectangle" stroke="#FFFFFF" stroke-width="1.33"></path>
                <rect id="Rectangle" fill="#FFFFFF" x="0" y="4" width="5" height="1.33"></rect>
            </g>
            <path d="M7.48528137,13.9852814 L15.4852814,13.9852814 C15.7614237,13.9852814 15.9852814,14.209139 15.9852814,14.4852814 C15.9852814,14.7614237 15.7614237,14.9852814 15.4852814,14.9852814 L7.48528137,14.9852814 C7.209139,14.9852814 6.98528137,14.7614237 6.98528137,14.4852814 C6.98528137,14.209139 7.209139,13.9852814 7.48528137,13.9852814 Z" id="Rectangle" fill="#FFFFFF"></path>
        </g>
    </g>
</svg>