<?xml version="1.0" encoding="UTF-8"?>
<svg width="16px" height="16px" viewBox="0 0 16 16" version="1.1" xmlns="http://www.w3.org/2000/svg" xmlns:xlink="http://www.w3.org/1999/xlink">
    <title>ico_ai_resume</title>
    <g id="Symbols" stroke="none" stroke-width="1" fill="none" fill-rule="evenodd">
        <g id="Group" transform="translate(1.000000, 1.000000)">
            <path d="M14,5.5 C14,5.77614237 13.7761424,6 13.5,6 C13.2238576,6 13,5.77614237 13,5.5 L13,1 L8.5,1 C8.22385763,1 8,0.776142375 8,0.5 C8,0.223857625 8.22385763,5.07265313e-17 8.5,0 L14,0 L14,5.5 Z M0.5,8 C0.776142375,8 1,8.22385763 1,8.5 L1,13 L5.5,13 C5.77614237,13 6,13.2238576 6,13.5 C6,13.7761424 5.77614237,14 5.5,14 L0,14 L0,8.5 C-3.38176876e-17,8.22385763 0.223857625,8 0.5,8 Z" id="Combined-Shape" fill="currentColor"></path>
            <line x1="13" y1="1" x2="1" y2="13" id="Path-15" stroke="currentColor"></line>
        </g>
    </g>
</svg>