<?xml version="1.0" encoding="UTF-8"?>
<svg width="24px" height="24px" viewBox="0 0 24 24" version="1.1" xmlns="http://www.w3.org/2000/svg" xmlns:xlink="http://www.w3.org/1999/xlink">
    <title>ico/non_select</title>
    <defs>
        <path d="M23,0 L23.0015996,13.1026501 C21.7309694,11.8051427 19.9595103,11 18,11 C14.1340068,11 11,14.1340068 11,18 C11,19.9595103 11.8051427,21.7309694 13.1026501,23.0015996 L0,23 L0,0 L23,0 Z" id="path-1"></path>
    </defs>
    <g id="ico/non_select" stroke="none" stroke-width="1" fill="none" fill-rule="evenodd">
        <g id="Group-15">
            <g id="Group-14">
                <mask id="mask-2" fill="white">
                    <use xlink:href="#path-1"></use>
                </mask>
                <g id="Mask"></g>
                <g mask="url(#mask-2)" stroke="#6f3ad0" stroke-width="2">
                    <g transform="translate(2.000000, 3.000000)">
                        <rect id="Rectangle" stroke-linejoin="round" x="0" y="0" width="20" height="18"></rect>
                        <path d="M0.0232622557,18 L0,14.7505393 L4.38578544,8.69248298 C5.0794959,7.89243777 6.3386686,7.76730048 7.19822638,8.41298104 C7.3271903,8.50985585 7.44271788,8.6212744 7.54215246,8.74467454 L9.179,10.777 L12.6349565,5.95989676 C12.8296607,5.68841195 13.1066784,5.4597907 13.4402221,5.29367737 L13.6115851,5.21592065 C14.7852954,4.73287301 16.2360464,5.08754925 16.8519282,6.00811221 L20,11 L19.9190144,18 L0.0232622557,18 Z" id="Path"></path>
                    </g>
                </g>
            </g>
            <g id="Group-13" transform="translate(13.000000, 13.000000)" stroke="#6f3ad0" stroke-width="2">
                <circle id="Oval" cx="5" cy="5" r="5"></circle>
                <line x1="8.10819491" y1="1.41362126" x2="1.41362126" y2="8.10819491" id="Line-3" stroke-linecap="square"></line>
            </g>
        </g>
    </g>
</svg>