<svg width="32" height="33" viewBox="0 0 32 33" fill="none" xmlns="http://www.w3.org/2000/svg">
<path d="M11.834 14.4102C11.6699 14.5742 11.4238 14.6562 11.2188 14.6562H7.60938C7.4043 14.6562 7.28125 14.8203 7.28125 14.9844V18.2656C7.28125 18.4707 7.4043 18.5938 7.60938 18.5938H11.2188C11.4238 18.5938 11.6699 18.7168 11.834 18.8809L16.4688 22.9414V10.3496L11.834 14.4102ZM17.207 7.4375C17.8633 7.4375 18.4375 8.01172 18.4375 8.66797V24.623C18.4375 25.2793 17.8633 25.8125 17.207 25.8125C16.8789 25.8125 16.5918 25.7305 16.3867 25.5254L10.8086 20.5625H7.60938C6.33789 20.5625 5.3125 19.5371 5.3125 18.2656V14.9844C5.3125 13.7539 6.33789 12.6875 7.60938 12.6875H10.8086L16.3867 7.76562C16.5918 7.56055 16.8789 7.4375 17.207 7.4375ZM24.7129 10.5137V10.5547C26.4766 11.9902 27.625 14.1641 27.625 16.666C27.625 19.127 26.4766 21.3008 24.7129 22.7773C24.2617 23.1055 23.6465 23.0234 23.3184 22.6133C22.9902 22.2031 23.0312 21.5879 23.4414 21.2188C24.7949 20.1523 25.6562 18.5117 25.6562 16.625C25.6562 14.7793 24.7949 13.1387 23.4414 12.0723C23.0312 11.7031 22.9492 11.0879 23.3184 10.6777C23.6465 10.2676 24.2617 10.1855 24.7129 10.5137ZM22.2109 13.5898C23.1133 14.3281 23.6875 15.3945 23.6875 16.625C23.6875 17.8965 23.1133 18.9629 22.2109 19.7012C21.8008 20.0293 21.1855 19.9883 20.8164 19.5781C20.4883 19.127 20.5703 18.5117 20.9805 18.1836C21.4316 17.8145 21.7188 17.2402 21.7188 16.625C21.7188 16.0098 21.4316 15.4766 20.9805 15.1074C20.5703 14.7793 20.4883 14.1641 20.8164 13.7129C21.1855 13.3027 21.8008 13.2617 22.2109 13.5898Z" fill="#D8D8D8"/>
</svg>
