<svg width="41" height="40" viewBox="0 0 41 40" fill="none" xmlns="http://www.w3.org/2000/svg">
<path opacity="0.4" d="M7.16602 18.333H33.8327V28.333C33.8327 30.1715 32.3379 31.6663 30.4994 31.6663H10.4993C8.66081 31.6663 7.16602 30.1715 7.16602 28.333V18.333Z" fill="#6F3AD0"/>
<path d="M10.4993 8.33301C8.66081 8.33301 7.16602 9.8278 7.16602 11.6663V18.333H33.8327V11.6663C33.8327 9.8278 32.3379 8.33301 30.4993 8.33301H10.4993ZM12.166 11.6663C12.608 11.6663 13.032 11.8419 13.3445 12.1545C13.6571 12.4671 13.8327 12.891 13.8327 13.333C13.8327 13.775 13.6571 14.199 13.3445 14.5115C13.032 14.8241 12.608 14.9997 12.166 14.9997C11.724 14.9997 11.3001 14.8241 10.9875 14.5115C10.6749 14.199 10.4993 13.775 10.4993 13.333C10.4993 12.891 10.6749 12.4671 10.9875 12.1545C11.3001 11.8419 11.724 11.6663 12.166 11.6663ZM15.4993 13.333C15.4993 12.891 15.6749 12.4671 15.9875 12.1545C16.3001 11.8419 16.724 11.6663 17.166 11.6663C17.608 11.6663 18.032 11.8419 18.3445 12.1545C18.6571 12.4671 18.8327 12.891 18.8327 13.333C18.8327 13.775 18.6571 14.199 18.3445 14.5115C18.032 14.8241 17.608 14.9997 17.166 14.9997C16.724 14.9997 16.3001 14.8241 15.9875 14.5115C15.6749 14.199 15.4993 13.775 15.4993 13.333ZM22.166 11.6663C22.608 11.6663 23.032 11.8419 23.3445 12.1545C23.6571 12.4671 23.8327 12.891 23.8327 13.333C23.8327 13.775 23.6571 14.199 23.3445 14.5115C23.032 14.8241 22.608 14.9997 22.166 14.9997C21.724 14.9997 21.3001 14.8241 20.9875 14.5115C20.6749 14.199 20.4993 13.775 20.4993 13.333C20.4993 12.891 20.6749 12.4671 20.9875 12.1545C21.3001 11.8419 21.724 11.6663 22.166 11.6663Z" fill="#6F3AD0"/>
<path d="M30.9838 33.4067L30.9882 33.4209L30.9931 33.4349C31.0884 33.706 31.2406 33.9782 31.4873 34.1844C31.7462 34.4009 32.0562 34.5 32.375 34.5C32.6938 34.5 33.0038 34.4009 33.2627 34.1844C33.5094 33.9782 33.6616 33.706 33.7569 33.4349L33.7618 33.4209L33.7662 33.4067L34.5362 30.9034C34.8121 30.3176 35.0504 30.0366 35.4709 29.9021L36.979 29.592L36.9975 29.5882L37.0159 29.5835C37.6989 29.4067 38.125 28.7745 38.125 28.1116C38.125 27.4486 37.6989 26.8165 37.0159 26.6397L36.9975 26.635L36.979 26.6312L35.4629 26.3195C35.1178 26.2196 34.963 26.1067 34.8685 26.0064C34.7604 25.8918 34.6717 25.7331 34.5414 25.4256L33.7676 22.8483L33.7456 22.7749L33.7092 22.7075C33.5051 22.3294 33.172 21.8877 32.6309 21.7752L32.5887 21.7664L32.5459 21.7625L32.4427 21.7532L32.4179 21.7509L32.3931 21.7504C31.6964 21.7336 31.2731 22.2773 31.0408 22.7075L31.0044 22.7749L30.9824 22.8483L30.2086 25.4256C30.0783 25.7331 29.9896 25.8918 29.8815 26.0064C29.787 26.1067 29.6322 26.2196 29.2871 26.3195L27.771 26.6312L27.7524 26.635L27.7341 26.6397C27.0511 26.8165 26.625 27.4486 26.625 28.1116C26.625 28.7745 27.0511 29.4067 27.7341 29.5835L27.7524 29.5882L27.771 29.592L29.2791 29.9021C29.6996 30.0366 29.9379 30.3176 30.2138 30.9034L30.9838 33.4067Z" fill="#6F3AD0" stroke="white" stroke-width="1.5"/>
</svg>
