<svg width="20" height="20" viewBox="0 0 20 20" fill="none" xmlns="http://www.w3.org/2000/svg">
<circle cx="10" cy="10" r="10" fill="#9D75EC"/>
<path d="M10.025 15.2624C9.21667 15.2624 8.47292 15.0853 7.79375 14.7312C7.11458 14.377 6.57292 13.8645 6.16875 13.1937C5.76458 12.5228 5.5625 11.7291 5.5625 10.8124V9.06243C5.5625 8.15409 5.76458 7.36243 6.16875 6.68743C6.57292 6.01243 7.11458 5.49784 7.79375 5.14368C8.47292 4.78951 9.21667 4.61243 10.025 4.61243C11.125 4.61243 12.0521 4.91451 12.8063 5.51868C13.2475 5.87217 13.688 6.66998 13.9777 7.27116C14.1697 7.66981 13.9447 8.13108 13.5195 8.25377L13.1197 8.36916C12.7422 8.47811 12.3454 8.27666 12.1816 7.91949C12.0168 7.56017 11.7997 7.14929 11.6 6.96868C11.2083 6.61451 10.6833 6.43743 10.025 6.43743C9.56667 6.43743 9.14792 6.53951 8.76875 6.74368C8.38958 6.94784 8.0875 7.25409 7.8625 7.66243C7.6375 8.07076 7.525 8.56243 7.525 9.13743V10.7374C7.525 11.3124 7.6375 11.8041 7.8625 12.2124C8.0875 12.6208 8.38958 12.927 8.76875 13.1312C9.14792 13.3353 9.56667 13.4374 10.025 13.4374C10.6833 13.4374 11.2083 13.2603 11.6 12.9062C11.7997 12.7256 12.0168 12.3147 12.1816 11.9554C12.3454 11.5982 12.7422 11.3967 13.1197 11.5057L13.5195 11.6211C13.9447 11.7438 14.1697 12.205 13.9777 12.6037C13.688 13.2049 13.2475 14.0027 12.8063 14.3562C12.0521 14.9603 11.125 15.2624 10.025 15.2624Z" fill="#EDE5FE"/>
</svg>
