<svg width="24" height="24" viewBox="0 0 24 24" fill="none" xmlns="http://www.w3.org/2000/svg">
<path d="M6.5 4.75V5.625L9.15625 4.96875C10.3438 4.6875 11.5938 4.8125 12.6875 5.375C14.125 6.09375 15.8438 6.09375 17.2812 5.375L17.5938 5.21875C18.2188 4.90625 19 5.375 19 6.09375V14.8125C19 15.25 18.7188 15.5938 18.3438 15.75L17.25 16.1562C15.8125 16.7188 14.2188 16.625 12.8125 15.9375C11.625 15.3438 10.2812 15.1875 9 15.5L6.5 16.125V19.25C6.5 19.6875 6.15625 20 5.75 20C5.3125 20 5 19.6875 5 19.25V16.5V14.9688V6V4.75C5 4.34375 5.3125 4 5.75 4C6.15625 4 6.5 4.34375 6.5 4.75ZM6.5 7.1875V14.5938L8.625 14.0625C10.25 13.6562 12 13.8438 13.5 14.5938C14.5 15.0938 15.6562 15.1562 16.7188 14.75L17.5 14.4688V6.90625C15.7188 7.625 13.7188 7.5625 12.0312 6.71875C11.25 6.3125 10.3438 6.21875 9.5 6.4375L6.5 7.1875Z" fill="#6F3AD0"/>
</svg>
