<svg width="32" height="32" viewBox="0 0 32 32" fill="none" xmlns="http://www.w3.org/2000/svg">
<path d="M14.7285 24.3613L14.6465 24.2383L7.46875 17.5938C6.19727 16.4043 5.5 14.7637 5.5 13.041V12.918C5.5 10.0469 7.55078 7.54492 10.3809 7.01172C11.9805 6.68359 13.6211 7.05273 14.9746 7.99609C15.3438 8.24219 15.6719 8.57031 16 8.89844C16.1641 8.73438 16.3281 8.5293 16.5332 8.36523C16.6973 8.24219 16.8613 8.11914 17.0254 7.99609C18.3379 7.05273 19.9785 6.68359 21.5781 7.01172C24.4492 7.54492 26.5 10.0469 26.5 12.918V13.041C26.5 14.7637 25.7617 16.4043 24.4902 17.5938L17.3125 24.2383L17.2305 24.3613C16.9023 24.6484 16.4512 24.8535 16 24.8535C15.5078 24.8535 15.0977 24.6484 14.7285 24.3613ZM15.3027 11.0723C15.2617 11.0723 15.2617 11.0723 15.2617 11.0312L14.5234 10.2109C13.5801 9.14453 12.1445 8.69336 10.75 8.93945C8.82227 9.30859 7.46875 10.9902 7.46875 12.918V13.041C7.46875 14.2305 7.91992 15.3379 8.78125 16.1172L16 22.8027L23.1777 16.1172C24.0391 15.3379 24.5312 14.2305 24.5312 13.041V12.918C24.5312 10.9902 23.1367 9.30859 21.209 8.93945C19.8145 8.69336 18.3789 9.14453 17.4355 10.2109L16.6973 11.0312C16.6973 11.0723 16.6973 11.0723 16.6562 11.1133C16.4922 11.2773 16.2461 11.4004 16 11.4004C15.7129 11.4004 15.4668 11.2773 15.3027 11.1133V11.0723Z" fill="#454C53"/>
</svg>
