<svg width="64" height="64" viewBox="0 0 64 64" fill="none" xmlns="http://www.w3.org/2000/svg">
    <path fill-rule="evenodd" clip-rule="evenodd" d="M18 5a4 4 0 0 0-4 4v48a4 4 0 0 0 4 4h25l15-15V9a4 4 0 0 0-4-4H18z" fill="#E3E5E8"/>
    <path d="M58 46H46.997A3.998 3.998 0 0 0 43 50v11l15-15z" fill="#B3B8BD"/>
    <path fill-rule="evenodd" clip-rule="evenodd" d="M33 22.5a1.5 1.5 0 0 1 1.5-1.5h14a1.5 1.5 0 0 1 0 3h-14a1.5 1.5 0 0 1-1.5-1.5zm-11 7a1.5 1.5 0 0 1 1.5-1.5h25a1.5 1.5 0 0 1 0 3h-25a1.5 1.5 0 0 1-1.5-1.5zm1.5 5.5a1.5 1.5 0 0 0 0 3h14a1.5 1.5 0 0 0 0-3h-14z" fill="#B3B8BD"/>
    <path d="M14.755 3.12c.763-1.364 2.727-1.364 3.49 0L28.26 21.025C29.004 22.357 28.04 24 26.513 24H6.487c-1.528 0-2.491-1.643-1.746-2.976L14.755 3.12z" fill="#FB4949"/>
    <path d="M15.163 10.141A1 1 0 0 1 16.153 9h.694a1 1 0 0 1 .99 1.141l-.766 5.364a.577.577 0 0 1-1.142 0l-.766-5.364z" fill="#fff"/>
    <circle cx="16.5" cy="19.5" r="1.5" fill="#fff"/>
</svg>
