<svg width="65" height="64" viewBox="0 0 65 64" fill="none" xmlns="http://www.w3.org/2000/svg">
    <path fill-rule="evenodd" clip-rule="evenodd" d="M55.072 18.961c-2.138 2.176-.675 6.852-.675 6.852l-9.005 6.96-8.556-13.268s3.264-1.306 3.264-4.241c0 0 .056-3.154-3.264-3.154 0 0 .676-4.404-4.558-4.404-5.236 0-4.56 4.404-4.56 4.404-3.32 0-3.265 3.154-3.265 3.154 0 2.935 3.265 4.241 3.265 4.241l-8.555 13.268-9.006-6.96s1.464-4.676-.676-6.852c-2.138-2.175-7.204-1.63-7.204-1.63l9.231 35.452h41.538l9.231-35.453s-5.066-.544-7.205 1.631" fill="#FFC600"/>
    <path fill-rule="evenodd" clip-rule="evenodd" d="M32.277 52.783h20.769l9.231-35.453s-5.066-.544-7.205 1.631c-2.139 2.176-.675 6.852-.675 6.852l-9.005 6.96-8.556-13.268s3.264-1.306 3.264-4.241c0 0 .056-3.154-3.264-3.154 0 0 .676-4.404-4.559-4.404v45.077z" fill="#E9A900"/>
    <path fill-rule="evenodd" clip-rule="evenodd" d="m32.277 30.423 7.052 9.918-7.052 9.917-7.052-9.917 7.052-9.918z" fill="#AA3010"/>
    <path fill-rule="evenodd" clip-rule="evenodd" d="M32.277 30.442v9.899h-6.92l6.906-9.918.014.02z" fill="#D64923"/>
    <path fill-rule="evenodd" clip-rule="evenodd" d="M32.277 50.239v-9.898h6.92l-6.906 9.917-.014-.019z" fill="#76240E"/>
    <path fill-rule="evenodd" clip-rule="evenodd" d="M59.01 3s.567 2.154 1.275 3.738c1.587.714 3.766 1.288 3.766 1.288s-2.18.573-3.766 1.287c-.708 1.584-1.275 3.738-1.275 3.738s-.57-2.17-1.282-3.755C56.145 8.59 54 8.026 54 8.026s2.145-.565 3.727-1.27C58.44 5.17 59.01 3 59.01 3zM16.564 13s.291 1.107.652 1.902c.785.341 1.81.61 1.81.61s-1.025.27-1.81.612c-.36.795-.652 1.902-.652 1.902s-.278-1.055-.627-1.845c-.796-.368-1.937-.668-1.937-.668s1.14-.3 1.938-.669c.348-.79.626-1.844.626-1.844zM6.285 54.738C5.577 53.154 5.01 51 5.01 51s-.57 2.17-1.282 3.755C2.145 55.461 0 56.025 0 56.025s2.145.565 3.728 1.271c.711 1.585 1.282 3.755 1.282 3.755s.567-2.154 1.275-3.738c1.587-.714 3.766-1.287 3.766-1.287s-2.18-.574-3.766-1.288zM56.7 51s.417 1.586.942 2.77c1.194.551 2.896 1 2.896 1s-1.702.447-2.896.998c-.525 1.184-.942 2.77-.942 2.77s-.436-1.656-.976-2.848c-1.18-.514-2.724-.92-2.724-.92s1.545-.407 2.724-.922c.54-1.191.976-2.848.976-2.848zM12.642 7.77C12.118 6.587 11.7 5 11.7 5s-.436 1.657-.976 2.848C9.544 8.363 8 8.77 8 8.77s1.545.407 2.724.921c.54 1.192.976 2.849.976 2.849s.418-1.587.942-2.771c1.194-.55 2.897-.999 2.897-.999s-1.703-.448-2.897-.998z" fill="#BBD8FD"/>
</svg>
