<svg width="296" height="66" viewBox="0 0 296 66" fill="none" xmlns="http://www.w3.org/2000/svg">
<path d="M37.0788 31.336C37.0788 33.768 36.8121 35.8267 36.2788 37.512C35.7668 39.1973 35.0841 40.552 34.2308 41.576C33.3988 42.6213 32.4281 43.3787 31.3188 43.848C30.2308 44.3173 29.1108 44.552 27.9588 44.552C26.7854 44.552 25.6441 44.3173 24.5348 43.848C23.4468 43.3787 22.4761 42.6213 21.6228 41.576C20.7908 40.552 20.1188 39.1973 19.6068 37.512C19.0948 35.8267 18.8388 33.768 18.8388 31.336C18.8388 28.904 19.0948 26.856 19.6068 25.192C20.1188 23.5067 20.7908 22.1413 21.6228 21.096C22.4761 20.0507 23.4468 19.2933 24.5348 18.824C25.6441 18.3547 26.7854 18.12 27.9588 18.12C29.1108 18.12 30.2308 18.3547 31.3188 18.824C32.4281 19.2933 33.3988 20.0507 34.2308 21.096C35.0841 22.1413 35.7668 23.5067 36.2788 25.192C36.8121 26.856 37.0788 28.904 37.0788 31.336ZM23.8308 31.336C23.8308 33.1493 23.9374 34.6533 24.1508 35.848C24.3854 37.0427 24.6841 38.0027 25.0468 38.728C25.4308 39.432 25.8681 39.9333 26.3588 40.232C26.8708 40.5093 27.4041 40.648 27.9588 40.648C28.4921 40.648 29.0041 40.5093 29.4948 40.232C30.0068 39.9333 30.4441 39.432 30.8068 38.728C31.1908 38.024 31.4894 37.0747 31.7028 35.88C31.9374 34.664 32.0548 33.1387 32.0548 31.304C32.0548 29.4907 31.9374 27.9867 31.7028 26.792C31.4894 25.5973 31.1908 24.648 30.8068 23.944C30.4441 23.24 30.0068 22.7493 29.4948 22.472C29.0041 22.1733 28.4921 22.024 27.9588 22.024C27.4041 22.024 26.8708 22.1733 26.3588 22.472C25.8681 22.7493 25.4308 23.2507 25.0468 23.976C24.6841 24.68 24.3854 25.6293 24.1508 26.824C23.9374 28.0187 23.8308 29.5227 23.8308 31.336ZM45.4628 44.552H40.4388V17.8H45.4628V44.552ZM66.6605 26.984L63.6205 27.688V33.832H49.8925V18.12H54.5005V21.896H59.0125V18.12H63.6205V23.688L66.6605 22.984V17.8H71.2685V36.904H66.6605V26.984ZM56.2605 36.072V41.32H78.5645V45.192H51.2365V36.072H56.2605ZM73.6045 36.904V17.8H78.2445V36.904H73.6045ZM59.0125 25.8H54.5005V29.928H59.0125V25.8ZM107.261 32.424V36.328H83.357V18.44H106.941V22.344H88.381V25.416H106.941V29.32H88.381V32.424H107.261ZM81.789 40.648H108.509V44.552H81.789V40.648ZM137.33 18.44V22.344H130.802V29.768C130.802 31.368 130.642 32.872 130.322 34.28L138.162 40.296L135.698 44.008L128.626 38.504C127.816 39.7413 126.781 40.8187 125.522 41.736C124.264 42.6533 122.696 43.4213 120.818 44.04L118.61 40.328C119.89 39.88 120.978 39.3787 121.874 38.824C122.792 38.2693 123.538 37.5867 124.114 36.776C124.69 35.944 125.106 34.9627 125.362 33.832C125.64 32.7013 125.778 31.336 125.778 29.736V22.344H119.57V18.44H137.33ZM144.69 27.816H147.474V31.72H144.69V44.552H139.666V17.8H144.69V27.816ZM159.52 29.768C159.52 30.6427 159.477 31.4747 159.392 32.264C159.328 33.032 159.221 33.7893 159.072 34.536L165.536 40.616L162.752 44.008L157.376 38.952C156.693 40.0613 155.819 41.0427 154.752 41.896C153.707 42.7707 152.427 43.4853 150.912 44.04L148.704 40.328C149.749 39.88 150.635 39.3787 151.36 38.824C152.085 38.2693 152.683 37.5867 153.152 36.776C153.621 35.944 153.963 34.9627 154.176 33.832C154.389 32.7013 154.496 31.336 154.496 29.736V18.056H159.52V29.768ZM166.848 44.552V30.088L162.336 31.656V27.336L166.848 25.768V17.8H171.456V44.552H166.848ZM178.432 44.552H173.792V17.8H178.432V44.552ZM199.289 35.432C199.289 37.0747 199.043 38.472 198.553 39.624C198.083 40.776 197.443 41.7147 196.633 42.44C195.843 43.1867 194.926 43.72 193.881 44.04C192.857 44.3813 191.79 44.552 190.681 44.552C189.55 44.552 188.473 44.3813 187.449 44.04C186.425 43.72 185.518 43.1867 184.729 42.44C183.939 41.7147 183.31 40.776 182.841 39.624C182.371 38.472 182.137 37.0747 182.137 35.432C182.137 33.8107 182.371 32.424 182.841 31.272C183.31 30.0987 183.939 29.1493 184.729 28.424C185.518 27.6987 186.425 27.1653 187.449 26.824C188.473 26.4827 189.55 26.312 190.681 26.312C191.79 26.312 192.857 26.4827 193.881 26.824C194.926 27.1653 195.843 27.6987 196.633 28.424C197.443 29.1493 198.083 30.0987 198.553 31.272C199.043 32.424 199.289 33.8107 199.289 35.432ZM208.057 44.552H203.033V17.8H208.057V44.552ZM193.209 20.36H200.057V24.264H181.337V20.36H188.185V17.064H193.209V20.36ZM187.129 35.432C187.129 37.096 187.459 38.3867 188.121 39.304C188.782 40.2 189.635 40.648 190.681 40.648C191.683 40.648 192.526 40.2 193.209 39.304C193.913 38.408 194.265 37.1067 194.265 35.4C194.265 33.736 193.913 32.456 193.209 31.56C192.526 30.664 191.683 30.216 190.681 30.216C189.635 30.216 188.782 30.6747 188.121 31.592C187.459 32.488 187.129 33.768 187.129 35.432ZM219.758 40.648H230.606V36.328H221.326V18.44H226.35V23.688H239.886V18.44H244.91V36.328H235.63V40.648H246.478V44.552H219.758V40.648ZM239.886 27.592H226.35V32.424H239.886V27.592ZM261.532 44.232V22.344H250.268V18.44H266.556V44.232H261.532ZM275.932 44.552H270.908V17.8H275.932V44.552Z" fill="#79B5FF"/>
<rect x="0.806235" y="0.806235" width="294.388" height="64.3875" rx="32.1938" stroke="#79B5FF" stroke-width="1.61247"/>
</svg>
