<svg width="552" height="66" viewBox="0 0 552 66" fill="none" xmlns="http://www.w3.org/2000/svg">
<rect width="552" height="66" rx="33" fill="url(#paint0_linear_2942_54491)"/>
<path d="M201.939 18.44V22.344H195.091V29.768C195.091 31.3893 194.92 32.872 194.579 34.216L202.771 40.296L200.307 44.008L192.819 38.376C192.008 39.656 190.942 40.7653 189.619 41.704C188.296 42.6427 186.686 43.4213 184.787 44.04L182.579 40.328C183.859 39.88 184.968 39.3787 185.907 38.824C186.846 38.2693 187.624 37.5867 188.243 36.776C188.862 35.944 189.32 34.9627 189.619 33.832C189.918 32.7013 190.067 31.336 190.067 29.736V22.344H183.539V18.44H201.939ZM209.619 44.552H204.595V17.8H209.619V44.552ZM238.785 45.192H215.201V34.792H238.785V45.192ZM220.225 38.696V41.288H233.761V38.696H220.225ZM233.441 22.024H215.521V18.12H238.465V27.528H233.441V22.024ZM213.633 29.032H240.353V32.936H213.633V29.032ZM264.79 45.832C260.929 45.832 257.942 45.3733 255.83 44.456C253.718 43.56 252.662 42.12 252.662 40.136C252.662 38.152 253.718 36.712 255.83 35.816C257.942 34.92 260.929 34.472 264.79 34.472C268.651 34.472 271.638 34.92 273.75 35.816C275.862 36.712 276.918 38.152 276.918 40.136C276.918 42.12 275.862 43.56 273.75 44.456C271.638 45.3733 268.651 45.832 264.79 45.832ZM251.414 28.872H260.662V24.84H265.686V28.872H278.134V32.776H251.414V28.872ZM271.222 22.024H253.302V18.12H276.246V27.208H271.222V22.024ZM264.79 41.928C267.243 41.928 269.035 41.768 270.166 41.448C271.318 41.128 271.894 40.6907 271.894 40.136C271.894 39.5813 271.318 39.144 270.166 38.824C269.035 38.504 267.243 38.344 264.79 38.344C262.337 38.344 260.534 38.504 259.382 38.824C258.251 39.144 257.686 39.5813 257.686 40.136C257.686 40.6907 258.251 41.128 259.382 41.448C260.534 41.768 262.337 41.928 264.79 41.928ZM282.756 25.672C282.756 24.328 283.065 23.176 283.684 22.216C284.324 21.256 285.188 20.4773 286.276 19.88C287.385 19.2613 288.676 18.8133 290.148 18.536C291.62 18.2373 293.188 18.088 294.852 18.088C296.516 18.088 298.084 18.2373 299.556 18.536C301.028 18.8133 302.308 19.2613 303.396 19.88C304.505 20.4773 305.38 21.256 306.02 22.216C306.66 23.176 306.98 24.328 306.98 25.672C306.98 27.016 306.66 28.168 306.02 29.128C305.38 30.088 304.505 30.8773 303.396 31.496C302.308 32.0933 301.028 32.5413 299.556 32.84C298.084 33.1173 296.516 33.256 294.852 33.256C293.188 33.256 291.62 33.1173 290.148 32.84C288.676 32.5413 287.385 32.0933 286.276 31.496C285.188 30.8773 284.324 30.088 283.684 29.128C283.065 28.168 282.756 27.016 282.756 25.672ZM286.916 45.544V39.976H281.508V36.072H308.228V39.976H302.82V45.544H297.796V39.976H291.94V45.544H286.916ZM287.78 25.672C287.78 26.888 288.398 27.8053 289.636 28.424C290.894 29.0427 292.633 29.352 294.852 29.352C297.049 29.352 298.777 29.0427 300.036 28.424C301.316 27.8053 301.956 26.888 301.956 25.672C301.956 24.456 301.316 23.5387 300.036 22.92C298.777 22.3013 297.049 21.992 294.852 21.992C292.633 21.992 290.894 22.3013 289.636 22.92C288.398 23.5387 287.78 24.456 287.78 25.672ZM328.274 35.432C328.274 37.0747 328.05 38.472 327.602 39.624C327.154 40.776 326.546 41.7147 325.778 42.44C325.031 43.1867 324.156 43.72 323.154 44.04C322.151 44.3813 321.095 44.552 319.986 44.552C318.855 44.552 317.788 44.3813 316.786 44.04C315.804 43.72 314.94 43.1867 314.194 42.44C313.447 41.7147 312.85 40.776 312.402 39.624C311.975 38.472 311.762 37.0747 311.762 35.432C311.762 33.8107 311.975 32.424 312.402 31.272C312.85 30.0987 313.447 29.1493 314.194 28.424C314.94 27.6987 315.804 27.1653 316.786 26.824C317.788 26.4827 318.855 26.312 319.986 26.312C321.095 26.312 322.151 26.4827 323.154 26.824C324.156 27.1653 325.031 27.6987 325.778 28.424C326.546 29.1493 327.154 30.0987 327.602 31.272C328.05 32.424 328.274 33.8107 328.274 35.432ZM336.722 27.816H339.506V31.72H336.722V44.552H331.698V17.8H336.722V27.816ZM322.514 20.36H329.042V24.264H310.962V20.36H317.49V17.064H322.514V20.36ZM316.754 35.432C316.754 37.096 317.031 38.3867 317.586 39.304C318.14 40.2 318.94 40.648 319.986 40.648C320.988 40.648 321.778 40.2 322.354 39.304C322.951 38.408 323.25 37.1067 323.25 35.4C323.25 33.736 322.951 32.456 322.354 31.56C321.778 30.664 320.988 30.216 319.986 30.216C318.94 30.216 318.14 30.6747 317.586 31.592C317.031 32.488 316.754 33.768 316.754 35.432ZM353.375 44.232V22.344H342.111V18.44H358.399V44.232H353.375ZM367.775 44.552H362.751V17.8H367.775V44.552Z" fill="#171717"/>
<defs>
<linearGradient id="paint0_linear_2942_54491" x1="0" y1="33.0001" x2="552" y2="33.0001" gradientUnits="userSpaceOnUse">
<stop stop-color="#79B5FF"/>
<stop offset="0.5" stop-color="#D2F7FF"/>
<stop offset="1" stop-color="#E3D9FC"/>
</linearGradient>
</defs>
</svg>
