<svg width="291" height="65" viewBox="0 0 291 65" fill="none" xmlns="http://www.w3.org/2000/svg">
<path d="M15.604 23.968V0.839999H18.404V11.368L21.568 10.276V0.839999H24.368V23.968H21.568V12.6L18.404 13.692V23.968H15.604ZM3.76 1.4V21.392H13.812V23.688H0.96V1.4H3.76ZM38.7243 23.688V3.696H28.1123V1.4H41.5243V23.688H38.7243ZM48.6083 10.024H51.8843V12.32H48.6083V23.968H45.8083V0.839999H48.6083V10.024ZM74.5829 1.12V14.588H61.1709V1.12H74.5829ZM71.7829 12.292V3.416H63.9709V12.292H71.7829ZM65.1469 16.828V22.232H81.9469V24.528H62.3469V16.828H65.1469ZM81.6669 8.232V17.276H78.8669V0.839999H81.6669V5.936H84.9429V8.232H81.6669ZM87.139 13.02H109.679V15.316H87.139V13.02ZM91.311 17.108V22.232H108.587V24.528H88.511V17.108H91.311ZM108.307 8.176V10.472H88.791V1.12H108.027V3.416H91.591V8.176H108.307ZM250.995 24.08C250.995 25.3493 250.771 26.2827 250.323 26.88C249.875 27.496 249.053 27.8787 247.859 28.028V26.432C248.437 26.3573 248.839 26.1707 249.063 25.872C249.287 25.5733 249.399 24.9947 249.399 24.136H247.915V21.14H250.995V24.08ZM1.968 40.092H21.764V42.388H17.872V45.664H21.764V47.96H13.252V49.948H23.136V52.244H0.596V49.948H10.452V47.96H1.968V45.664H5.832V42.388H1.968V40.092ZM18.964 57.536V56.108H1.968V53.812H21.764V59.832H4.768V61.232H22.044V63.528H1.968V57.536H18.964ZM8.632 45.664H15.072V42.388H8.632V45.664ZM26.7178 42.696V40.4H40.1298V52.776H29.5178V60.392H40.6898V62.688H26.7178V50.48H37.3298V42.696H26.7178ZM47.2138 49.024H50.4898V51.32H47.2138V62.968H44.4138V39.84H47.2138V49.024ZM53.0498 42.696V40.4H67.0218V52.776H55.8498V60.392H67.5818V62.688H53.0498V50.48H64.2218V42.696H53.0498ZM74.3858 62.968H71.5858V39.84H74.3858V62.968ZM91.2742 40.512V43.788C91.2742 44.516 91.2276 45.216 91.1342 45.888C91.0596 46.56 90.9196 47.204 90.7142 47.82L100.598 53.952L99.2822 55.94L89.7342 50.06C88.9129 51.4227 87.6809 52.6173 86.0382 53.644C84.4142 54.6707 82.2489 55.52 79.5422 56.192L78.4782 54.008C80.3262 53.56 81.8849 53.028 83.1542 52.412C84.4236 51.7773 85.4502 51.0493 86.2342 50.228C87.0369 49.4067 87.6062 48.464 87.9422 47.4C88.2969 46.3173 88.4742 45.104 88.4742 43.76V40.512H91.2742ZM78.1702 60.672H100.71V62.968H78.1702V60.672ZM114.176 57.928H119.216V39.84H122.016V62.968H119.216V60.224H114.176V57.928ZM127.7 62.968H124.9V39.84H127.7V62.968ZM108.744 62.968V55.66H103.228V53.364H117.9V55.66H111.544V62.968H108.744ZM111.768 41.94C111.768 43.0227 111.628 43.9933 111.348 44.852L117.284 49.024L115.8 50.928L110.2 47.008C109.005 48.52 107.073 49.7893 104.404 50.816L103.116 48.604C104.255 48.2493 105.197 47.8573 105.944 47.428C106.709 46.9987 107.307 46.5227 107.736 46C108.184 45.4587 108.492 44.852 108.66 44.18C108.847 43.508 108.94 42.752 108.94 41.912V39.84H111.768V41.94ZM152.78 62.968H149.98V51.292L145.696 52.804C145.603 54.596 145.332 56.136 144.884 57.424C144.436 58.6933 143.867 59.7387 143.176 60.56C142.486 61.4 141.702 62.0067 140.824 62.38C139.966 62.772 139.079 62.968 138.164 62.968C137.156 62.968 136.195 62.7533 135.28 62.324C134.384 61.8947 133.582 61.2133 132.872 60.28C132.182 59.3653 131.631 58.1893 131.22 56.752C130.81 55.296 130.604 53.56 130.604 51.544C130.604 49.528 130.81 47.8013 131.22 46.364C131.631 44.9267 132.182 43.7507 132.872 42.836C133.582 41.9027 134.384 41.2213 135.28 40.792C136.195 40.344 137.156 40.12 138.164 40.12C139.098 40.12 140.003 40.3253 140.88 40.736C141.758 41.128 142.542 41.7533 143.232 42.612C143.923 43.452 144.483 44.5347 144.912 45.86C145.36 47.1667 145.622 48.744 145.696 50.592L149.98 49.08V39.84H152.78V62.968ZM133.404 51.544C133.404 53.2427 133.526 54.68 133.768 55.856C134.03 57.0133 134.375 57.9467 134.804 58.656C135.234 59.3653 135.738 59.8787 136.316 60.196C136.895 60.5133 137.511 60.672 138.164 60.672C138.799 60.672 139.406 60.5133 139.984 60.196C140.563 59.8973 141.067 59.3933 141.496 58.684C141.926 57.956 142.262 57.0133 142.504 55.856C142.766 54.68 142.896 53.2333 142.896 51.516C142.896 49.8173 142.766 48.3893 142.504 47.232C142.262 46.0747 141.926 45.1413 141.496 44.432C141.067 43.7227 140.563 43.2093 139.984 42.892C139.406 42.5747 138.799 42.416 138.164 42.416C137.511 42.416 136.895 42.5747 136.316 42.892C135.738 43.2093 135.234 43.7227 134.804 44.432C134.375 45.1413 134.03 46.084 133.768 47.26C133.526 48.4173 133.404 49.8453 133.404 51.544ZM172.973 62.968V51.516L170.005 52.552C169.949 54.4 169.725 55.9867 169.333 57.312C168.959 58.6187 168.465 59.692 167.849 60.532C167.233 61.372 166.514 61.988 165.693 62.38C164.871 62.772 163.994 62.968 163.061 62.968C162.053 62.968 161.119 62.7533 160.261 62.324C159.421 61.8947 158.693 61.2133 158.077 60.28C157.461 59.3653 156.975 58.1893 156.621 56.752C156.266 55.296 156.089 53.56 156.089 51.544C156.089 49.528 156.266 47.8013 156.621 46.364C156.975 44.9267 157.461 43.7507 158.077 42.836C158.693 41.9027 159.421 41.2213 160.261 40.792C161.119 40.344 162.053 40.12 163.061 40.12C163.994 40.12 164.862 40.316 165.665 40.708C166.486 41.1 167.205 41.7067 167.821 42.528C168.437 43.3493 168.931 44.4133 169.305 45.72C169.697 47.008 169.93 48.548 170.005 50.34L172.973 49.304V39.84H175.773V62.968H172.973ZM158.889 51.544C158.889 53.2427 158.982 54.68 159.169 55.856C159.355 57.0133 159.626 57.9467 159.981 58.656C160.335 59.3653 160.774 59.8787 161.297 60.196C161.819 60.5133 162.407 60.672 163.061 60.672C163.695 60.672 164.265 60.5133 164.769 60.196C165.291 59.8973 165.73 59.3933 166.085 58.684C166.458 57.956 166.738 57.0133 166.925 55.856C167.111 54.68 167.205 53.2333 167.205 51.516C167.205 49.8173 167.111 48.3893 166.925 47.232C166.738 46.0747 166.458 45.1413 166.085 44.432C165.73 43.7227 165.291 43.2093 164.769 42.892C164.265 42.5747 163.695 42.416 163.061 42.416C162.407 42.416 161.819 42.5747 161.297 42.892C160.774 43.2093 160.335 43.7227 159.981 44.432C159.626 45.1413 159.355 46.084 159.169 47.26C158.982 48.4173 158.889 49.8453 158.889 51.544ZM181.457 62.968H178.657V39.84H181.457V62.968ZM201.728 64.088C200.16 64.088 198.75 63.9853 197.5 63.78C196.249 63.5933 195.176 63.2947 194.28 62.884C193.402 62.4733 192.721 61.9413 192.236 61.288C191.769 60.6533 191.536 59.8787 191.536 58.964C191.536 58.0493 191.769 57.2747 192.236 56.64C192.721 55.9867 193.402 55.4547 194.28 55.044C195.176 54.6333 196.249 54.3347 197.5 54.148C198.75 53.9613 200.16 53.868 201.728 53.868C203.296 53.868 204.705 53.9613 205.956 54.148C207.206 54.3347 208.27 54.6333 209.148 55.044C210.044 55.4547 210.725 55.9867 211.192 56.64C211.677 57.2747 211.92 58.0493 211.92 58.964C211.92 59.8787 211.677 60.6533 211.192 61.288C210.725 61.9413 210.044 62.4733 209.148 62.884C208.27 63.2947 207.206 63.5933 205.956 63.78C204.705 63.9853 203.296 64.088 201.728 64.088ZM201.728 61.792C202.848 61.792 203.856 61.736 204.752 61.624C205.666 61.5307 206.441 61.372 207.076 61.148C207.729 60.924 208.233 60.6253 208.588 60.252C208.942 59.8973 209.12 59.468 209.12 58.964C209.12 58.46 208.942 58.0307 208.588 57.676C208.233 57.3213 207.729 57.032 207.076 56.808C206.441 56.584 205.666 56.4253 204.752 56.332C203.856 56.22 202.848 56.164 201.728 56.164C200.608 56.164 199.59 56.22 198.676 56.332C197.761 56.4253 196.977 56.584 196.324 56.808C195.689 57.032 195.194 57.3213 194.84 57.676C194.504 58.0307 194.336 58.46 194.336 58.964C194.336 59.468 194.504 59.8973 194.84 60.252C195.194 60.6253 195.689 60.924 196.324 61.148C196.977 61.372 197.761 61.5307 198.676 61.624C199.59 61.736 200.608 61.792 201.728 61.792ZM190.444 49.668H199.712V45.44H202.512V49.668H212.984V51.964H190.444V49.668ZM208.532 48.072V42.416H192.096V40.12H211.332V48.072H208.532ZM227.457 53.084C225.889 53.084 224.48 52.9347 223.229 52.636C221.979 52.3373 220.915 51.908 220.037 51.348C219.16 50.788 218.479 50.1067 217.993 49.304C217.527 48.5013 217.293 47.596 217.293 46.588C217.293 45.58 217.527 44.6747 217.993 43.872C218.479 43.0693 219.16 42.388 220.037 41.828C220.915 41.268 221.979 40.8387 223.229 40.54C224.48 40.2413 225.889 40.092 227.457 40.092C228.951 40.092 230.323 40.2413 231.573 40.54C232.824 40.8387 233.897 41.268 234.793 41.828C235.689 42.388 236.389 43.0693 236.893 43.872C237.397 44.6747 237.649 45.58 237.649 46.588C237.649 47.596 237.407 48.5013 236.921 49.304C236.455 50.1067 235.773 50.788 234.877 51.348C234 51.908 232.936 52.3373 231.685 52.636C230.435 52.9347 229.025 53.084 227.457 53.084ZM227.457 50.788C229.847 50.788 231.676 50.4053 232.945 49.64C234.215 48.856 234.849 47.8387 234.849 46.588C234.849 45.3373 234.215 44.3293 232.945 43.564C231.676 42.78 229.847 42.388 227.457 42.388C225.068 42.388 223.239 42.78 221.969 43.564C220.719 44.3293 220.093 45.3373 220.093 46.588C220.093 47.8387 220.719 48.856 221.969 49.64C223.239 50.4053 225.068 50.788 227.457 50.788ZM221.577 63.836V58.544H216.201V56.248H238.741V58.544H233.337V63.836H230.537V58.544H224.377V63.836H221.577ZM256.267 54.848C256.267 56.3227 256.071 57.5827 255.679 58.628C255.287 59.6547 254.765 60.4853 254.111 61.12C253.458 61.7733 252.702 62.24 251.843 62.52C250.985 62.8187 250.089 62.968 249.155 62.968C248.203 62.968 247.298 62.8187 246.439 62.52C245.599 62.24 244.853 61.7733 244.199 61.12C243.565 60.4853 243.051 59.6547 242.659 58.628C242.286 57.5827 242.099 56.3227 242.099 54.848C242.099 53.3733 242.286 52.1227 242.659 51.096C243.051 50.0693 243.565 49.2387 244.199 48.604C244.853 47.9507 245.599 47.4747 246.439 47.176C247.298 46.8773 248.203 46.728 249.155 46.728C250.089 46.728 250.985 46.8773 251.843 47.176C252.702 47.4747 253.458 47.9507 254.111 48.604C254.765 49.2387 255.287 50.0693 255.679 51.096C256.071 52.1227 256.267 53.3733 256.267 54.848ZM244.899 54.848C244.899 56.7707 245.282 58.2267 246.047 59.216C246.813 60.1867 247.849 60.672 249.155 60.672C250.406 60.672 251.433 60.1867 252.235 59.216C253.038 58.2453 253.439 56.78 253.439 54.82C253.439 52.8973 253.038 51.4507 252.235 50.48C251.433 49.5093 250.406 49.024 249.155 49.024C247.849 49.024 246.813 49.5187 246.047 50.508C245.282 51.4787 244.899 52.9253 244.899 54.848ZM262.819 49.024H266.095V51.32H262.819V62.968H260.019V39.84H262.819V49.024ZM241.399 42.08H247.755V39.056H250.555V42.08H256.939V44.376H241.399V42.08ZM286.659 56.612V42.696H269.663V40.4H289.459V56.612H286.659ZM268.291 60.672H277.559V49.22H280.359V60.672H290.831V62.968H268.291V60.672Z" fill="#E5E5E5"/>
<path d="M118.587 24.22L126.147 1.904H133.483L141.043 24.22H135.219L133.091 17.976L125.867 19.964L124.411 24.22H118.587ZM127.659 14.672L131.579 13.58L129.815 8.344L127.659 14.672ZM149.382 1.904V24.22H143.558V1.904H149.382ZM176.372 13.972L174.748 14.532C174.636 16.3987 174.356 17.9573 173.908 19.208C173.478 20.44 172.928 21.4293 172.256 22.176C171.602 22.9227 170.856 23.4547 170.016 23.772C169.194 24.0893 168.326 24.248 167.412 24.248C166.422 24.248 165.48 24.0613 164.584 23.688C163.688 23.3147 162.904 22.68 162.232 21.784C161.56 20.888 161.018 19.6933 160.608 18.2C160.216 16.688 160.02 14.8027 160.02 12.544C160.02 10.2853 160.216 8.40933 160.608 6.916C161.018 5.404 161.56 4.2 162.232 3.304C162.904 2.408 163.688 1.77333 164.584 1.4C165.48 1.02667 166.422 0.839999 167.412 0.839999C168.27 0.839999 169.092 0.979999 169.876 1.26C170.66 1.54 171.369 2.00667 172.004 2.66C172.657 3.31333 173.208 4.18133 173.656 5.264C174.104 6.34667 174.421 7.69067 174.608 9.296L176.372 8.68V0.559999H181.804V24.248H176.372V13.972ZM183.008 24.248V0.559999H188.468V24.248H183.008ZM165.424 12.544C165.424 13.9813 165.48 15.148 165.592 16.044C165.722 16.94 165.881 17.64 166.068 18.144C166.273 18.648 166.488 18.9933 166.712 19.18C166.954 19.348 167.188 19.432 167.412 19.432C167.636 19.432 167.86 19.348 168.084 19.18C168.326 18.9933 168.541 18.6573 168.728 18.172C168.914 17.668 169.064 16.968 169.176 16.072C169.306 15.1573 169.372 13.972 169.372 12.516C169.372 11.0787 169.306 9.912 169.176 9.016C169.064 8.12 168.914 7.42933 168.728 6.944C168.541 6.44 168.326 6.104 168.084 5.936C167.86 5.74933 167.636 5.656 167.412 5.656C167.188 5.656 166.954 5.74933 166.712 5.936C166.488 6.104 166.273 6.44 166.068 6.944C165.881 7.448 165.722 8.148 165.592 9.044C165.48 9.94 165.424 11.1067 165.424 12.544ZM199.152 11.172C199.152 12.5533 199.04 13.888 198.816 15.176L204.248 19.908L201.112 23.912L196.8 20.104C196.202 20.9253 195.456 21.6533 194.56 22.288C193.664 22.9413 192.581 23.4827 191.312 23.912L188.82 19.684C189.79 19.292 190.584 18.8347 191.2 18.312C191.834 17.7893 192.338 17.1827 192.712 16.492C193.085 15.8013 193.346 15.0173 193.496 14.14C193.645 13.2627 193.72 12.264 193.72 11.144V0.783998H199.152V11.172ZM204.92 24.248V11.844L201.532 12.992V7.7L204.92 6.552V0.559999H210.352V24.248H204.92ZM217.016 24.248H211.556V0.559999H217.016V24.248ZM235.876 12.544C235.876 14.8027 235.633 16.688 235.148 18.2C234.681 19.6933 234.056 20.888 233.272 21.784C232.506 22.68 231.629 23.3147 230.64 23.688C229.65 24.0613 228.642 24.248 227.616 24.248C226.57 24.248 225.553 24.0613 224.564 23.688C223.574 23.3147 222.688 22.68 221.904 21.784C221.138 20.888 220.522 19.6933 220.056 18.2C219.589 16.688 219.356 14.8027 219.356 12.544C219.356 10.2853 219.589 8.40933 220.056 6.916C220.522 5.404 221.138 4.2 221.904 3.304C222.688 2.408 223.574 1.77333 224.564 1.4C225.553 1.02667 226.57 0.839999 227.616 0.839999C228.642 0.839999 229.65 1.02667 230.64 1.4C231.629 1.77333 232.506 2.408 233.272 3.304C234.056 4.2 234.681 5.404 235.148 6.916C235.633 8.40933 235.876 10.2853 235.876 12.544ZM225.124 12.544C225.124 13.9813 225.189 15.148 225.32 16.044C225.45 16.94 225.628 17.64 225.852 18.144C226.094 18.648 226.365 18.9933 226.664 19.18C226.962 19.348 227.28 19.432 227.616 19.432C227.933 19.432 228.241 19.348 228.54 19.18C228.838 18.9933 229.1 18.6573 229.324 18.172C229.548 17.668 229.725 16.968 229.856 16.072C230.005 15.1573 230.08 13.972 230.08 12.516C230.08 11.0787 230.005 9.912 229.856 9.016C229.725 8.12 229.548 7.42933 229.324 6.944C229.1 6.44 228.838 6.104 228.54 5.936C228.241 5.74933 227.933 5.656 227.616 5.656C227.28 5.656 226.962 5.74933 226.664 5.936C226.365 6.104 226.094 6.44 225.852 6.944C225.628 7.448 225.45 8.148 225.32 9.044C225.189 9.94 225.124 11.1067 225.124 12.544ZM243.492 24.248H237.696V0.559999H243.492V24.248Z" fill="white"/>
</svg>
