<svg width="33" height="32" viewBox="0 0 33 32" fill="none" xmlns="http://www.w3.org/2000/svg">
<path d="M16.6667 7.935C18.7029 7.935 20.6798 8.62052 22.2788 9.8811C23.8779 11.1417 25.0059 12.9039 25.4813 14.8838C25.9566 16.8637 25.7515 18.946 24.8991 20.7952C24.0466 22.6443 22.5964 24.1526 20.7822 25.077C18.9679 26.0014 16.8953 26.2881 14.8983 25.8908C12.9012 25.4936 11.0961 24.4356 9.77367 22.8872C8.45128 21.3389 7.68868 19.3905 7.60874 17.3559C7.5288 15.3213 8.13618 13.319 9.33301 11.6717" stroke="#D8D8D8" stroke-width="1.87" stroke-linecap="round"/>
<path d="M16.6056 22C14.9426 22 13.7116 20.9422 13.6667 19.4682H15.126C15.179 20.1922 15.8189 20.7081 16.6056 20.7081C17.5431 20.7081 18.2116 19.9928 18.2116 19.0043C18.2116 17.9942 17.5227 17.2746 16.5608 17.2659C15.9127 17.2616 15.4398 17.5043 15.1749 18.0246H13.789L14.2863 13H19.2184V14.3353H15.5254L15.2727 16.6936H15.3461C15.6722 16.3035 16.2795 16.0217 16.9684 16.0217C18.5173 16.0217 19.6667 17.2529 19.6667 18.961C19.6667 20.7341 18.4113 22 16.6056 22Z" fill="#D8D8D8"/>
<path d="M16.6667 10.3501V5.3501L12.6667 7.8501L16.6667 10.3501Z" fill="#D8D8D8"/>
</svg>
