<svg width="40" height="40" viewBox="0 0 40 40" fill="none" xmlns="http://www.w3.org/2000/svg">
<rect width="40" height="40" rx="20" fill="#3B3B3B"/>
<path d="M20 28.625C20.2734 28.625 21.0547 28.3516 21.8359 26.75C22.1875 26.0469 22.5 25.2266 22.6953 24.25H17.2656C17.5 25.2266 17.7734 26.0469 18.125 26.75C18.9453 28.3516 19.6875 28.625 20 28.625ZM16.9531 22.375H23.0078C23.0859 21.7891 23.125 21.1641 23.125 20.5C23.125 19.875 23.0859 19.25 23.0078 18.625H16.9531C16.875 19.25 16.875 19.875 16.875 20.5C16.875 21.1641 16.875 21.7891 16.9531 22.375ZM17.2656 16.75H22.6953C22.5 15.8125 22.1875 14.9922 21.8359 14.2891C21.0547 12.6875 20.2734 12.375 20 12.375C19.6875 12.375 18.9453 12.6875 18.125 14.2891C17.7734 14.9922 17.5 15.8125 17.2656 16.75ZM24.8828 18.625C24.9609 19.25 24.9609 19.875 24.9609 20.5C24.9609 21.1641 24.9609 21.7891 24.8828 22.375H27.8906C28.0469 21.7891 28.125 21.1641 28.125 20.5C28.125 19.875 28.0469 19.25 27.8906 18.625H24.8828ZM27.1875 16.75C26.3672 15.1484 25 13.8594 23.3594 13.1172C23.9062 14.1328 24.3359 15.3828 24.6094 16.75H27.1875ZM15.3516 16.75C15.625 15.3828 16.0547 14.1328 16.6016 13.1172C14.9609 13.8594 13.5938 15.1484 12.7734 16.75H15.3516ZM12.0703 18.625C11.9531 19.25 11.875 19.875 11.875 20.5C11.875 21.1641 11.9141 21.7891 12.0703 22.375H15.0781C15 21.7891 15 21.1641 15 20.5C15 19.875 15 19.25 15.0781 18.625H12.0703ZM23.3594 27.9219C25 27.1797 26.3672 25.8906 27.1875 24.25H24.6094C24.3359 25.6562 23.9062 26.9062 23.3594 27.9219ZM16.6016 27.9219C16.0547 26.9062 15.625 25.6562 15.3516 24.25H12.7734C13.5938 25.8906 14.9609 27.1797 16.6016 27.9219ZM20 30.5C16.4062 30.5 13.125 28.625 11.3281 25.5C9.53125 22.4141 9.53125 18.625 11.3281 15.5C13.125 12.4141 16.4062 10.5 20 10.5C23.5547 10.5 26.8359 12.4141 28.6328 15.5C30.4297 18.625 30.4297 22.4141 28.6328 25.5C26.8359 28.625 23.5547 30.5 20 30.5Z" fill="#D8D8D8"/>
</svg>
