<svg width="32" height="32" viewBox="0 0 32 32" fill="none" xmlns="http://www.w3.org/2000/svg">
<path d="M17.8438 9.5625C17.8438 8.49609 16.9414 7.59375 15.875 7.59375C14.7676 7.59375 13.9062 8.49609 13.9062 9.5625V16.125C13.9062 17.2324 14.7676 18.0938 15.875 18.0938C16.9414 18.0938 17.8438 17.2324 17.8438 16.125V9.5625ZM11.9375 9.5625C11.9375 7.38867 13.7012 5.625 15.875 5.625C18.0488 5.625 19.8125 7.38867 19.8125 9.5625V16.125C19.8125 18.2988 18.0488 20.0625 15.875 20.0625C13.7012 20.0625 11.9375 18.2988 11.9375 16.125V9.5625ZM10.625 14.4844V16.125C10.625 19.0371 12.9629 21.375 15.875 21.375C18.7461 21.375 21.125 19.0371 21.125 16.125V14.4844C21.125 13.9512 21.5352 13.5 22.1094 13.5C22.6426 13.5 23.0938 13.9512 23.0938 14.4844V16.125C23.0938 19.8164 20.3457 22.8105 16.8594 23.3027V24.6562H18.8281C19.3613 24.6562 19.8125 25.1074 19.8125 25.6406C19.8125 26.2148 19.3613 26.625 18.8281 26.625H15.875H12.9219C12.3477 26.625 11.9375 26.2148 11.9375 25.6406C11.9375 25.1074 12.3477 24.6562 12.9219 24.6562H14.8906V23.3027C11.3633 22.8105 8.65625 19.8164 8.65625 16.125V14.4844C8.65625 13.9512 9.06641 13.5 9.64062 13.5C10.1738 13.5 10.625 13.9512 10.625 14.4844Z" fill="#D8D8D8"/>
</svg>
