<svg width="23" height="22" viewBox="0 0 23 22" fill="none" xmlns="http://www.w3.org/2000/svg">
<path d="M11.5 21.125C7.72656 21.125 4.28125 19.1562 2.39453 15.875C0.507812 12.6348 0.507812 8.65625 2.39453 5.375C4.28125 2.13477 7.72656 0.125 11.5 0.125C15.2324 0.125 18.6777 2.13477 20.5645 5.375C22.4512 8.65625 22.4512 12.6348 20.5645 15.875C18.6777 19.1562 15.2324 21.125 11.5 21.125ZM16.1348 8.69727H16.0938C16.5039 8.32812 16.5039 7.71289 16.0938 7.30273C15.7246 6.93359 15.1094 6.93359 14.7402 7.30273L10.1875 11.8965L8.25977 9.96875C7.84961 9.55859 7.23438 9.55859 6.86523 9.96875C6.45508 10.3379 6.45508 10.9531 6.86523 11.3223L9.49023 13.9473C9.85938 14.3574 10.4746 14.3574 10.8848 13.9473L16.1348 8.69727Z" fill="#6F3AD0"/>
</svg>
