<svg width="98" height="36" viewBox="0 0 98 36" fill="none" xmlns="http://www.w3.org/2000/svg">
<path fill-rule="evenodd" clip-rule="evenodd" d="M64.0004 10.8378C62.9296 9.54156 61.3516 8.89746 59.2824 8.89746C57.2294 8.89746 55.6594 9.54961 54.5886 10.8378C53.5178 12.126 52.9783 14.01 52.9783 16.4817V19.2915C52.9783 21.7794 53.5178 23.6714 54.5886 24.9596C55.6594 26.2558 57.2133 26.8999 59.2824 26.8999C61.3516 26.8999 62.9296 26.2478 64.0004 24.9596C65.0712 23.6714 65.6106 21.7794 65.6106 19.2915V16.4817C65.6106 14.01 65.0712 12.126 64.0004 10.8378ZM59.2824 10.7975C62.1728 10.7975 63.622 12.6896 63.622 16.4817V19.2915C63.622 23.1158 62.1567 25.024 59.2824 25.024C56.4081 25.024 54.967 23.1078 54.967 19.2915V16.4817C54.967 12.6896 56.392 10.7975 59.2824 10.7975ZM39.1223 11.2887C39.227 11.2887 39.3236 11.4175 39.4202 11.6832L45.8611 25.4668C46.2315 26.3041 46.9158 26.7228 47.9222 26.7228C48.4053 26.7228 48.8481 26.5456 49.2587 26.1914C49.6693 25.8371 49.8706 25.3541 49.8706 24.7341V9.77504C49.8706 9.63817 49.8384 9.5013 49.7579 9.38053C49.6774 9.25976 49.5325 9.19535 49.3151 9.19535H48.4778C48.2362 9.19535 48.0752 9.25976 47.9947 9.38053C47.9222 9.5013 47.882 9.63817 47.882 9.77504V24.1867C47.882 24.404 47.8176 24.5087 47.6968 24.5087C47.576 24.5087 47.4714 24.396 47.3748 24.1625L40.9499 10.2662C40.7647 9.90386 40.4991 9.62207 40.1529 9.40468C39.8067 9.1873 39.388 9.08264 38.8888 9.08264C38.3896 9.08264 37.9468 9.23561 37.5443 9.5335C37.1417 9.83945 36.9404 10.2662 36.9404 10.8217V26.0384C36.9404 26.1672 36.9726 26.2961 37.0451 26.4249C37.1095 26.5617 37.2625 26.6262 37.496 26.6262H38.3091C38.5587 26.6262 38.7197 26.5537 38.8083 26.4249C38.8969 26.288 38.9371 26.1592 38.9371 26.0384V11.659C38.9371 11.5624 38.9452 11.4819 38.9693 11.4014C38.9935 11.3289 39.0418 11.2887 39.1223 11.2887ZM74.5556 24.8791C74.6925 24.8791 74.8213 24.6939 74.926 24.3235L79.0804 9.75896C79.1448 9.55768 79.2011 9.41276 79.2575 9.33225C79.3138 9.25174 79.4507 9.20343 79.66 9.20343H80.7309C81.0368 9.20343 81.1978 9.26784 81.2139 9.40471C81.23 9.53353 81.1978 9.74286 81.1173 10.0166L76.7536 24.9757C76.6328 25.5151 76.3752 25.9499 75.9887 26.2719C75.6023 26.594 75.1192 26.755 74.5475 26.755C73.9759 26.755 73.517 26.602 73.1708 26.288C72.8246 25.9821 72.5589 25.5473 72.3737 24.9918L67.9697 10.0085C67.8892 9.72676 67.857 9.52548 67.8651 9.39666C67.8651 9.26784 68.0341 9.19538 68.3401 9.19538H69.427C69.6283 9.19538 69.7571 9.23564 69.8215 9.3242C69.8859 9.41276 69.9342 9.54158 69.9825 9.72676L74.2013 24.2913C74.2497 24.4604 74.298 24.5973 74.3543 24.71C74.4107 24.8147 74.4751 24.871 74.5475 24.871L74.5556 24.8791ZM90.9478 9.35638C90.6177 9.11485 90.2232 8.99408 89.7562 8.99408C88.7659 8.99408 88.1218 9.47715 87.832 10.4513L83.0093 25.974C82.8724 26.4088 82.9851 26.6262 83.3555 26.6262H84.4666C84.5873 26.6262 84.7081 26.594 84.8128 26.5215C84.9255 26.449 84.9979 26.3283 85.0462 26.1592L86.6726 20.8213H92.8398L94.442 26.1592C94.4822 26.3283 94.5708 26.449 94.6835 26.5215C94.8043 26.594 94.925 26.6262 95.0458 26.6262H96.1327C96.5031 26.6262 96.6238 26.4088 96.5031 25.974L91.7046 10.4594C91.5274 9.96022 91.2779 9.59792 90.9478 9.35638ZM92.236 18.9373H87.2523L89.5952 11.1921C89.6274 11.1196 89.6757 11.0793 89.7562 11.0793C89.8125 11.0793 89.8609 11.1115 89.8931 11.1921L92.236 18.9373Z" fill="#6F3AD0"/>
<path fill-rule="evenodd" clip-rule="evenodd" d="M16.5222 8.04404L23.2456 25.3529C23.5904 26.2408 23.1503 27.2401 22.2624 27.585C21.7863 27.7699 21.2527 27.7343 20.8054 27.4878L15.7479 24.7005C15.2302 24.4152 14.6024 24.4149 14.0845 24.6997L9.00489 27.4926C8.17021 27.9516 7.12154 27.647 6.66261 26.8123C6.41659 26.3649 6.38148 25.8314 6.56674 25.3556L13.3074 8.04278C13.6529 7.15516 14.6527 6.71575 15.5403 7.06134C15.9909 7.23678 16.3471 7.59331 16.5222 8.04404Z" fill="white"/>
<path fill-rule="evenodd" clip-rule="evenodd" d="M4.95965 24.7304L11.7003 7.41758C12.3914 5.64234 14.3909 4.76354 16.1661 5.45471C17.0673 5.80558 17.7798 6.51865 18.13 7.42012L24.8533 24.7289C25.5431 26.5047 24.6627 28.5035 22.8869 29.1932C21.9348 29.5631 20.8677 29.4919 19.9731 28.9989L14.9155 26.2116L9.83595 29.0045C8.1666 29.9224 6.06925 29.3132 5.15138 27.6438C4.65935 26.7489 4.58913 25.682 4.95965 24.7304ZM16.5223 8.04454C16.3472 7.59381 15.991 7.23728 15.5404 7.06184C14.6528 6.71625 13.6531 7.15566 13.3075 8.04328L6.56686 25.3561C6.3816 25.8319 6.41671 26.3654 6.66273 26.8128C7.12166 27.6475 8.17034 27.9521 9.00501 27.4931L14.0846 24.7002C14.6026 24.4154 15.2303 24.4157 15.748 24.701L20.8055 27.4883C21.2528 27.7348 21.7864 27.7704 22.2625 27.5855C23.1504 27.2406 23.5906 26.2413 23.2457 25.3534L16.5223 8.04454Z" fill="#6F3AD0"/>
<path fill-rule="evenodd" clip-rule="evenodd" d="M16.028 10.791L20.8931 23.2602C21.1335 23.8765 20.8288 24.5709 20.2126 24.8113C19.8823 24.9402 19.512 24.9161 19.2011 24.7456L16.0644 23.0246C15.3474 22.6312 14.4793 22.6307 13.7619 23.0234L10.6097 24.7489C10.0295 25.0665 9.30163 24.8536 8.98402 24.2734C8.81383 23.9625 8.79009 23.5922 8.91918 23.2621L13.7967 10.7901C14.0377 10.1741 14.7324 9.86999 15.3484 10.1109C15.66 10.2328 15.9064 10.4793 16.028 10.791Z" fill="url(#paint0_linear_8875_24020)"/>
<path d="M12.2905 10.3086L11.5563 12.1026L11.0895 12.1469C6.77648 12.5872 3.69442 13.7526 3.69442 15.121C3.69442 16.8195 8.44229 18.2051 14.3988 18.2798L14.9049 18.283C21.0963 18.283 26.1155 16.8673 26.1155 15.121C26.1155 13.7043 22.8121 12.5052 18.2594 12.1031L17.5266 10.309L18.0397 10.3426C23.7237 10.7529 27.8402 12.3316 27.8402 15.121C27.8402 18.3245 22.4109 19.9312 15.4135 20.005L14.9049 20.0077L14.3964 20.005C7.39896 19.9312 1.96973 18.3245 1.96973 15.121C1.96973 12.2472 6.3392 10.6584 12.2905 10.3086Z" fill="#6F3AD0"/>
<path fill-rule="evenodd" clip-rule="evenodd" d="M22.7424 7.16998L22.2768 5.6004C22.0873 5.17522 21.8696 4.84371 21.4172 4.70353L20.5021 4.50842C20.3118 4.45736 20.1777 4.2678 20.1777 4.04987C20.1777 3.83194 20.3118 3.64238 20.5021 3.59132L21.4172 3.39621C21.9589 3.23864 22.1093 2.96941 22.2768 2.55463L22.7424 0.946331C22.8646 0.711632 22.9979 0.596086 23.1422 0.599691L23.2033 0.605441C23.3243 0.631531 23.4372 0.745161 23.542 0.946331L24.0075 2.55463C24.1751 2.96941 24.3254 3.23864 24.8672 3.39621L25.7823 3.59132C25.9725 3.64238 26.1066 3.83194 26.1066 4.04987C26.1066 4.2678 25.9725 4.45736 25.7823 4.50842L24.8672 4.70353C24.4147 4.84371 24.197 5.17522 24.0075 5.6004L23.542 7.16998C23.4637 7.40107 23.3304 7.51662 23.1422 7.51662C22.9539 7.51662 22.8207 7.40107 22.7424 7.16998Z" fill="#9D75EC"/>
<path fill-rule="evenodd" clip-rule="evenodd" d="M6.01025 9.1962L5.62226 7.85084C5.46435 7.4864 5.28293 7.20225 4.90589 7.0821L4.14332 6.91486C3.98477 6.8711 3.87305 6.70862 3.87305 6.52182C3.87305 6.33502 3.98477 6.17254 4.14332 6.12878L4.90589 5.96154C5.35738 5.82648 5.48267 5.59571 5.62226 5.24018L6.01025 3.86164C6.11209 3.66047 6.22315 3.56143 6.34341 3.56452L6.39438 3.56945C6.49521 3.59181 6.58927 3.68921 6.67657 3.86164L7.06455 5.24018C7.20415 5.59571 7.32943 5.82648 7.78092 5.96154L8.5435 6.12878C8.70204 6.17254 8.81377 6.33502 8.81377 6.52182C8.81377 6.70862 8.70204 6.8711 8.5435 6.91486L7.78092 7.0821C7.40389 7.20225 7.22247 7.4864 7.06455 7.85084L6.67657 9.1962C6.61131 9.39428 6.50026 9.49332 6.34341 9.49332C6.18656 9.49332 6.07551 9.39428 6.01025 9.1962Z" fill="#9D75EC"/>
<defs>
<linearGradient id="paint0_linear_8875_24020" x1="8.83691" y1="10.0283" x2="8.83691" y2="24.8962" gradientUnits="userSpaceOnUse">
<stop stop-color="#A86CEA"/>
<stop offset="1" stop-color="#6F3AD0"/>
</linearGradient>
</defs>
</svg>
