<svg width="24" height="24" viewBox="0 0 24 24" fill="none" xmlns="http://www.w3.org/2000/svg">
<path fill-rule="evenodd" clip-rule="evenodd" d="M13.005 5.11805L17.6273 17.0179C17.8644 17.6283 17.5618 18.3154 16.9514 18.5525C16.6241 18.6796 16.2572 18.6551 15.9497 18.4857L12.4727 16.5694C12.1168 16.3732 11.6852 16.373 11.3291 16.5688L7.83686 18.489C7.26302 18.8045 6.54205 18.5951 6.22654 18.0212C6.0574 17.7136 6.03326 17.3469 6.16063 17.0197L10.7948 5.11718C11.0324 4.50694 11.7197 4.20485 12.3299 4.44244C12.6397 4.56305 12.8846 4.80817 13.005 5.11805Z" fill="white"/>
<path fill-rule="evenodd" clip-rule="evenodd" d="M5.05563 16.59L9.68981 4.68748C10.165 3.467 11.5396 2.86282 12.7601 3.33801C13.3796 3.57923 13.8695 4.06946 14.1102 4.68922L18.7325 16.589C19.2068 17.8099 18.6015 19.184 17.3806 19.6582C16.726 19.9125 15.9924 19.8636 15.3773 19.5246L11.9003 17.6083L8.40809 19.5285C7.26041 20.1595 5.81848 19.7407 5.18745 18.593C4.84917 17.9778 4.8009 17.2443 5.05563 16.59ZM13.005 5.11854C12.8846 4.80866 12.6397 4.56355 12.3299 4.44293C11.7196 4.20534 11.0323 4.50743 10.7947 5.11767L6.16057 17.0202C6.03321 17.3474 6.05735 17.7141 6.22648 18.0217C6.542 18.5956 7.26296 18.805 7.8368 18.4895L11.329 16.5693C11.6851 16.3735 12.1167 16.3737 12.4726 16.5699L15.9497 18.4861C16.2572 18.6556 16.624 18.6801 16.9513 18.553C17.5617 18.3158 17.8644 17.6288 17.6273 17.0184L13.005 5.11854Z" fill="#6F3AD0"/>
<path fill-rule="evenodd" clip-rule="evenodd" d="M12.665 7.00677L16.0098 15.5794C16.1751 16.003 15.9656 16.4805 15.542 16.6458C15.3149 16.7343 15.0603 16.7178 14.8466 16.6006L12.6901 15.4173C12.1972 15.1469 11.6003 15.1466 11.1072 15.4166L8.93999 16.6028C8.54108 16.8212 8.04068 16.6748 7.82232 16.2759C7.70532 16.0622 7.689 15.8076 7.77775 15.5806L11.1311 7.00616C11.2967 6.58263 11.7743 6.37357 12.1978 6.5392C12.412 6.62297 12.5814 6.7925 12.665 7.00677Z" fill="url(#paint0_linear_13045_94459)"/>
<path d="M10.0955 6.6748L9.59075 7.90815L9.26986 7.93866C6.30465 8.24134 4.18573 9.04255 4.18573 9.98335C4.18573 11.151 7.44989 12.1037 11.545 12.155L11.893 12.1572C16.1496 12.1572 19.6002 11.1839 19.6002 9.98335C19.6002 9.00937 17.3292 8.18499 14.1992 7.9085L13.6953 6.6751L14.0481 6.69821C17.9558 6.98025 20.7859 8.06563 20.7859 9.98335C20.7859 12.1857 17.0533 13.2903 12.2426 13.3411L11.893 13.3429L11.5434 13.3411C6.7326 13.2903 3 12.1857 3 9.98335C3 8.00759 6.00401 6.91531 10.0955 6.6748Z" fill="#6F3AD0"/>
<path fill-rule="evenodd" clip-rule="evenodd" d="M17.2808 4.51713L16.9607 3.43804C16.8304 3.14573 16.6807 2.91782 16.3697 2.82145L15.7406 2.68731C15.6098 2.6522 15.5176 2.52188 15.5176 2.37206C15.5176 2.22223 15.6098 2.09191 15.7406 2.0568L16.3697 1.92266C16.7422 1.81433 16.8455 1.62924 16.9607 1.34407L17.2808 0.238371C17.3648 0.0770157 17.4564 -0.00242249 17.5556 5.62537e-05L17.5977 0.00400926C17.6809 0.0219459 17.7585 0.100066 17.8305 0.238371L18.1506 1.34407C18.2657 1.62924 18.3691 1.81433 18.7416 1.92266L19.3707 2.0568C19.5015 2.09191 19.5937 2.22223 19.5937 2.37206C19.5937 2.52188 19.5015 2.6522 19.3707 2.68731L18.7416 2.82145C18.4305 2.91782 18.2808 3.14573 18.1506 3.43804L17.8305 4.51713C17.7766 4.67601 17.685 4.75545 17.5556 4.75545C17.4262 4.75545 17.3346 4.67601 17.2808 4.51713Z" fill="#9D75EC"/>
<path fill-rule="evenodd" clip-rule="evenodd" d="M5.77768 5.90991L5.51094 4.98498C5.40237 4.73443 5.27764 4.53907 5.01843 4.45647L4.49416 4.34149C4.38516 4.3114 4.30835 4.1997 4.30835 4.07128C4.30835 3.94285 4.38516 3.83115 4.49416 3.80106L5.01843 3.68608C5.32883 3.59323 5.41496 3.43458 5.51094 3.19015L5.77768 2.2424C5.8477 2.1041 5.92404 2.03601 6.00672 2.03813L6.04177 2.04152C6.11109 2.0569 6.17575 2.12386 6.23577 2.2424L6.50251 3.19015C6.59848 3.43458 6.68461 3.59323 6.99501 3.68608L7.51928 3.80106C7.62828 3.83115 7.7051 3.94285 7.7051 4.07128C7.7051 4.1997 7.62828 4.3114 7.51928 4.34149L6.99501 4.45647C6.7358 4.53907 6.61108 4.73443 6.50251 4.98498L6.23577 5.90991C6.19091 6.04609 6.11456 6.11418 6.00672 6.11418C5.89889 6.11418 5.82254 6.04609 5.77768 5.90991Z" fill="#9D75EC"/>
<defs>
<linearGradient id="paint0_linear_13045_94459" x1="7.72119" y1="6.48242" x2="7.72119" y2="16.7041" gradientUnits="userSpaceOnUse">
<stop stop-color="#A86CEA"/>
<stop offset="1" stop-color="#6F3AD0"/>
</linearGradient>
</defs>
</svg>
