<svg width="20" height="20" viewBox="0 0 20 20" fill="none" xmlns="http://www.w3.org/2000/svg">
<path d="M16.1182 10.2607L13.2214 13.1575C11.7603 14.593 9.42749 14.593 7.99194 13.1575C6.6333 11.7732 6.5564 9.59424 7.8125 8.13306L7.94067 7.97925C8.17139 7.7229 8.55591 7.69727 8.81226 7.92798C9.0686 8.15869 9.09424 8.54321 8.86353 8.79956L8.76099 8.92773C7.8894 9.90186 7.94067 11.363 8.86353 12.2859C9.81201 13.2344 11.3757 13.2344 12.3499 12.2859L15.2466 9.38916C16.1951 8.41504 16.1951 6.87695 15.2466 5.90283C14.3237 5.00562 12.8625 4.95435 11.8884 5.80029L11.7346 5.92847C11.4783 6.15918 11.0938 6.13354 10.863 5.8772C10.6323 5.62085 10.658 5.23633 10.9143 5.00562L11.0681 4.87744C12.5293 3.5957 14.7339 3.67261 16.1182 5.03125C17.5537 6.4668 17.5537 8.79956 16.1182 10.2607ZM2.76245 9.67114L5.68481 6.77441C7.12036 5.33887 9.45312 5.33887 10.8887 6.77441C12.2729 8.13306 12.3499 10.3376 11.0681 11.7988L10.9143 11.9526C10.7092 12.209 10.2991 12.2603 10.0427 12.0295C9.78638 11.7988 9.76074 11.4143 9.99146 11.158L10.1453 11.0042C10.9912 10.03 10.9399 8.56885 10.0171 7.646C9.0686 6.67188 7.50488 6.67188 6.5564 7.646L3.63403 10.5427C2.68555 11.4912 2.68555 13.0549 3.63403 14.0291C4.55688 14.9263 6.01807 14.9775 6.99219 14.1316L7.146 14.0034C7.40234 13.7727 7.78687 13.7983 8.01758 14.0547C8.24829 14.311 8.22266 14.6956 7.96631 14.9263L7.8125 15.0544C6.35132 16.3362 4.14673 16.2593 2.76245 14.9006C1.3269 13.4651 1.3269 11.1067 2.76245 9.67114Z" fill="#454C53"/>
</svg>
