<svg width="16" height="14" viewBox="0 0 16 14" fill="none" xmlns="http://www.w3.org/2000/svg">
<path d="M3.28706 5.32626C3.09916 5.8581 2.50418 6.13967 2.00313 5.95196C1.47077 5.76425 1.18894 5.20112 1.37683 4.66927C1.72129 3.69944 2.28497 2.79218 3.03653 2.04134C5.79228 -0.680447 10.2077 -0.680447 12.9635 2.04134L13.4958 2.60447V1.47821C13.4958 0.946369 13.9656 0.477095 14.4979 0.477095C15.0616 0.477095 15.5 0.946369 15.5 1.47821V4.98212C15.5 5.54525 15.0616 5.98324 14.4979 5.98324H11.0219C10.4582 5.98324 10.0198 5.54525 10.0198 4.98212C10.0198 4.45028 10.4582 3.98101 11.0219 3.98101H12.0866L11.5543 3.44916C9.58142 1.5095 6.41858 1.5095 4.44572 3.44916C3.91336 4.01229 3.50626 4.63799 3.28706 5.32626ZM1.22025 8.04805C1.25157 8.01676 1.3142 8.01676 1.34551 8.01676C1.40814 8.01676 1.43946 7.98548 1.50209 7.98548H5.00939C5.54175 7.98548 6.01148 8.45475 6.01148 8.98659C6.01148 9.54972 5.54175 9.98771 5.00939 9.98771H3.91336L4.44572 10.5508C6.41858 12.4905 9.58142 12.4905 11.5543 10.5508C12.0866 9.98771 12.4937 9.36201 12.7129 8.67374C12.9008 8.1419 13.4958 7.86034 13.9969 8.04805C14.5292 8.23575 14.8111 8.79888 14.6232 9.33073C14.2787 10.3006 13.715 11.1765 12.9635 11.9587C10.2077 14.6804 5.79228 14.6804 3.03653 11.9587L2.50418 11.3955V12.4905C2.50418 13.0536 2.03445 13.4916 1.50209 13.4916C0.938413 13.4916 0.5 13.0536 0.5 12.4905V9.01788C0.5 8.95531 0.5 8.89274 0.5 8.86145C0.5 8.79888 0.5 8.7676 0.531315 8.73631C0.56263 8.57989 0.656576 8.42346 0.781837 8.29832C0.907098 8.17318 1.06367 8.07933 1.22025 8.04805Z" fill="white"/>
</svg>
