<svg width="24" height="24" viewBox="0 0 24 24" fill="none" xmlns="http://www.w3.org/2000/svg">
<path d="M16.8125 14.5547C17.0586 14.5547 17.3047 14.3394 17.3047 14.0625V7.78711L15.2129 5.69531H10.9062C10.6294 5.69531 10.4141 5.94141 10.4141 6.1875V14.0625C10.4141 14.3394 10.6294 14.5547 10.9062 14.5547H16.8125ZM10.9062 16.0312C9.79883 16.0312 8.9375 15.1699 8.9375 14.0625V6.1875C8.9375 5.11084 9.79883 4.21875 10.9062 4.21875H15.2129C15.582 4.21875 15.9819 4.40332 16.2588 4.68018L18.3198 6.74121C18.5967 7.01807 18.7812 7.41797 18.7812 7.78711V14.0625C18.7812 15.1699 17.8892 16.0312 16.8125 16.0312H10.9062ZM6.96875 8.15625H7.95312V9.63281H6.96875C6.69189 9.63281 6.47656 9.87891 6.47656 10.125V18C6.47656 18.2769 6.69189 18.4922 6.96875 18.4922H12.875C13.1211 18.4922 13.3672 18.2769 13.3672 18V17.0156H14.8438V18C14.8438 19.1074 13.9517 19.9688 12.875 19.9688H6.96875C5.86133 19.9688 5 19.1074 5 18V10.125C5 9.04834 5.86133 8.15625 6.96875 8.15625Z" fill="#D8D8D8"/>
</svg>
