<svg width="60" height="61" viewBox="0 0 60 61" fill="none" xmlns="http://www.w3.org/2000/svg">
<path fill-rule="evenodd" clip-rule="evenodd" d="M46.817 53.1467H15.6824C14.6189 53.1467 13.75 52.2327 13.75 51.1159V51.1065V9.88447C13.75 8.76752 14.6189 7.85254 15.6824 7.85254C18.1121 7.85319 38.4509 7.85867 38.4509 7.85867L48.7429 18.1513L48.75 51.1159C48.75 52.2327 47.8796 53.1467 46.817 53.1467Z" fill="#C6A9FF"/>
<path d="M33.25 23C33.25 21.7812 32.2188 20.75 31 20.75C29.7344 20.75 28.75 21.7812 28.75 23V30.5C28.75 31.7656 29.7344 32.75 31 32.75C32.2188 32.75 33.25 31.7656 33.25 30.5V23ZM26.5 23C26.5 20.5156 28.5156 18.5 31 18.5C33.4844 18.5 35.5 20.5156 35.5 23V30.5C35.5 32.9844 33.4844 35 31 35C28.5156 35 26.5 32.9844 26.5 30.5V23ZM25 28.625V30.5C25 33.8281 27.6719 36.5 31 36.5C34.2812 36.5 37 33.8281 37 30.5V28.625C37 28.0156 37.4688 27.5 38.125 27.5C38.7344 27.5 39.25 28.0156 39.25 28.625V30.5C39.25 34.7188 36.1094 38.1406 32.125 38.7031V40.25H34.375C34.9844 40.25 35.5 40.7656 35.5 41.375C35.5 42.0312 34.9844 42.5 34.375 42.5H31H27.625C26.9688 42.5 26.5 42.0312 26.5 41.375C26.5 40.7656 26.9688 40.25 27.625 40.25H29.875V38.7031C25.8438 38.1406 22.75 34.7188 22.75 30.5V28.625C22.75 28.0156 23.2188 27.5 23.875 27.5C24.4844 27.5 25 28.0156 25 28.625Z" fill="white"/>
<path fill-rule="evenodd" clip-rule="evenodd" d="M38.4561 16.22C38.4561 17.2793 39.3225 18.1467 40.3825 18.1467H48.7502L38.4561 7.85254C38.4561 7.85254 38.4561 15.2943 38.4561 16.22Z" fill="#6F3AD0"/>
</svg>
