<svg width="24" height="25" viewBox="0 0 24 25" fill="none" xmlns="http://www.w3.org/2000/svg">
<path d="M17.6909 6.53369H17.6602C17.3833 6.25684 16.9219 6.25684 16.645 6.53369L15.7222 7.42578L17.168 8.87158L18.0601 7.94873C18.3369 7.67188 18.3369 7.21045 18.0601 6.90283L17.6909 6.53369ZM10.5542 12.6245C10.4619 12.686 10.4004 12.8091 10.3696 12.9321L9.84668 14.7163L11.6616 14.2241C11.7847 14.1934 11.877 14.1318 11.9692 14.0396L16.1221 9.88672L14.707 8.47168L10.5542 12.6245ZM15.5991 5.48779C16.4604 4.62646 17.8447 4.62646 18.7061 5.48779L19.106 5.8877C19.9673 6.74902 19.9673 8.1333 19.106 8.99463L13.0151 15.0854C12.769 15.3315 12.4307 15.5161 12.0615 15.6392L8.98535 16.5005C8.73926 16.5928 8.4624 16.5312 8.27783 16.3159C8.0625 16.1313 8.00098 15.8545 8.0625 15.6084L8.95459 12.5322C9.04688 12.1631 9.26221 11.8247 9.5083 11.5786L15.5991 5.48779ZM6.83203 6.6875H10.2773C10.6772 6.6875 11.0156 7.02588 11.0156 7.42578C11.0156 7.85645 10.6772 8.16406 10.2773 8.16406H6.83203C6.12451 8.16406 5.60156 8.71777 5.60156 9.39453V17.7617C5.60156 18.4692 6.12451 18.9922 6.83203 18.9922H15.1992C15.876 18.9922 16.4297 18.4692 16.4297 17.7617V14.3164C16.4297 13.9165 16.7373 13.5781 17.168 13.5781C17.5679 13.5781 17.9062 13.9165 17.9062 14.3164V17.7617C17.9062 19.269 16.6758 20.4688 15.1992 20.4688H6.83203C5.32471 20.4688 4.125 19.269 4.125 17.7617V9.39453C4.125 7.91797 5.32471 6.6875 6.83203 6.6875Z" fill="#454C53"/>
</svg>
