<svg width="32" height="32" viewBox="0 0 32 32" fill="none" xmlns="http://www.w3.org/2000/svg">
<path d="M23.5117 26.9468C23.906 26.9468 24.3004 26.5988 24.3004 26.1514V10.6211H20.3567C19.4694 10.6211 18.7793 9.92503 18.7793 9.03014V5.05287H8.48818C8.04452 5.05287 7.69945 5.4506 7.69945 5.84832V26.1514C7.69945 26.5988 8.04452 26.9468 8.48818 26.9468H23.5117ZM5.33325 5.84832C5.33325 4.10827 6.71353 2.6665 8.48818 2.6665H19.0257C19.8638 2.6665 20.6525 3.01452 21.2441 3.61111L25.73 8.13525C26.3215 8.73185 26.6666 9.5273 26.6666 10.3725V26.1514C26.6666 27.9411 25.237 29.3332 23.5117 29.3332H8.48818C6.71353 29.3332 5.33325 27.9411 5.33325 26.1514V5.84832Z" fill="#454C53"/>
<rect x="10.6667" y="14.6665" width="10.6667" height="2.66667" rx="1.33333" fill="#454C53"/>
<rect x="10.6667" y="20" width="8" height="2.66667" rx="1.33333" fill="#454C53"/>
</svg>
