<svg width="33" height="32" viewBox="0 0 33 32" fill="none" xmlns="http://www.w3.org/2000/svg">
<path d="M16.6665 7.935C18.7027 7.935 20.6796 8.62052 22.2786 9.8811C23.8776 11.1417 25.0057 12.9039 25.481 14.8838C25.9564 16.8637 25.7513 18.946 24.8988 20.7952C24.0464 22.6443 22.5962 24.1526 20.7819 25.077C18.9677 26.0014 16.8951 26.2881 14.898 25.8908C12.901 25.4936 11.0958 24.4356 9.77342 22.8872C8.45104 21.3389 7.68843 19.3905 7.60849 17.3559C7.52855 15.3213 8.13593 13.319 9.33277 11.6717" stroke="#454C53" stroke-width="1.87" stroke-linecap="round"/>
<path d="M16.6054 22C14.9423 22 13.7113 20.9422 13.6665 19.4682H15.1257C15.1787 20.1922 15.8187 20.7081 16.6054 20.7081C17.5429 20.7081 18.2113 19.9928 18.2113 19.0043C18.2113 17.9942 17.5225 17.2746 16.5605 17.2659C15.9124 17.2616 15.4396 17.5043 15.1747 18.0246H13.7888L14.2861 13H19.2181V14.3353H15.5252L15.2725 16.6936H15.3459C15.6719 16.3035 16.2793 16.0217 16.9681 16.0217C18.517 16.0217 19.6665 17.2529 19.6665 18.961C19.6665 20.7341 18.4111 22 16.6054 22Z" fill="#454C53"/>
<path d="M16.6665 10.3501V5.3501L12.6665 7.8501L16.6665 10.3501Z" fill="#454C53"/>
</svg>
