<svg width="32" height="32" viewBox="0 0 32 32" fill="none" xmlns="http://www.w3.org/2000/svg">
<path d="M15.9389 22C14.2758 22 13.0448 20.9422 13 19.4682H14.4592C14.5122 20.1922 15.1522 20.7081 15.9389 20.7081C16.8764 20.7081 17.5448 19.9928 17.5448 19.0043C17.5448 17.9942 16.856 17.2746 15.894 17.2659C15.2459 17.2616 14.7731 17.5043 14.5082 18.0246H13.1223L13.6196 13H18.5516V14.3353H14.8587L14.606 16.6936H14.6793C15.0054 16.3035 15.6128 16.0217 16.3016 16.0217C17.8505 16.0217 19 17.2529 19 18.961C19 20.7341 17.7446 22 15.9389 22Z" fill="#454C53"/>
<path d="M16 7.935C13.9638 7.935 11.987 8.62052 10.3879 9.8811C8.78887 11.1417 7.6608 12.9039 7.18547 14.8838C6.71013 16.8637 6.91522 18.946 7.76768 20.7952C8.62015 22.6443 10.0703 24.1526 11.8846 25.077C13.6988 26.0014 15.7714 26.2881 17.7685 25.8908C19.7655 25.4936 21.5707 24.4356 22.8931 22.8872C24.2155 21.3389 24.9781 19.3905 25.058 17.3559C25.138 15.3213 24.5306 13.319 23.3337 11.6717" stroke="#454C53" stroke-width="1.87" stroke-linecap="round"/>
<path d="M16 10.3501V5.3501L20 7.8501L16 10.3501Z" fill="#454C53"/>
</svg>
