<svg width="41" height="40" viewBox="0 0 41 40" fill="none" xmlns="http://www.w3.org/2000/svg">
<g clip-path="url(#clip0_10513_91982)">
<path d="M22.625 5L32 14.375H24.5C23.4629 14.375 22.625 13.5371 22.625 12.5V5Z" fill="#6F3AD0"/>
<path opacity="0.4" fill-rule="evenodd" clip-rule="evenodd" d="M9.5 31.25V8.75C9.5 6.68164 11.1816 5 13.25 5H22.625V12.5C22.625 13.5371 23.4629 14.375 24.5 14.375H32V31.25C32 33.3184 30.3184 35 28.25 35H13.25C11.1816 35 9.5 33.3184 9.5 31.25ZM18.5625 13.75C17.8721 13.75 17.3125 14.3096 17.3125 15V28.75C17.3125 29.4404 17.8721 30 18.5625 30C19.2529 30 19.8125 29.4404 19.8125 28.75V15C19.8125 14.3096 19.2529 13.75 18.5625 13.75ZM12.3125 20C12.3125 19.3096 12.8721 18.75 13.5625 18.75C14.2529 18.75 14.8125 19.3096 14.8125 20V23.75C14.8125 24.4404 14.2529 25 13.5625 25C12.8721 25 12.3125 24.4404 12.3125 23.75V20ZM27.3125 20.9375C27.3125 20.4197 27.7322 20 28.25 20C28.7678 20 29.1875 20.4197 29.1875 20.9375V22.8125C29.1875 23.3303 28.7678 23.75 28.25 23.75C27.7322 23.75 27.3125 23.3303 27.3125 22.8125V20.9375ZM22.3125 18.75C22.3125 18.0596 22.8721 17.5 23.5625 17.5C24.2529 17.5 24.8125 18.0596 24.8125 18.75V25C24.8125 25.6904 24.2529 26.25 23.5625 26.25C22.8721 26.25 22.3125 25.6904 22.3125 25V18.75Z" fill="#6F3AD0"/>
</g>
<path d="M30.7283 35.87L30.7319 35.8818L30.736 35.8934C30.8264 36.1507 30.9681 36.401 31.1924 36.5885C31.427 36.7846 31.7079 36.875 32 36.875C32.2921 36.875 32.573 36.7846 32.8076 36.5885C33.0319 36.401 33.1736 36.1507 33.264 35.8934L33.2681 35.8818L33.2717 35.87L34.0443 33.3583C34.3284 32.7528 34.5883 32.4311 35.0643 32.281L36.5788 31.9696L36.5943 31.9664L36.6096 31.9625C37.2322 31.8013 37.625 31.2231 37.625 30.6116C37.625 30.0001 37.2322 29.4219 36.6096 29.2607L36.5943 29.2568L36.5788 29.2536L35.058 28.9409C34.6939 28.8362 34.5165 28.713 34.4026 28.5922C34.2775 28.4595 34.1812 28.2815 34.0486 27.968L33.2729 25.3842L33.2546 25.3231L33.2242 25.2669C33.0246 24.8973 32.7154 24.4984 32.2304 24.3976L32.1953 24.3903L32.1596 24.387L32.0564 24.3777L32.0358 24.3758L32.0151 24.3753C31.3939 24.3604 31.0037 24.8447 30.7758 25.2669L30.7454 25.3231L30.7271 25.3842L29.9514 27.968C29.8188 28.2815 29.7225 28.4595 29.5974 28.5922C29.4835 28.7131 29.3061 28.8362 28.942 28.9409L27.4212 29.2536L27.4057 29.2568L27.3904 29.2607C26.7678 29.4219 26.375 30.0001 26.375 30.6116C26.375 31.2231 26.7678 31.8013 27.3904 31.9625L27.4057 31.9664L27.4212 31.9696L28.9357 32.281C29.4117 32.4311 29.6716 32.7528 29.9557 33.3583L30.7283 35.87Z" fill="#6F3AD0" stroke="white" stroke-width="1.25"/>
<defs>
<clipPath id="clip0_10513_91982">
<rect width="22.5" height="30" fill="white" transform="translate(9.5 5)"/>
</clipPath>
</defs>
</svg>
