<svg width="56" height="56" viewBox="0 0 56 56" fill="none" xmlns="http://www.w3.org/2000/svg">
<g filter="url(#filter0_d_11372_108277)">
<rect x="8" y="6" width="40" height="40" rx="20" fill="white" shape-rendering="crispEdges"/>
<path d="M28 34.625C28.2734 34.625 29.0547 34.3516 29.8359 32.75C30.1875 32.0469 30.5 31.2266 30.6953 30.25H25.2656C25.5 31.2266 25.7734 32.0469 26.125 32.75C26.9453 34.3516 27.6875 34.625 28 34.625ZM24.9531 28.375H31.0078C31.0859 27.7891 31.125 27.1641 31.125 26.5C31.125 25.875 31.0859 25.25 31.0078 24.625H24.9531C24.875 25.25 24.875 25.875 24.875 26.5C24.875 27.1641 24.875 27.7891 24.9531 28.375ZM25.2656 22.75H30.6953C30.5 21.8125 30.1875 20.9922 29.8359 20.2891C29.0547 18.6875 28.2734 18.375 28 18.375C27.6875 18.375 26.9453 18.6875 26.125 20.2891C25.7734 20.9922 25.5 21.8125 25.2656 22.75ZM32.8828 24.625C32.9609 25.25 32.9609 25.875 32.9609 26.5C32.9609 27.1641 32.9609 27.7891 32.8828 28.375H35.8906C36.0469 27.7891 36.125 27.1641 36.125 26.5C36.125 25.875 36.0469 25.25 35.8906 24.625H32.8828ZM35.1875 22.75C34.3672 21.1484 33 19.8594 31.3594 19.1172C31.9062 20.1328 32.3359 21.3828 32.6094 22.75H35.1875ZM23.3516 22.75C23.625 21.3828 24.0547 20.1328 24.6016 19.1172C22.9609 19.8594 21.5938 21.1484 20.7734 22.75H23.3516ZM20.0703 24.625C19.9531 25.25 19.875 25.875 19.875 26.5C19.875 27.1641 19.9141 27.7891 20.0703 28.375H23.0781C23 27.7891 23 27.1641 23 26.5C23 25.875 23 25.25 23.0781 24.625H20.0703ZM31.3594 33.9219C33 33.1797 34.3672 31.8906 35.1875 30.25H32.6094C32.3359 31.6562 31.9062 32.9062 31.3594 33.9219ZM24.6016 33.9219C24.0547 32.9062 23.625 31.6562 23.3516 30.25H20.7734C21.5938 31.8906 22.9609 33.1797 24.6016 33.9219ZM28 36.5C24.4062 36.5 21.125 34.625 19.3281 31.5C17.5312 28.4141 17.5312 24.625 19.3281 21.5C21.125 18.4141 24.4062 16.5 28 16.5C31.5547 16.5 34.8359 18.4141 36.6328 21.5C38.4297 24.625 38.4297 28.4141 36.6328 31.5C34.8359 34.625 31.5547 36.5 28 36.5Z" fill="#454C53"/>
</g>
<defs>
<filter id="filter0_d_11372_108277" x="0" y="0" width="56" height="56" filterUnits="userSpaceOnUse" color-interpolation-filters="sRGB">
<feFlood flood-opacity="0" result="BackgroundImageFix"/>
<feColorMatrix in="SourceAlpha" type="matrix" values="0 0 0 0 0 0 0 0 0 0 0 0 0 0 0 0 0 0 127 0" result="hardAlpha"/>
<feOffset dy="2"/>
<feGaussianBlur stdDeviation="4"/>
<feComposite in2="hardAlpha" operator="out"/>
<feColorMatrix type="matrix" values="0 0 0 0 0 0 0 0 0 0 0 0 0 0 0 0 0 0 0.1 0"/>
<feBlend mode="normal" in2="BackgroundImageFix" result="effect1_dropShadow_11372_108277"/>
<feBlend mode="normal" in="SourceGraphic" in2="effect1_dropShadow_11372_108277" result="shape"/>
</filter>
</defs>
</svg>
