<svg width="32" height="32" viewBox="0 0 32 32" fill="none" xmlns="http://www.w3.org/2000/svg">
<path d="M18.25 8.5C18.25 7.28125 17.2188 6.25 16 6.25C14.7344 6.25 13.75 7.28125 13.75 8.5V16C13.75 17.2656 14.7344 18.25 16 18.25C17.2188 18.25 18.25 17.2656 18.25 16V8.5ZM11.5 8.5C11.5 6.01562 13.5156 4 16 4C18.4844 4 20.5 6.01562 20.5 8.5V16C20.5 18.4844 18.4844 20.5 16 20.5C13.5156 20.5 11.5 18.4844 11.5 16V8.5ZM10 14.125V16C10 19.3281 12.6719 22 16 22C19.2812 22 22 19.3281 22 16V14.125C22 13.5156 22.4688 13 23.125 13C23.7344 13 24.25 13.5156 24.25 14.125V16C24.25 20.2188 21.1094 23.6406 17.125 24.2031V25.75H19.375C19.9844 25.75 20.5 26.2656 20.5 26.875C20.5 27.5312 19.9844 28 19.375 28H16H12.625C11.9688 28 11.5 27.5312 11.5 26.875C11.5 26.2656 11.9688 25.75 12.625 25.75H14.875V24.2031C10.8438 23.6406 7.75 20.2188 7.75 16V14.125C7.75 13.5156 8.21875 13 8.875 13C9.48438 13 10 13.5156 10 14.125Z" fill="#454C53"/>
</svg>
