<svg width="80" height="80" viewBox="0 0 80 80" fill="none" xmlns="http://www.w3.org/2000/svg">
<g filter="url(#filter0_d_11338_145504)">
<rect x="8" y="6" width="64" height="64" rx="32" fill="white" shape-rendering="crispEdges"/>
<path d="M33 26H35C36.625 26 38 27.375 38 29V47C38 48.6875 36.625 50 35 50H33C31.3125 50 30 48.6875 30 47V29C30 27.375 31.3125 26 33 26ZM45 26H47C48.625 26 50 27.375 50 29V47C50 48.6875 48.625 50 47 50H45C43.3125 50 42 48.6875 42 47V29C42 27.375 43.3125 26 45 26Z" fill="#454C53"/>
</g>
<defs>
<filter id="filter0_d_11338_145504" x="0" y="0" width="80" height="80" filterUnits="userSpaceOnUse" color-interpolation-filters="sRGB">
<feFlood flood-opacity="0" result="BackgroundImageFix"/>
<feColorMatrix in="SourceAlpha" type="matrix" values="0 0 0 0 0 0 0 0 0 0 0 0 0 0 0 0 0 0 127 0" result="hardAlpha"/>
<feOffset dy="2"/>
<feGaussianBlur stdDeviation="4"/>
<feComposite in2="hardAlpha" operator="out"/>
<feColorMatrix type="matrix" values="0 0 0 0 0 0 0 0 0 0 0 0 0 0 0 0 0 0 0.1 0"/>
<feBlend mode="normal" in2="BackgroundImageFix" result="effect1_dropShadow_11338_145504"/>
<feBlend mode="normal" in="SourceGraphic" in2="effect1_dropShadow_11338_145504" result="shape"/>
</filter>
</defs>
</svg>
