<svg width="33" height="32" viewBox="0 0 33 32" fill="none" xmlns="http://www.w3.org/2000/svg">
<path d="M11.396 7.5H12.771C13.8882 7.5 14.8335 8.44531 14.8335 9.5625V21.9375C14.8335 23.0977 13.8882 24 12.771 24H11.396C10.2358 24 9.3335 23.0977 9.3335 21.9375V9.5625C9.3335 8.44531 10.2358 7.5 11.396 7.5ZM19.646 7.5H21.021C22.1382 7.5 23.0835 8.44531 23.0835 9.5625V21.9375C23.0835 23.0977 22.1382 24 21.021 24H19.646C18.4858 24 17.5835 23.0977 17.5835 21.9375V9.5625C17.5835 8.44531 18.4858 7.5 19.646 7.5Z" fill="#454C53"/>
</svg>
