<svg width="33" height="32" viewBox="0 0 33 32" fill="none" xmlns="http://www.w3.org/2000/svg">
<path d="M11.3958 7.5H12.7708C13.8879 7.5 14.8333 8.44531 14.8333 9.5625V21.9375C14.8333 23.0977 13.8879 24 12.7708 24H11.3958C10.2356 24 9.33325 23.0977 9.33325 21.9375V9.5625C9.33325 8.44531 10.2356 7.5 11.3958 7.5ZM19.6458 7.5H21.0208C22.1379 7.5 23.0833 8.44531 23.0833 9.5625V21.9375C23.0833 23.0977 22.1379 24 21.0208 24H19.6458C18.4856 24 17.5833 23.0977 17.5833 21.9375V9.5625C17.5833 8.44531 18.4856 7.5 19.6458 7.5Z" fill="#454C53"/>
</svg>
