<svg width="120" height="13" viewBox="0 0 120 13" fill="none" xmlns="http://www.w3.org/2000/svg">
<path d="M7.42188 0.6875H9.14062V8.125C9.14062 10.5 7.35938 12.1875 4.65625 12.1875C1.92188 12.1875 0.15625 10.5 0.15625 8.125V0.6875H1.875V7.98438C1.875 9.51562 2.9375 10.625 4.65625 10.625C6.35938 10.625 7.42188 9.51562 7.42188 7.98438V0.6875ZM16.0781 5.82812C15.9219 5.15625 15.3906 4.71875 14.4688 4.71875C13.5156 4.71875 12.8281 5.21875 12.8438 5.85938C12.8281 6.35938 13.2344 6.71875 14.1719 6.9375L15.5156 7.25C17.0781 7.59375 17.8281 8.34375 17.8438 9.54688C17.8281 11.0781 16.5469 12.1719 14.375 12.1719C12.3438 12.1719 11.125 11.2656 10.9219 9.6875H12.625C12.7656 10.4531 13.3594 10.8281 14.3594 10.8281C15.4375 10.8281 16.125 10.3906 16.1406 9.67188C16.125 9.125 15.7188 8.76562 14.8281 8.5625L13.5 8.28125C11.9688 7.9375 11.1719 7.125 11.1719 5.95312C11.1719 4.4375 12.4844 3.40625 14.4531 3.40625C16.3438 3.40625 17.5156 4.375 17.6875 5.82812H16.0781ZM23.125 12.1719C20.625 12.1719 19.0938 10.4531 19.0938 7.8125C19.0938 5.20312 20.6562 3.40625 23.0156 3.40625C24.9531 3.40625 26.7812 4.60938 26.7812 7.67188V8.26562H20.75C20.7969 9.875 21.7422 10.7969 23.1406 10.7969C24.0938 10.7969 24.7031 10.3906 24.9844 9.875H26.6719C26.2969 11.25 24.9844 12.1719 23.125 12.1719ZM20.7656 7.01562H25.1406C25.1406 5.71875 24.3125 4.78125 23.0312 4.78125C21.6953 4.78125 20.8281 5.8125 20.7656 7.01562ZM33.2031 5.82812C33.0469 5.15625 32.5156 4.71875 31.5938 4.71875C30.6406 4.71875 29.9531 5.21875 29.9688 5.85938C29.9531 6.35938 30.3594 6.71875 31.2969 6.9375L32.6406 7.25C34.2031 7.59375 34.9531 8.34375 34.9688 9.54688C34.9531 11.0781 33.6719 12.1719 31.5 12.1719C29.4688 12.1719 28.25 11.2656 28.0469 9.6875H29.75C29.8906 10.4531 30.4844 10.8281 31.4844 10.8281C32.5625 10.8281 33.25 10.3906 33.2656 9.67188C33.25 9.125 32.8438 8.76562 31.9531 8.5625L30.625 8.28125C29.0938 7.9375 28.2969 7.125 28.2969 5.95312C28.2969 4.4375 29.6094 3.40625 31.5781 3.40625C33.4688 3.40625 34.6406 4.375 34.8125 5.82812H33.2031ZM48.0037 4.62983C47.8103 3.37569 46.849 2.61326 45.5341 2.61326C43.7717 2.61326 42.6059 3.96133 42.6059 6.34254C42.6059 8.78453 43.7882 10.0718 45.523 10.0718C46.8048 10.0718 47.7717 9.36464 48.0037 8.14917L50.3794 8.16022C50.1142 10.2486 48.3573 12.1547 45.4844 12.1547C42.4568 12.1547 40.2247 10.0276 40.2247 6.34254C40.2247 2.65193 42.4954 0.530386 45.4844 0.530386C48.0921 0.530386 50.059 2.02762 50.3794 4.62983H48.0037ZM52.0183 12V0.685082H54.3664V10.0552H59.2338V12H52.0183ZM70.6688 6.34254C70.6688 10.0331 68.3815 12.1547 65.3815 12.1547C62.3704 12.1547 60.0997 10.0221 60.0997 6.34254C60.0997 2.65193 62.3704 0.530386 65.3815 0.530386C68.3815 0.530386 70.6688 2.65193 70.6688 6.34254ZM62.4809 6.34254C62.4809 8.75691 63.6356 10.0718 65.3815 10.0718C67.1329 10.0718 68.2876 8.75691 68.2876 6.34254C68.2876 3.92818 67.1329 2.61326 65.3815 2.61326C63.6356 2.61326 62.4809 3.92818 62.4809 6.34254ZM73.6993 0.685082L76.4562 9.32044H76.5612L79.3236 0.685082H81.9314L78.0198 12H74.9977L71.0861 0.685082H73.6993ZM83.6054 12H81.0861L84.9977 0.685082H88.0198L91.9314 12H89.412L88.5612 9.39227H84.4562L83.6054 12ZM85.0529 7.55249H87.959L86.5502 3.23757H86.4618L85.0529 7.55249ZM98.2812 12H96.4531L100.516 0.6875H102.5L106.578 12H104.75L103.719 9.01562H99.3125L98.2812 12ZM99.8125 7.57812H103.219L101.547 2.75H101.469L99.8125 7.57812ZM108.016 12V0.6875H112.047C114.672 0.6875 115.969 2.26562 115.969 4.35938C115.969 6.4375 114.672 8.03125 112.047 8.03125H109.734V12H108.016ZM109.734 6.5625H111.875C113.547 6.5625 114.234 5.625 114.234 4.35938C114.234 3.07812 113.547 2.15625 111.875 2.15625H109.734V6.5625ZM119.5 0.6875V12H117.781V0.6875H119.5Z" fill="#26282B"/>
</svg>
