<svg width="120" height="80" viewBox="0 0 120 80" fill="none" xmlns="http://www.w3.org/2000/svg">
<rect width="120" height="80" rx="8" fill="url(#paint0_linear_12189_203119)"/>
<path fill-rule="evenodd" clip-rule="evenodd" d="M52 19C51.4477 19 51 19.4477 51 20V22C51 22.5523 51.4477 23 52 23H86C86.5523 23 87 22.5523 87 22V20C87 19.4477 86.5523 19 86 19H52ZM52 26C51.4477 26 51 26.4477 51 27V29C51 29.5523 51.4477 30 52 30H107C107.552 30 108 29.5523 108 29V27C108 26.4477 107.552 26 107 26H52ZM51 34C51 33.4477 51.4477 33 52 33H107C107.552 33 108 33.4477 108 34V36C108 36.5523 107.552 37 107 37H52C51.4477 37 51 36.5523 51 36V34ZM52 40C51.4477 40 51 40.4477 51 41V43C51 43.5523 51.4477 44 52 44H97C97.5523 44 98 43.5523 98 43V41C98 40.4477 97.5523 40 97 40H52ZM18 53C18 52.4477 18.4477 52 19 52H107C107.552 52 108 52.4477 108 53V55C108 55.5523 107.552 56 107 56H19C18.4477 56 18 55.5523 18 55V53ZM19 59C18.4477 59 18 59.4477 18 60V62C18 62.5523 18.4477 63 19 63H90.9726C91.5249 63 91.9726 62.5523 91.9726 62V60C91.9726 59.4477 91.5249 59 90.9726 59H19Z" fill="#9D75EC"/>
<rect x="14" y="17" width="28" height="28" rx="14" fill="white"/>
<rect x="14" y="17" width="28" height="28" rx="14" stroke="#9D75EC" stroke-width="2"/>
<path d="M29.5934 25.3125C29.5934 24.4492 28.8629 23.7188 27.9996 23.7188C27.1031 23.7188 26.4059 24.4492 26.4059 25.3125V30.625C26.4059 31.5215 27.1031 32.2188 27.9996 32.2188C28.8629 32.2188 29.5934 31.5215 29.5934 30.625V25.3125ZM24.8121 25.3125C24.8121 23.5527 26.2398 22.125 27.9996 22.125C29.7594 22.125 31.1871 23.5527 31.1871 25.3125V30.625C31.1871 32.3848 29.7594 33.8125 27.9996 33.8125C26.2398 33.8125 24.8121 32.3848 24.8121 30.625V25.3125ZM23.7496 29.2969V30.625C23.7496 32.9824 25.6422 34.875 27.9996 34.875C30.3238 34.875 32.2496 32.9824 32.2496 30.625V29.2969C32.2496 28.8652 32.5816 28.5 33.0465 28.5C33.4781 28.5 33.8434 28.8652 33.8434 29.2969V30.625C33.8434 33.6133 31.6187 36.0371 28.7965 36.4355V37.5312H30.3902C30.8219 37.5312 31.1871 37.8965 31.1871 38.3281C31.1871 38.793 30.8219 39.125 30.3902 39.125H27.9996H25.609C25.1441 39.125 24.8121 38.793 24.8121 38.3281C24.8121 37.8965 25.1441 37.5312 25.609 37.5312H27.2027V36.4355C24.3473 36.0371 22.1559 33.6133 22.1559 30.625V29.2969C22.1559 28.8652 22.4879 28.5 22.9527 28.5C23.3844 28.5 23.7496 28.8652 23.7496 29.2969Z" fill="#6F3AD0"/>
<defs>
<linearGradient id="paint0_linear_12189_203119" x1="20" y1="20" x2="105" y2="70" gradientUnits="userSpaceOnUse">
<stop stop-color="#E6DAFF"/>
<stop offset="1" stop-color="#D6B9FB"/>
</linearGradient>
</defs>
</svg>
