<svg width="64" height="64" viewBox="0 0 64 64" fill="none" xmlns="http://www.w3.org/2000/svg">
<rect width="64" height="64" rx="32" fill="#6F3AD0"/>
<path d="M34.25 24.5C34.25 23.2812 33.2188 22.25 32 22.25C30.7344 22.25 29.75 23.2812 29.75 24.5V32C29.75 33.2656 30.7344 34.25 32 34.25C33.2188 34.25 34.25 33.2656 34.25 32V24.5ZM27.5 24.5C27.5 22.0156 29.5156 20 32 20C34.4844 20 36.5 22.0156 36.5 24.5V32C36.5 34.4844 34.4844 36.5 32 36.5C29.5156 36.5 27.5 34.4844 27.5 32V24.5ZM26 30.125V32C26 35.3281 28.6719 38 32 38C35.2812 38 38 35.3281 38 32V30.125C38 29.5156 38.4688 29 39.125 29C39.7344 29 40.25 29.5156 40.25 30.125V32C40.25 36.2188 37.1094 39.6406 33.125 40.2031V41.75H35.375C35.9844 41.75 36.5 42.2656 36.5 42.875C36.5 43.5312 35.9844 44 35.375 44H32H28.625C27.9688 44 27.5 43.5312 27.5 42.875C27.5 42.2656 27.9688 41.75 28.625 41.75H30.875V40.2031C26.8438 39.6406 23.75 36.2188 23.75 32V30.125C23.75 29.5156 24.2188 29 24.875 29C25.4844 29 26 29.5156 26 30.125Z" fill="white"/>
</svg>
