<svg width="120" height="120" viewBox="0 0 120 120" fill="none" xmlns="http://www.w3.org/2000/svg">
<rect x="1" y="1" width="118" height="118" rx="59" fill="#232323"/>
<rect x="1" y="1" width="118" height="118" rx="59" stroke="#6F3AD0" stroke-width="2"/>
<circle cx="60" cy="48.5" r="22" fill="url(#paint0_linear_13106_112133)"/>
<path d="M51.6191 44.3096C51.8985 46.0556 55.3068 49.5477 60.0001 49.5477C64.6934 49.5477 68.1017 46.0556 68.381 44.3096" stroke="black" stroke-width="1.58929" stroke-linecap="round"/>
<path d="M57.1676 35.3557C58.1624 36.0097 58.3644 37.3565 57.6555 38.2678L55.1982 41.4117C55.0473 41.615 54.7454 41.6505 54.5515 41.4877L51.4323 38.999C50.5315 38.2769 50.4158 36.92 51.2319 36.0532C51.9446 35.2985 53.138 35.2868 53.9426 35.9346L54.2632 36.1824L54.5032 35.8687C55.1501 35.0503 56.2993 34.7868 57.1676 35.3557Z" fill="#F95C5C"/>
<path d="M62.5233 35.3557C61.5285 36.0097 61.3266 37.3565 62.0354 38.2678L64.4927 41.4117C64.6437 41.615 64.9455 41.6505 65.1395 41.4877L68.2586 38.999C69.1594 38.2769 69.2751 36.92 68.459 36.0532C67.7463 35.2985 66.5529 35.2868 65.7483 35.9346L65.4277 36.1824L65.1878 35.8687C64.5408 35.0503 63.3916 34.7868 62.5233 35.3557Z" fill="#F95C5C"/>
<path d="M44.6797 82.2656H50.2266V83.8594H37.2109V82.2656H42.7109V80.9531H44.6797V82.2656ZM49.0234 78.5781H45.1953C45.3359 78.8646 45.5938 79.1276 45.9688 79.3672C46.3438 79.6068 46.8385 79.8073 47.4531 79.9688C48.0729 80.1302 48.7995 80.2344 49.6328 80.2812L49.0078 81.7656C47.6589 81.6719 46.5312 81.4219 45.625 81.0156C44.7188 80.6042 44.0807 80.0755 43.7109 79.4297C43.3359 80.0755 42.6953 80.6042 41.7891 81.0156C40.8828 81.4219 39.7578 81.6719 38.4141 81.7656L37.7734 80.2812C38.5911 80.2344 39.3073 80.1302 39.9219 79.9688C40.5417 79.8021 41.0417 79.599 41.4219 79.3594C41.8021 79.1198 42.0651 78.8594 42.2109 78.5781H38.4141V77.0625H49.0234V78.5781ZM48.9922 86.7969H38.3984V85.3125H42.6953V84.25H44.6953V85.3125H48.9922V86.7969ZM43.6797 87.2188C45.0651 87.2188 46.1432 87.3802 46.9141 87.7031C47.6849 88.026 48.0703 88.4896 48.0703 89.0938C48.0703 89.7031 47.6849 90.1693 46.9141 90.4922C46.1484 90.8203 45.0703 90.9844 43.6797 90.9844C42.2786 90.9844 41.2005 90.8229 40.4453 90.5C39.6953 90.1771 39.3203 89.7083 39.3203 89.0938C39.3203 88.4896 39.6979 88.026 40.4531 87.7031C41.2083 87.3802 42.2839 87.2188 43.6797 87.2188ZM43.6797 88.5312C42.888 88.5417 42.3047 88.5885 41.9297 88.6719C41.5547 88.7552 41.3672 88.8958 41.3672 89.0938C41.3672 89.4792 42.138 89.6719 43.6797 89.6719C44.4557 89.6719 45.0339 89.6224 45.4141 89.5234C45.7943 89.4297 45.987 89.2865 45.9922 89.0938C45.987 88.8958 45.7995 88.7552 45.4297 88.6719C45.0599 88.5885 44.4766 88.5417 43.6797 88.5312ZM54.8828 77.7188C55.6016 77.7188 56.2448 77.9271 56.8125 78.3438C57.3802 78.7552 57.8229 79.3438 58.1406 80.1094C58.4635 80.875 58.6276 81.7656 58.6328 82.7812C58.6276 83.8021 58.4635 84.6979 58.1406 85.4688C57.8229 86.2344 57.3802 86.8255 56.8125 87.2422C56.25 87.6536 55.6068 87.8594 54.8828 87.8594C54.1589 87.8594 53.5104 87.6536 52.9375 87.2422C52.3698 86.8255 51.9245 86.2344 51.6016 85.4688C51.2839 84.6979 51.1276 83.8021 51.1328 82.7812C51.1276 81.7708 51.2839 80.8828 51.6016 80.1172C51.9245 79.3516 52.3698 78.7604 52.9375 78.3438C53.5104 77.9271 54.1589 77.7188 54.8828 77.7188ZM54.8828 79.5156C54.5182 79.5156 54.1979 79.6432 53.9219 79.8984C53.6458 80.1484 53.4323 80.5182 53.2812 81.0078C53.1302 81.4974 53.0547 82.0885 53.0547 82.7812C53.0547 83.474 53.1302 84.0677 53.2812 84.5625C53.4323 85.0521 53.6458 85.4219 53.9219 85.6719C54.1979 85.9219 54.5182 86.0469 54.8828 86.0469C55.2526 86.0469 55.5755 85.9219 55.8516 85.6719C56.1276 85.4219 56.3411 85.0521 56.4922 84.5625C56.6432 84.0729 56.7214 83.4792 56.7266 82.7812C56.7214 82.0885 56.6432 81.4974 56.4922 81.0078C56.3411 80.5182 56.1276 80.1484 55.8516 79.8984C55.5755 79.6432 55.2526 79.5156 54.8828 79.5156ZM62.2734 82.0781H64.3672V83.7344H62.2734V90.9375H60.2734V76.7188H62.2734V82.0781ZM77.8984 89.2812H64.8828V87.6406H67.7891V84.1641C67.2266 83.8255 66.7917 83.4089 66.4844 82.9141C66.1771 82.4141 66.0234 81.8542 66.0234 81.2344C66.0234 80.4792 66.2526 79.8125 66.7109 79.2344C67.1693 78.6562 67.8021 78.2083 68.6094 77.8906C69.4219 77.5677 70.3411 77.4062 71.3672 77.4062C72.388 77.4062 73.3021 77.5677 74.1094 77.8906C74.9219 78.2083 75.5599 78.6562 76.0234 79.2344C76.487 79.8125 76.7214 80.4792 76.7266 81.2344C76.7214 81.8385 76.5677 82.388 76.2656 82.8828C75.9688 83.3724 75.5495 83.7865 75.0078 84.125V87.6406H77.8984V89.2812ZM71.3672 78.9844C70.6901 78.9844 70.0964 79.0729 69.5859 79.25C69.0807 79.4271 68.6875 79.6849 68.4062 80.0234C68.1302 80.3568 67.9922 80.7604 67.9922 81.2344C67.9922 81.6927 68.1302 82.0911 68.4062 82.4297C68.6875 82.7682 69.0833 83.0286 69.5938 83.2109C70.1042 83.3932 70.6953 83.4844 71.3672 83.4844C72.0339 83.4844 72.6224 83.3932 73.1328 83.2109C73.6432 83.0286 74.0391 82.7682 74.3203 82.4297C74.6068 82.0911 74.7526 81.6927 74.7578 81.2344C74.7526 80.7656 74.6094 80.362 74.3281 80.0234C74.0469 79.6849 73.651 79.4271 73.1406 79.25C72.6302 79.0729 72.0391 78.9844 71.3672 78.9844ZM72.9922 87.6406V84.8828C72.4557 84.9818 71.9141 85.0312 71.3672 85.0312C70.7839 85.0312 70.2474 84.9818 69.7578 84.8828V87.6406H72.9922ZM81.7422 86.1094H79.7422L79.5391 78.1875H81.9453L81.7422 86.1094ZM80.7578 89.6406C80.5182 89.6406 80.2969 89.5807 80.0938 89.4609C79.8906 89.3411 79.7292 89.1823 79.6094 88.9844C79.4948 88.7812 79.4401 88.5625 79.4453 88.3281C79.4401 88.0938 79.4948 87.8776 79.6094 87.6797C79.7292 87.4818 79.8906 87.3255 80.0938 87.2109C80.2969 87.0911 80.5182 87.0312 80.7578 87.0312C80.9818 87.0312 81.1927 87.0911 81.3906 87.2109C81.5938 87.3255 81.7552 87.4818 81.875 87.6797C81.9948 87.8776 82.0547 88.0938 82.0547 88.3281C82.0547 88.5625 81.9948 88.7812 81.875 88.9844C81.7552 89.1823 81.5938 89.3411 81.3906 89.4609C81.1927 89.5807 80.9818 89.6406 80.7578 89.6406Z" fill="#C6A9FF"/>
<defs>
<linearGradient id="paint0_linear_13106_112133" x1="60" y1="26.5" x2="60" y2="70.5" gradientUnits="userSpaceOnUse">
<stop stop-color="#FFE7A3"/>
<stop offset="0.5" stop-color="#FFD353"/>
<stop offset="1" stop-color="#F0D484"/>
</linearGradient>
</defs>
</svg>
