<svg width="120" height="120" viewBox="0 0 120 120" fill="none" xmlns="http://www.w3.org/2000/svg">
<path d="M0.5 60C0.5 27.1391 27.1391 0.5 60 0.5C92.8609 0.5 119.5 27.1391 119.5 60C119.5 92.8609 92.8609 119.5 60 119.5C27.1391 119.5 0.5 92.8609 0.5 60Z" fill="#3B3B3B"/>
<path d="M0.5 60C0.5 27.1391 27.1391 0.5 60 0.5C92.8609 0.5 119.5 27.1391 119.5 60C119.5 92.8609 92.8609 119.5 60 119.5C27.1391 119.5 0.5 92.8609 0.5 60Z" stroke="#3B3B3B"/>
<circle cx="60" cy="48.5" r="22" fill="#606060"/>
<ellipse opacity="0.9" cx="54.4166" cy="38.4526" rx="1.75" ry="2.5" fill="#3B3B3B"/>
<ellipse opacity="0.9" cx="65.5833" cy="38.4526" rx="1.75" ry="2.5" fill="#3B3B3B"/>
<path d="M51.619 49.5C51.8984 47.754 55.3066 44.2619 60 44.2619C64.6933 44.2619 68.1016 47.754 68.3809 49.5" stroke="#3B3B3B" stroke-width="1.8" stroke-linecap="round"/>
<path d="M55.295 31.7302C55.1197 32.0002 54.6717 32.9167 53.4282 33.5703C52.1846 34.2239 51.5263 34.2635 50.8539 34.0644" stroke="#3B3B3B" stroke-width="1.3" stroke-linecap="round"/>
<path d="M64.3998 31.7302C64.5751 32.0002 65.0231 32.9167 66.2667 33.5703C67.5102 34.2239 68.1685 34.2635 68.8409 34.0644" stroke="#3B3B3B" stroke-width="1.3" stroke-linecap="round"/>
<path d="M72.8208 43.0221C73.4772 44.3172 72.9116 45.9188 71.6165 46.5752C70.2716 47.257 68.6954 46.7412 68.0389 45.4461C67.5339 44.4499 67.9186 41.7504 68.1369 40.5754C68.1601 40.2506 68.5088 40.0738 68.7845 40.2472C69.8613 40.7657 72.3158 42.0259 72.8208 43.0221Z" fill="#3B3B3B"/>
<path d="M36.5938 77.7188C37.3125 77.7188 37.9557 77.9271 38.5234 78.3438C39.0911 78.7552 39.5339 79.3438 39.8516 80.1094C40.1745 80.875 40.3385 81.7656 40.3438 82.7812C40.3385 83.8021 40.1745 84.6979 39.8516 85.4688C39.5339 86.2344 39.0911 86.8255 38.5234 87.2422C37.9609 87.6536 37.3177 87.8594 36.5938 87.8594C35.8698 87.8594 35.2214 87.6536 34.6484 87.2422C34.0807 86.8255 33.6354 86.2344 33.3125 85.4688C32.9948 84.6979 32.8385 83.8021 32.8438 82.7812C32.8385 81.7708 32.9948 80.8828 33.3125 80.1172C33.6354 79.3516 34.0807 78.7604 34.6484 78.3438C35.2214 77.9271 35.8698 77.7188 36.5938 77.7188ZM36.5938 79.5156C36.2292 79.5156 35.9089 79.6432 35.6328 79.8984C35.3568 80.1484 35.1432 80.5182 34.9922 81.0078C34.8411 81.4974 34.7656 82.0885 34.7656 82.7812C34.7656 83.474 34.8411 84.0677 34.9922 84.5625C35.1432 85.0521 35.3568 85.4219 35.6328 85.6719C35.9089 85.9219 36.2292 86.0469 36.5938 86.0469C36.9635 86.0469 37.2865 85.9219 37.5625 85.6719C37.8385 85.4219 38.0521 85.0521 38.2031 84.5625C38.3542 84.0729 38.4323 83.4792 38.4375 82.7812C38.4323 82.0885 38.3542 81.4974 38.2031 81.0078C38.0521 80.5182 37.8385 80.1484 37.5625 79.8984C37.2865 79.6432 36.9635 79.5156 36.5938 79.5156ZM43.9844 82.0781H46.0781V83.7344H43.9844V90.9375H41.9844V76.7188H43.9844V82.0781ZM52.3125 78.0469C52.3125 78.5573 52.4323 79.0365 52.6719 79.4844C52.9167 79.9271 53.2917 80.3177 53.7969 80.6562C54.3021 80.9896 54.9375 81.2396 55.7031 81.4062L54.7969 82.9688C53.9635 82.7708 53.2526 82.4688 52.6641 82.0625C52.0807 81.651 51.6224 81.1536 51.2891 80.5703C50.9609 81.2214 50.4948 81.776 49.8906 82.2344C49.2917 82.6927 48.5677 83.026 47.7188 83.2344L46.7812 81.6875C47.5521 81.5052 48.1953 81.2318 48.7109 80.8672C49.2266 80.4974 49.6094 80.0703 49.8594 79.5859C50.1094 79.1016 50.2344 78.5885 50.2344 78.0469V77.2969H52.3125V78.0469ZM58.5781 90.9375H56.6094V76.7344H58.5781V90.9375ZM46.625 84.1406C48.3646 84.1406 49.9844 84.112 51.4844 84.0547C52.9844 83.9922 54.4062 83.8646 55.75 83.6719L55.875 85.1094C54.7344 85.3281 53.5469 85.487 52.3125 85.5859V90.5156H50.3281V85.7031C49.3802 85.7448 48.2292 85.7656 46.875 85.7656L46.625 84.1406ZM72.5625 90.9375H70.5312V87.7969H67.6406V86.2969H70.5312V76.7344H72.5625V90.9375ZM60.3594 83.9375C62.2031 83.9375 63.8698 83.9115 65.3594 83.8594C66.849 83.8073 68.2708 83.6927 69.625 83.5156L69.7344 84.9688C68.5885 85.1771 67.3229 85.3281 65.9375 85.4219V90.5156H63.9219V85.5234C62.9375 85.5495 61.8333 85.5625 60.6094 85.5625L60.3594 83.9375ZM65.0156 77.2969C65.7031 77.2969 66.3229 77.4219 66.875 77.6719C67.4323 77.9219 67.8698 78.2708 68.1875 78.7188C68.5052 79.1615 68.6667 79.6615 68.6719 80.2188C68.6667 80.7917 68.5052 81.2995 68.1875 81.7422C67.875 82.1797 67.4401 82.5208 66.8828 82.7656C66.3307 83.0052 65.7083 83.125 65.0156 83.125C64.3125 83.125 63.6823 83.0052 63.125 82.7656C62.5729 82.5208 62.1406 82.1797 61.8281 81.7422C61.5156 81.2995 61.3594 80.7917 61.3594 80.2188C61.3594 79.6562 61.5156 79.1536 61.8281 78.7109C62.1406 78.2682 62.5755 77.9219 63.1328 77.6719C63.6901 77.4219 64.3177 77.2969 65.0156 77.2969ZM65.0156 78.8125C64.6615 78.8125 64.349 78.8698 64.0781 78.9844C63.8125 79.099 63.6042 79.263 63.4531 79.4766C63.3073 79.6901 63.2344 79.9375 63.2344 80.2188C63.2344 80.6562 63.3958 80.9974 63.7188 81.2422C64.0417 81.487 64.474 81.6094 65.0156 81.6094C65.5417 81.6094 65.9661 81.487 66.2891 81.2422C66.612 80.9974 66.776 80.6562 66.7812 80.2188C66.776 79.9375 66.6979 79.6901 66.5469 79.4766C66.3958 79.263 66.1875 79.099 65.9219 78.9844C65.6615 78.8698 65.3594 78.8125 65.0156 78.8125ZM87.2656 89.2812H74.25V87.6406H77.1562V84.1641C76.5938 83.8255 76.1589 83.4089 75.8516 82.9141C75.5443 82.4141 75.3906 81.8542 75.3906 81.2344C75.3906 80.4792 75.6198 79.8125 76.0781 79.2344C76.5365 78.6562 77.1693 78.2083 77.9766 77.8906C78.7891 77.5677 79.7083 77.4062 80.7344 77.4062C81.7552 77.4062 82.6693 77.5677 83.4766 77.8906C84.2891 78.2083 84.9271 78.6562 85.3906 79.2344C85.8542 79.8125 86.0885 80.4792 86.0938 81.2344C86.0885 81.8385 85.9349 82.388 85.6328 82.8828C85.3359 83.3724 84.9167 83.7865 84.375 84.125V87.6406H87.2656V89.2812ZM80.7344 78.9844C80.0573 78.9844 79.4635 79.0729 78.9531 79.25C78.4479 79.4271 78.0547 79.6849 77.7734 80.0234C77.4974 80.3568 77.3594 80.7604 77.3594 81.2344C77.3594 81.6927 77.4974 82.0911 77.7734 82.4297C78.0547 82.7682 78.4505 83.0286 78.9609 83.2109C79.4714 83.3932 80.0625 83.4844 80.7344 83.4844C81.401 83.4844 81.9896 83.3932 82.5 83.2109C83.0104 83.0286 83.4062 82.7682 83.6875 82.4297C83.974 82.0911 84.1198 81.6927 84.125 81.2344C84.1198 80.7656 83.9766 80.362 83.6953 80.0234C83.4141 79.6849 83.0182 79.4271 82.5078 79.25C81.9974 79.0729 81.4062 78.9844 80.7344 78.9844ZM82.3594 87.6406V84.8828C81.8229 84.9818 81.2812 85.0312 80.7344 85.0312C80.151 85.0312 79.6146 84.9818 79.125 84.8828V87.6406H82.3594Z" fill="#606060"/>
</svg>
