<svg width="44" height="45" viewBox="0 0 44 45" fill="none" xmlns="http://www.w3.org/2000/svg">
<circle cx="22" cy="22.5" r="22" fill="#606060"/>
<path d="M13.619 18.3096C13.8984 20.0556 17.3066 23.5477 22 23.5477C26.6933 23.5477 30.1016 20.0556 30.3809 18.3096" stroke="#3B3B3B" stroke-width="1.58929" stroke-linecap="round"/>
<path d="M19.1676 9.35574C20.1624 10.0097 20.3644 11.3565 19.6555 12.2678L17.1982 15.4117C17.0473 15.615 16.7454 15.6505 16.5515 15.4877L13.4323 12.999C12.5315 12.2769 12.4158 10.92 13.2319 10.0532C13.9446 9.29853 15.138 9.28677 15.9426 9.93456L16.2632 10.1824L16.5032 9.86869C17.1501 9.05033 18.2993 8.7868 19.1676 9.35574Z" fill="#3B3B3B"/>
<path d="M24.5232 9.35574C23.5284 10.0097 23.3264 11.3565 24.0353 12.2678L26.4926 15.4117C26.6435 15.615 26.9454 15.6505 27.1393 15.4877L30.2585 12.999C31.1593 12.2769 31.275 10.92 30.4589 10.0532C29.7462 9.29853 28.5528 9.28677 27.7482 9.93456L27.4276 10.1824L27.1876 9.86869C26.5407 9.05033 25.3914 8.7868 24.5232 9.35574Z" fill="#3B3B3B"/>
</svg>
