<svg width="44" height="45" viewBox="0 0 44 45" fill="none" xmlns="http://www.w3.org/2000/svg">
<circle cx="22" cy="22.5" r="22" fill="url(#paint0_linear_17144_8958)"/>
<path d="M13.6191 18.3096C13.8985 20.0556 17.3068 23.5477 22.0001 23.5477C26.6934 23.5477 30.1017 20.0556 30.381 18.3096" stroke="black" stroke-width="1.58929" stroke-linecap="round"/>
<path d="M19.1676 9.35574C20.1624 10.0097 20.3644 11.3565 19.6555 12.2678L17.1982 15.4117C17.0473 15.615 16.7454 15.6505 16.5515 15.4877L13.4323 12.999C12.5315 12.2769 12.4158 10.92 13.2319 10.0532C13.9446 9.29853 15.138 9.28677 15.9426 9.93456L16.2632 10.1824L16.5032 9.86869C17.1501 9.05033 18.2993 8.7868 19.1676 9.35574Z" fill="#F95C5C"/>
<path d="M24.5233 9.35574C23.5285 10.0097 23.3266 11.3565 24.0354 12.2678L26.4927 15.4117C26.6437 15.615 26.9455 15.6505 27.1395 15.4877L30.2586 12.999C31.1594 12.2769 31.2751 10.92 30.459 10.0532C29.7463 9.29853 28.5529 9.28677 27.7483 9.93456L27.4277 10.1824L27.1878 9.86869C26.5408 9.05033 25.3916 8.7868 24.5233 9.35574Z" fill="#F95C5C"/>
<defs>
<linearGradient id="paint0_linear_17144_8958" x1="22" y1="0.5" x2="22" y2="44.5" gradientUnits="userSpaceOnUse">
<stop stop-color="#FFE7A3"/>
<stop offset="0.5" stop-color="#FFD353"/>
<stop offset="1" stop-color="#F0D484"/>
</linearGradient>
</defs>
</svg>
