<svg width="44" height="45" viewBox="0 0 44 45" fill="none" xmlns="http://www.w3.org/2000/svg">
<circle cx="22" cy="22.5" r="22" fill="url(#paint0_linear_17144_8967)"/>
<ellipse opacity="0.9" cx="16.4167" cy="12.4526" rx="1.75" ry="2.5" fill="black"/>
<ellipse opacity="0.9" cx="27.5835" cy="12.4526" rx="1.75" ry="2.5" fill="black"/>
<path d="M13.6191 23.5C13.8985 21.754 17.3068 18.2619 22.0001 18.2619C26.6934 18.2619 30.1017 21.754 30.381 23.5" stroke="black" stroke-width="1.8" stroke-linecap="round"/>
<path d="M17.2949 5.73022C17.1196 6.00016 16.6716 6.91674 15.4281 7.57031C14.1845 8.22388 13.5262 8.26352 12.8538 8.0644" stroke="black" stroke-width="1.3" stroke-linecap="round"/>
<path d="M26.3999 5.73022C26.5753 6.00016 27.0232 6.91674 28.2668 7.57031C29.5103 8.22388 30.1687 8.26352 30.8411 8.0644" stroke="black" stroke-width="1.3" stroke-linecap="round"/>
<path d="M34.8208 17.0221C35.4772 18.3172 34.9116 19.9188 33.6165 20.5752C32.2716 21.257 30.6954 20.7412 30.0389 19.4461C29.5339 18.4499 29.9186 15.7504 30.1369 14.5754C30.1601 14.2506 30.5088 14.0738 30.7845 14.2472C31.8613 14.7657 34.3158 16.0259 34.8208 17.0221Z" fill="#95D7F9"/>
<defs>
<linearGradient id="paint0_linear_17144_8967" x1="22" y1="0.5" x2="22" y2="44.5" gradientUnits="userSpaceOnUse">
<stop stop-color="#FFE7A3"/>
<stop offset="0.5" stop-color="#FFD353"/>
<stop offset="1" stop-color="#F0D484"/>
</linearGradient>
</defs>
</svg>
