<svg width="44" height="45" viewBox="0 0 44 45" fill="none" xmlns="http://www.w3.org/2000/svg">
<circle cx="22" cy="22.5" r="22" fill="#606060"/>
<ellipse opacity="0.9" cx="16.4166" cy="12.4526" rx="1.75" ry="2.5" fill="#3B3B3B"/>
<ellipse opacity="0.9" cx="27.5833" cy="12.4526" rx="1.75" ry="2.5" fill="#3B3B3B"/>
<path d="M13.619 23.5C13.8984 21.754 17.3066 18.2619 22 18.2619C26.6933 18.2619 30.1016 21.754 30.3809 23.5" stroke="#3B3B3B" stroke-width="1.8" stroke-linecap="round"/>
<path d="M17.295 5.73022C17.1197 6.00016 16.6717 6.91674 15.4282 7.57031C14.1846 8.22388 13.5263 8.26352 12.8539 8.0644" stroke="#3B3B3B" stroke-width="1.3" stroke-linecap="round"/>
<path d="M26.3998 5.73022C26.5751 6.00016 27.0231 6.91674 28.2667 7.57031C29.5102 8.22388 30.1685 8.26352 30.8409 8.0644" stroke="#3B3B3B" stroke-width="1.3" stroke-linecap="round"/>
<path d="M34.8208 17.0221C35.4772 18.3172 34.9116 19.9188 33.6165 20.5752C32.2716 21.257 30.6954 20.7412 30.0389 19.4461C29.5339 18.4499 29.9186 15.7504 30.1369 14.5754C30.1601 14.2506 30.5088 14.0738 30.7845 14.2472C31.8613 14.7657 34.3158 16.0259 34.8208 17.0221Z" fill="#3B3B3B"/>
</svg>
