<svg width="125" height="16" viewBox="0 0 125 16" fill="none" xmlns="http://www.w3.org/2000/svg">
<path d="M7.42188 0.6875H9.14062V8.125C9.14062 10.5 7.35938 12.1875 4.65625 12.1875C1.92188 12.1875 0.15625 10.5 0.15625 8.125V0.6875H1.875V7.98438C1.875 9.51562 2.9375 10.625 4.65625 10.625C6.35938 10.625 7.42188 9.51562 7.42188 7.98438V0.6875ZM16.0781 5.82812C15.9219 5.15625 15.3906 4.71875 14.4688 4.71875C13.5156 4.71875 12.8281 5.21875 12.8438 5.85938C12.8281 6.35938 13.2344 6.71875 14.1719 6.9375L15.5156 7.25C17.0781 7.59375 17.8281 8.34375 17.8438 9.54688C17.8281 11.0781 16.5469 12.1719 14.375 12.1719C12.3438 12.1719 11.125 11.2656 10.9219 9.6875H12.625C12.7656 10.4531 13.3594 10.8281 14.3594 10.8281C15.4375 10.8281 16.125 10.3906 16.1406 9.67188C16.125 9.125 15.7188 8.76562 14.8281 8.5625L13.5 8.28125C11.9688 7.9375 11.1719 7.125 11.1719 5.95312C11.1719 4.4375 12.4844 3.40625 14.4531 3.40625C16.3438 3.40625 17.5156 4.375 17.6875 5.82812H16.0781ZM23.125 12.1719C20.625 12.1719 19.0938 10.4531 19.0938 7.8125C19.0938 5.20312 20.6562 3.40625 23.0156 3.40625C24.9531 3.40625 26.7812 4.60938 26.7812 7.67188V8.26562H20.75C20.7969 9.875 21.7422 10.7969 23.1406 10.7969C24.0938 10.7969 24.7031 10.3906 24.9844 9.875H26.6719C26.2969 11.25 24.9844 12.1719 23.125 12.1719ZM20.7656 7.01562H25.1406C25.1406 5.71875 24.3125 4.78125 23.0312 4.78125C21.6953 4.78125 20.8281 5.8125 20.7656 7.01562ZM33.2031 5.82812C33.0469 5.15625 32.5156 4.71875 31.5938 4.71875C30.6406 4.71875 29.9531 5.21875 29.9688 5.85938C29.9531 6.35938 30.3594 6.71875 31.2969 6.9375L32.6406 7.25C34.2031 7.59375 34.9531 8.34375 34.9688 9.54688C34.9531 11.0781 33.6719 12.1719 31.5 12.1719C29.4688 12.1719 28.25 11.2656 28.0469 9.6875H29.75C29.8906 10.4531 30.4844 10.8281 31.4844 10.8281C32.5625 10.8281 33.25 10.3906 33.2656 9.67188C33.25 9.125 32.8438 8.76562 31.9531 8.5625L30.625 8.28125C29.0938 7.9375 28.2969 7.125 28.2969 5.95312C28.2969 4.4375 29.6094 3.40625 31.5781 3.40625C33.4688 3.40625 34.6406 4.375 34.8125 5.82812H33.2031ZM40.4375 12V0.6875H42.7812V5.375H47.6875V0.6875H50.0469V12H47.6875V7.3125H42.7812V12H40.4375ZM55.75 12.1719C53.1562 12.1719 51.5625 10.4844 51.5625 7.79688C51.5625 5.17188 53.1719 3.40625 55.6562 3.40625C57.8906 3.40625 59.6406 4.8125 59.6406 7.70312V8.35938H53.8438C53.8438 9.64062 54.6094 10.4375 55.7969 10.4375C56.5781 10.4375 57.1406 10.0938 57.375 9.57812H59.5781C59.25 11.1406 57.8438 12.1719 55.75 12.1719ZM53.8438 6.90625H57.4531C57.4531 5.875 56.7344 5.14062 55.7031 5.14062C54.6406 5.14062 53.8828 5.92969 53.8438 6.90625ZM62.2188 15.1875C61.7656 15.1875 61.3438 15.1719 61.0469 15.1406V13.3438C61.3438 13.3594 61.6875 13.375 61.9844 13.375C62.4375 13.375 62.8125 13.3281 63.0938 12.5938L63.2344 12.2344L60.1875 3.51562H62.6094L64.3906 9.76562H64.4844L66.2812 3.51562H68.7344L65.4219 12.9375C64.9375 14.2969 64.0156 15.1875 62.2188 15.1875ZM73.3906 15.3594C71.0469 15.3594 69.6094 14.3125 69.4688 12.7031H71.75C71.875 13.375 72.5156 13.6875 73.4375 13.6875C74.5156 13.6875 75.2344 13.2344 75.2344 12.0469V10.5H75.125C74.8125 11.1875 74.0625 11.875 72.7031 11.875C70.7812 11.875 69.25 10.5312 69.25 7.70312C69.25 4.82812 70.8281 3.40625 72.7031 3.40625C74.125 3.40625 74.8125 4.25 75.125 4.9375H75.2188V3.51562H77.5156V12.0938C77.5156 14.25 75.7969 15.3594 73.3906 15.3594ZM73.4219 10.1406C74.5781 10.1406 75.2344 9.23438 75.2344 7.73438C75.2344 6.21875 74.5781 5.25 73.4219 5.25C72.25 5.25 71.625 6.26562 71.625 7.73438C71.625 9.20312 72.25 10.1406 73.4219 10.1406ZM83.1562 12.1719C80.5625 12.1719 78.9688 10.4844 78.9688 7.79688C78.9688 5.17188 80.5781 3.40625 83.0625 3.40625C85.2969 3.40625 87.0469 4.8125 87.0469 7.70312V8.35938H81.25C81.25 9.64062 82.0156 10.4375 83.2031 10.4375C83.9844 10.4375 84.5469 10.0938 84.7812 9.57812H86.9844C86.6562 11.1406 85.25 12.1719 83.1562 12.1719ZM81.25 6.90625H84.8594C84.8594 5.875 84.1406 5.14062 83.1094 5.14062C82.0469 5.14062 81.2891 5.92969 81.25 6.90625ZM90.8125 7.09375V12H88.5V3.51562H90.7031V5H90.7969C91.1875 4.01562 92.0938 3.40625 93.3438 3.40625C95.1094 3.40625 96.2812 4.60938 96.2656 6.59375V12H93.9688V7C93.9688 5.95312 93.3906 5.32812 92.4375 5.32812C91.4688 5.32812 90.8125 5.96875 90.8125 7.09375ZM103.188 12H101.359L105.422 0.6875H107.406L111.484 12H109.656L108.625 9.01562H104.219L103.188 12ZM104.719 7.57812H108.125L106.453 2.75H106.375L104.719 7.57812ZM112.922 12V0.6875H116.953C119.578 0.6875 120.875 2.26562 120.875 4.35938C120.875 6.4375 119.578 8.03125 116.953 8.03125H114.641V12H112.922ZM114.641 6.5625H116.781C118.453 6.5625 119.141 5.625 119.141 4.35938C119.141 3.07812 118.453 2.15625 116.781 2.15625H114.641V6.5625ZM124.406 0.6875V12H122.688V0.6875H124.406Z" fill="#D8D8D8"/>
</svg>
