<svg width="48" height="16" viewBox="0 0 48 16" fill="none" xmlns="http://www.w3.org/2000/svg">
<path d="M45.188 11.0994V7.81056C45.188 6.82463 44.5855 6.22821 43.8004 6.22821C43.4474 6.22821 43.061 6.31759 42.7402 6.52559L43.6089 5.03484C43.777 5.00063 43.9396 4.98242 44.0855 4.98242C45.6301 4.98242 46.5466 6.00697 46.5338 7.73221V11.0988H45.188V11.0994ZM40.812 5.75263V11.0994H42.1573V4.98297L40.812 5.75263Z" fill="white"/>
<path d="M3.33317 2.16211H1.98792V11.0995H3.33317V2.16211ZM9.75206 2.16211H8.40681V11.0995H9.75206V2.16211Z" fill="white"/>
<path d="M7.72138 6.34448L4.58432 4.54972C4.3616 4.42227 4.08319 4.58172 4.08319 4.83661V8.42613C4.08319 8.68103 4.3616 8.84048 4.58432 8.71303L7.72138 6.91827C7.94411 6.79027 7.94411 6.47193 7.72138 6.34448Z" fill="#7559FF"/>
<path d="M20.2846 8.67409L21.0664 10.0159L18.6805 14.1102H17.117L19.5029 10.0159L16.681 5.17285H18.2445L20.2846 8.67409ZM23.8883 5.17285H22.3248L20.2846 8.67409H21.8482L23.8883 5.17285Z" fill="white"/>
<path d="M33.412 5.95886L33.4115 7.30286H29.4431L30.2248 5.96107L33.412 5.95886ZM28.8952 9.95169C27.0443 9.95169 25.5437 8.46479 25.5437 6.63086C25.5437 4.79693 27.0443 3.31004 28.8952 3.31004C29.3724 3.31004 29.8267 3.40935 30.2382 3.58866L30.8975 2.45707C30.2944 2.14755 29.6146 1.97266 28.8952 1.97266C26.2988 1.97266 24.1935 4.05817 24.1935 6.63141C24.1935 9.20466 26.2982 11.2902 28.8952 11.2902C30.6207 11.2902 32.1208 10.2954 32.8842 8.83279L31.9933 7.30397C31.6965 8.81293 30.4203 9.95169 28.8952 9.95169Z" fill="white"/>
<path d="M15.0217 9.60519C14.6899 9.87664 14.2639 10.0399 13.7995 10.0399C12.9487 10.0399 12.2266 9.49154 11.9743 8.73236H16.9249C16.9622 8.53926 16.9817 8.34064 16.9817 8.1365C16.9817 6.39526 15.5568 4.9834 13.7995 4.9834C12.8964 4.9834 12.0807 5.35636 11.5016 5.95498L12.1776 7.11581C12.5183 6.58505 13.1174 6.23305 13.7995 6.23305C14.6492 6.23305 15.3703 6.77981 15.6236 7.53788H10.6747C10.6374 7.73154 10.6174 7.93181 10.6174 8.1365C10.6174 9.87774 12.0422 11.2896 13.7995 11.2896C14.4928 11.2896 15.1342 11.07 15.6565 10.6971L15.0217 9.60519Z" fill="white"/>
<path d="M38.1816 9.60519C37.8498 9.87664 37.4238 10.0399 36.9594 10.0399C36.1086 10.0399 35.3865 9.49154 35.1342 8.73236H40.0848C40.1221 8.53926 40.1416 8.34064 40.1416 8.1365C40.1416 6.39526 38.7167 4.9834 36.9594 4.9834C36.0563 4.9834 35.2406 5.35636 34.6615 5.95498L35.3375 7.11581C35.6782 6.58505 36.2774 6.23305 36.9594 6.23305C37.8091 6.23305 38.5302 6.77981 38.7836 7.53788H33.8346C33.7973 7.73154 33.7773 7.93181 33.7773 8.1365C33.7773 9.87774 35.2022 11.2896 36.9594 11.2896C37.6527 11.2896 38.2941 11.07 38.8164 10.6971L38.1816 9.60519Z" fill="white"/>
</svg>
