<svg width="32" height="32" viewBox="0 0 32 32" fill="none" xmlns="http://www.w3.org/2000/svg">
<rect x="0.5" y="0.5" width="31" height="31" rx="15.5" stroke="#595959"/>
<path fill-rule="evenodd" clip-rule="evenodd" d="M21.9314 7V12.454H24V20.215H21.7638V25L16.4023 20.3545V24.9632H15.571V20.3492L10.2034 25V20.1512H8V12.391H10.1973V7L15.571 11.8705V7.1425H16.4015V12.01L21.9314 7ZM16.4023 13.783V19.2723L20.9326 23.1978V17.83L16.4023 13.783ZM15.565 13.723L11.0347 17.7715V23.1978L15.565 19.2723V13.7238V13.723ZM21.7638 19.408H23.1688V13.2618H17.1124L21.7638 17.4167V19.408ZM14.9204 13.198H8.83048V19.3442H10.2019V17.4123L14.9196 13.1972L14.9204 13.198ZM11.0286 8.857V12.3895H14.9257L11.0286 8.857ZM21.1002 8.857L17.203 12.3895H21.1002V8.857Z" fill="#20808D"/>
</svg>
