<svg width="32" height="32" viewBox="0 0 32 32" xmlns="http://www.w3.org/2000/svg">
    <path d="M22.919 17.0732C23.2068 15.4388 22.9903 13.6694 22.088 12.1065C20.0782 8.62543 15.6725 7.47495 12.227 9.4642C8.74597 11.474 7.57497 15.8442 9.58474 19.3252C10.3845 20.7105 11.6051 21.7582 12.9813 22.3371C13.491 22.5638 13.7276 23.1376 13.5009 23.6473C13.2743 24.1571 12.7005 24.3937 12.1907 24.167C10.4373 23.4269 8.90514 22.0856 7.87975 20.3096C5.33678 15.905 6.83806 10.3022 11.2426 7.75922C15.6116 5.23676 21.25 6.71752 23.793 11.1221C24.9619 13.1467 25.2469 15.445 24.824 17.5836L26.5048 18.034C26.897 18.1391 27.1881 18.3972 27.3727 18.7169C27.8184 19.4068 27.5782 20.3033 26.8678 20.7134L22.7474 23.0923C22.2501 23.3794 21.6693 23.1938 21.4027 22.732L19.0033 18.5761C18.5931 17.8657 18.8183 17.0253 19.5287 16.6151C19.8484 16.4305 20.2296 16.3525 20.6218 16.4576L22.919 17.0732ZM24.8178 19.6237L21.3235 18.6574L22.6155 20.8952L24.8178 19.6237Z"/>
</svg>
