<svg width="32" height="32" viewBox="0 0 32 32" fill="none" xmlns="http://www.w3.org/2000/svg">
<path d="M18.9531 6.4375H24.2031C24.7363 6.4375 25.1875 6.88867 25.1875 7.42188V12.6719C25.1875 13.2461 24.7363 13.6562 24.2031 13.6562C23.6289 13.6562 23.2188 13.2461 23.2188 12.6719V9.80078L17.3535 15.625L23.2188 21.4902V18.5781C23.2188 18.0449 23.6289 17.5938 24.2031 17.5938C24.7363 17.5938 25.1875 18.0449 25.1875 18.5781V23.8281C25.1875 24.4023 24.7363 24.8125 24.2031 24.8125H18.9531C18.3789 24.8125 17.9688 24.4023 17.9688 23.8281C17.9688 23.2949 18.3789 22.8438 18.9531 22.8438H21.8242L16 17.0195L10.1348 22.8438H13.0469C13.5801 22.8438 14.0312 23.2949 14.0312 23.8281C14.0312 24.4023 13.5801 24.8125 13.0469 24.8125H7.79688C7.22266 24.8125 6.8125 24.4023 6.8125 23.8281V18.5781C6.8125 18.0449 7.22266 17.5938 7.79688 17.5938C8.33008 17.5938 8.78125 18.0449 8.78125 18.5781V21.4902L14.6055 15.625L8.78125 9.80078V12.6719C8.78125 13.2461 8.33008 13.6562 7.79688 13.6562C7.22266 13.6562 6.8125 13.2461 6.8125 12.6719V7.42188C6.8125 6.88867 7.22266 6.4375 7.79688 6.4375H13.0469C13.5801 6.4375 14.0312 6.88867 14.0312 7.42188C14.0312 7.99609 13.5801 8.40625 13.0469 8.40625H10.1348L16 14.2715L21.8242 8.40625H18.9531C18.3789 8.40625 17.9688 7.99609 17.9688 7.42188C17.9688 6.88867 18.3789 6.4375 18.9531 6.4375Z" fill="#454C53"/>
</svg>
