<svg width="32" height="32" viewBox="0 0 32 32" fill="none" xmlns="http://www.w3.org/2000/svg">
<path d="M26.2129 16.3223H26.1719L22.2344 20.2598C21.8652 20.6699 21.25 20.6699 20.8809 20.2598C20.4707 19.8906 20.4707 19.2754 20.8809 18.8652L23.1367 16.6094H8.82227L11.0781 18.8652C11.4883 19.2754 11.4883 19.8906 11.0781 20.2598C10.709 20.6699 10.0938 20.6699 9.72461 20.2598L5.78711 16.3223C5.37695 15.9531 5.37695 15.3379 5.78711 14.9277L9.72461 11.0312C10.0938 10.6211 10.709 10.6211 11.0781 11.0312C11.4883 11.4004 11.4883 12.0156 11.0781 12.3848L8.82227 14.6406H23.1367L20.8809 12.3848C20.4707 12.0156 20.4707 11.4004 20.8809 11.0312C21.25 10.6211 21.8652 10.6211 22.2754 11.0312L26.2129 14.9688C26.582 15.3379 26.582 15.9531 26.2129 16.3223Z" fill="#454C53"/>
</svg>
