<svg width="32" height="32" viewBox="0 0 32 32" fill="none" xmlns="http://www.w3.org/2000/svg">
<path fill-rule="evenodd" clip-rule="evenodd" d="M14.6 11.2814L15.2017 11.0934C15.3959 11.0327 15.6041 11.0327 15.7983 11.0934L16.4 11.2814V6H14.6V11.2814ZM19.7781 17.6064L19.6979 17.9274C19.6503 18.1175 19.548 18.2895 19.4035 18.422L18.7007 19.0661L23.5605 21.7854L24.4395 20.2146L19.7781 17.6064ZM12.2993 19.0662L11.5965 18.422C11.452 18.2895 11.3497 18.1175 11.3021 17.9274L11.2219 17.6064L6.56055 20.2146L7.43948 21.7854L12.2993 19.0662Z" fill="#454C53"/>
<path fill-rule="evenodd" clip-rule="evenodd" d="M14.9331 10.2342C15.3021 10.1189 15.6975 10.1189 16.0665 10.2342L21.2682 11.8597C21.7234 12.002 21.9886 12.4745 21.8729 12.937L20.5708 18.1455C20.4805 18.5068 20.2859 18.8336 20.0114 19.0853L16.1079 22.6635C15.7638 22.9789 15.2357 22.9789 14.8916 22.6635L10.9882 19.0853C10.7136 18.8336 10.5191 18.5068 10.4288 18.1455L9.12666 12.937C9.01101 12.4745 9.27622 12.002 9.73134 11.8597L14.9331 10.2342ZM15.5296 11.9523C15.5102 11.9462 15.4894 11.9462 15.47 11.9523L12.2575 12.9561L15.4998 14.7799L18.742 12.9561L15.5296 11.9523ZM19.6199 14.5276L16.3998 16.3389V19.9541L18.7951 17.7584C18.8096 17.7452 18.8198 17.7279 18.8245 17.7089L19.6199 14.5276ZM14.5998 19.9541V16.3389L11.3797 14.5276L12.175 17.7089C12.1798 17.7279 12.19 17.7451 12.2045 17.7584L14.5998 19.9541Z" fill="#454C53"/>
<circle cx="15.5" cy="15.5" r="9.6" stroke="#454C53" stroke-width="1.8"/>
</svg>
