<svg width="32" height="32" viewBox="0 0 32 32" fill="none" xmlns="http://www.w3.org/2000/svg">
<path d="M16.6973 5.41211L20.6348 9.34961C21.0039 9.75977 21.0039 10.375 20.6348 10.7441C20.2246 11.1543 19.6094 11.1543 19.2402 10.7441L16.9844 8.48828V22.7617L19.2402 20.5059C19.6094 20.1367 20.2246 20.1367 20.6348 20.5059C21.0039 20.916 21.0039 21.5312 20.6348 21.9004L16.6973 25.8379C16.2871 26.248 15.6719 26.248 15.3027 25.8379L11.3652 21.9004C10.9551 21.5312 10.9551 20.916 11.3652 20.5059C11.7344 20.1367 12.3496 20.1367 12.7598 20.5059L14.9746 22.8027V8.48828L12.7188 10.7441C12.3496 11.1543 11.7344 11.1543 11.3652 10.7441C10.9551 10.375 10.9551 9.75977 11.3652 9.34961L15.3027 5.41211C15.6719 5.04297 16.2871 5.04297 16.6973 5.41211Z" fill="#454C53"/>
</svg>
