<svg width="32" height="32" viewBox="0 0 32 32" fill="none" xmlns="http://www.w3.org/2000/svg">
<g clip-path="url(#clip0_7192_49226)">
<path d="M24.0843 24.356C24.4358 24.7074 25.0056 24.7074 25.3571 24.356C25.7085 24.0045 25.7085 23.4347 25.3571 23.0832L24.0843 24.356ZM25.3571 23.0832L20.2712 17.9973L18.9984 19.2701L24.0843 24.356L25.3571 23.0832Z" fill="#454C53"/>
<circle cx="16.3977" cy="15.3975" r="5.23096" transform="rotate(-45 16.3977 15.3975)" stroke="#454C53" stroke-width="1.8"/>
<path fill-rule="evenodd" clip-rule="evenodd" d="M6.80015 24.2L6.80015 6.8H15.2002L15.2002 8.36728C15.795 8.26643 16.4002 8.24128 17.0002 8.2918V6C17.0002 5.44772 16.5524 5 16.0002 5L6.00015 5C5.44787 5 5.00015 5.44772 5.00015 6L5.00015 25C5.00015 25.5523 5.44787 26 6.00015 26L16.0002 26C16.5524 26 17.0001 25.5523 17.0001 25L17.0002 22.503C16.4001 22.5536 15.795 22.5285 15.2002 22.4277L15.2001 24.2L6.80015 24.2Z" fill="#454C53"/>
</g>
<defs>
<clipPath id="clip0_7192_49226">
<rect width="21" height="21" fill="white" transform="translate(5 5)"/>
</clipPath>
</defs>
</svg>
