<svg width="32" height="32" viewBox="0 0 32 32" fill="none" xmlns="http://www.w3.org/2000/svg">
<g clip-path="url(#clip0_7192_50080)">
<path d="M6.91572 24.3561C6.56425 24.7076 5.9944 24.7076 5.64293 24.3561C5.29146 24.0046 5.29145 23.4348 5.64293 23.0833L6.91572 24.3561ZM5.64293 23.0833L10.7288 17.9974L12.0016 19.2702L6.91572 24.3561L5.64293 23.0833Z" fill="#454C53"/>
<circle cx="5.23096" cy="5.23096" r="5.23096" transform="matrix(-0.707107 -0.707107 -0.707107 0.707107 22 15.3975)" stroke="#454C53" stroke-width="1.8"/>
<path fill-rule="evenodd" clip-rule="evenodd" d="M15.8008 8.3673V6.8L24.2008 6.8L24.2008 24.2L15.8008 24.2L15.8008 22.4277C15.206 22.5285 14.6008 22.5536 14.0008 22.503L14.0008 25C14.0008 25.5523 14.4485 26 15.0008 26H25.0008C25.5531 26 26.0008 25.5523 26.0008 25L26.0008 6C26.0008 5.44772 25.5531 5 25.0008 5L15.0008 5C14.4485 5 14.0008 5.44772 14.0008 6L14.0008 8.29179C14.6008 8.24128 15.206 8.26645 15.8008 8.3673Z" fill="#454C53"/>
</g>
<defs>
<clipPath id="clip0_7192_50080">
<rect width="21" height="21" fill="white" transform="translate(5 5)"/>
</clipPath>
</defs>
</svg>
