<svg width="120" height="120" viewBox="0 0 120 120" fill="none" xmlns="http://www.w3.org/2000/svg">
<rect x="1" y="1" width="118" height="118" rx="59" fill="#F5F1FD"/>
<rect x="1" y="1" width="118" height="118" rx="59" stroke="#6F3AD0" stroke-width="2"/>
<circle cx="60" cy="48.5" r="22" fill="url(#paint0_linear_13106_113623)"/>
<ellipse opacity="0.9" cx="54.4166" cy="38.4526" rx="1.75" ry="2.5" fill="black"/>
<ellipse opacity="0.9" cx="65.5833" cy="38.4526" rx="1.75" ry="2.5" fill="black"/>
<path d="M51.619 49.5C51.8984 47.754 55.3066 44.2619 60 44.2619C64.6933 44.2619 68.1016 47.754 68.3809 49.5" stroke="black" stroke-width="1.8" stroke-linecap="round"/>
<path d="M55.295 31.7302C55.1197 32.0002 54.6717 32.9167 53.4282 33.5703C52.1846 34.2239 51.5263 34.2635 50.8539 34.0644" stroke="black" stroke-width="1.3" stroke-linecap="round"/>
<path d="M64.3998 31.7302C64.5751 32.0002 65.0231 32.9167 66.2667 33.5703C67.5102 34.2239 68.1685 34.2635 68.8409 34.0644" stroke="black" stroke-width="1.3" stroke-linecap="round"/>
<path d="M72.8208 43.0221C73.4772 44.3172 72.9116 45.9188 71.6165 46.5752C70.2716 47.257 68.6954 46.7412 68.0389 45.4461C67.5339 44.4499 67.9186 41.7504 68.1369 40.5754C68.1601 40.2506 68.5088 40.0738 68.7845 40.2472C69.8613 40.7657 72.3158 42.0259 72.8208 43.0221Z" fill="#95D7F9"/>
<path d="M36.5924 77.7155C38.7636 77.7155 40.3327 79.6823 40.3438 82.7762C40.3327 85.9033 38.7636 87.8591 36.5924 87.8591C34.4156 87.8591 32.8299 85.9033 32.841 82.7762C32.8299 79.6823 34.4156 77.7155 36.5924 77.7155ZM34.7692 82.7762C34.7636 84.9033 35.504 86.0525 36.5924 86.0525C37.7084 86.0525 38.4266 84.9033 38.4321 82.7762C38.4266 80.6713 37.7084 79.5166 36.5924 79.5166C35.504 79.5166 34.7636 80.6713 34.7692 82.7762ZM41.9902 90.942V76.7099H43.9846V82.0801H46.0841V83.7431H43.9846V90.942H41.9902ZM52.3155 78.047C52.31 79.5387 53.3321 80.8923 55.6967 81.4061L54.7962 82.9696C53.1001 82.5608 51.9398 81.7099 51.2934 80.5663C50.647 81.8315 49.4592 82.7983 47.7188 83.2403L46.7741 81.6934C49.1774 81.1243 50.2382 79.616 50.2382 78.047V77.3011H52.3155V78.047ZM46.6249 84.1354C49.1829 84.1409 52.7188 84.1077 55.7409 83.6768L55.8791 85.1022C54.7133 85.3343 53.5034 85.4834 52.321 85.5829V90.5166H50.321V85.7044C49.078 85.7541 47.9012 85.7597 46.868 85.7597L46.6249 84.1354ZM56.6028 90.9309V76.732H58.5807V90.9309H56.6028ZM72.5635 76.732V90.9309H70.5304V87.7983H67.6409V86.3011H70.5304V76.732H72.5635ZM60.3646 83.942C63.0221 83.942 66.5525 83.9254 69.6243 83.511L69.7348 84.9641C68.4807 85.1851 67.1934 85.3287 65.9282 85.4171V90.5166H63.9171V85.5221C62.7403 85.5608 61.6188 85.5663 60.6077 85.5663L60.3646 83.942ZM61.3591 80.2127C61.3536 78.511 62.884 77.3011 65.0221 77.3011C67.116 77.3011 68.663 78.511 68.6685 80.2127C68.663 81.9696 67.116 83.1243 65.0221 83.1298C62.884 83.1243 61.3536 81.9696 61.3591 80.2127ZM63.2376 80.2127C63.232 81.1133 63.9558 81.605 65.0221 81.605C66.0442 81.605 66.768 81.1133 66.7735 80.2127C66.768 79.3508 66.0442 78.8149 65.0221 78.8094C63.9503 78.8149 63.232 79.3508 63.2376 80.2127ZM87.2591 87.6492V89.2735H74.2535V87.6492H77.1541V84.1575C76.0546 83.4945 75.3917 82.4834 75.3972 81.2293C75.3917 78.9309 77.6458 77.4116 80.7287 77.4116C83.8116 77.4116 86.0878 78.9309 86.0878 81.2293C86.0878 82.4669 85.4414 83.4613 84.3696 84.1243V87.6492H87.2591ZM77.3585 81.2293C77.3585 82.6271 78.6955 83.4834 80.7287 83.489C82.7453 83.4834 84.1154 82.6271 84.1209 81.2293C84.1154 79.8039 82.7453 78.9751 80.7287 78.9862C78.6955 78.9751 77.3585 79.8039 77.3585 81.2293ZM79.1265 87.6492H82.353V84.8812C81.8447 84.9751 81.3033 85.0304 80.7287 85.0304C80.1651 85.0304 79.6292 84.9807 79.1265 84.8812V87.6492Z" fill="#6F3AD0"/>
<defs>
<linearGradient id="paint0_linear_13106_113623" x1="60" y1="26.5" x2="60" y2="70.5" gradientUnits="userSpaceOnUse">
<stop stop-color="#FFE7A3"/>
<stop offset="0.5" stop-color="#FFD353"/>
<stop offset="1" stop-color="#F0D484"/>
</linearGradient>
</defs>
</svg>
