<svg width="44" height="45" viewBox="0 0 44 45" fill="none" xmlns="http://www.w3.org/2000/svg">
<circle cx="22" cy="22.5" r="22" fill="#B3B8BD"/>
<path d="M13.619 18.3096C13.8984 20.0556 17.3066 23.5477 22 23.5477C26.6933 23.5477 30.1016 20.0556 30.3809 18.3096" stroke="#F7F8F9" stroke-width="1.58929" stroke-linecap="round"/>
<path d="M19.1675 9.35574C20.1623 10.0097 20.3643 11.3565 19.6554 12.2678L17.1982 15.4117C17.0472 15.615 16.7454 15.6505 16.5514 15.4877L13.4323 12.999C12.5314 12.2769 12.4157 10.92 13.2318 10.0532C13.9445 9.29853 15.1379 9.28677 15.9426 9.93456L16.2631 10.1824L16.5031 9.86869C17.15 9.05033 18.2993 8.7868 19.1675 9.35574Z" fill="#F7F8F9"/>
<path d="M24.5231 9.35574C23.5283 10.0097 23.3264 11.3565 24.0353 12.2678L26.4925 15.4117C26.6435 15.615 26.9453 15.6505 27.1393 15.4877L30.2584 12.999C31.1592 12.2769 31.275 10.92 30.4589 10.0532C29.7462 9.29853 28.5528 9.28677 27.7481 9.93456L27.4276 10.1824L27.1876 9.86869C26.5406 9.05033 25.3914 8.7868 24.5231 9.35574Z" fill="#F7F8F9"/>
</svg>
