<svg width="120" height="120" viewBox="0 0 120 120" fill="none" xmlns="http://www.w3.org/2000/svg">
<path d="M0.5 60C0.5 27.1391 27.1391 0.5 60 0.5C92.8609 0.5 119.5 27.1391 119.5 60C119.5 92.8609 92.8609 119.5 60 119.5C27.1391 119.5 0.5 92.8609 0.5 60Z" fill="#F2F4F6"/>
<path d="M0.5 60C0.5 27.1391 27.1391 0.5 60 0.5C92.8609 0.5 119.5 27.1391 119.5 60C119.5 92.8609 92.8609 119.5 60 119.5C27.1391 119.5 0.5 92.8609 0.5 60Z" stroke="#E8EBED"/>
<circle cx="60" cy="48.5" r="22" fill="#B3B8BD"/>
<path d="M51.619 44.3096C51.8984 46.0556 55.3066 49.5477 60 49.5477C64.6933 49.5477 68.1016 46.0556 68.3809 44.3096" stroke="#F7F8F9" stroke-width="1.58929" stroke-linecap="round"/>
<path d="M57.1675 35.3557C58.1623 36.0097 58.3643 37.3565 57.6554 38.2678L55.1982 41.4117C55.0472 41.615 54.7454 41.6505 54.5514 41.4877L51.4323 38.999C50.5314 38.2769 50.4157 36.92 51.2318 36.0532C51.9445 35.2985 53.1379 35.2868 53.9426 35.9346L54.2631 36.1824L54.5031 35.8687C55.15 35.0503 56.2993 34.7868 57.1675 35.3557Z" fill="#F7F8F9"/>
<path d="M62.5231 35.3557C61.5283 36.0097 61.3264 37.3565 62.0353 38.2678L64.4925 41.4117C64.6435 41.615 64.9453 41.6505 65.1393 41.4877L68.2584 38.999C69.1592 38.2769 69.275 36.92 68.4589 36.0532C67.7462 35.2985 66.5528 35.2868 65.7481 35.9346L65.4276 36.1824L65.1876 35.8687C64.5406 35.0503 63.3914 34.7868 62.5231 35.3557Z" fill="#F7F8F9"/>
<path d="M44.6831 80.9586V82.268H50.2191V83.8536H37.2135V82.268H42.7052V80.9586H44.6831ZM37.7771 80.279C40.3295 80.1409 41.7881 79.395 42.208 78.5773H38.4069V77.0691H49.0312V78.5773H45.1914C45.6003 79.4061 47.0312 80.1409 49.6334 80.279L49.0036 81.7597C46.2633 81.5718 44.4345 80.6989 43.7052 79.4227C42.976 80.6934 41.1472 81.5718 38.4124 81.7597L37.7771 80.279ZM38.3958 86.7983V85.3122H42.6942V84.2569H44.6942V85.3122H48.9925V86.7983H38.3958ZM39.3185 89.0967C39.3185 87.8757 40.8931 87.2182 43.6776 87.2127C46.4345 87.2182 48.0644 87.8757 48.0699 89.0967C48.0644 90.3343 46.4345 90.9862 43.6776 90.9862C40.8931 90.9862 39.3185 90.3343 39.3185 89.0967ZM41.3737 89.0967C41.3682 89.489 42.1583 89.6768 43.6776 89.6657C45.2301 89.6768 45.9815 89.489 45.987 89.0967C45.9815 88.6878 45.2301 88.5442 43.6776 88.5387C42.1583 88.5442 41.3682 88.6878 41.3737 89.0967ZM54.8814 77.7155C57.0527 77.7155 58.6218 79.6823 58.6328 82.7762C58.6218 85.9033 57.0527 87.8591 54.8814 87.8591C52.7046 87.8591 51.119 85.9033 51.1301 82.7762C51.119 79.6823 52.7046 77.7155 54.8814 77.7155ZM53.0582 82.7762C53.0527 84.9033 53.793 86.0525 54.8814 86.0525C55.9975 86.0525 56.7157 84.9033 56.7212 82.7762C56.7157 80.6713 55.9975 79.5166 54.8814 79.5166C53.793 79.5166 53.0527 80.6713 53.0582 82.7762ZM60.2792 90.942V76.7099H62.2737V82.0801H64.3731V83.7431H62.2737V90.942H60.2792ZM77.8919 87.6492V89.2735H64.8864V87.6492H67.7869V84.1575C66.6875 83.4945 66.0245 82.4834 66.03 81.2293C66.0245 78.9309 68.2786 77.4116 71.3615 77.4116C74.4444 77.4116 76.7206 78.9309 76.7206 81.2293C76.7206 82.4669 76.0742 83.4613 75.0024 84.1243V87.6492H77.8919ZM67.9913 81.2293C67.9913 82.6271 69.3283 83.4834 71.3615 83.489C73.3781 83.4834 74.7482 82.6271 74.7538 81.2293C74.7482 79.8039 73.3781 78.9751 71.3615 78.9862C69.3283 78.9751 67.9913 79.8039 67.9913 81.2293ZM69.7593 87.6492H72.9858V84.8812C72.4775 84.9751 71.9361 85.0304 71.3615 85.0304C70.798 85.0304 70.262 84.9807 69.7593 84.8812V87.6492ZM81.952 78.1851L81.7421 86.1133H79.7421L79.5322 78.1851H81.952ZM79.4327 88.3287C79.4217 87.6105 80.0239 87.0249 80.7476 87.0249C81.4438 87.0249 82.0515 87.6105 82.057 88.3287C82.0515 89.0525 81.4438 89.6381 80.7476 89.6381C80.0239 89.6381 79.4217 89.0525 79.4327 88.3287Z" fill="#B3B8BD"/>
</svg>
