<svg width="55" height="54" viewBox="0 0 55 54" fill="none" xmlns="http://www.w3.org/2000/svg">
<path d="M27.5 3.84375C19.1943 3.84375 11.709 8.25293 7.60742 15.3281C3.40332 22.5059 3.40332 31.2217 7.60742 38.2969C11.709 45.4746 19.1943 49.7812 27.5 49.7812C35.7031 49.7812 43.1885 45.4746 47.29 38.2969C51.4941 31.2217 51.4941 22.5059 47.29 15.3281C43.1885 8.25293 35.7031 3.84375 27.5 3.84375ZM27.5 53.0625C18.0664 53.0625 9.45312 48.1406 4.73633 39.9375C0.0195312 31.8369 0.0195312 21.8906 4.73633 13.6875C9.45312 5.58691 18.0664 0.5625 27.5 0.5625C36.8311 0.5625 45.4443 5.58691 50.1611 13.6875C54.8779 21.8906 54.8779 31.8369 50.1611 39.9375C45.4443 48.1406 36.8311 53.0625 27.5 53.0625ZM27.5 13.6875C28.3203 13.6875 29.1406 14.5078 29.1406 15.3281V28.4531C29.1406 29.376 28.3203 30.0938 27.5 30.0938C26.5771 30.0938 25.8594 29.376 25.8594 28.4531V15.3281C25.8594 14.5078 26.5771 13.6875 27.5 13.6875ZM29.9609 36.6562C29.9609 38.0918 28.833 39.1172 27.5 39.1172C26.0645 39.1172 25.0391 38.0918 25.0391 36.6562C25.0391 35.3232 26.0645 34.1953 27.5 34.1953C28.833 34.1953 29.9609 35.3232 29.9609 36.6562Z" fill="#C9CDD2"/>
</svg>
