<svg width="22" height="19" viewBox="0 0 22 19" fill="none" xmlns="http://www.w3.org/2000/svg">
<path d="M0.5 3.0625C0.5 1.62695 1.64844 0.4375 3.125 0.4375H8.53906C9.31836 0.4375 10.0566 0.765625 10.6309 1.33984L12.3535 3.0625H18.875C20.3105 3.0625 21.5 4.25195 21.5 5.6875V16.1875C21.5 17.6641 20.3105 18.8125 18.875 18.8125H3.125C1.64844 18.8125 0.5 17.6641 0.5 16.1875V3.0625ZM3.125 2.40625C2.75586 2.40625 2.46875 2.73438 2.46875 3.0625V16.1875C2.46875 16.5566 2.75586 16.8438 3.125 16.8438H18.875C19.2031 16.8438 19.5312 16.5566 19.5312 16.1875V5.6875C19.5312 5.35938 19.2031 5.03125 18.875 5.03125H12.2305C11.8203 5.03125 11.3691 4.86719 11.082 4.58008L9.23633 2.69336C9.03125 2.5293 8.78516 2.40625 8.53906 2.40625H3.125Z" fill="#454C53"/>
</svg>
