<svg width="24" height="24" viewBox="0 0 24 24" fill="none" xmlns="http://www.w3.org/2000/svg">
<path fill-rule="evenodd" clip-rule="evenodd" d="M20.0611 23H4.93862C4.42206 23 4 22.5561 4 22.0136V22.0091C4 22.0091 4 3.42727 4 1.98694C4 1.44444 4.42206 1 4.93862 1H16L21 6.00228V22.0136C21 22.5561 20.5773 23 20.0611 23Z" fill="#51B41B"/>
<path fill-rule="evenodd" clip-rule="evenodd" d="M16 5.06419C16 5.57872 16.4209 6 16.9357 6H21L16 1C16 1 16 4.68213 16 5.06419Z" fill="#007800"/>
<path fill-rule="evenodd" clip-rule="evenodd" d="M10.9987 7.00214H7.01373V8.00673H10.9987V7.00214ZM10.9987 9.99654H7.01373V11.0038H10.9987V9.99654ZM7.01373 12.9936H10.9987V13.9982H7.01373V12.9936ZM16.013 7.00214H11.9937V8.00673H16.013V7.00214ZM11.9937 9.99654H16.013V11.0038H11.9937V9.99654ZM16.013 12.9936H11.9937V13.9982H16.013V12.9936Z" fill="white"/>
</svg>
