<svg width="24" height="22" viewBox="0 0 24 22" fill="none" xmlns="http://www.w3.org/2000/svg">
<path d="M2.625 2.09375C2.25586 2.09375 1.96875 2.42188 1.96875 2.75V14.5625C1.96875 14.9316 2.25586 15.2188 2.625 15.2188H9.80273H9.84375H13.7402H13.7812H21C21.3281 15.2188 21.6562 14.9316 21.6562 14.5625V2.75C21.6562 2.42188 21.3281 2.09375 21 2.09375H2.625ZM8.6543 17.1875H2.625C1.14844 17.1875 0 16.0391 0 14.5625V2.75C0 1.31445 1.14844 0.125 2.625 0.125H21C22.4355 0.125 23.625 1.31445 23.625 2.75V14.5625C23.625 16.0391 22.4355 17.1875 21 17.1875H14.9297L15.2578 19.1562H17.3906C17.9238 19.1562 18.375 19.6074 18.375 20.1406C18.375 20.7148 17.9238 21.125 17.3906 21.125H14.4375H9.1875H6.23438C5.66016 21.125 5.25 20.7148 5.25 20.1406C5.25 19.6074 5.66016 19.1562 6.23438 19.1562H8.32617L8.6543 17.1875ZM10.6641 17.1875L10.3359 19.1562H13.248L12.9199 17.1875H10.6641Z" fill="#454C53"/>
</svg>
