<svg width="24" height="24" viewBox="0 0 24 24" fill="none" xmlns="http://www.w3.org/2000/svg">
<path d="M8.46094 5.69531C8.18408 5.69531 7.96875 5.94141 7.96875 6.1875V18C7.96875 18.2769 8.18408 18.4922 8.46094 18.4922H15.3516C15.5977 18.4922 15.8438 18.2769 15.8438 18V6.1875C15.8438 5.94141 15.5977 5.69531 15.3516 5.69531H8.46094ZM6.49219 6.1875C6.49219 5.11084 7.35352 4.21875 8.46094 4.21875H15.3516C16.4282 4.21875 17.3203 5.11084 17.3203 6.1875V18C17.3203 19.1074 16.4282 19.9688 15.3516 19.9688H8.46094C7.35352 19.9688 6.49219 19.1074 6.49219 18V6.1875ZM10.9219 16.5234H12.8906C13.1367 16.5234 13.3828 16.7695 13.3828 17.0156C13.3828 17.2925 13.1367 17.5078 12.8906 17.5078H10.9219C10.645 17.5078 10.4297 17.2925 10.4297 17.0156C10.4297 16.7695 10.645 16.5234 10.9219 16.5234Z" fill="#454C53"/>
</svg>
