<svg width="22" height="22" viewBox="0 0 22 22" fill="none" xmlns="http://www.w3.org/2000/svg">
<path d="M11 2.09375C7.92383 2.09375 5.13477 3.73438 3.57617 6.35938C2.05859 9.02539 2.05859 12.2656 3.57617 14.8906C5.13477 17.5566 7.92383 19.1562 11 19.1562C14.0352 19.1562 16.8242 17.5566 18.3828 14.8906C19.9004 12.2656 19.9004 9.02539 18.3828 6.35938C16.8242 3.73438 14.0352 2.09375 11 2.09375ZM11 21.125C7.22656 21.125 3.78125 19.1562 1.89453 15.875C0.0078125 12.6348 0.0078125 8.65625 1.89453 5.375C3.78125 2.13477 7.22656 0.125 11 0.125C14.7324 0.125 18.1777 2.13477 20.0645 5.375C21.9512 8.65625 21.9512 12.6348 20.0645 15.875C18.1777 19.1562 14.7324 21.125 11 21.125ZM7.67773 7.30273C8.04688 6.93359 8.66211 6.93359 9.03125 7.30273L10.959 9.23047L12.8867 7.30273C13.2969 6.93359 13.9121 6.93359 14.2812 7.30273C14.6914 7.71289 14.6914 8.32812 14.2812 8.69727L12.3535 10.625L14.2812 12.5527C14.6914 12.9629 14.6914 13.5781 14.2812 13.9473C13.9121 14.3574 13.2969 14.3574 12.8867 13.9473L10.959 12.0195L9.03125 13.9473C8.66211 14.3574 8.04688 14.3574 7.67773 13.9473C7.26758 13.5781 7.26758 12.9629 7.67773 12.5527L9.60547 10.625L7.67773 8.69727C7.26758 8.32812 7.26758 7.71289 7.67773 7.30273Z" fill="#454C53"/>
</svg>
