<svg width="24" height="24" viewBox="0 0 24 24" fill="none" xmlns="http://www.w3.org/2000/svg">
<path fill-rule="evenodd" clip-rule="evenodd" d="M20.0612 23H4.93859C4.42209 23 4 22.5561 4 22.0136V22.0091C4 22.0091 4 2.9464 4 1.98694C4 1.44444 4.42209 1 4.93859 1H16L20.9995 6.00169L21 22.0136C21 22.5561 20.5773 23 20.0612 23Z" fill="#1D7FF9"/>
<mask id="mask0_535_72291" style="mask-type:luminance" maskUnits="userSpaceOnUse" x="4" y="1" width="17" height="22">
<path fill-rule="evenodd" clip-rule="evenodd" d="M20.0612 23H4.93859C4.42209 23 4 22.5561 4 22.0136V22.0091C4 22.0091 4 2.9464 4 1.98694C4 1.44444 4.42209 1 4.93859 1H16L20.9995 6.00169L21 22.0136C21 22.5561 20.5773 23 20.0612 23Z" fill="white"/>
</mask>
<g mask="url(#mask0_535_72291)">
<path fill-rule="evenodd" clip-rule="evenodd" d="M16 5.06419C16 5.57875 16.4209 6 16.9358 6H21L16 1C16 1 16 4.66222 16 5.06419Z" fill="#0044CC"/>
<path fill-rule="evenodd" clip-rule="evenodd" d="M6.88939 8V9.81052H8.52654V8H9.41592V12.9982H8.52654V10.7346H6.88939V12.9982H6V8H6.88939ZM10.8909 8L11.4692 11.4021H11.4794L12.114 8H12.8663L13.4906 11.4441H13.5008L14.0996 8H14.8877L13.9051 12.9982H13.1068L12.4876 9.59605H12.4773L11.8683 12.9982H11.0546L10.0874 8H10.8909ZM17.4501 8C18.5232 8 18.9391 8.79102 18.9391 9.60306C18.9391 10.388 18.5504 11.1533 17.5552 11.2035L17.4501 11.2061H16.4554V12.9982H15.5089V8H17.4501ZM17.2505 8.85476L16.4554 8.85403V10.3521H17.1909C17.6309 10.3521 18.0228 10.2401 18.0228 9.60306C18.0228 8.99499 17.6658 8.86529 17.2505 8.85476Z" fill="white"/>
<path opacity="0.3" fill-rule="evenodd" clip-rule="evenodd" d="M17.301 13.7842C17.9086 13.7842 18.4012 14.2693 18.4012 14.8676C18.4012 15.4659 17.9086 15.9509 17.301 15.9509C16.6935 15.9509 16.201 15.4659 16.201 14.8676C16.201 14.2693 16.6935 13.7842 17.301 13.7842ZM13.9758 16.4926H20.5263C20.9268 16.4926 21.2514 16.8123 21.2514 17.2066C21.2514 17.601 20.9268 17.9207 20.5263 17.9207H18.4173C19.439 18.3788 20.1508 19.4063 20.1508 20.6004C20.1508 22.221 18.8396 23.5348 17.222 23.5348C15.6044 23.5348 14.2932 22.221 14.2932 20.6004C14.2932 19.4063 15.005 18.3788 16.0267 17.9207H13.9758C13.5754 17.9207 13.2507 17.601 13.2507 17.2066C13.2507 16.8123 13.5754 16.4926 13.9758 16.4926ZM17.198 21.9798C17.9585 21.9798 18.5749 21.3622 18.5749 20.6004C18.5749 19.8385 17.9585 19.2209 17.198 19.2209C16.4377 19.2209 15.8213 19.8385 15.8213 20.6004C15.8213 21.3622 16.4377 21.9798 17.198 21.9798Z" fill="white"/>
</g>
</svg>
