<svg width="32" height="32" viewBox="0 0 32 32" fill="none" xmlns="http://www.w3.org/2000/svg">
<path fill-rule="evenodd" clip-rule="evenodd" d="M19.7812 14.0029V11.5625H16.5C15.7617 11.5625 15.1875 10.9883 15.1875 10.25V6.96875H8.625C8.25586 6.96875 7.96875 7.29688 7.96875 7.625V23.375C7.96875 23.7441 8.25586 24.0312 8.625 24.0312H12.2601C12.4428 24.7293 12.7174 25.3901 13.0703 26H8.625C7.14844 26 6 24.8516 6 23.375V7.625C6 6.18945 7.14844 5 8.625 5H15.3926C16.0898 5 16.7461 5.28711 17.2383 5.7793L20.9707 9.51172C21.4629 10.0039 21.75 10.6602 21.75 11.3574V14.192C21.1868 14.0663 20.6011 14 20 14C19.9269 14 19.8539 14.001 19.7812 14.0029Z" fill="#454C53"/>
<circle cx="20" cy="22" r="6.125" stroke="#454C53" stroke-width="1.75"/>
<path fill-rule="evenodd" clip-rule="evenodd" d="M19.1571 22.8429H17.6428C17.1574 22.8429 16.8 22.4855 16.8 22C16.8 21.5468 17.152 21.1571 17.6428 21.1571H19.1571V19.6429C19.1571 19.1897 19.5091 18.8 20 18.8C20.4587 18.8 20.8428 19.1842 20.8428 19.6429V21.1571H22.3571C22.8158 21.1571 23.2 21.5413 23.2 22C23.2 22.4909 22.8103 22.8429 22.3571 22.8429H20.8428V24.3571C20.8428 24.848 20.4532 25.2 20 25.2C19.5145 25.2 19.1571 24.8426 19.1571 24.3571V22.8429Z" fill="#454C53"/>
</svg>
