<svg width="32" height="32" viewBox="0 0 32 32" fill="none" xmlns="http://www.w3.org/2000/svg">
<rect width="32" height="32" rx="16" fill="black" fill-opacity="0.15"/>
<path d="M22.1504 10.7441L17.2285 15.666L22.1094 20.5469C22.5195 20.916 22.5195 21.5312 22.1094 21.9004C21.7402 22.3105 21.125 22.3105 20.7559 21.9004L15.834 17.0195L10.9531 21.9004C10.584 22.3105 9.96875 22.3105 9.59961 21.9004C9.18945 21.5312 9.18945 20.916 9.59961 20.5059L14.4805 15.625L9.59961 10.7441C9.18945 10.375 9.18945 9.75977 9.59961 9.34961C9.96875 8.98047 10.584 8.98047 10.9941 9.34961L15.875 14.2715L20.7559 9.39062C21.125 8.98047 21.7402 8.98047 22.1504 9.39062C22.5195 9.75977 22.5195 10.375 22.1504 10.7441Z" fill="white"/>
</svg>
