<svg width="67" height="21" viewBox="0 0 67 21" fill="none" xmlns="http://www.w3.org/2000/svg">
<path fill-rule="evenodd" clip-rule="evenodd" d="M30.3337 2.37639C29.144 0.93612 27.3906 0.220459 25.0915 0.220459C22.8104 0.220459 21.0659 0.945065 19.8762 2.37639C18.6864 3.80771 18.087 5.90101 18.087 8.64736V11.7694C18.087 14.5337 18.6864 16.6359 19.8762 18.0672C21.0659 19.5075 22.7925 20.2232 25.0915 20.2232C27.3906 20.2232 29.144 19.4986 30.3337 18.0672C31.5235 16.6359 32.1229 14.5337 32.1229 11.7694V8.64736C32.1229 5.90101 31.5235 3.80771 30.3337 2.37639ZM25.0915 2.33166C28.3031 2.33166 29.9133 4.43391 29.9133 8.64736V11.7694C29.9133 16.0187 28.2852 18.1388 25.0915 18.1388C21.8979 18.1388 20.2966 16.0097 20.2966 11.7694V8.64736C20.2966 4.43391 21.88 2.33166 25.0915 2.33166ZM2.69139 2.87735C2.80768 2.87735 2.91503 3.02048 3.02238 3.31569L10.179 18.6308C10.5905 19.5612 11.3509 20.0264 12.4691 20.0264C13.0058 20.0264 13.4979 19.8296 13.9541 19.4359C14.4103 19.0423 14.634 18.5056 14.634 17.8168V1.19555C14.634 1.04347 14.5982 0.89139 14.5087 0.757204C14.4193 0.623017 14.2583 0.551451 14.0167 0.551451H13.0864C12.818 0.551451 12.6391 0.623017 12.5496 0.757204C12.4691 0.89139 12.4244 1.04347 12.4244 1.19555V17.2085C12.4244 17.45 12.3528 17.5663 12.2186 17.5663C12.0844 17.5663 11.9681 17.441 11.8608 17.1816L4.72208 1.74124C4.51632 1.33868 4.22111 1.02558 3.83645 0.784041C3.45178 0.542505 2.9866 0.426211 2.43196 0.426211C1.87733 0.426211 1.38531 0.59618 0.938022 0.927173C0.490734 1.26711 0.26709 1.74124 0.26709 2.35849V19.266C0.26709 19.4091 0.302873 19.5522 0.383385 19.6954C0.454951 19.8474 0.62492 19.919 0.884347 19.919H1.78787C2.06519 19.919 2.2441 19.8385 2.34251 19.6954C2.44091 19.5433 2.48564 19.4002 2.48564 19.266V3.28885C2.48564 3.1815 2.49458 3.09205 2.52142 3.00259C2.54826 2.92208 2.60193 2.87735 2.69139 2.87735ZM42.0617 17.9778C42.2137 17.9778 42.3569 17.7721 42.4732 17.3606L47.0892 1.17768C47.1607 0.954039 47.2234 0.793015 47.286 0.703558C47.3486 0.6141 47.5007 0.560426 47.7333 0.560426H48.923C49.263 0.560426 49.4419 0.631992 49.4598 0.78407C49.4777 0.927202 49.4419 1.15979 49.3524 1.46395L44.5038 18.0852C44.3697 18.6845 44.0834 19.1676 43.654 19.5254C43.2246 19.8833 42.6879 20.0622 42.0527 20.0622C41.4176 20.0622 40.9077 19.8922 40.523 19.5433C40.1383 19.2034 39.8431 18.7203 39.6374 18.1031L34.744 1.455C34.6546 1.1419 34.6188 0.918256 34.6277 0.775124C34.6277 0.631992 34.8156 0.55148 35.1555 0.55148H36.3632C36.5869 0.55148 36.73 0.596209 36.8016 0.694612C36.8731 0.793015 36.9268 0.936148 36.9805 1.1419L41.668 17.3248C41.7217 17.5126 41.7754 17.6647 41.838 17.79C41.9006 17.9062 41.9722 17.9689 42.0527 17.9689L42.0617 17.9778ZM60.2752 0.730373C59.9085 0.462 59.4701 0.327814 58.9513 0.327814C57.8509 0.327814 57.1353 0.864559 56.8132 1.947L51.4547 19.1944C51.3026 19.6775 51.4279 19.919 51.8394 19.919H53.0739C53.2081 19.919 53.3423 19.8832 53.4586 19.8027C53.5838 19.7222 53.6643 19.588 53.718 19.4002L55.525 13.4691H62.3775L64.1577 19.4002C64.2024 19.588 64.3008 19.7222 64.4261 19.8027C64.5603 19.8832 64.6944 19.919 64.8286 19.919H66.0363C66.4478 19.919 66.582 19.6775 66.4478 19.1944L61.1161 1.95594C60.9193 1.4013 60.642 0.998745 60.2752 0.730373ZM61.7066 11.3758H56.1691L58.7724 2.77001C58.8081 2.68949 58.8618 2.64476 58.9513 2.64476C59.0139 2.64476 59.0676 2.68055 59.1033 2.77001L61.7066 11.3758Z" fill="#6F3AD0"/>
</svg>
