<svg width="32" height="32" viewBox="0 0 32 32" fill="none" xmlns="http://www.w3.org/2000/svg">
<path opacity="0.4" d="M3.20001 7.99999C3.20001 6.23499 4.63501 4.79999 6.40001 4.79999H25.6C27.365 4.79999 28.8 6.23499 28.8 7.99999V24C28.8 25.765 27.365 27.2 25.6 27.2H6.40001C4.63501 27.2 3.20001 25.765 3.20001 24V7.99999ZM19.39 13.325C19.165 12.995 18.795 12.8 18.4 12.8C18.005 12.8 17.63 12.995 17.41 13.325L13.06 19.705L11.735 18.05C11.505 17.765 11.16 17.6 10.8 17.6C10.44 17.6 10.09 17.765 9.86501 18.05L6.66501 22.05C6.37501 22.41 6.32001 22.905 6.52001 23.32C6.72001 23.735 7.14001 24 7.60001 24H12.4H14H24.4C24.845 24 25.255 23.755 25.46 23.36C25.665 22.965 25.64 22.49 25.39 22.125L19.39 13.325ZM8.80001 12.8C9.43653 12.8 10.047 12.5471 10.4971 12.097C10.9472 11.647 11.2 11.0365 11.2 10.4C11.2 9.76347 10.9472 9.15302 10.4971 8.70293C10.047 8.25284 9.43653 7.99999 8.80001 7.99999C8.16349 7.99999 7.55304 8.25284 7.10296 8.70293C6.65287 9.15302 6.40001 9.76347 6.40001 10.4C6.40001 11.0365 6.65287 11.647 7.10296 12.097C7.55304 12.5471 8.16349 12.8 8.80001 12.8Z" fill="#6F3AD0"/>
<path d="M19.39 13.325C19.165 12.995 18.795 12.8 18.4 12.8C18.005 12.8 17.63 12.995 17.41 13.325L13.06 19.705L11.735 18.05C11.505 17.765 11.16 17.6 10.8 17.6C10.44 17.6 10.09 17.765 9.86501 18.05L6.66501 22.05C6.37501 22.41 6.32 22.905 6.52 23.32C6.72001 23.735 7.14 24 7.6 24H12.4H14H24.4C24.845 24 25.255 23.755 25.46 23.36C25.665 22.965 25.64 22.49 25.39 22.125L19.39 13.325Z" fill="#6F3AD0"/>
</svg>
