<svg width="24" height="24" viewBox="0 0 24 24" fill="none" xmlns="http://www.w3.org/2000/svg">
<path d="M7.28125 3.09375C6.91211 3.09375 6.625 3.42188 6.625 3.75V19.5C6.625 19.8691 6.91211 20.1562 7.28125 20.1562H16.4688C16.7969 20.1562 17.125 19.8691 17.125 19.5V3.75C17.125 3.42188 16.7969 3.09375 16.4688 3.09375H7.28125ZM4.65625 3.75C4.65625 2.31445 5.80469 1.125 7.28125 1.125H16.4688C17.9043 1.125 19.0938 2.31445 19.0938 3.75V19.5C19.0938 20.9766 17.9043 22.125 16.4688 22.125H7.28125C5.80469 22.125 4.65625 20.9766 4.65625 19.5V3.75ZM10.5625 17.5312H13.1875C13.5156 17.5312 13.8438 17.8594 13.8438 18.1875C13.8438 18.5566 13.5156 18.8438 13.1875 18.8438H10.5625C10.1934 18.8438 9.90625 18.5566 9.90625 18.1875C9.90625 17.8594 10.1934 17.5312 10.5625 17.5312Z" fill="#454C53"/>
</svg>
