<svg width="24" height="24" viewBox="0 0 24 24" fill="none" xmlns="http://www.w3.org/2000/svg">
<path d="M4.96875 5.69531C4.69189 5.69531 4.47656 5.94141 4.47656 6.1875V15.0469C4.47656 15.3237 4.69189 15.5391 4.96875 15.5391H10.3521H10.3828H13.3052H13.3359H18.75C18.9961 15.5391 19.2422 15.3237 19.2422 15.0469V6.1875C19.2422 5.94141 18.9961 5.69531 18.75 5.69531H4.96875ZM9.49072 17.0156H4.96875C3.86133 17.0156 3 16.1543 3 15.0469V6.1875C3 5.11084 3.86133 4.21875 4.96875 4.21875H18.75C19.8267 4.21875 20.7188 5.11084 20.7188 6.1875V15.0469C20.7188 16.1543 19.8267 17.0156 18.75 17.0156H14.1973L14.4434 18.4922H16.043C16.4429 18.4922 16.7812 18.8306 16.7812 19.2305C16.7812 19.6611 16.4429 19.9688 16.043 19.9688H13.8281H9.89062H7.67578C7.24512 19.9688 6.9375 19.6611 6.9375 19.2305C6.9375 18.8306 7.24512 18.4922 7.67578 18.4922H9.24463L9.49072 17.0156ZM10.998 17.0156L10.752 18.4922H12.936L12.6899 17.0156H10.998Z" fill="#454C53"/>
</svg>
