<svg width="24" height="24" viewBox="0 0 24 24" fill="none" xmlns="http://www.w3.org/2000/svg">
<path fill-rule="evenodd" clip-rule="evenodd" d="M20.0612 23H4.93863C4.42207 23 4 22.5561 4 22.0136V22.0091V1.98694C4 1.44444 4.42207 1 4.93863 1C6.22005 1 15.9853 1 15.9853 1L20.9966 6.00228L21 22.0136C21 22.5561 20.5772 23 20.0612 23Z" fill="#1D7FF9"/>
<mask id="mask0_535_72299" style="mask-type:luminance" maskUnits="userSpaceOnUse" x="4" y="1" width="17" height="22">
<path fill-rule="evenodd" clip-rule="evenodd" d="M20.0612 23H4.93863C4.42207 23 4 22.5561 4 22.0136V22.0091V1.98694C4 1.44444 4.42207 1 4.93863 1C6.22005 1 15.9853 1 15.9853 1L20.9966 6.00228L21 22.0136C21 22.5561 20.5772 23 20.0612 23Z" fill="white"/>
</mask>
<g mask="url(#mask0_535_72299)">
<path fill-rule="evenodd" clip-rule="evenodd" d="M16 5.06421C16 5.57872 16.4208 6 16.9357 6H21L16 1C16 1 16 4.55394 16 5.06421Z" fill="#0044CC"/>
<path fill-rule="evenodd" clip-rule="evenodd" d="M7.01306 7H15.0111L15 8H7L7.01306 7ZM7.00199 10H15V11H7L7.00199 10ZM12 13H7.01121L7 14H12V13Z" fill="white"/>
<g opacity="0.4">
<g opacity="0.8">
<path opacity="0.3" fill-rule="evenodd" clip-rule="evenodd" d="M14.162 26.6928L12.9448 19.7404L10.8597 19.0933C10.7553 19.0604 10.7061 19.1174 10.7517 19.2188L14.1049 26.7056C14.1502 26.8075 14.2775 26.8927 14.3872 26.8945C14.2775 26.8927 14.1816 26.8026 14.162 26.6928Z" fill="white"/>
<path opacity="0.5" fill-rule="evenodd" clip-rule="evenodd" d="M14.3481 26.8894C14.6782 26.9701 14.1874 26.8885 14.1526 26.691L12.5133 17.2748C12.4937 17.1639 12.5612 17.1084 12.6618 17.1507L14.7242 18.0852L14.5619 26.3066C14.5619 26.3066 14.2582 26.8693 14.3481 26.8894Z" fill="white"/>
<path opacity="0.7" fill-rule="evenodd" clip-rule="evenodd" d="M17.7631 17.2557L15.0717 15.8083C14.9752 15.755 14.8899 15.8037 14.8827 15.9158L14.2008 26.6872C14.1948 26.7857 14.2582 26.8693 14.3481 26.8894C14.2629 26.8694 14.9777 26.7082 15.0057 26.6135L17.7631 17.2557Z" fill="white"/>
<path fill-rule="evenodd" clip-rule="evenodd" d="M24.3928 19.1631L17.8282 15.1367C17.7348 15.0789 17.6322 15.1197 17.6002 15.2282L17.1091 16.905L16.5615 18.7768L16.0063 20.675L14.2453 26.6957C14.2168 26.7893 14.2629 26.8694 14.3481 26.8894C14.3604 26.8924 14.3732 26.8943 14.3872 26.8945L21.3623 26.9997C21.3882 27.0001 21.4119 26.9945 21.4334 26.9861C21.4236 26.9909 21.4136 26.9945 21.402 26.9961C21.3898 26.998 21.3769 26.9999 21.3623 26.9997C21.4726 27.0015 21.5956 26.9167 21.636 26.8127L24.4901 19.4578C24.5302 19.3539 24.4868 19.2206 24.3928 19.1631Z" fill="white"/>
</g>
</g>
</g>
</svg>
