<svg width="32" height="32" viewBox="0 0 32 32" fill="none" xmlns="http://www.w3.org/2000/svg">
<path d="M10.625 24.1562H21.125C21.4531 24.1562 21.7812 23.8691 21.7812 23.5V11.6875H18.5C17.7617 11.6875 17.1875 11.1133 17.1875 10.375V7.09375H10.625C10.2559 7.09375 9.96875 7.42188 9.96875 7.75V23.5C9.96875 23.8691 10.2559 24.1562 10.625 24.1562ZM10.625 5.125H17.3926C18.0898 5.125 18.7461 5.41211 19.2383 5.9043L22.9707 9.63672C23.4629 10.1289 23.75 10.7852 23.75 11.4824V23.5C23.75 24.9766 22.5605 26.125 21.125 26.125H10.625C9.14844 26.125 8 24.9766 8 23.5V7.75C8 6.31445 9.14844 5.125 10.625 5.125ZM12.9219 15.625H18.8281C19.3613 15.625 19.8125 16.0762 19.8125 16.6094C19.8125 17.1836 19.3613 17.5938 18.8281 17.5938H12.9219C12.3477 17.5938 11.9375 17.1836 11.9375 16.6094C11.9375 16.0762 12.3477 15.625 12.9219 15.625ZM12.9219 19.5625H18.8281C19.3613 19.5625 19.8125 20.0137 19.8125 20.5469C19.8125 21.1211 19.3613 21.5312 18.8281 21.5312H12.9219C12.3477 21.5312 11.9375 21.1211 11.9375 20.5469C11.9375 20.0137 12.3477 19.5625 12.9219 19.5625Z" fill="#454C53"/>
</svg>
