<svg width="32" height="32" viewBox="0 0 32 32" fill="none" xmlns="http://www.w3.org/2000/svg">
<path d="M10.7931 25.0979L9.58149 21.0135C9.08836 19.907 8.52183 19.0443 7.34445 18.6796L4.96313 18.1718C4.46804 18.0389 4.11914 17.5457 4.11914 16.9785C4.11914 16.4114 4.46804 15.9181 4.96313 15.7853L7.34445 15.2775C8.75434 14.8675 9.14556 14.1669 9.58149 13.0875L10.7931 8.90227C11.1111 8.29151 11.4579 7.99083 11.8334 8.00021L11.9926 8.01518C12.3075 8.08307 12.6012 8.37876 12.8738 8.90227L14.0854 13.0875C14.5213 14.1669 14.9125 14.8675 16.3224 15.2775L18.7037 15.7853C19.1988 15.9181 19.5477 16.4114 19.5477 16.9785C19.5477 17.5457 19.1988 18.0389 18.7037 18.1718L16.3224 18.6796C15.145 19.0443 14.5785 19.907 14.0854 21.0135L12.8738 25.0979C12.67 25.6993 12.3232 26 11.8334 26C11.3436 26 10.9968 25.6993 10.7931 25.0979Z" fill="#6F3AD0"/>
<path opacity="0.6" d="M22.6791 15.9487L21.9592 13.4527C21.6663 12.7765 21.3297 12.2493 20.6301 12.0264L19.2153 11.7161C18.9212 11.6349 18.7139 11.3335 18.7139 10.9869C18.7139 10.6403 18.9212 10.3389 19.2153 10.2577L20.6301 9.94738C21.4678 9.6968 21.7002 9.26866 21.9592 8.60903L22.6791 6.05138C22.868 5.67815 23.0741 5.4944 23.2972 5.50013L23.3918 5.50927C23.5788 5.55076 23.7534 5.73147 23.9153 6.05138L24.6352 8.60903C24.8942 9.26866 25.1266 9.6968 25.9643 9.94738L27.3791 10.2577C27.6732 10.3389 27.8805 10.6403 27.8805 10.9869C27.8805 11.3335 27.6732 11.6349 27.3791 11.7161L25.9643 12.0264C25.2647 12.2493 24.9281 12.7765 24.6352 13.4527L23.9153 15.9487C23.7942 16.3162 23.5882 16.5 23.2972 16.5C23.0062 16.5 22.8002 16.3162 22.6791 15.9487Z" fill="#6F3AD0"/>
<path opacity="0.3" d="M21.9042 26.1492L21.4461 24.5608C21.2597 24.1305 21.0455 23.795 20.6003 23.6532L19.7 23.4557C19.5128 23.404 19.3809 23.2122 19.3809 22.9917C19.3809 22.7711 19.5128 22.5793 19.7 22.5276L20.6003 22.3302C21.1334 22.1707 21.2813 21.8982 21.4461 21.4785L21.9042 19.8509C22.0244 19.6134 22.1555 19.4964 22.2975 19.5001L22.3577 19.5059C22.4768 19.5323 22.5878 19.6473 22.6909 19.8509L23.149 21.4785C23.3138 21.8982 23.4617 22.1707 23.9947 22.3302L24.8951 22.5276C25.0823 22.5793 25.2142 22.7711 25.2142 22.9917C25.2142 23.2122 25.0823 23.404 24.8951 23.4557L23.9947 23.6532C23.5496 23.795 23.3354 24.1305 23.149 24.5608L22.6909 26.1492C22.6138 26.3831 22.4827 26.5 22.2975 26.5C22.1123 26.5 21.9812 26.3831 21.9042 26.1492Z" fill="#6F3AD0"/>
</svg>
