<svg width="32" height="32" viewBox="0 0 32 32" fill="none" xmlns="http://www.w3.org/2000/svg">
<path d="M24.1914 9.25391L19.4102 14H22.4688C22.9258 14 23.3125 14.3867 23.3125 14.8438C23.3125 15.3359 22.9258 15.6875 22.4688 15.6875H17.4062C16.9141 15.6875 16.5625 15.3359 16.5625 14.8438V9.78125C16.5625 9.32422 16.9141 8.9375 17.4062 8.9375C17.8633 8.9375 18.25 9.32422 18.25 9.78125V12.8398L22.9961 8.09375C23.3125 7.74219 23.8398 7.74219 24.1914 8.09375C24.5078 8.41016 24.5078 8.9375 24.1914 9.25391ZM7.80859 23.2461L12.5547 18.5H9.53125C9.03906 18.5 8.6875 18.1484 8.6875 17.6562C8.6875 17.1992 9.03906 16.8125 9.53125 16.8125H14.5586C15.0508 16.8125 15.4023 17.1992 15.4023 17.6562V22.7188C15.4023 23.2109 15.0508 23.5625 14.5586 23.5625C14.1016 23.5625 13.7148 23.2109 13.7148 22.7188V19.6953L8.96875 24.4414C8.65234 24.793 8.125 24.793 7.80859 24.4414C7.45703 24.125 7.45703 23.5977 7.80859 23.2461Z" fill="#454C53"/>
</svg>
