<svg width="32" height="32" viewBox="0 0 32 32" fill="none" xmlns="http://www.w3.org/2000/svg">
<circle cx="23" cy="21" r="6.125" stroke="currentColor" stroke-width="1.75"/>
<path fill-rule="evenodd" clip-rule="evenodd" d="M22.1571 21.8429H20.6428C20.1574 21.8429 19.8 21.4855 19.8 21C19.8 20.5468 20.152 20.1571 20.6428 20.1571H22.1571V18.6429C22.1571 18.1897 22.5091 17.8 23 17.8C23.4587 17.8 23.8428 18.1842 23.8428 18.6429V20.1571H25.3571C25.8158 20.1571 26.2 20.5413 26.2 21C26.2 21.4909 25.8103 21.8429 25.3571 21.8429H23.8428V23.3571C23.8428 23.848 23.4532 24.2 23 24.2C22.5145 24.2 22.1571 23.8426 22.1571 23.3571V21.8429Z" fill="currentColor"/>
<path fill-rule="evenodd" clip-rule="evenodd" d="M5.96875 9.625C5.96875 9.29688 6.25586 8.96875 6.625 8.96875H25C25.3281 8.96875 25.6562 9.29688 25.6562 9.625V13.4515C26.3633 13.7003 27.0248 14.0456 27.625 14.4716V9.625C27.625 8.18945 26.4355 7 25 7H6.625C5.14844 7 4 8.18945 4 9.625V20.125C4 21.6016 5.14844 22.75 6.625 22.75H7.9375H12.2031H15.1562H15.192C15.0663 22.1868 15 21.6011 15 21C15 18.4899 16.1561 16.2497 17.9648 14.783L16.6016 12.7012C16.3965 12.4551 16.1094 12.25 15.7812 12.25C15.4121 12.25 15.125 12.4551 14.9199 12.7012L11.5156 17.9102L10.3262 16.2695C10.1211 16.0234 9.83398 15.8594 9.54688 15.8594C9.21875 15.8594 8.93164 16.0234 8.72656 16.2695L5.96875 20.0147V9.625ZM11.875 12.25C11.875 11.5527 11.2598 10.9375 10.5625 10.9375C9.82422 10.9375 9.25 11.5527 9.25 12.25C9.25 12.9883 9.82422 13.5625 10.5625 13.5625C11.2598 13.5625 11.875 12.9883 11.875 12.25Z" fill="currentColor"/>
</svg>
