<svg width="14" height="15" viewBox="0 0 14 15" fill="none" xmlns="http://www.w3.org/2000/svg">
<path d="M13.1504 2.74414L8.22852 7.66602L13.1094 12.5469C13.5195 12.916 13.5195 13.5312 13.1094 13.9004C12.7402 14.3105 12.125 14.3105 11.7559 13.9004L6.83398 9.01953L1.95312 13.9004C1.58398 14.3105 0.96875 14.3105 0.599609 13.9004C0.189453 13.5312 0.189453 12.916 0.599609 12.5059L5.48047 7.625L0.599609 2.74414C0.189453 2.375 0.189453 1.75977 0.599609 1.34961C0.96875 0.980469 1.58398 0.980469 1.99414 1.34961L6.875 6.27148L11.7559 1.39062C12.125 0.980469 12.7402 0.980469 13.1504 1.39062C13.5195 1.75977 13.5195 2.375 13.1504 2.74414Z" fill="#454C53"/>
</svg>
