<svg width="32" height="32" viewBox="0 0 32 32" fill="none" xmlns="http://www.w3.org/2000/svg">
<circle cx="16" cy="16" r="14" fill="#FD8900"/>
<path fill-rule="evenodd" clip-rule="evenodd" d="M14.4944 15.6667C14.8241 15.1734 15 14.5933 15 14H12V11C11.4067 11 10.8266 11.1759 10.3333 11.5056C9.83994 11.8352 9.45543 12.3038 9.22836 12.8519C9.0013 13.4001 8.94189 14.0033 9.05765 14.5853C9.1734 15.1672 9.45912 15.7018 9.87868 16.1213C10.2982 16.5409 10.8328 16.8266 11.4147 16.9424C11.9967 17.0581 12.5999 16.9987 13.1481 16.7716C13.6962 16.5446 14.1648 16.1601 14.4944 15.6667ZM23 11H18V13H23V11ZM23 15H18V17H23V15ZM9 19H23V21H9V19Z" fill="white"/>
</svg>
