<svg width="32" height="32" viewBox="0 0 32 32" fill="none" xmlns="http://www.w3.org/2000/svg">
<path d="M6.23697 13.5435L1.59961 12.2564C1.37211 12.1931 1.2707 12.3117 1.37348 12.526L8.94952 27.9164C9.07477 28.1391 9.30781 28.2828 9.56624 28.2965C9.31641 28.2906 9.10223 28.1193 9.04545 27.88L6.23697 13.5435Z" fill="#F46060"/>
<path d="M9.47442 28.2857C9.27731 28.245 9.13924 28.0698 9.14824 27.8719L10.009 9.93871L5.38215 8.1763C5.1615 8.09138 5.01897 8.20865 5.06694 8.4378L9.04134 27.88C9.09852 28.1159 9.30883 28.2852 9.55527 28.2938C9.52812 28.2936 9.50105 28.2909 9.47442 28.2857Z" fill="#FFA52E"/>
<path d="M10.5078 5.31335C10.4259 5.2573 10.3184 5.25308 10.2322 5.30254C10.146 5.352 10.0969 5.44615 10.1062 5.54385L9.14687 27.8719C9.13786 28.0698 9.27594 28.245 9.47305 28.2857C9.38362 28.2692 9.30624 28.2146 9.26178 28.1365C9.21733 28.0584 9.21037 27.9649 9.2428 27.8813L15.0455 7.56513L10.5078 5.31335Z" fill="#87CC25"/>
<path opacity="0.4" d="M9.14824 27.8719L9.71973 14.5182L6.10439 13.5127L9.04545 27.88C9.10264 28.1159 9.31294 28.2852 9.55939 28.2938C9.53086 28.2939 9.50239 28.2912 9.47442 28.2857C9.27731 28.245 9.13924 28.0698 9.14824 27.8719Z" fill="#F98526"/>
<path opacity="0.4" d="M13.8559 11.4113L9.91845 9.90836L9.14824 27.8719C9.13923 28.0698 9.27731 28.245 9.47441 28.2857C9.38499 28.2692 9.30761 28.2145 9.26315 28.1365C9.2187 28.0584 9.21174 27.9649 9.24417 27.8813L13.8559 11.4113Z" fill="#74B502"/>
<path d="M30.7375 11.9477L16.4104 3.83066C16.3229 3.77284 16.2118 3.76168 16.1142 3.8009C16.0166 3.84011 15.9453 3.92455 15.9239 4.0261L9.24418 27.8921C9.21175 27.9757 9.2187 28.0692 9.26315 28.1473C9.30761 28.2253 9.38499 28.28 9.47442 28.2965C9.50239 28.302 9.53086 28.3047 9.55939 28.3046L24.5854 28.2871C24.8395 28.2742 25.0643 28.1206 25.1651 27.8908L30.9609 12.5651C31.0441 12.3332 30.9509 12.0758 30.7375 11.9477Z" fill="#1D7FF9"/>
<path fill-rule="evenodd" clip-rule="evenodd" d="M28.7489 13.7998L17.5109 8.42971C17.4561 8.4041 17.3958 8.4405 17.3739 8.51193L17.1217 9.41503C17.0991 9.47926 17.1247 9.55031 17.1834 9.58622L28.4118 14.6516C28.4433 14.6651 28.4858 14.6355 28.5063 14.5829L28.7612 13.9224C28.79 13.8739 28.7804 13.8146 28.7489 13.7998ZM27.8129 16.226L16.5927 11.7173C16.5632 11.7073 16.5306 11.7109 16.504 11.7271C16.4775 11.7433 16.4597 11.7704 16.4557 11.8008L16.2199 12.6608C16.2005 12.7214 16.2268 12.7871 16.283 12.8185L27.5018 17.0455C27.5347 17.0577 27.5758 17.0267 27.5963 16.9768L27.8403 16.3419C27.8554 16.2907 27.8444 16.2395 27.8129 16.2273V16.226ZM26.9138 18.5592L15.7156 14.8377C15.6868 14.8313 15.6567 14.8368 15.6321 14.8528C15.6075 14.8688 15.5907 14.894 15.5854 14.9226L15.3565 15.7313C15.3364 15.7893 15.3651 15.8527 15.4223 15.8769L26.6123 19.341C26.6438 19.3518 26.685 19.3208 26.7041 19.2723L26.9399 18.6617C26.9536 18.6185 26.9454 18.57 26.9138 18.5606V18.5592ZM26.0477 20.8035L14.8769 17.8057C14.8179 17.795 14.7611 17.8328 14.7494 17.8907L14.5315 18.6657C14.5215 18.6921 14.5228 18.7214 14.5353 18.7469C14.5477 18.7723 14.5701 18.7916 14.5973 18.8005L25.7558 21.557C25.7887 21.5664 25.8284 21.534 25.8462 21.4882L26.0737 20.9005C26.0915 20.8587 26.0806 20.8129 26.0477 20.8048V20.8035Z" fill="white"/>
</svg>
