<?xml version="1.0" encoding="UTF-8"?>
<svg width="16px" height="16px" viewBox="0 0 16 16" version="1.1" xmlns="http://www.w3.org/2000/svg" xmlns:xlink="http://www.w3.org/1999/xlink">
    <title>ico_ai_translation</title>
    <g id="Symbols" stroke="none" stroke-width="1" fill="none" fill-rule="evenodd">
        <g id="Group" transform="translate(-0.000000, 0.142969)">
            <path d="M3.57539088,0 C4.31758209,0 4.90937304,0.186521572 5.3507815,0.559570312 C5.79218996,0.932619053 6.01875019,1.45702787 6.030469,2.1328125 L6.030469,4.9921875 C6.030469,5.56250285 6.11054632,6.01757643 6.27070338,6.35742188 L6.27070338,6.45703125 L4.81757838,6.45703125 C4.75507806,6.33593689 4.70039111,6.13867324 4.65351588,5.86523438 C4.20038861,6.33789299 3.64570666,6.57421875 2.98945338,6.57421875 C2.35273144,6.57421875 1.83320539,6.39257994 1.43085963,6.02929688 C1.02851386,5.66601381 0.827344,5.21679955 0.827344,4.68164062 C0.827344,4.005856 1.07831805,3.48730649 1.58027369,3.12597656 C2.08222932,2.76464663 2.79999558,2.58398438 3.733594,2.58398438 L4.60664088,2.58398438 L4.60664088,2.16796875 C4.60664088,1.83984211 4.51484492,1.57714942 4.33125025,1.37988281 C4.14765558,1.1826162 3.8683615,1.08398438 3.49335963,1.08398438 C3.16913925,1.08398438 2.90351691,1.16503825 2.69648463,1.32714844 C2.48945234,1.48925862 2.38593775,1.69531125 2.38593775,1.9453125 L0.962109625,1.9453125 C0.962109625,1.59765451 1.07734285,1.27246245 1.30781275,0.969726562 C1.53828265,0.666990674 1.85175608,0.429688359 2.24824244,0.2578125 C2.64472879,0.0859366406 3.08710718,0 3.57539088,0 Z M4.60664088,3.48046875 L3.83906275,3.48046875 C3.31171636,3.48046875 2.91523595,3.57226471 2.64960963,3.75585938 C2.3839833,3.93945404 2.25117213,4.19921707 2.25117213,4.53515625 C2.25117213,4.80859512 2.34199153,5.02636638 2.52363306,5.18847656 C2.7052746,5.35058675 2.94843623,5.43164062 3.25312525,5.43164062 C3.53437666,5.43164062 3.79902245,5.36328193 4.04707056,5.2265625 C4.29511868,5.08984307 4.48164025,4.90625115 4.60664088,4.67578125 L4.60664088,3.48046875 Z" id="a" fill="#72787F" fill-rule="nonzero"></path>
            <g id="element/arrow-2" transform="translate(0.000000, 8.857031)" stroke="#72787F" stroke-linecap="round" stroke-linejoin="round">
                <g id="Group">
                    <polyline id="Path-6" fill-rule="nonzero" transform="translate(4.000000, 2.500000) rotate(-315.000000) translate(-4.000000, -2.500000) " points="2.23223305 0.732233047 5.76776695 0.732233047 5.76776695 4.26776695"></polyline>
                    <path d="M6,2.5 C4.66666667,2.5 3.52348968,2.5 2.57046904,2.5 C1.14093807,2.5 0.5,2 0.5,1 C0.5,0.333333333 0.5,1.13686838e-13 0.5,1.13686838e-13" id="Path-34"></path>
                </g>
            </g>
            <g id="Group-14" transform="translate(8.000000, 7.857031)" fill="#72787F" fill-rule="nonzero">
                <path d="M5.99719901,8.04137695 L5.99719901,3.94499445 L7.17093653,3.94499445 L7.17093653,3.17914903 L5.99719901,3.17914903 L5.99719901,0 L5.11475401,0 L5.11475401,8.04137695 L5.99719901,8.04137695 Z M0.488343348,6.58092754 C3.01573436,5.25405582 3.9752862,3.18805421 3.9752862,0.854897218 L0.385534222,0.854897218 L0.385534222,1.60293228 L3.0928412,1.60293228 C2.91292523,3.45520959 1.8934014,4.87113311 0,5.87741837 L0.488343348,6.58092754 Z" id="가나-copy"></path>
                <path d="M5.99719901,8.04137695 L5.99719901,3.94499445 L7.17093653,3.94499445 L7.17093653,3.17914903 L5.99719901,3.17914903 L5.99719901,0 L5.11475401,0 L5.11475401,8.04137695 L5.99719901,8.04137695 Z M0.488343348,6.58092754 C3.01573436,5.25405582 3.9752862,3.18805421 3.9752862,0.854897218 L0.385534222,0.854897218 L0.385534222,1.60293228 L3.0928412,1.60293228 C2.91292523,3.45520959 1.8934014,4.87113311 0,5.87741837 L0.488343348,6.58092754 Z" id="가나-copy"></path>
            </g>
        </g>
    </g>
</svg>