<svg width="24" height="24" viewBox="0 0 24 24" fill="none" xmlns="http://www.w3.org/2000/svg">
<path fill-rule="evenodd" clip-rule="evenodd" d="M20.0612 23H4.93866C4.42206 23 4 22.5561 4 22.0136V22.0091C4 22.0091 4 3.11822 4 1.98694C4 1.44444 4.42206 1 4.93866 1H16L21 6V22.0136C21 22.5561 20.5774 23 20.0612 23Z" fill="#B4B6B8"/>
<path fill-rule="evenodd" clip-rule="evenodd" d="M16 5.06419C16 5.57872 16.4209 6 16.9358 6H21L16 1C16 1 16 4.75244 16 5.06419Z" fill="#8C8C8C"/>
<path fill-rule="evenodd" clip-rule="evenodd" d="M10.3599 7.98871V8.83436H8.95174V12.9877H7.99127V8.83436H6.5798V7.98871H10.3599ZM11.552 7.98871L12.528 9.59479L13.4839 7.98871H14.6225L13.1089 10.4166L14.7719 12.9877H13.5868L12.508 11.2589L11.4259 12.9877H10.2476L11.9106 10.3791L10.4035 7.98871H11.552ZM18.3375 7.98871V8.83436H16.9371V12.9877H15.9821V8.83436H14.5784V7.98871H18.3375Z" fill="white"/>
</svg>
