<svg width="24" height="24" viewBox="0 0 24 24" fill="none" xmlns="http://www.w3.org/2000/svg">
<path fill-rule="evenodd" clip-rule="evenodd" d="M22 5.0056V19.9648C22 20.3866 21.7349 20.7495 21.358 20.9108C21.3525 20.9126 21.3478 20.9161 21.343 20.9183C21.3126 20.9303 21.2804 20.9367 21.2489 20.9467C21.213 20.9577 21.1789 20.9716 21.1412 20.9787C21.1288 20.9815 21.1145 20.9808 21.1013 20.9829C21.0442 20.9922 20.9863 21 20.9263 21H3.07886H3.07374C2.48267 21 2 20.5348 2 19.9658V2.84155C2 2.37671 2.39074 2 2.87379 2H11.6264C12.0754 2 12.2479 2.30596 12.4121 2.64483L13.1131 3.97143H20.9204H20.9263C21.5163 3.97143 22 4.43626 22 5.0056Z" fill="#009FD2"/>
<path fill-rule="evenodd" clip-rule="evenodd" d="M3.0512 7L21.1492 7.00524C21.6195 7.00524 22 7.38927 22 7.8631V20.9458C22 21.5258 21.53 22 20.9545 22H20.9495H3.04588C2.98701 22 2.93068 21.992 2.87507 21.9826C2.8622 21.9804 2.8483 21.9812 2.83617 21.9783C2.79948 21.971 2.76629 21.9569 2.73133 21.9457C2.70067 21.9355 2.6693 21.929 2.63974 21.9167C2.63509 21.9145 2.63045 21.9109 2.62509 21.9091C2.25816 21.7446 2 21.3747 2 20.9458V8.05422C2 7.47384 2.47104 7 3.0455 7H3.0512Z" fill="#00BDDF"/>
</svg>
