<svg width="32" height="32" viewBox="0 0 32 32" fill="none" xmlns="http://www.w3.org/2000/svg">
<circle cx="16" cy="16" r="14" fill="#1D7FF9"/>
<path fill-rule="evenodd" clip-rule="evenodd" d="M17.6106 10.8667C17.6106 10.029 16.921 9.34996 16.0704 9.34996C15.2198 9.34996 14.5303 10.029 14.5303 10.8667C14.5303 11.7043 15.2198 12.3833 16.0704 12.3833C16.921 12.3833 17.6106 11.7043 17.6106 10.8667ZM20.5858 13.1417H11.415C10.8544 13.1417 10.4 13.6117 10.4 14.1917C10.4 14.7716 10.8544 15.2417 11.415 15.2417H14.0778C12.76 15.9249 11.8594 17.3033 11.8594 18.8926C11.8594 21.1614 13.6952 23.0007 15.9597 23.0007C18.2243 23.0007 20.0601 21.1614 20.0601 18.8926C20.0601 17.3033 19.1595 15.9249 17.8417 15.2417H20.5858C21.1464 15.2417 21.6009 14.7716 21.6009 14.1917C21.6009 13.6117 21.1464 13.1417 20.5858 13.1417ZM17.8537 18.8926C17.8537 19.9591 16.9908 20.8237 15.9262 20.8237C14.8617 20.8237 13.9987 19.9591 13.9987 18.8926C13.9987 17.826 14.8617 16.9613 15.9262 16.9613C16.9908 16.9613 17.8537 17.826 17.8537 18.8926Z" fill="white"/>
</svg>
