<svg width="24" height="24" viewBox="0 0 24 24" fill="none" xmlns="http://www.w3.org/2000/svg">
<path d="M18.5195 11.1094H14.0898C13.6592 11.1094 13.3516 10.8018 13.3516 10.3711C13.3516 9.97119 13.6592 9.63281 14.0898 9.63281H16.8584L16.0278 8.64844C15.0127 7.44873 13.5361 6.67969 11.875 6.67969C8.86035 6.67969 6.46094 9.10986 6.46094 12.0938C6.46094 15.1084 8.86035 17.5078 11.875 17.5078C13.0747 17.5078 14.2129 17.1079 15.105 16.4312C15.4434 16.1851 15.9048 16.2466 16.1509 16.585C16.397 16.9233 16.3354 17.3848 15.9971 17.6309C14.8589 18.4922 13.4131 18.9844 11.875 18.9844C8.06055 18.9844 4.98438 15.9082 4.98438 12.0938C4.98438 8.31006 8.06055 5.20312 11.875 5.20312C13.9976 5.20312 15.9048 6.1875 17.166 7.69482L17.7812 8.43311V5.94141C17.7812 5.5415 18.0889 5.20312 18.5195 5.20312C18.9194 5.20312 19.2578 5.5415 19.2578 5.94141V10.3711C19.2578 10.8018 18.9194 11.1094 18.5195 11.1094Z" fill="#454C53"/>
</svg>
