<svg width="24" height="24" viewBox="0 0 24 24" fill="none" xmlns="http://www.w3.org/2000/svg">
<path fill-rule="evenodd" clip-rule="evenodd" d="M20.0611 23H4.93862C4.42207 23 4 22.5561 4 22.0136V22.0091C4 22.0091 4 2.89207 4 1.98693C4 1.44444 4.42207 1 4.93862 1H15.9853L20.9966 6.00227L21 22.0136C21 22.5561 20.5772 23 20.0611 23Z" fill="#FD8900"/>
<mask id="mask0_535_72296" style="mask-type:luminance" maskUnits="userSpaceOnUse" x="4" y="1" width="17" height="22">
<path fill-rule="evenodd" clip-rule="evenodd" d="M20.0611 23H4.93862C4.42207 23 4 22.5561 4 22.0136V22.0091C4 22.0091 4 2.89207 4 1.98693C4 1.44444 4.42207 1 4.93862 1H15.9853L20.9966 6.00227L21 22.0136C21 22.5561 20.5772 23 20.0611 23Z" fill="white"/>
</mask>
<g mask="url(#mask0_535_72296)">
<path fill-rule="evenodd" clip-rule="evenodd" d="M16 5.06419C16 5.57875 16.4209 6 16.9358 6H21L16 1C16 1 16 4.63062 16 5.06419Z" fill="#BD4100"/>
</g>
<path fill-rule="evenodd" clip-rule="evenodd" d="M15 9L15.9953 9.01422L15.9947 14.2729C15.9947 14.6703 15.7164 14.9938 15.3743 14.9938L8.99999 14.9957V14H14.5312C14.8734 14 15 13.8662 15 13.4688V9ZM13.3829 7.00702C13.7251 7.00702 14.0034 7.33178 14.0034 7.73096V12.2834C14.0034 12.6824 13.7251 13.0072 13.3829 13.0072H7.63385C7.29168 13.0072 7.0134 12.6824 7.0134 12.2834V7.73096C7.0134 7.33178 7.29168 7.00702 7.63385 7.00702H13.3829ZM9.00741 8.23867V11.7904C9.00741 12.0119 9.16419 12.0884 9.35503 11.9604L11.8568 10.2887C12.0476 10.1608 12.05 9.9487 11.8605 9.8171L9.35126 8.07498C9.16282 7.94307 9.00741 8.01758 9.00741 8.23867Z" fill="white"/>
</svg>
