<?xml version="1.0" encoding="UTF-8"?>
<svg width="32px" height="32px" viewBox="0 0 32 32" version="1.1" xmlns="http://www.w3.org/2000/svg" xmlns:xlink="http://www.w3.org/1999/xlink">
    <title>ico_ai_close</title>
    <g id="Symbols" stroke="none" stroke-width="1" fill="none" fill-rule="evenodd">
        <g id="ico/ai_close" fill="#3C3C3C">
            <path d="M12.4644661,11.0502525 L15.9993593,14.5853593 L19.5355339,11.0502525 C19.9260582,10.6597282 20.5592232,10.6597282 20.9497475,11.0502525 C21.3402718,11.4407768 21.3402718,12.0739418 20.9497475,12.4644661 L17.4143593,15.9993593 L20.9497475,19.5355339 C21.3402718,19.9260582 21.3402718,20.5592232 20.9497475,20.9497475 C20.5592232,21.3402718 19.9260582,21.3402718 19.5355339,20.9497475 L15.9993593,17.4143593 L12.4644661,20.9497475 C12.0739418,21.3402718 11.4407768,21.3402718 11.0502525,20.9497475 C10.6597282,20.5592232 10.6597282,19.9260582 11.0502525,19.5355339 L14.5853593,15.9993593 L11.0502525,12.4644661 C10.6597282,12.0739418 10.6597282,11.4407768 11.0502525,11.0502525 C11.4407768,10.6597282 12.0739418,10.6597282 12.4644661,11.0502525 Z" id="Combined-Shape"></path>
        </g>
    </g>
</svg>