<svg width="26" height="24" viewBox="0 0 26 24" fill="none" xmlns="http://www.w3.org/2000/svg">
<path d="M13 2.25C9.48438 2.25 6.29688 4.125 4.51562 7.125C2.78125 10.1719 2.78125 13.875 4.51562 16.875C6.29688 19.9219 9.48438 21.75 13 21.75C16.4688 21.75 19.6562 19.9219 21.4375 16.875C23.1719 13.875 23.1719 10.1719 21.4375 7.125C19.6562 4.125 16.4688 2.25 13 2.25ZM13 24C8.6875 24 4.75 21.75 2.59375 18C0.4375 14.2969 0.4375 9.75 2.59375 6C4.75 2.29688 8.6875 0 13 0C17.2656 0 21.2031 2.29688 23.3594 6C25.5156 9.75 25.5156 14.2969 23.3594 18C21.2031 21.75 17.2656 24 13 24ZM11.875 16.125V13.125H8.875C8.21875 13.125 7.75 12.6562 7.75 12C7.75 11.3906 8.21875 10.875 8.875 10.875H11.875V7.875C11.875 7.26562 12.3438 6.75 13 6.75C13.6094 6.75 14.125 7.26562 14.125 7.875V10.875H17.125C17.7344 10.875 18.25 11.3906 18.25 12C18.25 12.6562 17.7344 13.125 17.125 13.125H14.125V16.125C14.125 16.7812 13.6094 17.25 13 17.25C12.3438 17.25 11.875 16.7812 11.875 16.125Z" fill="#454C53"/>
</svg>
