<svg width="32" height="32" viewBox="0 0 32 32" fill="none" xmlns="http://www.w3.org/2000/svg">
<g clip-path="url(#clip0_534_65424)">
<circle cx="16" cy="15.5" r="12" fill="#FED460"/>
<path d="M16.03 21.8149C15.06 21.8149 14.1675 21.6024 13.3525 21.1774C12.5375 20.7524 11.8875 20.1374 11.4025 19.3324C10.9175 18.5274 10.675 17.5749 10.675 16.4749V14.3749C10.675 13.2849 10.9175 12.3349 11.4025 11.5249C11.8875 10.7149 12.5375 10.0974 13.3525 9.67241C14.1675 9.24741 15.06 9.03491 16.03 9.03491C17.35 9.03491 18.4625 9.39741 19.3675 10.1224C19.8665 10.5221 20.3646 11.3952 20.7113 12.0982C20.9796 12.6425 20.6706 13.2755 20.0875 13.4438L19.8585 13.5099C19.3407 13.6593 18.7978 13.3821 18.5675 12.8949C18.3771 12.4922 18.1398 12.0612 17.92 11.8624C17.45 11.4374 16.82 11.2249 16.03 11.2249C15.48 11.2249 14.9775 11.3474 14.5225 11.5924C14.0675 11.8374 13.705 12.2049 13.435 12.6949C13.165 13.1849 13.03 13.7749 13.03 14.4649V16.3849C13.03 17.0749 13.165 17.6649 13.435 18.1549C13.705 18.6449 14.0675 19.0124 14.5225 19.2574C14.9775 19.5024 15.48 19.6249 16.03 19.6249C16.82 19.6249 17.45 19.4124 17.92 18.9874C18.1398 18.7887 18.3771 18.3576 18.5675 17.9549C18.7978 17.4677 19.3407 17.1905 19.8585 17.34L20.0875 17.4061C20.6706 17.5743 20.9796 18.2073 20.7113 18.7516C20.3646 19.4546 19.8665 20.3277 19.3675 20.7274C18.4625 21.4524 17.35 21.8149 16.03 21.8149Z" fill="#CE7700"/>
</g>
<circle cx="26" cy="6" r="5" fill="white"/>
<path d="M26.0117 12C23.8555 12 21.8867 10.875 20.8086 9C19.7305 7.14844 19.7305 4.875 20.8086 3C21.8867 1.14844 23.8555 0 26.0117 0C28.1445 0 30.1133 1.14844 31.1914 3C32.2695 4.875 32.2695 7.14844 31.1914 9C30.1133 10.875 28.1445 12 26.0117 12ZM25.0742 7.875C24.7461 7.875 24.5117 8.13281 24.5117 8.4375C24.5117 8.76562 24.7461 9 25.0742 9H26.9492C27.2539 9 27.5117 8.76562 27.5117 8.4375C27.5117 8.13281 27.2539 7.875 26.9492 7.875H26.7617V5.8125C26.7617 5.50781 26.5039 5.25 26.1992 5.25H25.0742C24.7461 5.25 24.5117 5.50781 24.5117 5.8125C24.5117 6.14062 24.7461 6.375 25.0742 6.375H25.6367V7.875H25.0742ZM26.0117 3C25.5898 3 25.2617 3.35156 25.2617 3.75C25.2617 4.17188 25.5898 4.5 26.0117 4.5C26.4102 4.5 26.7617 4.17188 26.7617 3.75C26.7617 3.35156 26.4102 3 26.0117 3Z" fill="#9D75EC"/>
<defs>
<clipPath id="clip0_534_65424">
<rect width="24" height="24" fill="white" transform="translate(4 3.5)"/>
</clipPath>
</defs>
</svg>
