<svg width="25" height="24" viewBox="0 0 25 24" fill="none" xmlns="http://www.w3.org/2000/svg">
<path d="M17.5742 18.9844H7.23828C6.80762 18.9844 6.5 18.6768 6.5 18.2461C6.5 17.8462 6.80762 17.5078 7.23828 17.5078H17.5742C17.9741 17.5078 18.3125 17.8462 18.3125 18.2461C18.3125 18.6768 17.9741 18.9844 17.5742 18.9844ZM11.8525 14.8315L7.91504 10.6479C7.63818 10.3403 7.66895 9.87891 7.9458 9.60205C8.25342 9.3252 8.71484 9.3252 8.9917 9.63281L11.668 12.4629V9.87891V5.94141C11.668 5.5415 11.9756 5.20312 12.4062 5.20312C12.8062 5.20312 13.1445 5.5415 13.1445 5.94141V9.87891V12.4629L15.79 9.63281C16.0669 9.3252 16.5283 9.3252 16.8359 9.60205C17.1436 9.87891 17.1436 10.3403 16.8667 10.6479L12.9292 14.8315C12.7754 14.9854 12.5908 15.0469 12.4062 15.0469C12.1909 15.0469 12.0063 14.9854 11.8525 14.8315Z" fill="#454C53"/>
</svg>
