<svg width="24" height="24" viewBox="0 0 24 24" fill="none" xmlns="http://www.w3.org/2000/svg">
<path opacity="0.4" d="M10.2 4.80039C10.9092 4.80039 11.6114 4.94007 12.2665 5.21144C12.9217 5.48282 13.517 5.88058 14.0184 6.38201C14.5198 6.88345 14.9176 7.47874 15.189 8.1339C15.4603 8.78906 15.6 9.49125 15.6 10.2004C15.6 10.9095 15.4603 11.6117 15.189 12.2669C14.9176 12.922 14.5198 13.5173 14.0184 14.0188C13.517 14.5202 12.9217 14.918 12.2665 15.1893C11.6114 15.4607 10.9092 15.6004 10.2 15.6004C9.49089 15.6004 8.78869 15.4607 8.13353 15.1893C7.47838 14.918 6.88308 14.5202 6.38165 14.0188C5.88021 13.5173 5.48245 12.922 5.21107 12.2669C4.9397 11.6117 4.80002 10.9095 4.80002 10.2004C4.80002 9.49125 4.9397 8.78906 5.21107 8.1339C5.48245 7.47874 5.88021 6.88345 6.38165 6.38201C6.88308 5.88058 7.47838 5.48282 8.13353 5.21144C8.78869 4.94007 9.49089 4.80039 10.2 4.80039ZM10.2 18.0004C12.2687 18.0004 14.2527 17.1786 15.7155 15.7158C17.1782 14.253 18 12.2691 18 10.2004C18 8.1317 17.1782 6.14774 15.7155 4.68496C14.2527 3.22217 12.2687 2.40039 10.2 2.40039C8.13134 2.40039 6.14738 3.22217 4.68459 4.68496C3.22181 6.14774 2.40002 8.1317 2.40002 10.2004C2.40002 12.2691 3.22181 14.253 4.68459 15.7158C6.14738 17.1786 8.13134 18.0004 10.2 18.0004Z" fill="#6F3AD0"/>
<path d="M14.8013 16.5L19.5525 21.2475C20.0213 21.7163 20.7825 21.7163 21.2513 21.2475C21.72 20.7788 21.72 20.0175 21.2513 19.5488L16.5 14.8013C16.0238 15.45 15.45 16.0238 14.8013 16.5Z" fill="#6F3AD0"/>
</svg>
