<svg width="24" height="24" viewBox="0 0 24 24" fill="none" xmlns="http://www.w3.org/2000/svg">
<circle cx="11.7119" cy="12" r="9" fill="#9D75EC"/>
<path d="M11.7345 16.7361C11.007 16.7361 10.3376 16.5767 9.72639 16.258C9.11514 15.9392 8.62764 15.478 8.26389 14.8742C7.90014 14.2705 7.71826 13.5561 7.71826 12.7311V11.1561C7.71826 10.3386 7.90014 9.62612 8.26389 9.01862C8.62764 8.41112 9.11514 7.948 9.72639 7.62925C10.3376 7.3105 11.007 7.15112 11.7345 7.15112C12.7245 7.15112 13.5589 7.423 14.2376 7.96675C14.6348 8.28489 15.0313 9.00292 15.2919 9.54398C15.4647 9.90277 15.2622 10.3179 14.8796 10.4283L14.5197 10.5322C14.18 10.6302 13.8229 10.4489 13.6754 10.1275C13.5271 9.8041 13.3318 9.4343 13.152 9.27175C12.7995 8.953 12.327 8.79362 11.7345 8.79362C11.322 8.79362 10.9451 8.8855 10.6039 9.06925C10.2626 9.253 9.99076 9.52862 9.78826 9.89612C9.58576 10.2636 9.48451 10.7061 9.48451 11.2236V12.6636C9.48451 13.1811 9.58576 13.6236 9.78826 13.9911C9.99076 14.3586 10.2626 14.6342 10.6039 14.818C10.9451 15.0017 11.322 15.0936 11.7345 15.0936C12.327 15.0936 12.7995 14.9342 13.152 14.6155C13.3318 14.4529 13.5271 14.0832 13.6755 13.7598C13.8229 13.4383 14.18 13.257 14.5197 13.3551L14.8796 13.4589C15.2622 13.5693 15.4647 13.9845 15.2919 14.3433C15.0313 14.8843 14.6348 15.6024 14.2376 15.9205C13.5589 16.4642 12.7245 16.7361 11.7345 16.7361Z" fill="#EDE5FE"/>
</svg>
