<svg width="24" height="24" viewBox="0 0 24 24" fill="none" xmlns="http://www.w3.org/2000/svg">
<path d="M4.67773 10.1576L1.19971 9.19234C1.02908 9.14482 0.953022 9.23378 1.03011 9.39452L6.71214 20.9373C6.80608 21.1044 6.98085 21.2121 7.17468 21.2224C6.98731 21.218 6.82668 21.0895 6.78409 20.91L4.67773 10.1576Z" fill="#F46060"/>
<path d="M7.10579 21.2142C6.95797 21.1837 6.85441 21.0523 6.86116 20.9039L7.50671 7.45399L4.03659 6.13219C3.87111 6.0685 3.76421 6.15645 3.80019 6.32831L6.78099 20.9099C6.82387 21.0869 6.98161 21.2139 7.16644 21.2203C7.14607 21.2202 7.12577 21.2182 7.10579 21.2142Z" fill="#FFA52E"/>
<path d="M7.88084 3.98505C7.81943 3.94301 7.73879 3.93985 7.67416 3.97694C7.60954 4.01404 7.57267 4.08465 7.57968 4.15792L6.86018 20.904C6.85342 21.0524 6.95698 21.1838 7.10481 21.2143C7.03774 21.2019 6.9797 21.1609 6.94636 21.1024C6.91302 21.0438 6.9078 20.9737 6.93213 20.911L11.2842 5.67389L7.88084 3.98505Z" fill="#87CC25"/>
<path opacity="0.4" d="M6.86119 20.9039L7.28981 10.8886L4.57831 10.1345L6.7841 20.91C6.82699 21.0869 6.98472 21.2139 7.16955 21.2203C7.14816 21.2204 7.12681 21.2184 7.10582 21.2142C6.958 21.1837 6.85444 21.0523 6.86119 20.9039Z" fill="#F98526"/>
<path opacity="0.4" d="M10.3919 8.55846L7.43881 7.43127L6.86115 20.9039C6.8544 21.0523 6.95796 21.1837 7.10578 21.2143C7.03871 21.2019 6.98068 21.1609 6.94734 21.1024C6.91399 21.0438 6.90878 20.9737 6.9331 20.911L10.3919 8.55846Z" fill="#74B502"/>
<path d="M23.0531 8.96079L12.3078 2.87297C12.2421 2.82961 12.1588 2.82124 12.0856 2.85065C12.0124 2.88006 11.9589 2.94339 11.9429 3.01956L6.93309 20.9191C6.90877 20.9818 6.91398 21.0519 6.94732 21.1104C6.98067 21.169 7.0387 21.21 7.10577 21.2223C7.12675 21.2265 7.1481 21.2285 7.1695 21.2284L18.439 21.2153C18.6296 21.2056 18.7982 21.0904 18.8738 20.9181L23.2206 9.42379C23.283 9.24991 23.2131 9.05681 23.0531 8.96079Z" fill="#1D7FF9"/>
<path fill-rule="evenodd" clip-rule="evenodd" d="M21.5617 10.3498L13.1332 6.3223C13.0921 6.3031 13.0468 6.33039 13.0304 6.38397L12.8413 7.06129C12.8243 7.10946 12.8435 7.16275 12.8875 7.18968L21.3088 10.9888C21.3324 10.9989 21.3643 10.9766 21.3797 10.9372L21.5709 10.4418C21.5925 10.4054 21.5853 10.361 21.5617 10.3498ZM20.8596 12.1695L12.4445 8.78794C12.4223 8.78046 12.3979 8.78317 12.378 8.79532C12.3581 8.80746 12.3448 8.82776 12.3417 8.85061L12.1649 9.49559C12.1504 9.54104 12.1701 9.59033 12.2122 9.61386L20.6263 12.7841C20.651 12.7932 20.6818 12.77 20.6972 12.7326L20.8802 12.2564C20.8915 12.218 20.8833 12.1796 20.8596 12.1705V12.1695ZM20.1853 13.9194L11.7867 11.1283C11.7651 11.1235 11.7425 11.1276 11.724 11.1396C11.7056 11.1517 11.693 11.1706 11.689 11.192L11.5174 11.7985C11.5023 11.842 11.5238 11.8896 11.5667 11.9077L19.9592 14.5058C19.9829 14.5139 20.0137 14.4906 20.0281 14.4542L20.2049 13.9963C20.2151 13.9639 20.209 13.9275 20.1853 13.9205V13.9194ZM19.5357 15.6026L11.1576 13.3543C11.1134 13.3463 11.0708 13.3746 11.062 13.418L10.8986 13.9993C10.8911 14.0191 10.8921 14.0411 10.9014 14.0602C10.9107 14.0792 10.9275 14.0937 10.9479 14.1004L19.3168 16.1677C19.3415 16.1748 19.3713 16.1505 19.3846 16.1162L19.5553 15.6754C19.5686 15.6441 19.5604 15.6097 19.5357 15.6036V15.6026Z" fill="white"/>
</svg>
