<svg width="22" height="22" viewBox="0 0 22 22" fill="none" xmlns="http://www.w3.org/2000/svg">
<title>ico_toast_new_error</title>
<path d="M11 2.09375C7.92383 2.09375 5.13477 3.73438 3.57617 6.35938C2.05859 9.02539 2.05859 12.2656 3.57617 14.8906C5.13477 17.5566 7.92383 19.1562 11 19.1562C14.0352 19.1562 16.8242 17.5566 18.3828 14.8906C19.9004 12.2656 19.9004 9.02539 18.3828 6.35938C16.8242 3.73438 14.0352 2.09375 11 2.09375ZM11 21.125C7.22656 21.125 3.78125 19.1562 1.89453 15.875C0.0078125 12.6348 0.0078125 8.65625 1.89453 5.375C3.78125 2.13477 7.22656 0.125 11 0.125C14.7324 0.125 18.1777 2.13477 20.0645 5.375C21.9512 8.65625 21.9512 12.6348 20.0645 15.875C18.1777 19.1562 14.7324 21.125 11 21.125ZM11 5.375C11.5332 5.375 11.9844 5.82617 11.9844 6.35938V10.9531C11.9844 11.5273 11.5332 11.9375 11 11.9375C10.4258 11.9375 10.0156 11.5273 10.0156 10.9531V6.35938C10.0156 5.82617 10.4258 5.375 11 5.375ZM12.3125 14.5625C12.3125 15.3008 11.6973 15.875 11 15.875C10.2617 15.875 9.6875 15.3008 9.6875 14.5625C9.6875 13.8652 10.2617 13.25 11 13.25C11.6973 13.25 12.3125 13.8652 12.3125 14.5625Z" fill="#F95C5C"/>
</svg>
