<svg width="18" height="18" viewBox="0 0 18 18" fill="none" xmlns="http://www.w3.org/2000/svg">
<circle cx="9" cy="9" r="8.5" fill="#9D75EC" stroke="white"/>
<path d="M9.02001 13.21C8.37335 13.21 7.77835 13.0683 7.23501 12.785C6.69168 12.5017 6.25835 12.0917 5.93501 11.555C5.61168 11.0183 5.45001 10.3833 5.45001 9.65V8.25C5.45001 7.52334 5.61168 6.89 5.93501 6.35C6.25835 5.81 6.69168 5.39834 7.23501 5.115C7.77835 4.83167 8.37335 4.69 9.02001 4.69C9.90001 4.69 10.6417 4.93167 11.245 5.415C11.598 5.6978 11.9504 6.33604 12.1821 6.81699C12.3358 7.13591 12.1557 7.50493 11.8156 7.60308L11.4958 7.69539C11.1937 7.78255 10.8763 7.62139 10.7453 7.33566C10.6135 7.0482 10.4398 6.71949 10.28 6.575C9.96668 6.29167 9.54668 6.15 9.02001 6.15C8.65335 6.15 8.31835 6.23167 8.01501 6.395C7.71168 6.55834 7.47001 6.80334 7.29001 7.13C7.11001 7.45667 7.02001 7.85 7.02001 8.31V9.59C7.02001 10.05 7.11001 10.4433 7.29001 10.77C7.47001 11.0967 7.71168 11.3417 8.01501 11.505C8.31835 11.6683 8.65335 11.75 9.02001 11.75C9.54668 11.75 9.96668 11.6083 10.28 11.325C10.4398 11.1805 10.6135 10.8518 10.7453 10.5643C10.8763 10.2786 11.1937 10.1175 11.4958 10.2046L11.8156 10.2969C12.1557 10.3951 12.3358 10.7641 12.1821 11.083C11.9504 11.564 11.598 12.2022 11.245 12.485C10.6417 12.9683 9.90001 13.21 9.02001 13.21Z" fill="#EDE5FE"/>
</svg>
