<?xml version="1.0" encoding="UTF-8"?>
<svg width="32px" height="32px" viewBox="0 0 32 32" version="1.1" xmlns="http://www.w3.org/2000/svg" xmlns:xlink="http://www.w3.org/1999/xlink">
    <title>ico_ai</title>
    <defs>
        <linearGradient x1="50%" y1="0%" x2="50%" y2="100%" id="linearGradient-1">
            <stop stop-color="#A86CEA" offset="0%"></stop>
            <stop stop-color="#6F3AD0" offset="100%"></stop>
        </linearGradient>
    </defs>
    <g id="Symbols" stroke="none" stroke-width="1" fill="none" fill-rule="evenodd">
        <g id="icon" transform="translate(2.000000, 0.998270)">
            <g id="Group-18-Copy-4" transform="translate(2.625000, 0.001730)">
                <path d="M12.7974321,6.55206718 L18.7098277,21.7855233 C19.0131164,22.5669553 18.6260199,23.4464954 17.8452234,23.750031 C17.4265681,23.9127837 16.957368,23.881462 16.5640193,23.6645035 L12.1165224,21.2114067 C11.6612668,20.9603023 11.1092326,20.9600299 10.6537298,21.210685 L6.18683997,23.6687346 C5.45284232,24.0726403 4.53065565,23.8045636 4.12707839,23.0699685 C3.91073478,22.6761778 3.87986267,22.2066871 4.04277506,21.7879172 L9.97035137,6.55095181 C10.2742556,5.76975932 11.1533852,5.38304128 11.9339423,5.68719288 C12.330187,5.84159346 12.6434695,6.15537831 12.7974321,6.55206718 Z" id="Rectangle" fill="#FFFFFF"></path>
                <path d="M8.55702773,6.00023661 L2.62945142,21.237202 C2.30362663,22.0747418 2.36537086,23.0137232 2.79805809,23.8013046 C3.6052126,25.2704949 5.44958594,25.8066483 6.91758124,24.9988367 L11.3844711,22.5407871 L15.8319679,24.9938839 C16.6186653,25.427801 17.5570656,25.4904444 18.3943762,25.1649388 C19.9559691,24.5578676 20.7301621,22.7987875 20.1235847,21.2359234 L14.2111891,6.00246735 C13.903264,5.2090896 13.276699,4.58151992 12.4842095,4.27271876 C10.9230954,3.66441555 9.16483617,4.43785164 8.55702773,6.00023661 Z M11.9339423,5.68719288 C12.330187,5.84159346 12.6434695,6.15537831 12.7974321,6.55206718 L18.7098277,21.7855233 C19.0131164,22.5669553 18.6260199,23.4464954 17.8452234,23.750031 C17.4265681,23.9127837 16.957368,23.881462 16.5640193,23.6645035 L12.1165224,21.2114067 C11.6612668,20.9603023 11.1092326,20.9600299 10.6537298,21.210685 L6.18683997,23.6687346 C5.45284232,24.0726403 4.53065565,23.8045636 4.12707839,23.0699685 C3.91073478,22.6761778 3.87986267,22.2066871 4.04277506,21.7879172 L9.97035137,6.55095181 C10.2742556,5.76975932 11.1533852,5.38304128 11.9339423,5.68719288 Z" id="Rectangle" fill="#6F3AD0" fill-rule="nonzero"></path>
                <path d="M12.3624302,8.96941968 L16.6407157,19.9435527 C16.8521491,20.4858958 16.5842514,21.097092 16.0423494,21.3086975 C15.7519156,21.4221081 15.4262025,21.4009193 15.1528821,21.2508345 L12.3944598,19.7361392 C11.7639724,19.3899282 11.0005712,19.3895524 10.3697439,19.7351426 L7.59772541,21.2537553 C7.08747928,21.5332867 6.4474224,21.3459188 6.16811835,20.8352573 C6.01845868,20.5616292 5.99758131,20.2357128 6.11110348,19.9451985 L10.4003326,8.96864303 C10.6121946,8.42646747 11.2231054,8.15883525 11.76484,8.37086973 C12.038819,8.4781049 12.255499,8.69513289 12.3624302,8.96941968 Z" id="Rectangle" fill="url(#linearGradient-1)"></path>
                <path d="M9.0759167,8.54468362 L8.43023021,10.1235434 L8.01978925,10.1625956 C4.22697572,10.5500704 1.51666667,11.5757347 1.51666667,12.7800903 C1.51666667,14.2748917 5.69185782,15.4944218 10.929889,15.5601233 L11.375,15.5629092 C16.8196072,15.5629092 21.2333333,14.3169987 21.2333333,12.7800903 C21.2333333,11.5332528 18.3284475,10.4779351 14.3248834,10.123995 L13.6804236,8.54505719 L14.131662,8.5746422 C19.1300117,8.93569534 22.75,10.3251386 22.75,12.7800903 C22.75,15.5994293 17.975632,17.0134795 11.8221824,17.0784621 L11.375,17.0808105 L10.9278176,17.0784621 C4.77436797,17.0134795 0,15.5994293 0,12.7800903 C0,10.250835 3.84243571,8.85256331 9.0759167,8.54468362 Z" id="Path" fill="#6F3AD0" fill-rule="nonzero"></path>
                <g id="Group-17" transform="translate(1.673484, 0.000000)" fill="#9D75EC">
                    <path d="M16.5930845,5.78257077 L16.1836601,4.40118436 C16.0170206,4.02698217 15.8255726,3.7352233 15.4277051,3.61185546 L14.622992,3.4401382 C14.4556845,3.395199 14.3377834,3.22836896 14.3377834,3.03656813 C14.3377834,2.84476731 14.4556845,2.67793727 14.622992,2.63299807 L15.4277051,2.46128081 C15.9041433,2.32260536 16.0363492,2.08565996 16.1836601,1.72060628 L16.5930845,0.305148698 C16.7005576,0.0985910945 16.8177471,-0.00310113395 16.9446531,7.20127593e-05 L16.9984465,0.00513242183 C17.1048435,0.0280938982 17.2041019,0.128099324 17.2962218,0.305148698 L17.7056461,1.72060628 C17.8529571,2.08565996 17.9851629,2.32260536 18.4616011,2.46128081 L19.2663142,2.63299807 C19.4336217,2.67793727 19.5515228,2.84476731 19.5515228,3.03656813 C19.5515228,3.22836896 19.4336217,3.395199 19.2663142,3.4401382 L18.4616011,3.61185546 C18.0637337,3.7352233 17.8722856,4.02698217 17.7056461,4.40118436 L17.2962218,5.78257077 C17.2273591,5.98595523 17.1101696,6.08764746 16.9446531,6.08764746 C16.7791366,6.08764746 16.6619471,5.98595523 16.5930845,5.78257077 Z" id="Path"></path>
                    <path d="M1.87941754,7.565481 L1.5382306,6.38143551 C1.39936434,6.06069077 1.23982431,5.81061174 0.908268088,5.70486787 L0.237673864,5.55768165 C0.0982509429,5.51916234 0,5.37616516 0,5.21176445 C0,5.04736374 0.0982509429,4.90436657 0.237673864,4.86584725 L0.908268088,4.71866103 C1.30529994,4.59979636 1.41547145,4.3967003 1.5382306,4.08379715 L1.87941754,2.87054779 C1.96897849,2.69349842 2.06663645,2.60633365 2.17239143,2.60905349 L2.21721925,2.61339099 C2.30588343,2.63307225 2.38859879,2.71879119 2.46536531,2.87054779 L2.80655225,4.08379715 C2.9293114,4.3967003 3.03948291,4.59979636 3.43651476,4.71866103 L4.10710899,4.86584725 C4.24653191,4.90436657 4.34478285,5.04736374 4.34478285,5.21176445 C4.34478285,5.37616516 4.24653191,5.51916234 4.10710899,5.55768165 L3.43651476,5.70486787 C3.10495854,5.81061174 2.94541851,6.06069077 2.80655225,6.38143551 L2.46536531,7.565481 C2.40797978,7.73981054 2.31032182,7.8269753 2.17239143,7.8269753 C2.03446103,7.8269753 1.93680307,7.73981054 1.87941754,7.565481 Z" id="Path-Copy-2"></path>
                </g>
            </g>
        </g>
    </g>
</svg>