<svg width="18" height="16" viewBox="0 0 18 16" fill="none" xmlns="http://www.w3.org/2000/svg">
<path d="M1.96875 1.69531C1.69189 1.69531 1.47656 1.94141 1.47656 2.1875V11.0469C1.47656 11.3237 1.69189 11.5391 1.96875 11.5391H7.35205H7.38281H10.3052H10.3359H15.75C15.9961 11.5391 16.2422 11.3237 16.2422 11.0469V2.1875C16.2422 1.94141 15.9961 1.69531 15.75 1.69531H1.96875ZM6.49072 13.0156H1.96875C0.861328 13.0156 0 12.1543 0 11.0469V2.1875C0 1.11084 0.861328 0.21875 1.96875 0.21875H15.75C16.8267 0.21875 17.7188 1.11084 17.7188 2.1875V11.0469C17.7188 12.1543 16.8267 13.0156 15.75 13.0156H11.1973L11.4434 14.4922H13.043C13.4429 14.4922 13.7812 14.8306 13.7812 15.2305C13.7812 15.6611 13.4429 15.9688 13.043 15.9688H10.8281H6.89062H4.67578C4.24512 15.9688 3.9375 15.6611 3.9375 15.2305C3.9375 14.8306 4.24512 14.4922 4.67578 14.4922H6.24463L6.49072 13.0156ZM7.99805 13.0156L7.75195 14.4922H9.93604L9.68994 13.0156H7.99805Z" fill="#454C53"/>
</svg>
