<svg width="24" height="24" viewBox="0 0 24 24" fill="none" xmlns="http://www.w3.org/2000/svg">
<path fill-rule="evenodd" clip-rule="evenodd" d="M20.0612 23H4.93859C4.42209 23 4 22.5561 4 22.0136V22.0091C4 22.0091 4 2.9464 4 1.98694C4 1.44444 4.42209 1 4.93859 1H16L20.9995 6.00169L21 22.0136C21 22.5561 20.5773 23 20.0612 23Z" fill="#1D7FF9"/>
<mask id="mask0_535_72292" style="mask-type:luminance" maskUnits="userSpaceOnUse" x="4" y="1" width="17" height="22">
<path fill-rule="evenodd" clip-rule="evenodd" d="M20.0612 23H4.93859C4.42209 23 4 22.5561 4 22.0136V22.0091C4 22.0091 4 2.9464 4 1.98694C4 1.44444 4.42209 1 4.93859 1H16L20.9995 6.00169L21 22.0136C21 22.5561 20.5773 23 20.0612 23Z" fill="white"/>
</mask>
<g mask="url(#mask0_535_72292)">
<path fill-rule="evenodd" clip-rule="evenodd" d="M16 5.06419C16 5.57875 16.4209 6 16.9358 6H21L16 1C16 1 16 4.66222 16 5.06419Z" fill="#0044CC"/>
<path opacity="0.9" fill-rule="evenodd" clip-rule="evenodd" d="M8.16915 12.991C6.80915 12.991 6.00916 11.8944 6.00916 10.5253C6.00916 9.11641 6.80915 8.01983 8.16915 8.01983C9.52913 8.01983 10.3291 9.11641 10.3291 10.5253C10.3291 11.8944 9.52913 12.991 8.16915 12.991ZM8.16915 9.0009C7.30145 9.0009 7.08324 9.69461 7.08324 10.5253C7.08324 11.3162 7.30145 12.0099 8.16915 12.0099C9.03683 12.0099 9.25504 11.3162 9.25504 10.5253C9.25504 9.69461 9.03683 9.0009 8.16915 9.0009ZM12.7735 12.9862H11.0174V8.00256H12.7735C13.8283 8.00256 14.6209 8.81223 14.6209 10.4665C14.6209 11.9113 14.0165 12.9862 12.7735 12.9862ZM12.5512 8.92391H11.9126V12.0649H12.7108C13.2297 12.0649 13.7257 11.674 13.7257 10.5712C13.7257 9.56606 13.4406 8.92391 12.5512 8.92391ZM16.9797 12.9862H16.009V8.92391H14.6859V8.00256H18.3029V8.92391H16.9797V12.9862Z" fill="white"/>
</g>
</svg>
