<svg width="20" height="14" viewBox="0 0 20 14" fill="none" xmlns="http://www.w3.org/2000/svg">
<path d="M12.6123 3.37158C12.0278 3.61768 11.3203 3.46387 10.8896 2.97168C10.2129 2.20264 9.22852 1.67969 8.12109 1.67969C6.06006 1.67969 4.42969 3.34082 4.42969 5.37109V5.40186C4.42969 6.01709 4.02979 6.5708 3.44531 6.78613C2.27637 7.18604 1.47656 8.29346 1.47656 9.55469C1.47656 11.1851 2.79932 12.5078 4.42969 12.5078H15.5039H15.5962C15.5962 12.5078 15.627 12.5078 15.6577 12.5078C17.0728 12.4463 18.2109 11.2466 18.2109 9.80078C18.2109 8.69336 17.5342 7.73975 16.5806 7.33984C15.9653 7.06299 15.5962 6.41699 15.7192 5.74023C15.7192 5.61719 15.75 5.49414 15.75 5.37109C15.75 4.17139 14.7349 3.15625 13.5352 3.15625C13.1968 3.15625 12.8892 3.24854 12.6123 3.37158ZM15.75 13.9844H15.5039H14.2734H4.42969C1.96875 13.9844 0 12.0156 0 9.55469C0 7.64746 1.23047 5.98633 2.95312 5.40186V5.37109C2.95312 2.54102 5.26025 0.203125 8.12109 0.203125C9.65918 0.203125 11.0742 0.910645 12.0278 2.01807C12.4893 1.80273 12.9814 1.67969 13.5352 1.67969C15.5654 1.67969 17.2266 3.34082 17.2266 5.37109C17.2266 5.58643 17.1958 5.771 17.165 5.98633C18.6416 6.63232 19.6875 8.10889 19.6875 9.80078C19.6875 12.0464 17.9341 13.8613 15.75 13.9844Z" fill="#454C53"/>
</svg>
