<svg width="18" height="18" viewBox="0 0 18 18" fill="none" xmlns="http://www.w3.org/2000/svg">
<path fill-rule="evenodd" clip-rule="evenodd" d="M9 18C13.9706 18 18 13.9706 18 9C18 4.02944 13.9706 0 9 0C4.02944 0 0 4.02944 0 9C0 13.9706 4.02944 18 9 18ZM7.0146 13.2581C7.62584 13.5768 8.29522 13.7362 9.02272 13.7362C10.0127 13.7362 10.8471 13.4643 11.5258 12.9206C11.9 12.6208 12.2737 11.966 12.5336 11.4387C12.7349 11.0305 12.5031 10.5557 12.0658 10.4295L11.894 10.38C11.5057 10.2679 11.0985 10.4758 10.9258 10.8412C10.783 11.1432 10.6051 11.4665 10.4402 11.6156C10.0877 11.9343 9.61522 12.0937 9.02272 12.0937C8.61022 12.0937 8.23335 12.0018 7.8921 11.8181C7.55085 11.6343 7.27897 11.3587 7.07647 10.9912C6.87397 10.6237 6.77272 10.1812 6.77272 9.66368V8.22368C6.77272 7.70618 6.87397 7.26368 7.07647 6.89618C7.27897 6.52868 7.55085 6.25306 7.8921 6.06931C8.23335 5.88556 8.61022 5.79368 9.02272 5.79368C9.61522 5.79368 10.0877 5.95306 10.4402 6.27181C10.6051 6.42086 10.783 6.74417 10.9258 7.04617C11.0985 7.41156 11.5057 7.61946 11.894 7.5074L12.0658 7.45782C12.5031 7.33162 12.7349 6.85686 12.5336 6.44865C12.2737 5.92138 11.9 5.26658 11.5258 4.96681C10.8471 4.42306 10.0127 4.15118 9.02272 4.15118C8.29522 4.15118 7.62584 4.31056 7.0146 4.62931C6.40334 4.94806 5.91584 5.41118 5.55209 6.01868C5.18834 6.62618 5.00647 7.33868 5.00647 8.15618V9.73118C5.00647 10.5562 5.18834 11.2706 5.55209 11.8743C5.91584 12.4781 6.40334 12.9393 7.0146 13.2581Z" fill="#9EA4AA"/>
</svg>
