<svg width="32" height="32" viewBox="0 0 32 32" fill="none" xmlns="http://www.w3.org/2000/svg">
<g clip-path="url(#clip0_1594_176742)">
<path opacity="0.4" d="M13.125 3H22.875V6.25C22.875 7.14883 23.6012 7.875 24.5 7.875H27.75V20.875C27.75 22.6676 26.2926 24.125 24.5 24.125H13.125C11.3324 24.125 9.875 22.6676 9.875 20.875V6.25C9.875 4.45742 11.3324 3 13.125 3Z" fill="#6F3AD0"/>
<path d="M22.875 3V6.25C22.875 7.14883 23.6012 7.875 24.5 7.875H27.75L22.875 3ZM7.4375 9.09375C7.4375 8.41836 6.89414 7.875 6.21875 7.875C5.54336 7.875 5 8.41836 5 9.09375V22.0938C5 25.9074 8.09258 29 11.9062 29H21.6562C22.3316 29 22.875 28.4566 22.875 27.7812C22.875 27.1059 22.3316 26.5625 21.6562 26.5625H11.9062C9.43828 26.5625 7.4375 24.5617 7.4375 22.0938V9.09375Z" fill="#6F3AD0"/>
</g>
<defs>
<clipPath id="clip0_1594_176742">
<rect width="22.75" height="26" fill="white" transform="translate(5 3)"/>
</clipPath>
</defs>
</svg>
