<svg width="36" height="36" viewBox="0 0 36 36" fill="none" xmlns="http://www.w3.org/2000/svg">
<path fill-rule="evenodd" clip-rule="evenodd" d="M35.3903 22.6625C35.788 21.1754 36 19.6125 36 18C36 8.05887 27.9411 0 18 0C8.05887 0 0 8.05887 0 18C0 27.9411 8.05887 36 18 36C19.6125 36 21.1754 35.788 22.6625 35.3903C21.0183 33.7596 20 31.4987 20 29C20 24.0294 24.0294 20 29 20C31.4987 20 33.7596 21.0183 35.3903 22.6625Z" fill="#C9CDD2"/>
<path d="M24.7055 10.0238L7.15714 14.1536C6.30526 14.3975 6.0801 15.5282 6.87736 15.9187L12.4834 19.1021L21.4382 13.8248L14.6861 21.7272L16.8477 27.8009C17.1627 28.5961 18.2465 28.6285 18.5766 27.7628L25.6909 11.1982C25.9992 10.5863 25.4196 9.89548 24.7055 10.0238Z" fill="white"/>
<path d="M36 29C36 32.866 32.866 36 29 36C25.134 36 22 32.866 22 29C22 25.134 25.134 22 29 22C32.866 22 36 25.134 36 29Z" fill="#9D75EC"/>
<path d="M29.0173 32.6838C28.4515 32.6838 27.9308 32.5598 27.4554 32.3119C26.98 32.064 26.6008 31.7052 26.3179 31.2356C26.035 30.7661 25.8936 30.2104 25.8936 29.5688V28.3438C25.8936 27.7079 26.035 27.1538 26.3179 26.6813C26.6008 26.2088 26.98 25.8486 27.4554 25.6006C27.9308 25.3527 28.4515 25.2288 29.0173 25.2288C29.7873 25.2288 30.4363 25.4402 30.9642 25.8631C31.2731 26.1106 31.5814 26.669 31.7842 27.0899C31.9186 27.3689 31.7611 27.6918 31.4635 27.7777L31.1836 27.8585C30.9193 27.9347 30.6416 27.7937 30.5269 27.5437C30.4116 27.2922 30.2596 27.0046 30.1198 26.8781C29.8456 26.6302 29.4781 26.5063 29.0173 26.5063C28.6965 26.5063 28.4033 26.5777 28.1379 26.7206C27.8725 26.8636 27.6611 27.0779 27.5036 27.3638C27.3461 27.6496 27.2673 27.9938 27.2673 28.3963V29.5163C27.2673 29.9188 27.3461 30.2629 27.5036 30.5488C27.6611 30.8346 27.8725 31.049 28.1379 31.1919C28.4033 31.3348 28.6965 31.4063 29.0173 31.4063C29.4781 31.4063 29.8456 31.2823 30.1198 31.0344C30.2596 30.908 30.4116 30.6203 30.5269 30.3688C30.6416 30.1188 30.9193 29.9778 31.1836 30.054L31.4635 30.1348C31.7611 30.2207 31.9186 30.5436 31.7842 30.8226C31.5814 31.2435 31.2731 31.8019 30.9642 32.0494C30.4363 32.4723 29.7873 32.6838 29.0173 32.6838Z" fill="#EDE5FE"/>
</svg>
