<svg width="32" height="32" viewBox="0 0 32 32" fill="none" xmlns="http://www.w3.org/2000/svg">
<g clip-path="url(#clip0_634_54617)">
<circle cx="16" cy="15.5" r="12" fill="#FED460"/>
<path d="M16.0296 21.8152C15.0596 21.8152 14.1671 21.6027 13.3521 21.1777C12.5371 20.7527 11.8871 20.1377 11.4021 19.3327C10.9171 18.5277 10.6746 17.5752 10.6746 16.4752V14.3752C10.6746 13.2852 10.9171 12.3352 11.4021 11.5252C11.8871 10.7152 12.5371 10.0977 13.3521 9.67266C14.1671 9.24766 15.0596 9.03516 16.0296 9.03516C17.3496 9.03516 18.4621 9.39766 19.3671 10.1227C19.866 10.5223 20.3642 11.3954 20.7108 12.0984C20.9791 12.6427 20.6701 13.2757 20.087 13.444L19.858 13.5101C19.3402 13.6595 18.7973 13.3823 18.567 12.8951C18.3766 12.4925 18.1393 12.0614 17.9196 11.8627C17.4496 11.4377 16.8196 11.2252 16.0296 11.2252C15.4796 11.2252 14.9771 11.3477 14.5221 11.5927C14.0671 11.8377 13.7046 12.2052 13.4346 12.6952C13.1646 13.1852 13.0296 13.7752 13.0296 14.4652V16.3852C13.0296 17.0752 13.1646 17.6652 13.4346 18.1552C13.7046 18.6452 14.0671 19.0127 14.5221 19.2577C14.9771 19.5027 15.4796 19.6252 16.0296 19.6252C16.8196 19.6252 17.4496 19.4127 17.9196 18.9877C18.1393 18.7889 18.3766 18.3578 18.567 17.9552C18.7973 17.468 19.3402 17.1908 19.858 17.3402L20.087 17.4063C20.6701 17.5746 20.9791 18.2076 20.7108 18.7519C20.3642 19.4549 19.866 20.328 19.3671 20.7277C18.4621 21.4527 17.3496 21.8152 16.0296 21.8152Z" fill="#CE7700"/>
</g>
<circle cx="26" cy="6" r="5" fill="white"/>
<path d="M26.0117 12C23.8555 12 21.8867 10.875 20.8086 9C19.7305 7.14844 19.7305 4.875 20.8086 3C21.8867 1.14844 23.8555 0 26.0117 0C28.1445 0 30.1133 1.14844 31.1914 3C32.2695 4.875 32.2695 7.14844 31.1914 9C30.1133 10.875 28.1445 12 26.0117 12ZM25.0742 7.875C24.7461 7.875 24.5117 8.13281 24.5117 8.4375C24.5117 8.76562 24.7461 9 25.0742 9H26.9492C27.2539 9 27.5117 8.76562 27.5117 8.4375C27.5117 8.13281 27.2539 7.875 26.9492 7.875H26.7617V5.8125C26.7617 5.50781 26.5039 5.25 26.1992 5.25H25.0742C24.7461 5.25 24.5117 5.50781 24.5117 5.8125C24.5117 6.14062 24.7461 6.375 25.0742 6.375H25.6367V7.875H25.0742ZM26.0117 3C25.5898 3 25.2617 3.35156 25.2617 3.75C25.2617 4.17188 25.5898 4.5 26.0117 4.5C26.4102 4.5 26.7617 4.17188 26.7617 3.75C26.7617 3.35156 26.4102 3 26.0117 3Z" fill="#9D75EC"/>
<defs>
<clipPath id="clip0_634_54617">
<rect width="24" height="24" fill="white" transform="translate(4 3.5)"/>
</clipPath>
</defs>
</svg>
