<?xml version="1.0" encoding="UTF-8"?>
<svg width="59px" height="16px" viewBox="0 0 59 16" version="1.1" xmlns="http://www.w3.org/2000/svg" xmlns:xlink="http://www.w3.org/1999/xlink">
    <title>logo_open_ai</title>
    <g id="Symbols" stroke="none" stroke-width="1" fill="none" fill-rule="evenodd">
        <g id="생성-모델-노출/logo_open-ai" transform="translate(-68.000000, 0.000000)" fill="#8769BA" fill-rule="nonzero">
            <g id="Group" transform="translate(6.000000, 1.000000)">
                <g id="OpenAI_Logo" transform="translate(63.000000, 0.000000)">
                    <path d="M33.6874534,5.44729058 L33.6874534,5.45199427 C33.6590095,5.45199427 33.6303973,5.45669797 33.6019534,5.45669797 C33.5735095,5.45669797 33.5448973,5.45199427 33.5164534,5.45199427 C31.8207598,5.45199427 30.7710287,6.50931697 30.7710287,8.20650972 L30.7710287,9.04091102 C30.7710287,10.6764518 31.8350659,11.6911053 33.5401847,11.6911053 C33.5750919,11.6920101 33.6100194,11.6904383 33.6447034,11.6864016 C33.6684347,11.6864016 33.6874534,11.6911053 33.7111847,11.6911053 C34.8558409,11.6911053 35.653953,11.2739886 36.162072,10.4110292 L35.1503783,9.82777144 C34.8130909,10.3255228 34.3618597,10.7001383 33.7158972,10.7001383 C32.8514722,10.7001383 32.3337597,10.1691251 32.3337597,9.2730718 L32.3337597,9.03603934 L36.3426654,9.03603934 L36.3426654,8.04994398 C36.3426654,6.46647977 35.3025278,5.44712259 33.6874534,5.44712259 L33.6874534,5.44729058 Z M33.6019534,6.41927487 C34.3904719,6.45724038 34.8654344,6.9786782 34.8654344,7.83676595 L34.8654344,8.07379841 L32.3290471,8.07379841 L32.3290471,7.93621543 C32.3290471,6.98808558 32.7802783,6.45707239 33.6019534,6.41910688 L33.6019534,6.41927487 Z M27.374929,5.45199427 C26.6197352,5.45199427 25.9690602,5.76495776 25.6270602,6.28639558 L25.5415603,6.41910688 L25.5415603,5.59411296 L24.1070792,5.59411296 L24.1070792,13.6016441 L25.6127541,13.6016441 L25.6127541,10.8046274 L25.6982541,10.932635 C26.0212354,11.4114036 26.65306,11.695809 27.3892351,11.695809 L27.4272725,11.695809 L27.460429,11.695809 C28.7001787,11.695809 29.9493537,10.8897978 29.9493537,9.08358022 L29.9493537,8.06909472 C29.9493537,6.77003588 29.1798538,5.45686596 27.4508355,5.45686596 L27.4414103,5.45216226 L27.4082538,5.45216226 L27.374929,5.45199427 Z M27.0235039,6.58037631 C27.8975224,6.59465537 28.4389662,7.18715253 28.4389662,8.13545037 L28.4389662,9.0076492 C28.4389662,9.95577905 27.8926415,10.5437405 27.0091978,10.5627233 C26.1875227,10.5484442 25.6127541,9.92268522 25.6127541,9.03133565 L25.6127541,8.13528238 C25.6127541,7.23452543 26.1922353,6.59919108 27.0235039,6.58020832 L27.0235039,6.58037631 Z M46.5360138,3.47509986 L43.6386079,11.5536903 L45.2678202,11.5536903 L45.8235701,9.82323574 L48.9869012,9.82323574 L48.9869012,9.84221849 L49.5426511,11.558394 L51.1718633,11.558394 L48.2697448,3.47980355 L48.0987448,3.47980355 L48.0940322,3.47509986 L46.5360138,3.47509986 Z M47.4006072,4.8642008 L48.6117447,8.68074263 L46.1797078,8.68074263 L47.4006072,4.8642008 Z M57,4.61288928 L57,3.47509986 L52.0315758,3.47509986 L52.0315758,4.61288928 L53.7747319,4.61288928 L53.7747319,10.4063255 L52.0315758,10.4063255 L52.0315758,11.5441149 L57,11.5441149 L57,10.4063255 L55.2568438,10.4063255 L55.2568438,4.61288928 L57,4.61288928 Z M40.6508211,5.45216226 L40.6080711,5.45216226 L40.5843398,5.45216226 C39.7436461,5.45216226 39.1451462,5.73656762 38.8506088,6.28185988 L38.7603963,6.447833 L38.7603963,5.59444894 L37.3259152,5.59444894 L37.3259152,11.5489866 L38.8315902,11.5489866 L38.8315902,8.00273907 C38.8315902,7.16833777 39.2828214,6.68956915 40.0617464,6.67529009 C40.807515,6.68956915 41.2350149,7.15893038 41.2350149,7.96964524 L41.2350149,11.5489866 L42.7406898,11.5489866 L42.7406898,7.71346203 C42.7406898,6.29597095 41.9617647,5.45199427 40.6555337,5.45199427 L40.6508211,5.45216226 Z M19.2667367,3.30912674 C17.0484497,3.30912674 15.6663122,4.6888203 15.6663122,6.91232255 L15.6663122,8.11176393 C15.6663122,10.3352662 17.0437371,11.7147917 19.2667367,11.7147917 L19.3000615,11.7147917 L19.333218,11.7147917 C21.5515049,11.7147917 22.9336425,10.3352662 22.9336425,8.11176393 L22.9336425,6.91232255 C22.9336425,4.6888203 21.5515049,3.30912674 19.333218,3.30912674 L19.3000615,3.30912674 L19.2667367,3.30912674 Z M19.3000615,4.5134398 C20.6205986,4.52771886 21.380505,5.37152755 21.380505,6.83168784 L21.380505,8.19710233 C21.380505,9.65726262 20.6205986,10.5012393 19.3000615,10.5153504 C17.9795243,10.5010713 17.2194497,9.65726262 17.2194497,8.19710233 L17.2194497,6.83168784 C17.2194497,5.37152755 17.9795243,4.52755087 19.3000615,4.5134398 Z M6.18557584,3.94917488e-05 C4.65128873,3.94917488e-05 3.2881699,0.98617501 2.81303909,2.4416316 C1.82665738,2.64457433 0.975356178,3.26111385 0.476095649,4.13412066 C-0.293404201,5.46156965 -0.117691637,7.13037226 0.913189068,8.26816167 C0.594920429,9.2211632 0.704151707,10.2640388 1.21243901,11.1269983 C1.97722626,12.459151 3.51605766,13.1418582 5.02190087,12.824191 C5.68888568,13.5755266 6.64764919,14.0039055 7.65338165,13.9999732 C9.18766876,13.9999732 10.5507876,13.0138506 11.0259184,11.558394 C12.0138808,11.3544554 12.864168,10.7381038 13.3581492,9.86590494 C14.1323617,8.53845596 13.9566491,6.86965335 12.9259367,5.73186393 L12.9259367,5.72716024 C13.2440087,4.77417412 13.1349492,3.73057732 12.6266868,2.86361994 C11.8617312,1.53617096 10.3227315,0.85329572 8.82176922,1.1709629 C8.15175133,0.421638544 7.19181439,-0.00472398731 6.18557584,3.94917488e-05 L6.18557584,3.94917488e-05 Z M6.18557584,0.910411976 L6.18086324,0.915115668 C6.79838182,0.915115668 7.39216911,1.12846168 7.86713161,1.52205988 C7.84811291,1.53146727 7.81007552,1.55515371 7.78163163,1.56943278 L4.98874438,3.17658343 C4.8461883,3.25721814 4.76068832,3.4089122 4.76068832,3.57488532 L4.76068832,7.34858995 L3.55897576,6.65647532 L3.55897576,3.53691981 C3.55841698,2.08798303 4.73389728,0.912468735 6.18557584,0.910243987 L6.18557584,0.910411976 Z M9.55003384,2.00905996 C10.4921164,2.00725295 11.3631516,2.50872503 11.8332873,3.32357379 C12.1372499,3.85458698 12.2511938,4.47564227 12.1466751,5.07771481 C12.1276564,5.06343574 12.0897873,5.04462098 12.0658877,5.03034191 L9.27300043,3.41831958 C9.130084,3.3376482 8.95526046,3.3376482 8.81234403,3.41831958 L5.53961336,5.3051719 L5.53961336,3.92077465 L8.24228803,2.36099689 C8.63966407,2.13104928 9.09070442,2.00960861 9.55003384,2.00889197 L9.55003384,2.00905996 Z M2.64220743,3.44200603 L2.64220743,6.7559248 C2.64220743,6.92189792 2.72770742,7.06888829 2.87026349,7.15422669 L6.13811325,9.03637532 L4.93151998,9.73319364 L2.23355791,8.17811958 C0.978135214,7.45192577 0.54889842,5.84826101 1.2742077,4.59390652 C1.58149534,4.06227523 2.06545439,3.65470647 2.64220743,3.44183804 L2.64220743,3.44200603 Z M8.90255661,4.26212827 L11.6052313,5.81720233 C12.8639997,6.54257879 13.2913313,8.14502575 12.5645815,9.40141539 L12.5692941,9.40611908 C12.2606189,9.93713227 11.7760629,10.3448415 11.2012943,10.5534839 L11.2012943,7.23939711 C11.2012943,7.07342399 11.1157944,6.92172993 10.9732383,6.84126321 L7.70067594,4.9542429 L8.90255661,4.26212827 Z M6.91703829,5.40478937 L8.29463153,6.20122516 L8.29463153,7.78939306 L6.91703829,8.58582885 L5.53961336,7.78939306 L5.53961336,6.20122516 L6.91703829,5.40478937 Z M9.08298177,6.65647532 L10.2846941,7.34858995 L10.2846941,10.4634418 C10.2846941,11.9141947 9.10671306,13.0899496 7.65809425,13.0899496 L7.65809425,13.0852459 C7.04528827,13.0852459 6.44678838,12.8718999 5.97653848,12.4784697 C5.99555717,12.4690623 6.03830716,12.4452079 6.06203846,12.4309288 L8.85492571,10.8237782 C8.99748179,10.7431434 9.08769437,10.5914494 9.08281346,10.4254763 L9.08298177,6.65647532 Z M8.29917582,8.69502169 L8.29917582,10.079251 L5.59650115,11.634325 C4.33773269,12.3549978 2.73225171,11.9283058 2.00550185,10.6766198 L2.01021444,10.6766198 C1.70153931,10.1503103 1.59213972,9.52455132 1.6966584,8.92247878 C1.7156771,8.93675785 1.75371449,8.95557261 1.77744579,8.96985168 L4.57033304,10.581874 C4.71324948,10.6625454 4.88807301,10.6625454 5.03098945,10.581874 L8.29917582,8.69502169 Z" id="Shape"></path>
                </g>
            </g>
        </g>
    </g>
</svg>