<?xml version="1.0" encoding="UTF-8" standalone="no"?>
<svg
  
  xmlns="http://www.w3.org/2000/svg"
  viewBox="0 0 299.43732 32.8284"
  height="32.8284"
  width="299.43732"
 
  id="svg2"
  version="1.1"><defs
     id="defs6"><clipPath
       id="clipPath34"
       clipPathUnits="userSpaceOnUse"><path
         id="path32"
         d="M 0,24.621 H 224.578 V 0 H 0 Z" /></clipPath></defs><g
     transform="matrix(1.3333333,0,0,-1.3333333,0,32.8284)"
     id="g10"><g
       transform="translate(15.6429,23.4945)"
       id="g12"><path
         id="path14"
         style="fill:#02c75a;fill-opacity:1;fill-rule:nonzero;stroke:none"
         d="M 0,0 V -12.29 L -8.553,0 h -7.09 v -22.963 h 7.428 v 12.29 l 8.553,-12.29 H 7.427 L 7.427,0 Z" /></g><g
       transform="translate(34.4358,23.4945)"
       id="g16"><path
         id="path18"
         style="fill:#02c75a;fill-opacity:1;fill-rule:nonzero;stroke:none"
         d="m 0,0 -9.003,-22.963 h 7.653 l 1.087,3.04 h 8.629 l 1.088,-3.04 h 7.652 L 8.103,0 Z m 4.052,-7.235 2.566,-7.172 H 1.485 Z" /></g><g
       transform="translate(76.0752,23.4945)"
       id="g20"><path
         id="path22"
         style="fill:#02c75a;fill-opacity:1;fill-rule:nonzero;stroke:none"
         d="m 0,0 v -22.963 h 18.118 v 5.629 H 7.314 v 3.095 H 17.78 v 5.515 H 7.314 v 3.096 H 17.893 V 0 Z" /></g><g
       transform="translate(66.0591,23.4945)"
       id="g24"><path
         id="path26"
         style="fill:#02c75a;fill-opacity:1;fill-rule:nonzero;stroke:none"
         d="M 0,0 -5.402,-15.098 -10.804,0 h -7.652 l 9.003,-22.963 H -1.35 L 7.653,0 Z" /></g><g
       id="g28"><g
         clip-path="url(#clipPath34)"
         id="g30"><g
           transform="translate(108.8229,12.8013)"
           id="g36"><path
             id="path38"
             style="fill:#02c75a;fill-opacity:1;fill-rule:nonzero;stroke:none"
             d="M 0,0 H -3.938 V 4.84 H 0 C 1.336,4.84 2.42,3.757 2.42,2.42 2.42,1.083 1.336,0 0,0 m 5.695,-4.1 c 2.669,1.117 4.026,3.534 4.026,6.601 0,2.901 -1.058,5.046 -3.144,6.378 -1.939,1.238 -4.454,1.814 -7.914,1.814 h -9.691 v -22.962 h 7.202 v 6.416 h 2.588 l 4.389,-6.416 h 7.653 l -5.805,7.878 z" /></g><g
           transform="translate(172.7536,5.7149)"
           id="g40"><path
             id="path42"
             style="fill:#02c75a;fill-opacity:1;fill-rule:nonzero;stroke:none"
             d="m 0,0 c -2.1,0 -3.566,1.524 -3.566,3.705 0,2.18 1.466,3.703 3.566,3.703 2.1,0 3.565,-1.524 3.565,-3.704 C 3.565,1.522 2.1,0 0,0 m 0,13.106 c -5.724,0 -9.879,-3.953 -9.879,-9.402 0,-5.447 4.155,-9.401 9.879,-9.401 5.724,0 9.878,3.954 9.878,9.401 0,5.449 -4.154,9.402 -9.878,9.402" /></g><g
           transform="translate(196.0495,8.4668)"
           id="g44"><path
             id="path46"
             style="fill:#02c75a;fill-opacity:1;fill-rule:nonzero;stroke:none"
             d="m 0,0 c 0,-1.636 -0.814,-2.575 -2.234,-2.575 -1.431,0 -2.252,0.939 -2.252,2.575 v 9.871 l -6.473,-1.524 v -8.603 c 0,-4.9 3.506,-8.193 8.725,-8.193 5.208,0 8.707,3.293 8.707,8.193 V 9.871 L 0,8.347 Z" /></g><g
           transform="translate(215.0026,5.6162)"
           id="g48"><path
             id="path50"
             style="fill:#02c75a;fill-opacity:1;fill-rule:nonzero;stroke:none"
             d="m 0,0 c -2.151,0 -3.713,1.6 -3.713,3.804 0,2.202 1.562,3.801 3.713,3.801 2.151,0 3.713,-1.599 3.713,-3.801 C 3.713,1.6 2.151,0 0,0 m 3.169,17.48 v -5.249 c -1.194,0.638 -2.552,0.974 -3.957,0.974 -5.375,0 -9.275,-3.954 -9.275,-9.402 0,-5.458 3.9,-9.419 9.275,-9.419 1.873,0 3.632,0.652 4.971,1.825 l 0.551,-1.247 h 4.841 v 24.043 z" /></g><g
           transform="translate(153.1715,0.5781)"
           id="g52"><path
             id="path54"
             style="fill:#02c75a;fill-opacity:1;fill-rule:nonzero;stroke:none"
             d="M 0,0 H 6.75 V 24.039 L 0,22.521 Z" /></g><g
           transform="translate(139.026,6.3203)"
           id="g56"><path
             id="path58"
             style="fill:#02c75a;fill-opacity:1;fill-rule:nonzero;stroke:none"
             d="m 0,0 c -2.983,0 -5.149,2.36 -5.149,5.614 0,3.282 2.166,5.664 5.149,5.664 1.944,0 3.616,-1.087 4.475,-2.908 l 6.493,1.558 c -1.614,4.712 -5.822,7.639 -10.982,7.639 -6.884,0 -12.076,-5.138 -12.076,-11.953 0,-6.794 5.192,-11.917 12.076,-11.917 5.672,0 10.136,3.537 11.371,9.011 l 0.042,0.184 H 4.401 C 3.596,1.08 1.95,0 0,0" /></g></g></g></g></svg>