<svg width="21" height="23" viewBox="0 0 21 23" fill="none" xmlns="http://www.w3.org/2000/svg">
<path d="M19.0312 11.125C19.0312 8.08984 17.3906 5.30078 14.7656 3.74219C12.0996 2.22461 8.85938 2.22461 6.23438 3.74219C3.56836 5.30078 1.96875 8.08984 1.96875 11.125C1.96875 14.2012 3.56836 16.9902 6.23438 18.5488C8.85938 20.0664 12.0996 20.0664 14.7656 18.5488C17.3906 16.9902 19.0312 14.2012 19.0312 11.125ZM0 11.125C0 7.39258 1.96875 3.94727 5.25 2.06055C8.49023 0.173828 12.4688 0.173828 15.75 2.06055C18.9902 3.94727 21 7.39258 21 11.125C21 14.8984 18.9902 18.3438 15.75 20.2305C12.4688 22.1172 8.49023 22.1172 5.25 20.2305C1.96875 18.3438 0 14.8984 0 11.125ZM7.875 7.1875H13.125C13.8223 7.1875 14.4375 7.80273 14.4375 8.5V13.75C14.4375 14.4883 13.8223 15.0625 13.125 15.0625H7.875C7.13672 15.0625 6.5625 14.4883 6.5625 13.75V8.5C6.5625 7.80273 7.13672 7.1875 7.875 7.1875Z" fill="#454C53"/>
</svg>
