<svg width="33" height="32" viewBox="0 0 33 32" fill="none" xmlns="http://www.w3.org/2000/svg">
<path d="M16.5 26.125C12.7266 26.125 9.28125 24.1562 7.39453 20.875C5.50781 17.6348 5.50781 13.6562 7.39453 10.375C9.28125 7.13477 12.7266 5.125 16.5 5.125C20.2324 5.125 23.6777 7.13477 25.5645 10.375C27.4512 13.6562 27.4512 17.6348 25.5645 20.875C23.6777 24.1562 20.2324 26.125 16.5 26.125ZM21.1348 13.6973H21.0938C21.5039 13.3281 21.5039 12.7129 21.0938 12.3027C20.7246 11.9336 20.1094 11.9336 19.7402 12.3027L15.1875 16.8965L13.2598 14.9688C12.8496 14.5586 12.2344 14.5586 11.8652 14.9688C11.4551 15.3379 11.4551 15.9531 11.8652 16.3223L14.4902 18.9473C14.8594 19.3574 15.4746 19.3574 15.8848 18.9473L21.1348 13.6973Z" fill="#C6A9FF"/>
</svg>
