<svg width="98" height="36" viewBox="0 0 98 36" fill="none" xmlns="http://www.w3.org/2000/svg">
<path fill-rule="evenodd" clip-rule="evenodd" d="M64.0009 10.8378C62.9301 9.54156 61.3521 8.89746 59.2829 8.89746C57.2299 8.89746 55.6599 9.54961 54.5891 10.8378C53.5183 12.126 52.9788 14.01 52.9788 16.4817V19.2915C52.9788 21.7794 53.5183 23.6714 54.5891 24.9596C55.6599 26.2558 57.2138 26.8999 59.2829 26.8999C61.3521 26.8999 62.9301 26.2478 64.0009 24.9596C65.0717 23.6714 65.6111 21.7794 65.6111 19.2915V16.4817C65.6111 14.01 65.0717 12.126 64.0009 10.8378ZM59.2829 10.7975C62.1733 10.7975 63.6225 12.6896 63.6225 16.4817V19.2915C63.6225 23.1158 62.1572 25.024 59.2829 25.024C56.4086 25.024 54.9675 23.1078 54.9675 19.2915V16.4817C54.9675 12.6896 56.3925 10.7975 59.2829 10.7975ZM39.1227 11.2887C39.2273 11.2887 39.3239 11.4175 39.4206 11.6832L45.8615 25.4668C46.2319 26.3041 46.9162 26.7228 47.9226 26.7228C48.4057 26.7228 48.8485 26.5456 49.2591 26.1914C49.6697 25.8371 49.871 25.3541 49.871 24.7341V9.77504C49.871 9.63817 49.8388 9.5013 49.7583 9.38053C49.6778 9.25976 49.5328 9.19535 49.3155 9.19535H48.4781C48.2366 9.19535 48.0756 9.25976 47.9951 9.38053C47.9226 9.5013 47.8824 9.63817 47.8824 9.77504V24.1867C47.8824 24.404 47.8179 24.5087 47.6972 24.5087C47.5764 24.5087 47.4717 24.396 47.3751 24.1625L40.9503 10.2662C40.7651 9.90386 40.4994 9.62207 40.1532 9.40468C39.807 9.1873 39.3884 9.08264 38.8892 9.08264C38.39 9.08264 37.9472 9.23561 37.5446 9.5335C37.1421 9.83945 36.9408 10.2662 36.9408 10.8217V26.0384C36.9408 26.1672 36.973 26.2961 37.0455 26.4249C37.1099 26.5617 37.2628 26.6262 37.4963 26.6262H38.3095C38.5591 26.6262 38.7201 26.5537 38.8087 26.4249C38.8972 26.288 38.9375 26.1592 38.9375 26.0384V11.659C38.9375 11.5624 38.9455 11.4819 38.9697 11.4014C38.9938 11.3289 39.0422 11.2887 39.1227 11.2887ZM74.556 24.879C74.6928 24.879 74.8217 24.6938 74.9263 24.3235L79.0807 9.7589C79.1451 9.55762 79.2015 9.4127 79.2579 9.33219C79.3142 9.25168 79.4511 9.20337 79.6604 9.20337H80.7312C81.0372 9.20337 81.1982 9.26778 81.2143 9.40465C81.2304 9.53347 81.1982 9.7428 81.1177 10.0165L76.7539 24.9756C76.6332 25.5151 76.3755 25.9498 75.9891 26.2719C75.6026 26.5939 75.1195 26.7549 74.5479 26.7549C73.9763 26.7549 73.5174 26.602 73.1712 26.288C72.825 25.982 72.5593 25.5473 72.3741 24.9917L67.9701 10.0085C67.8896 9.7267 67.8574 9.52542 67.8654 9.3966C67.8654 9.26778 68.0345 9.19532 68.3405 9.19532H69.4274C69.6286 9.19532 69.7575 9.23558 69.8219 9.32414C69.8863 9.4127 69.9346 9.54152 69.9829 9.7267L74.2017 24.2913C74.25 24.4604 74.2983 24.5972 74.3547 24.7099C74.411 24.8146 74.4755 24.871 74.5479 24.871L74.556 24.879ZM90.9481 9.35632C90.618 9.11479 90.2235 8.99402 89.7566 8.99402C88.7663 8.99402 88.1222 9.47709 87.8323 10.4513L83.0097 25.974C82.8728 26.4087 82.9855 26.6261 83.3559 26.6261H84.4669C84.5877 26.6261 84.7085 26.5939 84.8131 26.5214C84.9258 26.449 84.9983 26.3282 85.0466 26.1591L86.673 20.8212H92.8402L94.4423 26.1591C94.4826 26.3282 94.5712 26.449 94.6839 26.5214C94.8046 26.5939 94.9254 26.6261 95.0462 26.6261H96.1331C96.5034 26.6261 96.6242 26.4087 96.5034 25.974L91.7049 10.4593C91.5278 9.96016 91.2782 9.59786 90.9481 9.35632ZM92.2363 18.9372H87.2526L89.5955 11.192C89.6277 11.1195 89.676 11.0793 89.7566 11.0793C89.8129 11.0793 89.8612 11.1115 89.8934 11.192L92.2363 18.9372Z" fill="white"/>
<path fill-rule="evenodd" clip-rule="evenodd" d="M4.96014 24.7304L11.7008 7.41758C12.3919 5.64234 14.3914 4.76354 16.1666 5.45471C17.0678 5.80558 17.7803 6.51865 18.1305 7.42012L24.8538 24.7289C25.5436 26.5047 24.6632 28.5035 22.8874 29.1932C21.9353 29.5631 20.8681 29.4919 19.9735 28.9989L14.916 26.2116L9.83644 29.0045C8.16709 29.9224 6.06974 29.3132 5.15187 27.6438C4.65983 26.7489 4.58962 25.682 4.96014 24.7304ZM16.5224 8.04454C16.3474 7.59381 15.9911 7.23728 15.5405 7.06184C14.6529 6.71625 13.6532 7.15566 13.3076 8.04328L6.56698 25.3561C6.38172 25.8319 6.41683 26.3654 6.66285 26.8128C7.12178 27.6475 8.17046 27.9521 9.00513 27.4931L14.0847 24.7002C14.6027 24.4154 15.2304 24.4157 15.7481 24.701L20.8057 27.4883C21.253 27.7348 21.7865 27.7704 22.2626 27.5855C23.1505 27.2406 23.5907 26.2413 23.2458 25.3534L16.5224 8.04454Z" fill="white"/>
<path fill-rule="evenodd" clip-rule="evenodd" d="M16.0282 10.791L20.8933 23.2602C21.1337 23.8765 20.8291 24.5709 20.2129 24.8114C19.8826 24.9402 19.5122 24.9161 19.2014 24.7456L16.0646 23.0246C15.3477 22.6312 14.4795 22.6307 13.7622 23.0234L10.61 24.7489C10.0297 25.0665 9.30188 24.8536 8.98426 24.2734C8.81407 23.9625 8.79033 23.5922 8.91943 23.2621L13.797 10.7901C14.0379 10.1741 14.7326 9.86999 15.3486 10.1109C15.6602 10.2328 15.9066 10.4793 16.0282 10.791Z" fill="url(#paint0_linear_8875_62260)"/>
<path d="M12.2909 10.3086L11.5566 12.1026L11.0899 12.1469C6.77685 12.5872 3.69479 13.7526 3.69479 15.121C3.69479 16.8195 8.44266 18.2051 14.3991 18.2798L14.9053 18.283C21.0967 18.283 26.1158 16.8673 26.1158 15.121C26.1158 13.7043 22.8125 12.5052 18.2598 12.1031L17.527 10.309L18.0401 10.3426C23.724 10.7529 27.8405 12.3316 27.8405 15.121C27.8405 18.3245 22.4113 19.9312 15.4138 20.005L14.9053 20.0077L14.3968 20.005C7.39932 19.9312 1.97009 18.3245 1.97009 15.121C1.97009 12.2472 6.33957 10.6584 12.2909 10.3086Z" fill="white"/>
<path fill-rule="evenodd" clip-rule="evenodd" d="M22.7421 7.16998L22.2766 5.6004C22.0871 5.17522 21.8693 4.84371 21.4169 4.70353L20.5018 4.50842C20.3116 4.45736 20.1775 4.2678 20.1775 4.04987C20.1775 3.83194 20.3116 3.64238 20.5018 3.59132L21.4169 3.39621C21.9587 3.23864 22.109 2.96941 22.2766 2.55463L22.7421 0.946331C22.8643 0.711632 22.9976 0.596086 23.1419 0.599691L23.2031 0.605441C23.3241 0.631531 23.437 0.745161 23.5417 0.946331L24.0073 2.55463C24.1748 2.96941 24.3252 3.23864 24.8669 3.39621L25.782 3.59132C25.9723 3.64238 26.1064 3.83194 26.1064 4.04987C26.1064 4.2678 25.9723 4.45736 25.782 4.50842L24.8669 4.70353C24.4145 4.84371 24.1968 5.17522 24.0073 5.6004L23.5417 7.16998C23.4634 7.40107 23.3301 7.51662 23.1419 7.51662C22.9537 7.51662 22.8204 7.40107 22.7421 7.16998Z" fill="#E0D1FF"/>
<path fill-rule="evenodd" clip-rule="evenodd" d="M6.01025 9.1962L5.62226 7.85084C5.46435 7.4864 5.28293 7.20225 4.90589 7.0821L4.14332 6.91486C3.98477 6.8711 3.87305 6.70862 3.87305 6.52182C3.87305 6.33502 3.98477 6.17254 4.14332 6.12878L4.90589 5.96154C5.35738 5.82648 5.48267 5.59571 5.62226 5.24018L6.01025 3.86164C6.11209 3.66047 6.22315 3.56143 6.34341 3.56452L6.39438 3.56945C6.49521 3.59181 6.58927 3.68921 6.67657 3.86164L7.06455 5.24018C7.20415 5.59571 7.32943 5.82648 7.78092 5.96154L8.5435 6.12878C8.70204 6.17254 8.81377 6.33502 8.81377 6.52182C8.81377 6.70862 8.70204 6.8711 8.5435 6.91486L7.78092 7.0821C7.40389 7.20225 7.22247 7.4864 7.06455 7.85084L6.67657 9.1962C6.61131 9.39428 6.50026 9.49332 6.34341 9.49332C6.18656 9.49332 6.07551 9.39428 6.01025 9.1962Z" fill="#E0D1FF"/>
<defs>
<linearGradient id="paint0_linear_8875_62260" x1="8.83716" y1="10.0283" x2="8.83716" y2="24.8962" gradientUnits="userSpaceOnUse">
<stop offset="0.4" stop-color="white"/>
<stop offset="1" stop-color="#C6A9FF"/>
</linearGradient>
</defs>
</svg>
