<svg width="32" height="32" viewBox="0 0 32 32" fill="none" xmlns="http://www.w3.org/2000/svg">
<path fill-rule="evenodd" clip-rule="evenodd" d="M6.74084 22.12L12.9197 6.24997C13.5533 4.62267 15.3861 3.81709 17.0134 4.45067C17.8395 4.77231 18.4927 5.42595 18.8136 6.25229L24.9767 22.1187C25.609 23.7465 24.802 25.5787 23.1742 26.211C22.3014 26.55 21.3232 26.4848 20.5031 26.0328L15.8671 23.4778L11.2108 26.038C9.68055 26.8794 7.75798 26.3209 6.9166 24.7907C6.46557 23.9704 6.4012 22.9924 6.74084 22.12ZM17.3397 6.82463C17.1792 6.41146 16.8526 6.08464 16.4396 5.92382C15.6259 5.60703 14.7095 6.00982 14.3927 6.82347L8.21385 22.6935C8.04403 23.1297 8.07621 23.6187 8.30172 24.0289C8.72241 24.794 9.6837 25.0732 10.4488 24.6525L15.1051 22.0923C15.5799 21.8313 16.1554 21.8315 16.6299 22.0931L21.266 24.6481C21.676 24.8741 22.1651 24.9067 22.6015 24.7372C23.4154 24.421 23.8189 23.505 23.5028 22.6911L17.3397 6.82463Z" fill="#C6A9FF"/>
<path fill-rule="evenodd" clip-rule="evenodd" d="M16.8867 9.3417L21.3464 20.7718C21.5668 21.3367 21.2875 21.9733 20.7227 22.1937C20.4199 22.3118 20.0804 22.2897 19.7955 22.1334L16.9201 20.5558C16.2629 20.1952 15.4671 20.1948 14.8095 20.5548L11.92 22.1365C11.3881 22.4276 10.7209 22.2325 10.4298 21.7006C10.2738 21.4156 10.252 21.0761 10.3703 20.7735L14.8414 9.34089C15.0623 8.77619 15.6991 8.49744 16.2638 8.71828C16.5494 8.82997 16.7752 9.05602 16.8867 9.3417Z" fill="url(#paint0_linear_9261_38687)"/>
<path d="M13.4607 8.89941L12.7877 10.5439L12.3598 10.5846C8.40619 10.9881 5.58097 12.0564 5.58097 13.3108C5.58097 14.8677 9.93319 16.1379 15.3933 16.2064L15.8573 16.2093C21.5327 16.2093 26.1336 14.9116 26.1336 13.3108C26.1336 12.0122 23.1056 10.913 18.9322 10.5443L18.2605 8.8998L18.7308 8.93062C23.9411 9.30667 27.7146 10.7538 27.7146 13.3108C27.7146 16.2473 22.7378 17.7201 16.3234 17.7878L15.8573 17.7902L15.3911 17.7878C8.9768 17.7201 4 16.2473 4 13.3108C4 10.6765 8.00535 9.22009 13.4607 8.89941Z" fill="#C6A9FF"/>
<path fill-rule="evenodd" clip-rule="evenodd" d="M23.0411 6.02284L22.6143 4.58406C22.4406 4.19431 22.2411 3.89043 21.8263 3.76193L20.9875 3.58308C20.8131 3.53627 20.6902 3.36251 20.6902 3.16274C20.6902 2.96297 20.8131 2.78921 20.9875 2.7424L21.8263 2.56355C22.323 2.41911 22.4608 2.17232 22.6143 1.7921L23.0411 0.317828C23.1531 0.102688 23.2753 -0.00322999 23.4076 7.5005e-05L23.4637 0.00534568C23.5746 0.0292612 23.678 0.133422 23.7741 0.317828L24.2008 1.7921C24.3544 2.17232 24.4922 2.41911 24.9888 2.56355L25.8277 2.7424C26.0021 2.78921 26.125 2.96297 26.125 3.16274C26.125 3.36251 26.0021 3.53627 25.8277 3.58308L24.9888 3.76193C24.5741 3.89043 24.3745 4.19431 24.2008 4.58406L23.7741 6.02284C23.7023 6.23468 23.5801 6.34059 23.4076 6.34059C23.235 6.34059 23.1129 6.23468 23.0411 6.02284Z" fill="#E0D1FF"/>
<path fill-rule="evenodd" clip-rule="evenodd" d="M7.70324 7.88021L7.34759 6.64697C7.20284 6.31289 7.03653 6.05242 6.69092 5.94229L5.99189 5.78898C5.84656 5.74886 5.74414 5.59993 5.74414 5.42869C5.74414 5.25746 5.84656 5.10852 5.99189 5.0684L6.69092 4.9151C7.10478 4.7913 7.21963 4.57976 7.34759 4.25386L7.70324 2.9902C7.7966 2.80579 7.8984 2.715 8.00864 2.71784L8.05537 2.72236C8.14779 2.74285 8.23401 2.83214 8.31403 2.9902L8.66969 4.25386C8.79765 4.57976 8.91249 4.7913 9.32636 4.9151L10.0254 5.0684C10.1707 5.10852 10.2731 5.25746 10.2731 5.42869C10.2731 5.59993 10.1707 5.74886 10.0254 5.78898L9.32636 5.94229C8.98075 6.05242 8.81444 6.31289 8.66969 6.64697L8.31403 7.88021C8.25422 8.06178 8.15242 8.15257 8.00864 8.15257C7.86486 8.15257 7.76306 8.06178 7.70324 7.88021Z" fill="#E0D1FF"/>
<defs>
<linearGradient id="paint0_linear_9261_38687" x1="10.2949" y1="8.64258" x2="10.2949" y2="22.2715" gradientUnits="userSpaceOnUse">
<stop stop-color="#D1A9FF"/>
<stop offset="1" stop-color="#A97BFC"/>
</linearGradient>
</defs>
</svg>
