<svg width="24" height="24" viewBox="0 0 24 24" fill="none" xmlns="http://www.w3.org/2000/svg">
<path fill-rule="evenodd" clip-rule="evenodd" d="M5.05575 16.59L9.68993 4.68748C10.1651 3.467 11.5397 2.86282 12.7602 3.33801C13.3798 3.57923 13.8696 4.06946 14.1103 4.68922L18.7327 16.589C19.2069 17.8099 18.6016 19.184 17.3808 19.6582C16.7261 19.9125 15.9925 19.8636 15.3775 19.5246L11.9004 17.6083L8.40821 19.5285C7.26053 20.1595 5.8186 19.7407 5.18757 18.593C4.8493 17.9778 4.80103 17.2443 5.05575 16.59ZM13.0051 5.11856C12.8847 4.80868 12.6398 4.56356 12.33 4.44295C11.7198 4.20536 11.0325 4.50745 10.7949 5.11769L6.1607 17.0202C6.03333 17.3474 6.05747 17.7141 6.2266 18.0217C6.54212 18.5956 7.26309 18.805 7.83692 18.4895L11.3291 16.5693C11.6852 16.3735 12.1168 16.3737 12.4727 16.5699L15.9498 18.4862C16.2573 18.6556 16.6241 18.6801 16.9514 18.553C17.5619 18.3159 17.8645 17.6288 17.6274 17.0184L13.0051 5.11856Z" fill="#C6A9FF"/>
<path fill-rule="evenodd" clip-rule="evenodd" d="M12.6649 7.00677L16.0097 15.5794C16.175 16.003 15.9655 16.4805 15.5419 16.6458C15.3148 16.7343 15.0602 16.7178 14.8465 16.6006L12.69 15.4173C12.197 15.1469 11.6002 15.1466 11.107 15.4166L8.93987 16.6028C8.54096 16.8212 8.04056 16.6748 7.8222 16.2759C7.7052 16.0622 7.68888 15.8076 7.77763 15.5806L11.1309 7.00616C11.2966 6.58263 11.7742 6.37357 12.1977 6.5392C12.4119 6.62297 12.5813 6.7925 12.6649 7.00677Z" fill="url(#paint0_linear_13057_98797)"/>
<path d="M10.0955 6.6748L9.59075 7.90815L9.26986 7.93866C6.30465 8.24134 4.18573 9.04255 4.18573 9.98335C4.18573 11.151 7.44989 12.1037 11.545 12.155L11.893 12.1572C16.1496 12.1572 19.6002 11.1839 19.6002 9.98335C19.6002 9.00937 17.3292 8.18499 14.1992 7.9085L13.6953 6.6751L14.0481 6.69821C17.9558 6.98025 20.7859 8.06563 20.7859 9.98335C20.7859 12.1857 17.0533 13.2903 12.2426 13.3411L11.893 13.3429L11.5434 13.3411C6.7326 13.2903 3 12.1857 3 9.98335C3 8.00759 6.00401 6.91531 10.0955 6.6748Z" fill="#C6A9FF"/>
<path fill-rule="evenodd" clip-rule="evenodd" d="M17.2808 4.51713L16.9607 3.43804C16.8304 3.14573 16.6807 2.91782 16.3697 2.82145L15.7406 2.68731C15.6098 2.6522 15.5176 2.52188 15.5176 2.37206C15.5176 2.22223 15.6098 2.09191 15.7406 2.0568L16.3697 1.92266C16.7422 1.81433 16.8455 1.62924 16.9607 1.34407L17.2808 0.238371C17.3648 0.0770157 17.4564 -0.00242249 17.5556 5.62537e-05L17.5977 0.00400926C17.6809 0.0219459 17.7585 0.100066 17.8305 0.238371L18.1506 1.34407C18.2657 1.62924 18.3691 1.81433 18.7416 1.92266L19.3707 2.0568C19.5015 2.09191 19.5937 2.22223 19.5937 2.37206C19.5937 2.52188 19.5015 2.6522 19.3707 2.68731L18.7416 2.82145C18.4305 2.91782 18.2808 3.14573 18.1506 3.43804L17.8305 4.51713C17.7766 4.67601 17.685 4.75545 17.5556 4.75545C17.4262 4.75545 17.3346 4.67601 17.2808 4.51713Z" fill="#E0D1FF"/>
<path fill-rule="evenodd" clip-rule="evenodd" d="M5.77768 5.90991L5.51094 4.98498C5.40237 4.73443 5.27764 4.53907 5.01843 4.45647L4.49416 4.34149C4.38516 4.3114 4.30835 4.1997 4.30835 4.07128C4.30835 3.94285 4.38516 3.83115 4.49416 3.80106L5.01843 3.68608C5.32883 3.59323 5.41496 3.43458 5.51094 3.19015L5.77768 2.2424C5.8477 2.1041 5.92404 2.03601 6.00672 2.03813L6.04177 2.04152C6.11109 2.0569 6.17575 2.12386 6.23577 2.2424L6.50251 3.19015C6.59848 3.43458 6.68461 3.59323 6.99501 3.68608L7.51928 3.80106C7.62828 3.83115 7.7051 3.94285 7.7051 4.07128C7.7051 4.1997 7.62828 4.3114 7.51928 4.34149L6.99501 4.45647C6.7358 4.53907 6.61108 4.73443 6.50251 4.98498L6.23577 5.90991C6.19091 6.04609 6.11456 6.11418 6.00672 6.11418C5.89889 6.11418 5.82254 6.04609 5.77768 5.90991Z" fill="#E0D1FF"/>
<defs>
<linearGradient id="paint0_linear_13057_98797" x1="7.72107" y1="6.48242" x2="7.72107" y2="16.7041" gradientUnits="userSpaceOnUse">
<stop stop-color="#D1A9FF"/>
<stop offset="1" stop-color="#A97BFC"/>
</linearGradient>
</defs>
</svg>
