<svg width="32" height="32" viewBox="0 0 32 32" fill="none" xmlns="http://www.w3.org/2000/svg">
<path d="M17.3711 13.6836L22.1172 8.9375H19.0938C18.6016 8.9375 18.25 8.58594 18.25 8.09375C18.25 7.63672 18.6016 7.25 19.0938 7.25H24.1211C24.6133 7.25 24.9648 7.63672 24.9648 8.09375V13.1562C24.9648 13.6484 24.6133 14 24.1211 14C23.6641 14 23.2773 13.6484 23.2773 13.1562V10.1328L18.5312 14.8789C18.2148 15.2305 17.6875 15.2305 17.3711 14.8789C17.0195 14.5625 17.0195 14.0352 17.3711 13.6836ZM14.6289 18.8164L9.84766 23.5625H12.9062C13.3633 23.5625 13.75 23.9492 13.75 24.4062C13.75 24.8984 13.3633 25.25 12.9062 25.25H7.84375C7.35156 25.25 7 24.8984 7 24.4062V19.3438C7 18.8867 7.35156 18.5 7.84375 18.5C8.30078 18.5 8.6875 18.8867 8.6875 19.3438V22.4023L13.4336 17.6562C13.75 17.3047 14.2773 17.3047 14.6289 17.6562C14.9453 17.9727 14.9453 18.5 14.6289 18.8164Z" fill="#D8D8D8"/>
</svg>
