<svg width="32" height="33" viewBox="0 0 32 33" fill="none" xmlns="http://www.w3.org/2000/svg">
<path fill-rule="evenodd" clip-rule="evenodd" d="M13.5548 5.66806C13.0953 5.3617 12.4744 5.48588 12.1681 5.94541C11.8617 6.40493 11.9859 7.0258 12.4454 7.33216L15.4454 9.33216C15.7813 9.55609 16.2189 9.55609 16.5548 9.33216L19.5548 7.33216C20.0143 7.0258 20.1385 6.40493 19.8322 5.94541C19.5258 5.48588 18.9049 5.3617 18.4454 5.66806L16.0001 7.29826L13.5548 5.66806ZM5 11.5001C5 10.9478 5.44772 10.5001 6 10.5001H26C26.5523 10.5001 27 10.9478 27 11.5001V21.5001C27 22.0524 26.5523 22.5001 26 22.5001H6C5.44772 22.5001 5 22.0524 5 21.5001V11.5001ZM7 12.5001V20.5001H25V12.5001H7ZM12.1681 27.0548C12.4744 27.5143 13.0953 27.6385 13.5548 27.3322L16.0001 25.702L18.4454 27.3322C18.9049 27.6385 19.5258 27.5143 19.8322 27.0548C20.1385 26.5953 20.0143 25.9744 19.5548 25.6681L16.5548 23.6681C16.2189 23.4441 15.7813 23.4441 15.4454 23.6681L12.4454 25.6681C11.9859 25.9744 11.8617 26.5953 12.1681 27.0548Z" fill="#6F3AD0"/>
</svg>
