<svg width="24" height="24" viewBox="0 0 24 24" fill="none" xmlns="http://www.w3.org/2000/svg">
<circle cx="8.5" cy="7.5" r="4" fill="#E0D1FF" stroke="#6F3AD0"/>
<mask id="path-2-outside-1_694_2133" maskUnits="userSpaceOnUse" x="0" y="13" width="16" height="9" fill="black">
<rect fill="white" y="13" width="16" height="9"/>
<path fill-rule="evenodd" clip-rule="evenodd" d="M14.8719 18.6116C14.9558 19.0056 15 19.4143 15 19.8333C15 20.4777 14.4777 21 13.8333 21H2.16667C1.52234 21 1 20.4777 1 19.8333C1 16.6117 3.61167 14 6.83333 14H9.16667C9.86364 14 10.5321 14.1222 11.1517 14.3464C11.6021 16.3112 13.0172 17.9079 14.8719 18.6116Z"/>
</mask>
<path fill-rule="evenodd" clip-rule="evenodd" d="M14.8719 18.6116C14.9558 19.0056 15 19.4143 15 19.8333C15 20.4777 14.4777 21 13.8333 21H2.16667C1.52234 21 1 20.4777 1 19.8333C1 16.6117 3.61167 14 6.83333 14H9.16667C9.86364 14 10.5321 14.1222 11.1517 14.3464C11.6021 16.3112 13.0172 17.9079 14.8719 18.6116Z" fill="#E0D1FF"/>
<path d="M14.8719 18.6116L15.8499 18.4032L15.7363 17.8701L15.2266 17.6767L14.8719 18.6116ZM11.1517 14.3464L12.1264 14.1229L12.0045 13.5916L11.4919 13.4061L11.1517 14.3464ZM13.8938 18.8201C13.9633 19.1459 14 19.4848 14 19.8333H16C16 19.3438 15.9484 18.8653 15.8499 18.4032L13.8938 18.8201ZM14 19.8333C14 19.9254 13.9254 20 13.8333 20V22C15.03 22 16 21.03 16 19.8333H14ZM13.8333 20H2.16667V22H13.8333V20ZM2.16667 20C2.07462 20 2 19.9254 2 19.8333H0C0 21.03 0.970051 22 2.16667 22V20ZM2 19.8333C2 17.164 4.16396 15 6.83333 15V13C3.05939 13 0 16.0594 0 19.8333H2ZM6.83333 15H9.16667V13H6.83333V15ZM9.16667 15C9.74596 15 10.2993 15.1015 10.8114 15.2868L11.4919 13.4061C10.7648 13.143 9.98132 13 9.16667 13V15ZM10.177 14.5699C10.7031 16.8644 12.3536 18.7257 14.5171 19.5466L15.2266 17.6767C13.6808 17.0901 12.5012 15.7579 12.1264 14.1229L10.177 14.5699Z" fill="#6F3AD0" mask="url(#path-2-outside-1_694_2133)"/>
<path fill-rule="evenodd" clip-rule="evenodd" d="M19.6667 13C19.6667 14.4728 18.4728 15.6667 17 15.6667C15.5272 15.6667 14.3333 14.4728 14.3333 13C14.3333 11.5272 15.5272 10.3333 17 10.3333C18.4728 10.3333 19.6667 11.5272 19.6667 13ZM18.6045 16.6652C18.1134 16.8805 17.5706 17 17 17C14.7909 17 13 15.2091 13 13C13 10.7909 14.7909 9 17 9C19.2091 9 21 10.7909 21 13C21 14.0891 20.5647 15.0766 19.8586 15.7979L22.591 18.5303C22.8839 18.8232 22.8839 19.2981 22.591 19.591C22.2981 19.8839 21.8232 19.8839 21.5303 19.591L18.6045 16.6652Z" fill="#9D75EC"/>
</svg>
