<svg width="24" height="24" viewBox="0 0 24 24" fill="none" xmlns="http://www.w3.org/2000/svg">
<path d="M1.5 6.75C1.5 5.36929 2.61929 4.25 4 4.25H18C19.3807 4.25 20.5 5.36929 20.5 6.75V15.75C20.5 17.1307 19.3807 18.25 18 18.25H4C2.61929 18.25 1.5 17.1307 1.5 15.75V6.75Z" fill="#E0D1FF" stroke="#6F3AD0"/>
<path d="M1.5 7.25L8.99586 11.5897C10.2356 12.3074 11.7644 12.3074 13.0041 11.5897L20.5 7.25" stroke="#6F3AD0"/>
<rect x="14.5" y="13.25" width="8" height="8" rx="4" fill="white"/>
<rect x="14.5" y="13.25" width="8" height="8" rx="4" stroke="#6F3AD0"/>
<path fill-rule="evenodd" clip-rule="evenodd" d="M18.2303 19.4994L17.9162 18.3648C17.7884 18.0575 17.6415 17.8179 17.3363 17.7165L16.7189 17.5755C16.5905 17.5386 16.5001 17.4016 16.5001 17.244C16.5001 17.0865 16.5905 16.9495 16.7189 16.9126L17.3363 16.7715C17.7018 16.6576 17.8032 16.463 17.9162 16.1632L18.2303 15.0006C18.3128 14.831 18.4027 14.7475 18.5001 14.7501L18.5413 14.7542C18.623 14.7731 18.6991 14.8552 18.7698 15.0006L19.0839 16.1632C19.1969 16.463 19.2983 16.6576 19.6639 16.7715L20.2812 16.9126C20.4096 16.9495 20.5001 17.0865 20.5001 17.244C20.5001 17.4016 20.4096 17.5386 20.2812 17.5755L19.6639 17.7165C19.3586 17.8179 19.2117 18.0575 19.0839 18.3648L18.7698 19.4994C18.717 19.6665 18.627 19.75 18.5001 19.75C18.3731 19.75 18.2832 19.6665 18.2303 19.4994Z" fill="#9D75EC"/>
<rect x="14.5" y="13.25" width="8" height="8" rx="4" fill="white"/>
<rect x="14.5" y="13.25" width="8" height="8" rx="4" stroke="#6F3AD0"/>
<path fill-rule="evenodd" clip-rule="evenodd" d="M18.2303 19.4994L17.9162 18.3648C17.7884 18.0575 17.6415 17.8179 17.3363 17.7165L16.7189 17.5755C16.5905 17.5386 16.5001 17.4016 16.5001 17.244C16.5001 17.0865 16.5905 16.9495 16.7189 16.9126L17.3363 16.7715C17.7018 16.6576 17.8032 16.463 17.9162 16.1632L18.2303 15.0006C18.3128 14.831 18.4027 14.7475 18.5001 14.7501L18.5413 14.7542C18.623 14.7731 18.6991 14.8552 18.7698 15.0006L19.0839 16.1632C19.1969 16.463 19.2983 16.6576 19.6639 16.7715L20.2812 16.9126C20.4096 16.9495 20.5001 17.0865 20.5001 17.244C20.5001 17.4016 20.4096 17.5386 20.2812 17.5755L19.6639 17.7165C19.3586 17.8179 19.2117 18.0575 19.0839 18.3648L18.7698 19.4994C18.717 19.6665 18.627 19.75 18.5001 19.75C18.3731 19.75 18.2832 19.6665 18.2303 19.4994Z" fill="#9D75EC"/>
</svg>
