<svg width="24" height="24" viewBox="0 0 24 24" fill="none" xmlns="http://www.w3.org/2000/svg">
<rect x="4" y="4" width="16" height="11" fill="#E0D1FF"/>
<path d="M2.75 3H21.25C21.6562 3 22 3.36488 22 3.7961C22 4.26049 21.6562 4.5922 21.25 4.5922H2.75C2.3125 4.5922 2 4.26049 2 3.7961C2 3.36488 2.3125 3 2.75 3ZM3 4.5922H4.5V13.8185C4.5 13.9844 4.59375 14.0839 4.75 14.0839H12H19.25C19.375 14.0839 19.5 13.9844 19.5 13.8185V4.5922H21V13.8185C21 14.8468 20.1875 15.6761 19.25 15.6761H12.7188V17.2351L17 20.6566C17.3125 20.9551 17.3125 21.4527 17 21.7512C16.7188 22.0829 16.25 22.0829 15.9375 21.7512L11.9688 18.6615L8 21.7512C7.71875 22.0829 7.25 22.0829 6.96875 21.7512C6.65625 21.4527 6.65625 20.9551 6.96875 20.6566L11.25 17.2351V15.6761H4.75C3.78125 15.6761 3 14.8468 3 13.8185V4.5922Z" fill="#6F3AD0"/>
<path fill-rule="evenodd" clip-rule="evenodd" d="M14.1628 11.6993L13.7702 10.3378C13.6104 9.969 13.4268 9.68145 13.0452 9.55985L12.2735 9.39061C12.1131 9.34632 12 9.18189 12 8.99285C12 8.80381 12.1131 8.63938 12.2735 8.59509L13.0452 8.42584C13.5021 8.28917 13.6289 8.05563 13.7702 7.69583L14.1628 6.30076C14.2659 6.09717 14.3783 5.99694 14.5 6.00007L14.5516 6.00506C14.6536 6.02769 14.7488 6.12626 14.8372 6.30076L15.2298 7.69583C15.3711 8.05563 15.4979 8.28917 15.9548 8.42584L16.7265 8.59509C16.8869 8.63938 17 8.80381 17 8.99285C17 9.18189 16.8869 9.34632 16.7265 9.39061L15.9548 9.55985C15.5732 9.68145 15.3896 9.969 15.2298 10.3378L14.8372 11.6993C14.7711 11.8998 14.6587 12 14.5 12C14.3413 12 14.2289 11.8998 14.1628 11.6993Z" fill="#9D75EC"/>
<path fill-rule="evenodd" clip-rule="evenodd" d="M8.29771 11.7995L8.06212 10.8919C7.96624 10.646 7.85608 10.4543 7.62714 10.3732L7.16411 10.2604C7.06784 10.2309 7 10.1213 7 9.99523C7 9.86921 7.06784 9.75959 7.16411 9.73006L7.62714 9.61723C7.90129 9.52611 7.97736 9.37042 8.06212 9.13056L8.29771 8.2005C8.35955 8.06478 8.42698 7.99796 8.5 8.00005L8.53095 8.00337C8.59217 8.01846 8.64929 8.08417 8.70229 8.2005L8.93788 9.13056C9.02264 9.37042 9.09871 9.52611 9.37286 9.61723L9.83589 9.73006C9.93216 9.75959 10 9.86921 10 9.99523C10 10.1213 9.93216 10.2309 9.83589 10.2604L9.37286 10.3732C9.14392 10.4543 9.03376 10.646 8.93788 10.8919L8.70229 11.7995C8.66267 11.9332 8.59524 12 8.5 12C8.40476 12 8.33733 11.9332 8.29771 11.7995Z" fill="#9D75EC"/>
</svg>
