<svg width="24" height="24" viewBox="0 0 24 24" fill="none" xmlns="http://www.w3.org/2000/svg">
<mask id="path-1-outside-1_694_2157" maskUnits="userSpaceOnUse" x="4" y="2" width="16" height="20" fill="black">
<rect fill="white" x="4" y="2" width="16" height="20"/>
<path fill-rule="evenodd" clip-rule="evenodd" d="M13.9742 3H7C5.89543 3 5 3.89543 5 5V19C5 20.1046 5.89543 21 7 21H16.5C17.6046 21 18.5 20.1046 18.5 19V7.82756L13.9742 3Z"/>
</mask>
<path fill-rule="evenodd" clip-rule="evenodd" d="M13.9742 3H7C5.89543 3 5 3.89543 5 5V19C5 20.1046 5.89543 21 7 21H16.5C17.6046 21 18.5 20.1046 18.5 19V7.82756L13.9742 3Z" fill="#E0D1FF"/>
<path d="M13.9742 3L14.7037 2.31606L14.4074 2H13.9742V3ZM18.5 7.82756H19.5V7.43211L19.2295 7.14362L18.5 7.82756ZM7 4H13.9742V2H7V4ZM6 5C6 4.44772 6.44772 4 7 4V2C5.34315 2 4 3.34315 4 5H6ZM6 19V5H4V19H6ZM7 20C6.44772 20 6 19.5523 6 19H4C4 20.6569 5.34314 22 7 22V20ZM16.5 20H7V22H16.5V20ZM17.5 19C17.5 19.5523 17.0523 20 16.5 20V22C18.1569 22 19.5 20.6569 19.5 19H17.5ZM17.5 7.82756V19H19.5V7.82756H17.5ZM19.2295 7.14362L14.7037 2.31606L13.2446 3.68394L17.7705 8.5115L19.2295 7.14362Z" fill="#6F3AD0" mask="url(#path-1-outside-1_694_2157)"/>
<mask id="mask0_694_2157" style="mask-type:alpha" maskUnits="userSpaceOnUse" x="5" y="3" width="14" height="18">
<path fill-rule="evenodd" clip-rule="evenodd" d="M13.9742 3H7C5.89543 3 5 3.89543 5 5V19C5 20.1046 5.89543 21 7 21H16.5C17.6046 21 18.5 20.1046 18.5 19V7.82756L13.9742 3Z" fill="#6F3AD0"/>
</mask>
<g mask="url(#mask0_694_2157)">
<rect x="13.8594" y="3" width="4.64062" height="4.95" fill="#6F3AD0"/>
</g>
<path fill-rule="evenodd" clip-rule="evenodd" d="M13.5649 12.3389C13.5649 13.5683 12.5683 14.5649 11.3389 14.5649C10.1096 14.5649 9.11298 13.5683 9.11298 12.3389C9.11298 11.1096 10.1096 10.113 11.3389 10.113C12.5683 10.113 13.5649 11.1096 13.5649 12.3389ZM12.6783 15.3984C12.2683 15.5782 11.8153 15.6779 11.3389 15.6779C9.4949 15.6779 8 14.183 8 12.3389C8 10.4949 9.4949 9 11.3389 9C13.183 9 14.6779 10.4949 14.6779 12.3389C14.6779 13.2481 14.3145 14.0724 13.7251 14.6745L16.006 16.9553C16.2505 17.1998 16.2505 17.5962 16.006 17.8407C15.7615 18.0852 15.3651 18.0852 15.1206 17.8407L12.6783 15.3984Z" fill="#9D75EC"/>
</svg>
