<svg width="24" height="24" viewBox="0 0 24 24" fill="none" xmlns="http://www.w3.org/2000/svg">
<mask id="path-1-outside-1_694_2115" maskUnits="userSpaceOnUse" x="4" y="2" width="16" height="20" fill="black">
<rect fill="white" x="4" y="2" width="16" height="20"/>
<path fill-rule="evenodd" clip-rule="evenodd" d="M13.9742 3H7C5.89543 3 5 3.89543 5 5V19C5 20.1046 5.89543 21 7 21H16.5C17.6046 21 18.5 20.1046 18.5 19V7.82756L13.9742 3Z"/>
</mask>
<path fill-rule="evenodd" clip-rule="evenodd" d="M13.9742 3H7C5.89543 3 5 3.89543 5 5V19C5 20.1046 5.89543 21 7 21H16.5C17.6046 21 18.5 20.1046 18.5 19V7.82756L13.9742 3Z" fill="#E0D1FF"/>
<path d="M13.9742 3L14.7037 2.31606L14.4074 2H13.9742V3ZM18.5 7.82756H19.5V7.43211L19.2295 7.14362L18.5 7.82756ZM7 4H13.9742V2H7V4ZM6 5C6 4.44772 6.44772 4 7 4V2C5.34315 2 4 3.34315 4 5H6ZM6 19V5H4V19H6ZM7 20C6.44772 20 6 19.5523 6 19H4C4 20.6569 5.34314 22 7 22V20ZM16.5 20H7V22H16.5V20ZM17.5 19C17.5 19.5523 17.0523 20 16.5 20V22C18.1569 22 19.5 20.6569 19.5 19H17.5ZM17.5 7.82756V19H19.5V7.82756H17.5ZM19.2295 7.14362L14.7037 2.31606L13.2446 3.68394L17.7705 8.5115L19.2295 7.14362Z" fill="#6F3AD0" mask="url(#path-1-outside-1_694_2115)"/>
<mask id="mask0_694_2115" style="mask-type:alpha" maskUnits="userSpaceOnUse" x="5" y="3" width="14" height="18">
<path fill-rule="evenodd" clip-rule="evenodd" d="M13.9742 3H7C5.89543 3 5 3.89543 5 5V19C5 20.1046 5.89543 21 7 21H16.5C17.6046 21 18.5 20.1046 18.5 19V7.82756L13.9742 3Z" fill="#6F3AD0"/>
</mask>
<g mask="url(#mask0_694_2115)">
<rect x="13.8594" y="3" width="4.64062" height="4.95" fill="#6F3AD0"/>
</g>
<circle cx="11.4" cy="8.8" r="0.8" fill="#9D75EC"/>
<path fill-rule="evenodd" clip-rule="evenodd" d="M11 10H10.5C10.2239 10 10 10.2239 10 10.5C10 10.7761 10.2239 11 10.5 11C10.7761 11 11 11.2239 11 11.5V15.5C11 15.7761 10.7761 16 10.5 16C10.2239 16 10 16.2239 10 16.5C10 16.7761 10.2239 17 10.5 17H11H12H12.5C12.7761 17 13 16.7761 13 16.5C13 16.2239 12.7761 16 12.5 16C12.2239 16 12 15.7761 12 15.5V11C12 10.4477 11.5523 10 11 10Z" fill="#9D75EC"/>
</svg>
