<svg width="32" height="32" viewBox="0 0 32 32" fill="none" xmlns="http://www.w3.org/2000/svg">
<path d="M16 26.125C12.2266 26.125 8.78125 24.1562 6.89453 20.875C5.00781 17.6348 5.00781 13.6562 6.89453 10.375C8.78125 7.13477 12.2266 5.125 16 5.125C19.7324 5.125 23.1777 7.13477 25.0645 10.375C26.9512 13.6562 26.9512 17.6348 25.0645 20.875C23.1777 24.1562 19.7324 26.125 16 26.125ZM20.6348 13.6973H20.5938C21.0039 13.3281 21.0039 12.7129 20.5938 12.3027C20.2246 11.9336 19.6094 11.9336 19.2402 12.3027L14.6875 16.8965L12.7598 14.9688C12.3496 14.5586 11.7344 14.5586 11.3652 14.9688C10.9551 15.3379 10.9551 15.9531 11.3652 16.3223L13.9902 18.9473C14.3594 19.3574 14.9746 19.3574 15.3848 18.9473L20.6348 13.6973Z" fill="#C6A9FF"/>
</svg>
