<svg width="24" height="24" viewBox="0 0 24 24" fill="none" xmlns="http://www.w3.org/2000/svg">
<circle cx="17" cy="16" r="6.125" stroke="#D8D8D8" stroke-width="1.75"/>
<path fill-rule="evenodd" clip-rule="evenodd" d="M16.1572 16.8427H14.6429C14.1574 16.8427 13.8 16.4853 13.8 15.9998C13.8 15.5466 14.152 15.1569 14.6429 15.1569H16.1572V13.6427C16.1572 13.1895 16.5092 12.7998 17 12.7998C17.4587 12.7998 17.8429 13.184 17.8429 13.6427V15.1569H19.3572C19.8159 15.1569 20.2 15.5411 20.2 15.9998C20.2 16.4907 19.8104 16.8427 19.3572 16.8427H17.8429V18.3569C17.8429 18.8478 17.4532 19.1998 17 19.1998C16.5146 19.1998 16.1572 18.8424 16.1572 18.3569V16.8427Z" fill="#D8D8D8"/>
<path fill-rule="evenodd" clip-rule="evenodd" d="M1.96875 4.625C1.96875 4.29688 2.25586 3.96875 2.625 3.96875H19C19.3281 3.96875 19.6562 4.29688 19.6562 4.625V8.45154C20.3633 8.70032 21.0248 9.04562 21.625 9.47162V4.625C21.625 3.18945 20.4355 2 19 2H2.625C1.14844 2 0 3.18945 0 4.625V15.125C0 16.6016 1.14844 17.75 2.625 17.75H3.9375H8.20312H9.19199C9.0663 17.1868 9 16.6011 9 16C9 12.8897 10.775 10.194 13.3672 8.87046L12.6016 7.70117C12.3965 7.45508 12.1094 7.25 11.7812 7.25C11.4121 7.25 11.125 7.45508 10.9199 7.70117L7.51562 12.9102L6.32617 11.2695C6.12109 11.0234 5.83398 10.8594 5.54688 10.8594C5.21875 10.8594 4.93164 11.0234 4.72656 11.2695L1.96875 15.0147V4.625ZM7.875 7.25C7.875 6.55273 7.25977 5.9375 6.5625 5.9375C5.82422 5.9375 5.25 6.55273 5.25 7.25C5.25 7.98828 5.82422 8.5625 6.5625 8.5625C7.25977 8.5625 7.875 7.98828 7.875 7.25Z" fill="#D8D8D8"/>
</svg>
