<svg width="32" height="32" viewBox="0 0 32 32" fill="none" xmlns="http://www.w3.org/2000/svg">
<path d="M6.78711 16.3633C6.58203 16.1582 6.5 15.9121 6.5 15.625C6.5 15.3789 6.58203 15.1328 6.78711 14.9277L14.0059 8.03711C14.416 7.66797 15.0312 7.66797 15.4004 8.07812C15.7695 8.44727 15.7695 9.10352 15.3594 9.47266L9.9043 14.6406H23.8906C24.4238 14.6406 24.875 15.0918 24.875 15.625C24.875 16.1992 24.4238 16.6094 23.8906 16.6094H9.9043L15.3594 21.8184C15.7695 22.1875 15.7695 22.8027 15.4004 23.2129C15.0312 23.623 14.416 23.623 14.0059 23.2539L6.78711 16.3633Z" fill="#D8D8D8"/>
</svg>
