<svg width="20" height="20" viewBox="0 0 20 20" fill="none" xmlns="http://www.w3.org/2000/svg">
<circle cx="10" cy="10" r="9" fill="#9E9E9E" stroke="#282828" stroke-width="2"/>
<path d="M6.24671 6.22186C6.54276 5.92605 7.03618 5.92605 7.33224 6.22186L9.98355 8.87017L12.6349 6.22186C12.9638 5.92605 13.4572 5.92605 13.7533 6.22186C14.0822 6.55053 14.0822 7.04355 13.7533 7.33936L11.102 9.98767L13.7533 12.636C14.0822 12.9647 14.0822 13.4577 13.7533 13.7535C13.4572 14.0822 12.9638 14.0822 12.6349 13.7535L9.98355 11.1052L7.33224 13.7535C7.03618 14.0822 6.54276 14.0822 6.24671 13.7535C5.91776 13.4577 5.91776 12.9647 6.24671 12.636L8.89803 9.98767L6.24671 7.33936C5.91776 7.04355 5.91776 6.55053 6.24671 6.22186Z" fill="white"/>
</svg>
