<svg width="20" height="20" viewBox="0 0 20 20" fill="none" xmlns="http://www.w3.org/2000/svg">
<path fill-rule="evenodd" clip-rule="evenodd" d="M10 17.5C14.1421 17.5 17.5 14.1421 17.5 10C17.5 5.85786 14.1421 2.5 10 2.5C5.85786 2.5 2.5 5.85786 2.5 10C2.5 14.1421 5.85786 17.5 10 17.5ZM8.3455 13.5485C8.85487 13.8142 9.41268 13.947 10.0189 13.947C10.8439 13.947 11.5392 13.7204 12.1049 13.2673C12.4167 13.0175 12.7281 12.4718 12.9447 12.0324C13.1124 11.6922 12.9193 11.2966 12.5549 11.1914L12.4117 11.1501C12.0881 11.0567 11.7488 11.23 11.6048 11.5345C11.4858 11.7861 11.3375 12.0556 11.2002 12.1798C10.9064 12.4454 10.5127 12.5782 10.0189 12.5782C9.67518 12.5782 9.36112 12.5017 9.07675 12.3485C8.79237 12.1954 8.56581 11.9657 8.39706 11.6595C8.22831 11.3532 8.14393 10.9845 8.14393 10.5532V9.35322C8.14393 8.92197 8.22831 8.55322 8.39706 8.24697C8.56581 7.94072 8.79237 7.71104 9.07675 7.55791C9.36112 7.40479 9.67518 7.32822 10.0189 7.32822C10.5127 7.32822 10.9064 7.46104 11.2002 7.72666C11.3375 7.85087 11.4858 8.1203 11.6048 8.37196C11.7488 8.67645 12.0881 8.8497 12.4117 8.75632L12.5549 8.715C12.9193 8.60984 13.1124 8.21421 12.9447 7.87402C12.7281 7.43464 12.4167 6.88897 12.1049 6.63916C11.5392 6.18604 10.8439 5.95947 10.0189 5.95947C9.41268 5.95947 8.85487 6.09229 8.3455 6.35791C7.83612 6.62354 7.42987 7.00947 7.12675 7.51572C6.82362 8.02197 6.67206 8.61572 6.67206 9.29697V10.6095C6.67206 11.297 6.82362 11.8923 7.12675 12.3954C7.42987 12.8985 7.83612 13.2829 8.3455 13.5485Z" fill="#797979"/>
</svg>
