<svg width="32" height="32" viewBox="0 0 32 32" fill="none" xmlns="http://www.w3.org/2000/svg">
<path d="M22.1523 21.5312C23.6289 20.0137 24.5312 17.9219 24.5312 15.625C24.5312 10.9492 20.6758 7.09375 16 7.09375C11.2832 7.09375 7.46875 10.9492 7.46875 15.625C7.46875 17.9219 8.33008 20.0137 9.80664 21.5312C10.5859 19.6035 12.4727 18.25 14.6875 18.25H17.3125C19.4863 18.25 21.373 19.6035 22.1523 21.5312ZM20.5117 22.8848C20.2246 21.3672 18.8711 20.2188 17.3125 20.2188H14.6875C13.0879 20.2188 11.7344 21.3672 11.4473 22.8848C12.7598 23.7051 14.3184 24.1562 16 24.1562C17.6406 24.1562 19.1992 23.7051 20.5117 22.8848ZM16 26.125C12.2266 26.125 8.78125 24.1562 6.89453 20.875C5.00781 17.6348 5.00781 13.6562 6.89453 10.375C8.78125 7.13477 12.2266 5.125 16 5.125C19.7324 5.125 23.1777 7.13477 25.0645 10.375C26.9512 13.6562 26.9512 17.6348 25.0645 20.875C23.1777 24.1562 19.7324 26.125 16 26.125ZM16 14.9688C16.5742 14.9688 17.1074 14.6816 17.3945 14.1484C17.6816 13.6562 17.6816 13.041 17.3945 12.5078C17.1074 12.0156 16.5742 11.6875 16 11.6875C15.3848 11.6875 14.8516 12.0156 14.5645 12.5078C14.2773 13.041 14.2773 13.6562 14.5645 14.1484C14.8516 14.6816 15.3848 14.9688 16 14.9688ZM12.3906 13.3281C12.3906 12.0566 13.0469 10.8672 14.1953 10.2109C15.3027 9.5957 16.6562 9.5957 17.8047 10.2109C18.9121 10.8672 19.6094 12.0566 19.6094 13.3281C19.6094 14.6406 18.9121 15.8301 17.8047 16.4863C16.6562 17.1016 15.3027 17.1016 14.1953 16.4863C13.0469 15.8301 12.3906 14.6406 12.3906 13.3281Z" fill="#D8D8D8"/>
</svg>
