<svg width="24" height="24" viewBox="0 0 24 24" fill="none" xmlns="http://www.w3.org/2000/svg">
<path d="M11.875 5.69531C9.56787 5.69531 7.47607 6.92578 6.30713 8.89453C5.16895 10.894 5.16895 13.3242 6.30713 15.293C7.47607 17.2925 9.56787 18.4922 11.875 18.4922C14.1514 18.4922 16.2432 17.2925 17.4121 15.293C18.5503 13.3242 18.5503 10.894 17.4121 8.89453C16.2432 6.92578 14.1514 5.69531 11.875 5.69531ZM11.875 19.9688C9.04492 19.9688 6.46094 18.4922 5.0459 16.0312C3.63086 13.6011 3.63086 10.6172 5.0459 8.15625C6.46094 5.72607 9.04492 4.21875 11.875 4.21875C14.6743 4.21875 17.2583 5.72607 18.6733 8.15625C20.0884 10.6172 20.0884 13.6011 18.6733 16.0312C17.2583 18.4922 14.6743 19.9688 11.875 19.9688ZM10.6445 14.5547H11.3828V12.5859H10.6445C10.2139 12.5859 9.90625 12.2783 9.90625 11.8477C9.90625 11.4478 10.2139 11.1094 10.6445 11.1094H12.1211C12.521 11.1094 12.8594 11.4478 12.8594 11.8477V14.5547H13.1055C13.5054 14.5547 13.8438 14.8931 13.8438 15.293C13.8438 15.7236 13.5054 16.0312 13.1055 16.0312H10.6445C10.2139 16.0312 9.90625 15.7236 9.90625 15.293C9.90625 14.8931 10.2139 14.5547 10.6445 14.5547ZM11.875 10.125C11.3213 10.125 10.8906 9.69434 10.8906 9.14062C10.8906 8.61768 11.3213 8.15625 11.875 8.15625C12.3979 8.15625 12.8594 8.61768 12.8594 9.14062C12.8594 9.69434 12.3979 10.125 11.875 10.125Z" fill="#C6A9FF"/>
</svg>
