<svg width="24" height="24" viewBox="0 0 24 24" fill="none" xmlns="http://www.w3.org/2000/svg">
<g clip-path="url(#clip0_9066_38755)">
<path d="M9.84375 2.25H17.1562V4.6875C17.1562 5.36162 17.7009 5.90625 18.375 5.90625H20.8125V15.6562C20.8125 17.0007 19.7194 18.0938 18.375 18.0938H9.84375C8.49932 18.0938 7.40625 17.0007 7.40625 15.6562V4.6875C7.40625 3.34307 8.49932 2.25 9.84375 2.25Z" fill="#C6A9FF"/>
<path opacity="0.7" d="M17.1562 2.25V4.6875C17.1562 5.36162 17.7009 5.90625 18.375 5.90625H20.8125L17.1562 2.25ZM5.57812 6.82031C5.57812 6.31377 5.17061 5.90625 4.66406 5.90625C4.15752 5.90625 3.75 6.31377 3.75 6.82031V16.5703C3.75 19.4306 6.06943 21.75 8.92969 21.75H16.2422C16.7487 21.75 17.1562 21.3425 17.1562 20.8359C17.1562 20.3294 16.7487 19.9219 16.2422 19.9219H8.92969C7.07871 19.9219 5.57812 18.4213 5.57812 16.5703V6.82031Z" fill="#C6A9FF"/>
</g>
<defs>
<clipPath id="clip0_9066_38755">
<rect width="17.0625" height="19.5" fill="white" transform="translate(3.75 2.25)"/>
</clipPath>
</defs>
</svg>
