<svg width="24" height="24" viewBox="0 0 24 24" fill="none" xmlns="http://www.w3.org/2000/svg">
<path d="M18.7812 8.15625C18.7812 9.78662 17.4585 11.1094 15.8281 11.1094C14.936 11.1094 14.1362 10.7402 13.5825 10.0942L10.814 11.4785C10.8755 11.6938 10.9062 11.9092 10.9062 12.0938C10.9062 12.3091 10.8755 12.5244 10.814 12.7397L13.5825 14.0933C14.1362 13.478 14.936 13.0781 15.8281 13.0781C17.4585 13.0781 18.7812 14.4009 18.7812 16.0312C18.7812 17.6616 17.4585 18.9844 15.8281 18.9844C14.1978 18.9844 12.875 17.6616 12.875 16.0312C12.875 15.8467 12.875 15.6313 12.9365 15.416L10.168 14.0317C9.61426 14.6777 8.81445 15.0469 7.95312 15.0469C6.32275 15.0469 5 13.7241 5 12.0938C5 10.4634 6.32275 9.14062 7.95312 9.14062C8.81445 9.14062 9.61426 9.54053 10.168 10.1558L12.9365 8.80225C12.875 8.58691 12.875 8.37158 12.875 8.15625C12.875 6.52588 14.1978 5.20312 15.8281 5.20312C17.4585 5.20312 18.7812 6.52588 18.7812 8.15625ZM7.95312 13.5703C8.47607 13.5703 8.9375 13.2935 9.21436 12.832C9.49121 12.4014 9.49121 11.8169 9.21436 11.3555C8.9375 10.9248 8.47607 10.6172 7.95312 10.6172C7.39941 10.6172 6.93799 10.9248 6.66113 11.3555C6.38428 11.8169 6.38428 12.4014 6.66113 12.832C6.93799 13.2935 7.39941 13.5703 7.95312 13.5703ZM17.3047 8.15625C17.3047 7.6333 16.9971 7.17188 16.5664 6.89502C16.105 6.61816 15.5205 6.61816 15.0898 6.89502C14.6284 7.17188 14.3516 7.6333 14.3516 8.15625C14.3516 8.70996 14.6284 9.17139 15.0898 9.44824C15.5205 9.7251 16.105 9.7251 16.5664 9.44824C16.9971 9.17139 17.3047 8.70996 17.3047 8.15625ZM15.8281 17.5078C16.3511 17.5078 16.8125 17.231 17.0894 16.7695C17.3662 16.3389 17.3662 15.7544 17.0894 15.293C16.8125 14.8623 16.3511 14.5547 15.8281 14.5547C15.2744 14.5547 14.813 14.8623 14.5361 15.293C14.2593 15.7544 14.2593 16.3389 14.5361 16.7695C14.813 17.231 15.2744 17.5078 15.8281 17.5078Z" fill="#D8D8D8"/>
</svg>
