<svg width="32" height="32" viewBox="0 0 32 32" fill="none" xmlns="http://www.w3.org/2000/svg">
<path fill-rule="evenodd" clip-rule="evenodd" d="M31.4581 20.144C31.8116 18.8223 32 17.4332 32 16C32 7.16344 24.8366 0 16 0C7.16344 0 0 7.16344 0 16C0 24.8366 7.16344 32 16 32C17.4334 32 18.8229 31.8115 20.1448 31.4579C18.6831 30.0084 17.7778 27.9986 17.7778 25.7773C17.7778 21.3591 21.3596 17.7773 25.7778 17.7773C27.9989 17.7773 30.0086 18.6825 31.4581 20.144Z" fill="#3B3B3B"/>
<path d="M21.9603 8.90971L6.36182 12.5806C5.6046 12.7974 5.40445 13.8025 6.11313 14.1497L11.0963 16.9793L19.0561 12.2884L13.0543 19.3128L14.9756 24.7116C15.2557 25.4184 16.219 25.4472 16.5125 24.6777L22.8363 9.95362C23.1104 9.40973 22.5951 8.79566 21.9603 8.90971Z" fill="#D8D8D8"/>
<path d="M32.0001 25.7779C32.0001 29.2143 29.2143 32.0001 25.7779 32.0001C22.3414 32.0001 19.5557 29.2143 19.5557 25.7779C19.5557 22.3414 22.3414 19.5557 25.7779 19.5557C29.2143 19.5557 32.0001 22.3414 32.0001 25.7779Z" fill="#9D75EC"/>
<path d="M25.7933 29.0524C25.2903 29.0524 24.8275 28.9423 24.4049 28.7219C23.9823 28.5015 23.6453 28.1826 23.3938 27.7652C23.1423 27.3478 23.0166 26.8539 23.0166 26.2836V25.1947C23.0166 24.6295 23.1423 24.1369 23.3938 23.7169C23.6453 23.2969 23.9823 22.9767 24.4049 22.7563C24.8275 22.536 25.2903 22.4258 25.7933 22.4258C26.4777 22.4258 27.0546 22.6137 27.5238 22.9897C27.7984 23.2096 28.0725 23.706 28.2527 24.0801C28.3722 24.3282 28.2322 24.6152 27.9676 24.6915L27.7189 24.7633C27.4839 24.8311 27.2371 24.7057 27.1352 24.4835C27.0326 24.2599 26.8975 24.0043 26.7733 23.8919C26.5296 23.6715 26.2029 23.5613 25.7933 23.5613C25.5081 23.5613 25.2475 23.6249 25.0116 23.7519C24.7757 23.8789 24.5877 24.0695 24.4477 24.3236C24.3077 24.5776 24.2377 24.8836 24.2377 25.2413V26.2369C24.2377 26.5947 24.3077 26.9006 24.4477 27.1547C24.5877 27.4087 24.7757 27.5993 25.0116 27.7263C25.2475 27.8534 25.5081 27.9169 25.7933 27.9169C26.2029 27.9169 26.5296 27.8067 26.7733 27.5863C26.8975 27.474 27.0326 27.2183 27.1352 26.9947C27.2371 26.7725 27.4839 26.6471 27.7189 26.7149L27.9676 26.7867C28.2322 26.8631 28.3722 27.1501 28.2527 27.3981C28.0725 27.7722 27.7984 28.2686 27.5238 28.4886C27.0546 28.8645 26.4777 29.0524 25.7933 29.0524Z" fill="#EDE5FE"/>
</svg>
