<svg width="24" height="24" viewBox="0 0 24 24" fill="none" xmlns="http://www.w3.org/2000/svg">
<path d="M2.40015 5.99961C2.40015 4.67586 3.4764 3.59961 4.80015 3.59961H19.2001C20.5239 3.59961 21.6001 4.67586 21.6001 5.99961V17.9996C21.6001 19.3234 20.5239 20.3996 19.2001 20.3996H4.80015C3.4764 20.3996 2.40015 19.3234 2.40015 17.9996V5.99961ZM14.5426 9.99336C14.3739 9.74586 14.0964 9.59961 13.8001 9.59961C13.5039 9.59961 13.2226 9.74586 13.0576 9.99336L9.79515 14.7784L8.8014 13.5371C8.6289 13.3234 8.37015 13.1996 8.10015 13.1996C7.83015 13.1996 7.56765 13.3234 7.3989 13.5371L4.9989 16.5371C4.7814 16.8071 4.74015 17.1784 4.89015 17.4896C5.04015 17.8009 5.35515 17.9996 5.70015 17.9996H9.30015H10.5001H18.3001C18.6339 17.9996 18.9414 17.8159 19.0951 17.5196C19.2489 17.2234 19.2301 16.8671 19.0426 16.5934L14.5426 9.99336ZM6.60015 9.59961C7.07754 9.59961 7.53537 9.40997 7.87294 9.0724C8.2105 8.73484 8.40015 8.277 8.40015 7.79961C8.40015 7.32222 8.2105 6.86438 7.87294 6.52682C7.53537 6.18925 7.07754 5.99961 6.60015 5.99961C6.12276 5.99961 5.66492 6.18925 5.32735 6.52682C4.98979 6.86438 4.80015 7.32222 4.80015 7.79961C4.80015 8.277 4.98979 8.73484 5.32735 9.0724C5.66492 9.40997 6.12276 9.59961 6.60015 9.59961Z" fill="#C6A9FF"/>
<path opacity="0.4" d="M14.5427 9.99336C14.3739 9.74586 14.0964 9.59961 13.8002 9.59961C13.5039 9.59961 13.2227 9.74586 13.0577 9.99336L9.79519 14.7784L8.80144 13.5371C8.62894 13.3234 8.37019 13.1996 8.10019 13.1996C7.83019 13.1996 7.56769 13.3234 7.39894 13.5371L4.99894 16.5371C4.78144 16.8071 4.74019 17.1784 4.89019 17.4896C5.04019 17.8009 5.35519 17.9996 5.70019 17.9996H9.30019H10.5002H18.3002C18.6339 17.9996 18.9414 17.8159 19.0952 17.5196C19.2489 17.2234 19.2302 16.8671 19.0427 16.5934L14.5427 9.99336Z" fill="#C6A9FF"/>
</svg>
