<svg width="24" height="24" viewBox="0 0 24 24" fill="none" xmlns="http://www.w3.org/2000/svg">
<path fill-rule="evenodd" clip-rule="evenodd" d="M15.7812 9.00293V6.5625H12.5C11.7617 6.5625 11.1875 5.98828 11.1875 5.25V1.96875H4.625C4.25586 1.96875 3.96875 2.29688 3.96875 2.625V18.375C3.96875 18.7441 4.25586 19.0312 4.625 19.0312H8.26015C8.44283 19.7293 8.71744 20.3901 9.07026 21H4.625C3.14844 21 2 19.8516 2 18.375V2.625C2 1.18945 3.14844 0 4.625 0H11.3926C12.0898 0 12.7461 0.287109 13.2383 0.779297L16.9707 4.51172C17.4629 5.00391 17.75 5.66016 17.75 6.35742V9.19199C17.1868 9.0663 16.6011 9 16 9C15.9269 9 15.8539 9.00098 15.7812 9.00293Z" fill="#D8D8D8"/>
<circle cx="16" cy="17" r="6.125" stroke="#D8D8D8" stroke-width="1.75"/>
<path fill-rule="evenodd" clip-rule="evenodd" d="M15.1572 17.8427H13.6429C13.1574 17.8427 12.8 17.4853 12.8 16.9998C12.8 16.5466 13.152 16.1569 13.6429 16.1569H15.1572V14.6427C15.1572 14.1895 15.5092 13.7998 16 13.7998C16.4587 13.7998 16.8429 14.184 16.8429 14.6427V16.1569H18.3572C18.8159 16.1569 19.2 16.5411 19.2 16.9998C19.2 17.4907 18.8104 17.8427 18.3572 17.8427H16.8429V19.3569C16.8429 19.8478 16.4532 20.1998 16 20.1998C15.5146 20.1998 15.1572 19.8424 15.1572 19.3569V17.8427Z" fill="#D8D8D8"/>
</svg>
