<svg width="32" height="32" viewBox="0 0 32 32" fill="none" xmlns="http://www.w3.org/2000/svg">
<circle cx="16" cy="16" r="9.5" stroke="#D8D8D8" stroke-width="2"/>
<path d="M16.0263 21.5253C15.1775 21.5253 14.3966 21.3393 13.6834 20.9675C12.9703 20.5956 12.4016 20.0575 11.9772 19.3531C11.5528 18.6487 11.3406 17.8153 11.3406 16.8528V15.0153C11.3406 14.0615 11.5528 13.2303 11.9772 12.5215C12.4016 11.8128 12.9703 11.2725 13.6834 10.9006C14.3966 10.5287 15.1775 10.3428 16.0263 10.3428C17.1813 10.3428 18.1547 10.66 18.9466 11.2943C19.4099 11.6655 19.8725 12.5032 20.1766 13.1344C20.3782 13.553 20.1419 14.0374 19.6955 14.1662L19.2757 14.2873C18.8793 14.4017 18.4627 14.1902 18.2907 13.8152C18.1177 13.4379 17.8897 13.0065 17.68 12.8168C17.2688 12.445 16.7175 12.259 16.0263 12.259C15.545 12.259 15.1053 12.3662 14.7072 12.5806C14.3091 12.795 13.9919 13.1165 13.7556 13.5453C13.5194 13.974 13.4013 14.4903 13.4013 15.094V16.774C13.4013 17.3778 13.5194 17.894 13.7556 18.3228C13.9919 18.7515 14.3091 19.0731 14.7072 19.2875C15.1053 19.5018 15.545 19.609 16.0263 19.609C16.7175 19.609 17.2688 19.4231 17.68 19.0512C17.8897 18.8616 18.1177 18.4301 18.2907 18.0529C18.4627 17.6778 18.8793 17.4663 19.2757 17.5807L19.6955 17.7019C20.1419 17.8307 20.3782 18.315 20.1766 18.7336C19.8725 19.3648 19.4099 20.2025 18.9466 20.5737C18.1547 21.2081 17.1813 21.5253 16.0263 21.5253Z" fill="#D8D8D8"/>
</svg>
