<svg width="33" height="32" viewBox="0 0 33 32" fill="none" xmlns="http://www.w3.org/2000/svg">
<path d="M9.625 6.4375H22.75C24.1855 6.4375 25.375 7.62695 25.375 9.0625V22.1875C25.375 23.6641 24.1855 24.8125 22.75 24.8125H9.625C8.14844 24.8125 7 23.6641 7 22.1875V9.0625C7 7.62695 8.14844 6.4375 9.625 6.4375ZM20.8223 13.6973H20.7812C21.1914 13.3281 21.1914 12.7129 20.7812 12.3027C20.4121 11.9336 19.7969 11.9336 19.4277 12.3027L14.875 16.8965L12.9473 14.9688C12.5371 14.5586 11.9219 14.5586 11.5527 14.9688C11.1426 15.3379 11.1426 15.9531 11.5527 16.3223L14.1777 18.9473C14.5469 19.3574 15.1621 19.3574 15.5723 18.9473L20.8223 13.6973Z" fill="#C6A9FF"/>
</svg>
