<svg width="24" height="24" viewBox="0 0 24 24" fill="none" xmlns="http://www.w3.org/2000/svg">
<path d="M10.1216 5.20312H13.5977C14.3667 5.20312 15.0127 5.69531 15.2588 6.40283L15.5049 7.17188H17.7812C18.8579 7.17188 19.75 8.06396 19.75 9.14062V17.0156C19.75 18.123 18.8579 18.9844 17.7812 18.9844H5.96875C4.86133 18.9844 4 18.123 4 17.0156V9.14062C4 8.06396 4.86133 7.17188 5.96875 7.17188H8.21436L8.49121 6.40283L9.16797 6.61816L8.49121 6.40283C8.70654 5.69531 9.3833 5.20312 10.1216 5.20312ZM9.87549 6.86426L9.44482 8.15625C9.35254 8.46387 9.07568 8.64844 8.7373 8.64844H5.96875C5.69189 8.64844 5.47656 8.89453 5.47656 9.14062V17.0156C5.47656 17.2925 5.69189 17.5078 5.96875 17.5078H17.7812C18.0273 17.5078 18.2734 17.2925 18.2734 17.0156V9.14062C18.2734 8.89453 18.0273 8.64844 17.7812 8.64844H14.9819C14.6743 8.64844 14.3667 8.46387 14.2744 8.15625L13.8438 6.86426C13.813 6.77197 13.7207 6.67969 13.6284 6.67969H10.1216C9.99854 6.67969 9.90625 6.77197 9.87549 6.86426ZM11.875 16.5234C10.6138 16.5234 9.50635 15.8774 8.89111 14.8008C8.24512 13.7549 8.24512 12.4321 8.89111 11.3555C9.50635 10.3096 10.6138 9.63281 11.875 9.63281C13.1055 9.63281 14.2129 10.3096 14.8281 11.3555C15.4741 12.4321 15.4741 13.7549 14.8281 14.8008C14.2129 15.8774 13.1055 16.5234 11.875 16.5234ZM9.90625 13.0781C9.90625 13.7856 10.2754 14.4316 10.8906 14.8008C11.4751 15.1392 12.2441 15.1392 12.8594 14.8008C13.4438 14.4316 13.8438 13.7856 13.8438 13.0781C13.8438 12.4014 13.4438 11.7554 12.8594 11.3862C12.2441 11.0479 11.4751 11.0479 10.8906 11.3862C10.2754 11.7554 9.90625 12.4014 9.90625 13.0781Z" fill="#D8D8D8"/>
</svg>
