<svg width="125" height="16" viewBox="0 0 125 16" fill="none" xmlns="http://www.w3.org/2000/svg">
<path d="M7.42188 0.6875H9.14062V8.125C9.14062 10.5 7.35938 12.1875 4.65625 12.1875C1.92188 12.1875 0.15625 10.5 0.15625 8.125V0.6875H1.875V7.98438C1.875 9.51562 2.9375 10.625 4.65625 10.625C6.35938 10.625 7.42188 9.51562 7.42188 7.98438V0.6875ZM16.0781 5.82812C15.9219 5.15625 15.3906 4.71875 14.4688 4.71875C13.5156 4.71875 12.8281 5.21875 12.8438 5.85938C12.8281 6.35938 13.2344 6.71875 14.1719 6.9375L15.5156 7.25C17.0781 7.59375 17.8281 8.34375 17.8438 9.54688C17.8281 11.0781 16.5469 12.1719 14.375 12.1719C12.3438 12.1719 11.125 11.2656 10.9219 9.6875H12.625C12.7656 10.4531 13.3594 10.8281 14.3594 10.8281C15.4375 10.8281 16.125 10.3906 16.1406 9.67188C16.125 9.125 15.7188 8.76562 14.8281 8.5625L13.5 8.28125C11.9688 7.9375 11.1719 7.125 11.1719 5.95312C11.1719 4.4375 12.4844 3.40625 14.4531 3.40625C16.3438 3.40625 17.5156 4.375 17.6875 5.82812H16.0781ZM23.125 12.1719C20.625 12.1719 19.0938 10.4531 19.0938 7.8125C19.0938 5.20312 20.6562 3.40625 23.0156 3.40625C24.9531 3.40625 26.7812 4.60938 26.7812 7.67188V8.26562H20.75C20.7969 9.875 21.7422 10.7969 23.1406 10.7969C24.0938 10.7969 24.7031 10.3906 24.9844 9.875H26.6719C26.2969 11.25 24.9844 12.1719 23.125 12.1719ZM20.7656 7.01562H25.1406C25.1406 5.71875 24.3125 4.78125 23.0312 4.78125C21.6953 4.78125 20.8281 5.8125 20.7656 7.01562ZM33.2031 5.82812C33.0469 5.15625 32.5156 4.71875 31.5938 4.71875C30.6406 4.71875 29.9531 5.21875 29.9688 5.85938C29.9531 6.35938 30.3594 6.71875 31.2969 6.9375L32.6406 7.25C34.2031 7.59375 34.9531 8.34375 34.9688 9.54688C34.9531 11.0781 33.6719 12.1719 31.5 12.1719C29.4688 12.1719 28.25 11.2656 28.0469 9.6875H29.75C29.8906 10.4531 30.4844 10.8281 31.4844 10.8281C32.5625 10.8281 33.25 10.3906 33.2656 9.67188C33.25 9.125 32.8438 8.76562 31.9531 8.5625L30.625 8.28125C29.0938 7.9375 28.2969 7.125 28.2969 5.95312C28.2969 4.4375 29.6094 3.40625 31.5781 3.40625C33.4688 3.40625 34.6406 4.375 34.8125 5.82812H33.2031ZM40.4402 12V0.685082H42.7882V5.37017H47.6888V0.685082H50.0424V12H47.6888V7.30939H42.7882V12H40.4402ZM55.7514 12.1657C53.1492 12.1657 51.5525 10.4862 51.5525 7.79558C51.5525 5.1768 53.1713 3.40331 55.6575 3.40331C57.884 3.40331 59.6409 4.81215 59.6409 7.70718V8.35359H53.8398C53.8398 9.64088 54.6022 10.4309 55.7901 10.4309C56.5856 10.4309 57.1492 10.0884 57.3812 9.58564H59.5801C59.2486 11.1492 57.8453 12.1657 55.7514 12.1657ZM53.8398 6.90608H57.4586C57.4475 5.87845 56.7348 5.1326 55.7017 5.1326C54.6354 5.1326 53.895 5.9337 53.8398 6.90608ZM62.2183 15.1823C61.7708 15.1823 61.3454 15.1713 61.0415 15.1436L61.047 13.3425C61.3399 13.3646 61.6935 13.3702 61.9807 13.3702C62.4448 13.3702 62.815 13.3315 63.0968 12.5967L63.2294 12.2376L60.1796 3.51381H62.6161L64.3951 9.76796H64.4835L66.2791 3.51381H68.7266L65.4172 12.9337C64.9366 14.3039 64.0084 15.1823 62.2183 15.1823ZM73.3846 15.3591C71.0476 15.3591 69.6056 14.3094 69.4675 12.6961H71.7492C71.8763 13.3812 72.5172 13.6851 73.4343 13.6851C74.5117 13.6851 75.2299 13.232 75.2299 12.0552V10.4917H75.1304C74.8155 11.1878 74.0697 11.8785 72.705 11.8785C70.7879 11.8785 69.252 10.5304 69.252 7.70718C69.252 4.83425 70.8266 3.40331 72.6995 3.40331C74.1304 3.40331 74.81 4.25414 75.1249 4.93923H75.2188V3.51381H77.5061V12.0884C77.5061 14.2597 75.7989 15.3591 73.3846 15.3591ZM71.6166 7.72928C71.6166 9.20442 72.252 10.1381 73.4288 10.1381C74.5724 10.1381 75.2354 9.23757 75.2354 7.72928C75.2354 6.22652 74.5835 5.25414 73.4288 5.25414C72.2409 5.25414 71.6166 6.27072 71.6166 7.72928ZM83.1576 12.1657C80.5554 12.1657 78.9587 10.4862 78.9587 7.79558C78.9587 5.1768 80.5775 3.40331 83.0637 3.40331C85.2902 3.40331 87.0471 4.81215 87.0471 7.70718V8.35359H81.246C81.246 9.64088 82.0085 10.4309 83.1963 10.4309C83.9919 10.4309 84.5554 10.0884 84.7875 9.58564H86.9864C86.6549 11.1492 85.2516 12.1657 83.1576 12.1657ZM81.246 6.90608H84.8648C84.8538 5.87845 84.1411 5.1326 83.1079 5.1326C82.0416 5.1326 81.3013 5.9337 81.246 6.90608ZM90.8092 7.0884V12H88.4943V3.51381H90.6987V5.00552H90.7982C91.1794 4.0221 92.0855 3.40331 93.3507 3.40331C95.1186 3.40331 96.2733 4.61326 96.2733 6.59668V12H93.9584V7C93.9639 5.9558 93.3949 5.32597 92.4391 5.32597C91.4722 5.32597 90.8092 5.97238 90.8092 7.0884ZM103.188 12H101.359L105.422 0.6875H107.406L111.484 12H109.656L108.625 9.01562H104.219L103.188 12ZM104.719 7.57812H108.125L106.453 2.75H106.375L104.719 7.57812ZM112.922 12V0.6875H116.953C119.578 0.6875 120.875 2.26562 120.875 4.35938C120.875 6.4375 119.578 8.03125 116.953 8.03125H114.641V12H112.922ZM114.641 6.5625H116.781C118.453 6.5625 119.141 5.625 119.141 4.35938C119.141 3.07812 118.453 2.15625 116.781 2.15625H114.641V6.5625ZM124.406 0.6875V12H122.688V0.6875H124.406Z" fill="#26282B"/>
</svg>
