<svg width="46" height="14" viewBox="0 0 46 14" fill="none" xmlns="http://www.w3.org/2000/svg">
<path d="M44.188 10.0994V6.81056C44.188 5.82463 43.5855 5.22821 42.8004 5.22821C42.4474 5.22821 42.061 5.31759 41.7402 5.52559L42.6089 4.03484C42.777 4.00063 42.9396 3.98242 43.0855 3.98242C44.6301 3.98242 45.5466 5.00697 45.5338 6.73221V10.0988H44.188V10.0994ZM39.812 4.75263V10.0994H41.1573V3.98297L39.812 4.75263Z" fill="black"/>
<path d="M2.33304 1.16211H0.987793V10.0995H2.33304V1.16211ZM8.75194 1.16211H7.40669V10.0995H8.75194V1.16211Z" fill="black"/>
<path d="M6.7212 5.34448L3.58414 3.54972C3.36141 3.42227 3.08301 3.58172 3.08301 3.83661V7.42613C3.08301 7.68103 3.36141 7.84048 3.58414 7.71303L6.7212 5.91827C6.94392 5.79027 6.94392 5.47193 6.7212 5.34448Z" fill="#7559FF"/>
<path d="M19.2843 7.67409L20.0661 9.01589L17.6802 13.1102H16.1166L18.5026 9.01589L15.6807 4.17285H17.2442L19.2843 7.67409ZM22.888 4.17285H21.3245L19.2843 7.67409H20.8479L22.888 4.17285Z" fill="black"/>
<path d="M32.4119 4.95886L32.4113 6.30286H28.443L29.2247 4.96107L32.4119 4.95886ZM27.8951 8.95169C26.0442 8.95169 24.5436 7.46479 24.5436 5.63086C24.5436 3.79693 26.0442 2.31004 27.8951 2.31004C28.3722 2.31004 28.8266 2.40935 29.2381 2.58866L29.8973 1.45707C29.2943 1.14755 28.6145 0.972656 27.8951 0.972656C25.2987 0.972656 23.1934 3.05817 23.1934 5.63141C23.1934 8.20466 25.2981 10.2902 27.8951 10.2902C29.6206 10.2902 31.1207 9.29541 31.884 7.83279L30.9931 6.30397C30.6964 7.81293 29.4202 8.95169 27.8951 8.95169Z" fill="black"/>
<path d="M14.0215 8.60519C13.6897 8.87664 13.2637 9.03995 12.7994 9.03995C11.9485 9.03995 11.2264 8.49154 10.9741 7.73236H15.9247C15.962 7.53926 15.9815 7.34064 15.9815 7.1365C15.9815 5.39526 14.5566 3.9834 12.7994 3.9834C11.8962 3.9834 11.0805 4.35636 10.5014 4.95498L11.1774 6.11581C11.5181 5.58505 12.1173 5.23305 12.7994 5.23305C13.649 5.23305 14.3701 5.77981 14.6235 6.53788H9.67454C9.63723 6.73154 9.61719 6.93181 9.61719 7.1365C9.61719 8.87774 11.0421 10.2896 12.7994 10.2896C13.4926 10.2896 14.134 10.07 14.6563 9.69705L14.0215 8.60519Z" fill="black"/>
<path d="M37.1817 8.60519C36.8498 8.87664 36.4239 9.03995 35.9595 9.03995C35.1087 9.03995 34.3865 8.49154 34.1343 7.73236H39.0849C39.1222 7.53926 39.1417 7.34064 39.1417 7.1365C39.1417 5.39526 37.7168 3.9834 35.9595 3.9834C35.0564 3.9834 34.2406 4.35636 33.6616 4.95498L34.3375 6.11581C34.6783 5.58505 35.2774 5.23305 35.9595 5.23305C36.8092 5.23305 37.5303 5.77981 37.7836 6.53788H32.8347C32.7974 6.73154 32.7773 6.93181 32.7773 7.1365C32.7773 8.87774 34.2022 10.2896 35.9595 10.2896C36.6527 10.2896 37.2942 10.07 37.8165 9.69705L37.1817 8.60519Z" fill="black"/>
</svg>
