<svg width="24" height="25" viewBox="0 0 24 25" fill="none" xmlns="http://www.w3.org/2000/svg">
<path d="M8.96875 10.8125C8.84375 10.9375 8.65625 11 8.5 11H5.75C5.59375 11 5.5 11.125 5.5 11.25V13.75C5.5 13.9062 5.59375 14 5.75 14H8.5C8.65625 14 8.84375 14.0938 8.96875 14.2188L12.5 17.3125V7.71875L8.96875 10.8125ZM13.0625 5.5C13.5625 5.5 14 5.9375 14 6.4375V18.5938C14 19.0938 13.5625 19.5 13.0625 19.5C12.8125 19.5 12.5938 19.4375 12.4375 19.2812L8.1875 15.5H5.75C4.78125 15.5 4 14.7188 4 13.75V11.25C4 10.3125 4.78125 9.5 5.75 9.5H8.1875L12.4375 5.75C12.5938 5.59375 12.8125 5.5 13.0625 5.5ZM18.7812 7.84375V7.875C20.125 8.96875 21 10.625 21 12.5312C21 14.4062 20.125 16.0625 18.7812 17.1875C18.4375 17.4375 17.9688 17.375 17.7188 17.0625C17.4688 16.75 17.5 16.2812 17.8125 16C18.8438 15.1875 19.5 13.9375 19.5 12.5C19.5 11.0938 18.8438 9.84375 17.8125 9.03125C17.5 8.75 17.4375 8.28125 17.7188 7.96875C17.9688 7.65625 18.4375 7.59375 18.7812 7.84375ZM16.875 10.1875C17.5625 10.75 18 11.5625 18 12.5C18 13.4688 17.5625 14.2812 16.875 14.8438C16.5625 15.0938 16.0938 15.0625 15.8125 14.75C15.5625 14.4062 15.625 13.9375 15.9375 13.6875C16.2812 13.4062 16.5 12.9688 16.5 12.5C16.5 12.0312 16.2812 11.625 15.9375 11.3438C15.625 11.0938 15.5625 10.625 15.8125 10.2812C16.0938 9.96875 16.5625 9.9375 16.875 10.1875Z" fill="#454C53"/>
</svg>
