<svg width="41" height="40" viewBox="0 0 41 40" fill="none" xmlns="http://www.w3.org/2000/svg">
<path opacity="0.4" fill-rule="evenodd" clip-rule="evenodd" d="M7.25 11.6848C7.25 10.0639 8.56916 8.75 10.1964 8.75H31.8036C33.4308 8.75 34.75 10.0639 34.75 11.6848V28.3152C34.75 29.9361 33.4308 31.25 31.8036 31.25H10.1964C8.56916 31.25 7.25 29.9361 7.25 28.3152V11.6848Z" fill="#6F3AD0"/>
<path d="M16.5 17C16.5 18.1935 16.9741 19.3381 17.818 20.182C18.6619 21.0259 19.8065 21.5 21 21.5C22.1935 21.5 23.3381 21.0259 24.182 20.182C25.0259 19.3381 25.5 18.1935 25.5 17C25.5 15.8065 25.0259 14.6619 24.182 13.818C23.3381 12.9741 22.1935 12.5 21 12.5C19.8065 12.5 18.6619 12.9741 17.818 13.818C16.9741 14.6619 16.5 15.8065 16.5 17Z" fill="white"/>
<path d="M13.125 28.5718C13.125 25.9081 15.9305 23.75 19.3934 23.75H22.6067C26.0695 23.75 28.875 25.9081 28.875 28.5718C28.875 29.0153 28.875 29.0375 28.875 29.375H13.125C13.125 28.999 13.125 29.0153 13.125 28.5718Z" fill="white"/>
<path d="M32.2283 17.12L32.2319 17.1318L32.236 17.1434C32.3264 17.4007 32.4681 17.651 32.6924 17.8385C32.927 18.0346 33.2079 18.125 33.5 18.125C33.7921 18.125 34.073 18.0346 34.3076 17.8385C34.5319 17.651 34.6736 17.4007 34.764 17.1434L34.7681 17.1318L34.7717 17.12L35.5443 14.6083C35.8284 14.0028 36.0883 13.6811 36.5643 13.531L38.0788 13.2196L38.0943 13.2164L38.1096 13.2125C38.7322 13.0513 39.125 12.4731 39.125 11.8616C39.125 11.2501 38.7322 10.6719 38.1096 10.5107L38.0943 10.5068L38.0788 10.5036L36.558 10.1909C36.1939 10.0862 36.0165 9.96305 35.9026 9.84218C35.7775 9.70952 35.6812 9.53153 35.5486 9.21804L34.7729 6.63421L34.7546 6.57309L34.7242 6.51694C34.5246 6.14732 34.2154 5.74842 33.7304 5.64757L33.6953 5.64027L33.6596 5.63704L33.5564 5.62768L33.5358 5.62581L33.5151 5.62531C32.8939 5.61035 32.5037 6.09474 32.2758 6.51694L32.2454 6.57309L32.2271 6.63421L31.4514 9.21804C31.3188 9.53153 31.2225 9.70952 31.0974 9.84218C30.9835 9.96305 30.8061 10.0862 30.442 10.1909L28.9212 10.5036L28.9057 10.5068L28.8904 10.5107C28.2678 10.6719 27.875 11.2501 27.875 11.8616C27.875 12.4731 28.2678 13.0513 28.8904 13.2125L28.9057 13.2164L28.9212 13.2196L30.4357 13.531C30.9117 13.6811 31.1716 14.0028 31.4557 14.6083L32.2283 17.12Z" fill="#6F3AD0" stroke="white" stroke-width="1.25"/>
</svg>
