<svg width="24" height="24" viewBox="0 0 24 24" fill="none" xmlns="http://www.w3.org/2000/svg">
<path d="M7.79883 5.20312C8.90625 5.20312 9.98291 5.41846 10.7827 5.60303C11.1826 5.69531 11.4902 5.7876 11.7363 5.87988C11.7671 5.87988 11.7979 5.91064 11.8594 5.91064C11.8901 5.91064 11.9209 5.87988 11.9517 5.87988C12.1978 5.7876 12.5054 5.69531 12.9053 5.60303C13.7051 5.41846 14.7817 5.20312 15.9199 5.20312C17.6118 5.20312 19.2114 5.66455 19.8574 5.87988C20.3804 6.03369 20.7188 6.52588 20.7188 7.04883V16.6157C20.7188 17.4463 19.9189 18 19.2114 17.877C18.627 17.7539 17.6118 17.6309 16.166 17.6309C14.3511 17.6309 13.1514 18.3999 12.7207 18.7075C12.5054 18.8613 12.1978 18.9844 11.8286 18.9844C11.521 18.9844 11.2441 18.8921 10.998 18.7383C10.5366 18.4307 9.21387 17.6309 7.55273 17.6309C6.1377 17.6309 5.06104 17.7847 4.47656 17.877C3.73828 18 3 17.4463 3 16.6465V7.04883C3 6.52588 3.30762 6.03369 3.83057 5.87988C4.47656 5.66455 6.07617 5.20312 7.79883 5.20312ZM11.1211 7.2334C10.9365 7.17188 10.6904 7.11035 10.4136 7.04883C9.70605 6.86426 8.75244 6.67969 7.79883 6.67969C6.44531 6.67969 5.15332 7.01807 4.47656 7.2334V16.4004C5.15332 16.2773 6.22998 16.1543 7.55273 16.1543C9.0293 16.1543 10.3213 16.6772 11.1211 17.0771V7.2334ZM12.5977 17.0464C13.3667 16.6157 14.5664 16.1543 16.166 16.1543C17.5503 16.1543 18.5654 16.2773 19.2422 16.3696V7.2334C18.5347 7.01807 17.2427 6.67969 15.9199 6.67969C14.9355 6.67969 13.9819 6.86426 13.2744 7.04883C12.9976 7.11035 12.7822 7.17188 12.5977 7.2334V17.0464Z" fill="#454C53"/>
</svg>
