<svg width="70" height="24" viewBox="0 0 70 24" fill="none" xmlns="http://www.w3.org/2000/svg">
<path d="M24.6835 5.33398C24.3152 5.33398 24.0166 5.63242 24.0166 6.00047V15.3649C24.0166 15.7327 24.3152 16.0312 24.6835 16.0312H26.8024C28.0046 16.0312 29.0951 15.9062 29.7955 15.6882C30.2995 15.5322 30.8071 15.2022 31.3926 14.6489C31.8884 14.181 32.2783 13.5946 32.5509 12.9058C32.8327 12.1929 32.9701 11.441 32.9701 10.6073C32.9701 9.444 32.7249 8.44314 32.2199 7.54906C31.7616 6.73603 31.1563 6.15788 30.3135 5.72817C29.5394 5.33405 28.3884 5.33398 26.9317 5.33398H24.6835ZM64.6473 5.33398C64.4991 5.33398 64.3785 5.45404 64.3785 5.60247V15.7625C64.3785 15.911 64.4991 16.0314 64.6473 16.0314H69.7305C69.8784 16.0314 70.0002 15.911 70.0002 15.7625V14.5677C70.0002 14.4186 69.8784 14.2985 69.7305 14.2985H66.4115V5.60247C66.4115 5.45404 66.2906 5.33398 66.1427 5.33398H64.6473ZM26.0499 7.06689H27.0742C28.4354 7.06689 29.3683 7.33418 29.9274 7.88435C30.5921 8.53878 30.9146 9.41435 30.9146 10.5611C30.9146 11.3319 30.7674 12.0349 30.5012 12.5399C30.1803 13.1454 29.8101 13.5679 29.4307 13.7614C28.9088 14.0268 28.2517 14.2985 27.336 14.2985H26.0499V7.06689ZM38.575 7.59333C37.3671 7.59333 36.3898 7.99215 35.5887 8.81249C34.7869 9.63379 34.3976 10.6373 34.3976 11.88C34.3976 13.0929 34.7878 14.0743 35.5925 14.88C36.3959 15.6858 37.4082 16.0771 38.687 16.0771C39.5088 16.0771 40.2213 15.9327 40.804 15.6486C41.295 15.4096 41.731 15.0629 42.1012 14.6176C42.1546 14.5534 42.1746 14.4678 42.1558 14.3861C42.138 14.3047 42.0824 14.2364 42.0067 14.2011L40.804 13.6484C40.7092 13.6046 40.5956 13.6202 40.5155 13.6892C39.9786 14.1529 39.3582 14.3884 38.6718 14.3884C37.9861 14.3884 37.4655 14.2329 37.08 13.9135C36.6697 13.5731 36.442 13.2177 36.3373 12.7445H42.6015C42.7494 12.7445 42.8699 12.6253 42.8709 12.4772L42.8721 12.2119C42.8721 10.8268 42.4367 9.58833 41.6772 8.81249C40.8738 7.99215 39.8596 7.59333 38.575 7.59333ZM48.4772 7.59333C47.2683 7.59333 46.292 7.99215 45.4908 8.81249C44.6894 9.63379 44.2997 10.6373 44.2997 11.88C44.2997 13.0926 44.6903 14.0737 45.4947 14.88C46.298 15.6858 47.3103 16.0771 48.5892 16.0771C49.411 16.0771 50.1233 15.9327 50.706 15.6486C51.1967 15.4096 51.6331 15.0628 52.0033 14.6178C52.0564 14.5533 52.0774 14.4679 52.058 14.3865C52.0402 14.3048 51.9849 14.2364 51.9088 14.2011L50.706 13.6484C50.6106 13.6046 50.4973 13.6202 50.4175 13.6892C49.8797 14.1529 49.2596 14.3884 48.5739 14.3884C47.8882 14.3884 47.3675 14.233 46.9811 13.9139C46.5708 13.5732 46.3441 13.2174 46.2395 12.7445H52.5036C52.6518 12.7445 52.7715 12.6253 52.7721 12.4772L52.7743 12.2119C52.7743 10.8264 52.3388 9.5877 51.5794 8.81249C50.775 7.99215 49.7608 7.59333 48.4772 7.59333ZM59.072 7.59333C58.5835 7.59333 58.0889 7.69024 57.6773 7.86727C57.1977 8.0726 56.7569 8.36085 56.436 8.679L56.2449 8.83162L55.3836 8.02331H54.4794C54.3316 8.02331 54.2116 8.14318 54.2116 8.29097V18.7512C54.2116 18.8997 54.3319 19.0198 54.4804 19.0198H55.9756C56.1241 19.0198 56.2449 18.8994 56.2449 18.7507V14.8839L56.4351 15.0284C56.8444 15.4111 57.3733 15.6749 57.747 15.8294C58.1443 15.9934 58.5805 16.0773 59.0433 16.0773C60.0947 16.0773 60.9786 15.6806 61.7463 14.8657C62.5122 14.053 62.8852 13.0665 62.8852 11.8501C62.8852 10.615 62.5113 9.5839 61.7705 8.78612C61.0384 7.99439 60.1304 7.59333 59.072 7.59333ZM38.6765 9.25887C39.1669 9.25887 39.6377 9.41772 40.0747 9.73079C40.4589 10.0057 40.7387 10.4077 40.8802 10.8797L40.9117 11.011H36.3555L36.4026 10.8883C36.6742 10.2937 36.9226 9.91894 37.1618 9.74254C37.5943 9.42185 38.104 9.25887 38.6765 9.25887ZM48.578 9.25887C49.0687 9.25887 49.5398 9.41741 49.9762 9.73079C50.3607 10.0057 50.6408 10.4078 50.7817 10.8801L50.8139 11.011H46.258L46.3053 10.8881C46.5747 10.295 46.8228 9.92022 47.0626 9.74254C47.4964 9.42185 48.0055 9.25887 48.578 9.25887ZM58.6782 9.41572C59.3226 9.41572 59.8625 9.64336 60.2843 10.0934C60.706 10.5422 60.9207 11.126 60.9207 11.8281C60.9207 12.5353 60.7029 13.1249 60.2739 13.5814C59.8445 14.0381 59.3073 14.2701 58.6782 14.2701C58.0301 14.2701 57.4852 14.0419 57.0574 13.5931C56.6312 13.1434 56.4144 12.5471 56.4144 11.8209C56.4144 11.1083 56.6313 10.5237 57.0581 10.0819C57.4852 9.63983 58.0301 9.41572 58.6782 9.41572Z" fill="#042B48"/>
<path d="M13.0279 12.2731C12.1384 12.2731 11.4177 11.5528 11.4177 10.6639C11.4177 10.5701 11.4256 10.4782 11.4415 10.3889L7.59069 8.17296C7.3105 8.40943 6.94825 8.55214 6.55292 8.55214C5.66336 8.55214 4.94236 7.8316 4.94236 6.94293C4.94236 6.05425 5.66336 5.33371 6.55292 5.33371C7.44249 5.33371 8.16348 6.05425 8.16348 6.94293C8.16348 7.04527 8.15299 7.14539 8.13454 7.24265L11.9714 9.45035C12.2541 9.20402 12.6237 9.05464 13.0279 9.05464C13.9169 9.05464 14.6379 9.77518 14.6379 10.6639C14.6379 11.5528 13.9169 12.2731 13.0279 12.2731ZM8.14377 14.4102C8.14377 15.2989 7.42309 16.0194 6.53352 16.0194C5.6446 16.0194 4.9236 15.2989 4.9236 14.4102C4.9236 13.5212 5.6446 12.8007 6.53352 12.8007C6.9333 12.8007 7.29841 12.9466 7.57988 13.1875L10.3872 11.5751C10.5071 11.9212 10.6935 12.2365 10.9304 12.506L8.11801 14.1216C8.13454 14.2154 8.14377 14.3117 8.14377 14.4102ZM17.8262 4.58934L10.1799 0.222883C9.65923 -0.0742945 9.01997 -0.0742945 8.49934 0.222883L0.853623 4.58934C0.325674 4.89065 0 5.45195 0 6.05902V14.9413C0 15.5458 0.322812 16.1049 0.846944 16.4072L14.0097 24L14.0119 18.6069L17.8316 16.4072C18.3564 16.1049 18.6795 15.5458 18.6795 14.9407V6.05902C18.6795 5.45195 18.3538 4.89065 17.8262 4.58934Z" fill="#042B48"/>
</svg>
