<svg width="64" height="64" viewBox="0 0 64 64" fill="none" xmlns="http://www.w3.org/2000/svg">
<path fill-rule="evenodd" clip-rule="evenodd" d="M49.938 56.157H16.7278C15.5934 56.157 14.6665 55.1821 14.6665 53.9908V53.9808V10.0107C14.6665 8.81924 15.5934 7.84326 16.7278 7.84326C19.3194 7.84396 41.0142 7.8498 41.0142 7.8498L51.9923 18.8287L51.9998 53.9908C51.9998 55.1821 51.0714 56.157 49.938 56.157Z" fill="#1D7FF9"/>
<path fill-rule="evenodd" clip-rule="evenodd" d="M41.0195 16.7685C41.0195 17.8985 41.9437 18.8237 43.0744 18.8237H51.9999L41.0195 7.84326C41.0195 7.84326 41.0195 15.7812 41.0195 16.7685Z" fill="#0044CC"/>
<path fill-rule="evenodd" clip-rule="evenodd" d="M21.2842 21.0195H38.8485L38.8242 23.2156H21.2555L21.2842 21.0195ZM21.2597 27.6081H38.824V29.8041H21.2554L21.2597 27.6081ZM32.2358 34.196H21.28L21.2554 36.392H32.2358V34.196Z" fill="white"/>
</svg>
