<svg width="48" height="49" viewBox="0 0 48 49" fill="none" xmlns="http://www.w3.org/2000/svg">
<path fill-rule="evenodd" clip-rule="evenodd" d="M32.6719 21.5044V17.8438H27.75C26.6426 17.8438 25.7812 16.9824 25.7812 15.875V10.9531H15.9375C15.3838 10.9531 14.9531 11.4453 14.9531 11.9375V35.5625C14.9531 36.1162 15.3838 36.5469 15.9375 36.5469H21.3902C21.6642 37.5939 22.0762 38.5851 22.6054 39.5H15.9375C13.7227 39.5 12 37.7773 12 35.5625V11.9375C12 9.78418 13.7227 8 15.9375 8H26.0889C27.1348 8 28.1191 8.43066 28.8574 9.16895L34.4561 14.7676C35.1943 15.5059 35.625 16.4902 35.625 17.5361V21.788C34.7801 21.5995 33.9017 21.5 33 21.5C32.8903 21.5 32.7809 21.5015 32.6719 21.5044Z" fill="#454C53"/>
<circle cx="33" cy="33.5" r="9.1875" stroke="#454C53" stroke-width="2.625"/>
<path fill-rule="evenodd" clip-rule="evenodd" d="M31.7349 34.7635H29.4635C28.7353 34.7635 28.1992 34.2274 28.1992 33.4992C28.1992 32.8195 28.7272 32.2349 29.4635 32.2349H31.7349V29.9635C31.7349 29.2838 32.2629 28.6992 32.9992 28.6992C33.6872 28.6992 34.2635 29.2755 34.2635 29.9635V32.2349H36.5349C37.2229 32.2349 37.7992 32.8112 37.7992 33.4992C37.7992 34.2355 37.2147 34.7635 36.5349 34.7635H34.2635V37.0349C34.2635 37.7713 33.679 38.2992 32.9992 38.2992C32.271 38.2992 31.7349 37.7631 31.7349 37.0349V34.7635Z" fill="#454C53"/>
</svg>
