<svg width="41" height="40" viewBox="0 0 41 40" fill="none" xmlns="http://www.w3.org/2000/svg">
<g clip-path="url(#clip0_10513_91969)">
<path opacity="0.4" fill-rule="evenodd" clip-rule="evenodd" d="M34.0714 12.5713H20.25V27.4284H34.0714C34.4856 27.4284 34.8214 27.0926 34.8214 26.6784V13.3213C34.8214 12.9071 34.4856 12.5713 34.0714 12.5713ZM32.3147 18.8951H30.875V15H29.4464V25.1339H30.875V20.067H32.3147V18.8951ZM27.0692 20.3292C27.7909 19.0867 28.1555 17.6562 28.1629 16.0379H23.3304V17.1987H26.7121C26.5781 18.3259 26.1856 19.3043 25.5346 20.1339C24.8873 20.9635 23.9591 21.6815 22.75 22.2879L23.5536 23.3817C25.1793 22.5856 26.3512 21.5681 27.0692 20.3292Z" fill="#6F3AD0"/>
<path fill-rule="evenodd" clip-rule="evenodd" d="M3.1084 12.5C3.1084 11.1193 4.22769 10 5.6084 10H34.8941C36.2748 10 37.3941 11.1193 37.3941 12.5V27.5C37.3941 28.8807 36.2748 30 34.8941 30H5.60839C4.22768 30 3.1084 28.8807 3.1084 27.5V12.5ZM20.2507 12.5714H34.0722C34.4864 12.5714 34.8222 12.9072 34.8222 13.3214V26.6786C34.8222 27.0928 34.4864 27.4286 34.0722 27.4286H20.2507V12.5714ZM10.4941 15.7141L7.39404 24.2855H9.39487L10.068 22.3084H13.3039L13.977 24.2855H15.9655L12.8778 15.7141H10.4941ZM11.7168 17.6439L12.8346 20.9233H10.5373L11.6551 17.6439H11.7168Z" fill="#6F3AD0"/>
<path d="M33.9783 33.37L33.9819 33.3818L33.986 33.3934C34.0764 33.6507 34.2181 33.901 34.4424 34.0885C34.677 34.2846 34.9579 34.375 35.25 34.375C35.5421 34.375 35.823 34.2846 36.0576 34.0885C36.2819 33.901 36.4236 33.6507 36.514 33.3934L36.5181 33.3818L36.5217 33.37L37.2943 30.8583C37.5784 30.2528 37.8383 29.9311 38.3143 29.781L39.8288 29.4696L39.8443 29.4664L39.8596 29.4625C40.4822 29.3013 40.875 28.7231 40.875 28.1116C40.875 27.5001 40.4822 26.9219 39.8596 26.7607L39.8443 26.7568L39.8288 26.7536L38.308 26.4409C37.9439 26.3362 37.7665 26.213 37.6526 26.0922C37.5275 25.9595 37.4312 25.7815 37.2986 25.468L36.5229 22.8842L36.5046 22.8231L36.4742 22.7669C36.2746 22.3973 35.9654 21.9984 35.4804 21.8976L35.4453 21.8903L35.4096 21.887L35.3064 21.8777L35.2858 21.8758L35.2651 21.8753C34.6439 21.8604 34.2537 22.3447 34.0258 22.7669L33.9954 22.8231L33.9771 22.8842L33.2014 25.468C33.0688 25.7815 32.9725 25.9595 32.8474 26.0922C32.7335 26.2131 32.5561 26.3362 32.192 26.4409L30.6712 26.7536L30.6557 26.7568L30.6404 26.7607C30.0178 26.9219 29.625 27.5001 29.625 28.1116C29.625 28.7231 30.0178 29.3013 30.6404 29.4625L30.6557 29.4664L30.6712 29.4696L32.1857 29.781C32.6617 29.9311 32.9216 30.2528 33.2057 30.8583L33.9783 33.37Z" fill="#6F3AD0" stroke="white" stroke-width="1.25"/>
</g>
<defs>
<clipPath id="clip0_10513_91969">
<rect width="40" height="40" fill="white" transform="translate(0.875)"/>
</clipPath>
</defs>
</svg>
