<svg width="24" height="24" viewBox="0 0 24 24" fill="none" xmlns="http://www.w3.org/2000/svg">
<path d="M17.7812 18.4922C18.0273 18.4922 18.2734 18.2769 18.2734 18V9.14062H15.8125C15.2588 9.14062 14.8281 8.70996 14.8281 8.15625V5.69531H9.90625C9.62939 5.69531 9.41406 5.94141 9.41406 6.1875V12.0938H7.9375V6.1875C7.9375 5.11084 8.79883 4.21875 9.90625 4.21875H14.9819C15.5049 4.21875 15.9971 4.43408 16.3662 4.80322L19.1655 7.60254C19.5347 7.97168 19.75 8.46387 19.75 8.98682V18C19.75 19.1074 18.8579 19.9688 17.7812 19.9688H9.90625C8.79883 19.9688 7.9375 19.1074 7.9375 18V15.5391H9.41406V18C9.41406 18.2769 9.62939 18.4922 9.90625 18.4922H17.7812ZM13.1362 10.8325L15.5972 13.2935C15.874 13.6011 15.874 14.0625 15.5972 14.3394L13.1362 16.8003C12.8286 17.1079 12.3672 17.1079 12.0903 16.8003C11.7827 16.5234 11.7827 16.062 12.0903 15.7544L13.29 14.5547H4.73828C4.30762 14.5547 4 14.2471 4 13.8164C4 13.4165 4.30762 13.0781 4.73828 13.0781H13.29L12.0903 11.8784C11.7827 11.6016 11.7827 11.1401 12.0903 10.8325C12.3672 10.5557 12.8286 10.5557 13.1362 10.8325Z" fill="#454C53"/>
</svg>
