<svg width="24" height="24" viewBox="0 0 24 24" fill="none" xmlns="http://www.w3.org/2000/svg">
<path d="M15.3203 10.6172C15.3203 8.86377 14.3667 7.26416 12.8594 6.37207C11.3213 5.47998 9.44482 5.47998 7.9375 6.37207C6.39941 7.26416 5.47656 8.86377 5.47656 10.6172C5.47656 12.4014 6.39941 14.001 7.9375 14.8931C9.44482 15.7852 11.3213 15.7852 12.8594 14.8931C14.3667 14.001 15.3203 12.4014 15.3203 10.6172ZM14.3667 15.6621C13.2593 16.5234 11.875 17.0156 10.3984 17.0156C6.86084 17.0156 4 14.1548 4 10.6172C4 7.11035 6.86084 4.21875 10.3984 4.21875C13.9053 4.21875 16.7969 7.11035 16.7969 10.6172C16.7969 12.1245 16.2739 13.5088 15.4126 14.6162L19.5347 18.7075C19.8115 19.0151 19.8115 19.4766 19.5347 19.7534C19.2271 20.061 18.7656 20.061 18.4888 19.7534L14.3667 15.6621Z" fill="#9EA4AA"/>
</svg>
