<svg width="24" height="24" viewBox="0 0 24 24" fill="none" xmlns="http://www.w3.org/2000/svg">
<path d="M8.52783 19.7573L5.57471 16.8042C5.26709 16.5273 5.26709 16.0659 5.57471 15.7583L8.52783 12.8359C8.80469 12.5283 9.26611 12.5283 9.54297 12.8359C9.85059 13.1128 9.85059 13.5742 9.54297 13.8511L7.85107 15.543H18.4023C18.8022 15.543 19.1406 15.8813 19.1406 16.2812C19.1406 16.7119 18.8022 17.0195 18.4023 17.0195L7.85107 17.0503L9.54297 18.7422C9.85059 19.019 9.85059 19.4805 9.54297 19.7573C9.26611 20.0649 8.80469 20.0649 8.52783 19.7573ZM18.9253 8.9292L15.9722 11.8823C15.6646 12.1899 15.2031 12.1899 14.9263 11.8823C14.6187 11.6055 14.6187 11.144 14.9263 10.8364L16.6182 9.14453H6.09766C5.66699 9.14453 5.35938 8.83691 5.35938 8.40625C5.35938 8.00635 5.66699 7.66797 6.09766 7.66797H16.6182L14.9263 5.97607C14.6187 5.69922 14.6187 5.23779 14.9263 4.93018C15.2031 4.65332 15.6646 4.65332 15.9722 4.93018L18.9253 7.91406C19.2021 8.19092 19.2021 8.65234 18.9253 8.9292Z" fill="#454C53"/>
</svg>
