<svg width="12" height="16" viewBox="0 0 12 16" fill="none" xmlns="http://www.w3.org/2000/svg">
<path d="M9.84375 14.4922C10.0898 14.4922 10.3359 14.2769 10.3359 14V5.14062H7.875C7.32129 5.14062 6.89062 4.70996 6.89062 4.15625V1.69531H1.96875C1.69189 1.69531 1.47656 1.94141 1.47656 2.1875V14C1.47656 14.2769 1.69189 14.4922 1.96875 14.4922H9.84375ZM0 2.1875C0 1.11084 0.861328 0.21875 1.96875 0.21875H7.04443C7.56738 0.21875 8.05957 0.434082 8.42871 0.803223L11.228 3.60254C11.5972 3.97168 11.8125 4.46387 11.8125 4.98682V14C11.8125 15.1074 10.9204 15.9688 9.84375 15.9688H1.96875C0.861328 15.9688 0 15.1074 0 14V2.1875Z" fill="#9EA4AA"/>
</svg>
