<svg width="15" height="15" viewBox="0 0 15 15" fill="none" xmlns="http://www.w3.org/2000/svg">
<path d="M1.83594 1.92969V3.40625C1.83594 3.83691 1.49756 4.14453 1.09766 4.14453C0.666992 4.14453 0.359375 3.83691 0.359375 3.40625V1.68359C0.359375 1.00684 0.882324 0.453125 1.58984 0.453125H12.9102C13.5869 0.453125 14.1406 1.00684 14.1406 1.68359V3.40625C14.1406 3.83691 13.8022 4.14453 13.4023 4.14453C12.9717 4.14453 12.6641 3.83691 12.6641 3.40625V1.92969H7.98828V12.7578H9.46484C9.86475 12.7578 10.2031 13.0962 10.2031 13.4961C10.2031 13.9268 9.86475 14.2344 9.46484 14.2344H5.03516C4.60449 14.2344 4.29688 13.9268 4.29688 13.4961C4.29688 13.0962 4.60449 12.7578 5.03516 12.7578H6.51172V1.92969H1.83594Z" fill="#9EA4AA"/>
</svg>
