<svg width="115" height="16" viewBox="0 0 115 16" fill="none" xmlns="http://www.w3.org/2000/svg">
<path d="M7.42188 0.6875H9.14062V8.125C9.14062 10.5 7.35938 12.1875 4.65625 12.1875C1.92188 12.1875 0.15625 10.5 0.15625 8.125V0.6875H1.875V7.98438C1.875 9.51562 2.9375 10.625 4.65625 10.625C6.35938 10.625 7.42188 9.51562 7.42188 7.98438V0.6875ZM16.0781 5.82812C15.9219 5.15625 15.3906 4.71875 14.4688 4.71875C13.5156 4.71875 12.8281 5.21875 12.8438 5.85938C12.8281 6.35938 13.2344 6.71875 14.1719 6.9375L15.5156 7.25C17.0781 7.59375 17.8281 8.34375 17.8438 9.54688C17.8281 11.0781 16.5469 12.1719 14.375 12.1719C12.3438 12.1719 11.125 11.2656 10.9219 9.6875H12.625C12.7656 10.4531 13.3594 10.8281 14.3594 10.8281C15.4375 10.8281 16.125 10.3906 16.1406 9.67188C16.125 9.125 15.7188 8.76562 14.8281 8.5625L13.5 8.28125C11.9688 7.9375 11.1719 7.125 11.1719 5.95312C11.1719 4.4375 12.4844 3.40625 14.4531 3.40625C16.3438 3.40625 17.5156 4.375 17.6875 5.82812H16.0781ZM23.125 12.1719C20.625 12.1719 19.0938 10.4531 19.0938 7.8125C19.0938 5.20312 20.6562 3.40625 23.0156 3.40625C24.9531 3.40625 26.7812 4.60938 26.7812 7.67188V8.26562H20.75C20.7969 9.875 21.7422 10.7969 23.1406 10.7969C24.0938 10.7969 24.7031 10.3906 24.9844 9.875H26.6719C26.2969 11.25 24.9844 12.1719 23.125 12.1719ZM20.7656 7.01562H25.1406C25.1406 5.71875 24.3125 4.78125 23.0312 4.78125C21.6953 4.78125 20.8281 5.8125 20.7656 7.01562ZM33.2031 5.82812C33.0469 5.15625 32.5156 4.71875 31.5938 4.71875C30.6406 4.71875 29.9531 5.21875 29.9688 5.85938C29.9531 6.35938 30.3594 6.71875 31.2969 6.9375L32.6406 7.25C34.2031 7.59375 34.9531 8.34375 34.9688 9.54688C34.9531 11.0781 33.6719 12.1719 31.5 12.1719C29.4688 12.1719 28.25 11.2656 28.0469 9.6875H29.75C29.8906 10.4531 30.4844 10.8281 31.4844 10.8281C32.5625 10.8281 33.25 10.3906 33.2656 9.67188C33.25 9.125 32.8438 8.76562 31.9531 8.5625L30.625 8.28125C29.0938 7.9375 28.2969 7.125 28.2969 5.95312C28.2969 4.4375 29.6094 3.40625 31.5781 3.40625C33.4688 3.40625 34.6406 4.375 34.8125 5.82812H33.2031ZM44.4291 12H40.4402V0.685082H44.4678C47.8766 0.685082 49.9595 2.80663 49.9595 6.33149C49.9595 9.8674 47.8766 12 44.4291 12ZM42.7882 9.98343H44.3297C46.4789 9.98343 47.6114 8.8674 47.6114 6.33149C47.6114 3.81215 46.4789 2.70166 44.3407 2.70166H42.7882V9.98343ZM55.4389 12.1657C52.8367 12.1657 51.24 10.4862 51.24 7.79558C51.24 5.1768 52.8588 3.40331 55.345 3.40331C57.5715 3.40331 59.3284 4.81215 59.3284 7.70718V8.35359H53.5273C53.5273 9.64088 54.2897 10.4309 55.4776 10.4309C56.2731 10.4309 56.8367 10.0884 57.0687 9.58564H59.2676C58.9361 11.1492 57.5328 12.1657 55.4389 12.1657ZM53.5273 6.90608H57.1461C57.135 5.87845 56.4223 5.1326 55.3892 5.1326C54.3229 5.1326 53.5825 5.9337 53.5273 6.90608ZM64.6264 12.1657C62.0242 12.1657 60.4275 10.4862 60.4275 7.79558C60.4275 5.1768 62.0463 3.40331 64.5325 3.40331C66.759 3.40331 68.5159 4.81215 68.5159 7.70718V8.35359H62.7148C62.7148 9.64088 63.4772 10.4309 64.6651 10.4309C65.4606 10.4309 66.0242 10.0884 66.2562 9.58564H68.4551C68.1236 11.1492 66.7203 12.1657 64.6264 12.1657ZM62.7148 6.90608H66.3336C66.3225 5.87845 65.6098 5.1326 64.5767 5.1326C63.5104 5.1326 62.77 5.9337 62.7148 6.90608ZM69.9631 15.1823V3.51381H72.2448V4.93923H72.3498C72.6647 4.25414 73.3387 3.40331 74.7642 3.40331C76.6426 3.40331 78.2117 4.86188 78.2117 7.76796C78.2117 10.6022 76.7034 12.1381 74.7642 12.1381C73.3829 12.1381 72.6758 11.3425 72.3498 10.6464H72.278V15.1823H69.9631ZM72.2282 7.75691C72.2282 9.28177 72.8857 10.2928 74.0404 10.2928C75.2117 10.2928 75.847 9.25414 75.847 7.75691C75.847 6.27072 75.2227 5.25414 74.0404 5.25414C72.8747 5.25414 72.2282 6.22652 72.2282 7.75691ZM79.7527 12V0.685082H82.1007V10.0552H86.9681V12H79.7527ZM93.5625 12H91.7344L95.7969 0.6875H97.7812L101.859 12H100.031L99 9.01562H94.5938L93.5625 12ZM95.0938 7.57812H98.5L96.8281 2.75H96.75L95.0938 7.57812ZM103.297 12V0.6875H107.328C109.953 0.6875 111.25 2.26562 111.25 4.35938C111.25 6.4375 109.953 8.03125 107.328 8.03125H105.016V12H103.297ZM105.016 6.5625H107.156C108.828 6.5625 109.516 5.625 109.516 4.35938C109.516 3.07812 108.828 2.15625 107.156 2.15625H105.016V6.5625ZM114.781 0.6875V12H113.062V0.6875H114.781Z" fill="#26282B"/>
</svg>
