<svg width="16" height="17" viewBox="0 0 16 17" fill="none" xmlns="http://www.w3.org/2000/svg">
<g id="ico/storage polaris drive">
<g id="symbol">
<path id="Shape" d="M4.39207 15.3465C4.28573 15.3238 4.21124 15.2258 4.2161 15.1152L4.63162 5.0708L2.18434 4.10231C2.06531 4.05483 1.98842 4.1204 2.01429 4.24853L4.15843 15.1197C4.18928 15.2516 4.30274 15.3463 4.43569 15.3511C4.42104 15.351 4.40643 15.3495 4.39207 15.3465Z" fill="#FFA52E"/>
<path id="Shape_2" d="M4.94949 2.50139C4.90532 2.47005 4.84731 2.46769 4.80082 2.49535C4.75434 2.52301 4.72782 2.57565 4.73286 2.63027L4.21531 15.1151C4.21045 15.2257 4.28495 15.3237 4.39128 15.3464C4.34303 15.3372 4.30129 15.3067 4.27731 15.263C4.25332 15.2193 4.24957 15.1671 4.26707 15.1203L7.34353 3.73141L4.94949 2.50139Z" fill="#87CC25"/>
<path id="Shape_3" d="M4.16058 15.1197L2.57392 7.08616L0.143654 6.38373C0.0209203 6.3483 -0.0337922 6.41463 0.0216596 6.53446L4.10883 15.14C4.1764 15.2646 4.30212 15.3449 4.44154 15.3526C4.30676 15.3493 4.19122 15.2535 4.16058 15.1197Z" fill="#F46060"/>
<path id="Shape_4" opacity="0.4" d="M4.21609 15.1151L4.5244 7.64831L2.57397 7.08606L4.16064 15.1196C4.19148 15.2515 4.30494 15.3462 4.4379 15.351C4.42251 15.351 4.40715 15.3495 4.39205 15.3464C4.28572 15.3237 4.21123 15.2257 4.21609 15.1151Z" fill="#F98526"/>
<path id="Shape_5" opacity="0.4" d="M6.75574 5.91116L4.63156 5.0708L4.21604 15.1152C4.21119 15.2258 4.28568 15.3238 4.39201 15.3465C4.34377 15.3373 4.30202 15.3068 4.27804 15.2631C4.25405 15.2194 4.2503 15.1672 4.2678 15.1204L6.75574 5.91116Z" fill="#74B502"/>
<path id="Shape_6" d="M15.8632 6.21108L8.13394 1.67239C8.08671 1.64006 8.0268 1.63382 7.97414 1.65575C7.92148 1.67768 7.88298 1.72489 7.87146 1.78167L4.26783 15.1264C4.25034 15.1732 4.25409 15.2254 4.27807 15.2691C4.30206 15.3127 4.3438 15.3433 4.39205 15.3525C4.40714 15.3556 4.4225 15.3571 4.43789 15.357L12.5442 15.3472C12.6813 15.3401 12.8026 15.2542 12.857 15.1257L15.9837 6.55627C16.0286 6.42663 15.9783 6.28267 15.8632 6.21108Z" fill="#1D7FF9"/>
<path id="Shape_7" fill-rule="evenodd" clip-rule="evenodd" d="M14.7904 7.24664L8.72765 4.24396C8.69807 4.22964 8.66554 4.24999 8.65371 4.28993L8.51767 4.7949C8.50548 4.83081 8.51929 4.87054 8.55094 4.89062L14.6085 7.72297C14.6255 7.73051 14.6484 7.71392 14.6595 7.68453L14.797 7.31522C14.8126 7.28809 14.8074 7.25493 14.7904 7.24664ZM14.2854 8.6032L8.23231 6.08213C8.21637 6.07655 8.19881 6.07857 8.18448 6.08763C8.17015 6.09668 8.16057 6.11182 8.15838 6.12885L8.03121 6.6097C8.02073 6.6436 8.03491 6.68034 8.06522 6.69789L14.1176 9.06144C14.1353 9.06822 14.1575 9.05089 14.1686 9.023L14.3002 8.66802C14.3084 8.63938 14.3024 8.61074 14.2854 8.60396V8.6032ZM13.8004 9.90785L7.75908 7.82693C7.74356 7.82338 7.72729 7.82645 7.71403 7.83541C7.70078 7.84437 7.69168 7.85845 7.68884 7.87441L7.56537 8.32662C7.55453 8.35904 7.56999 8.3945 7.60086 8.40802L13.6377 10.345C13.6547 10.351 13.6769 10.3337 13.6873 10.3066L13.8144 9.96513C13.8218 9.94101 13.8174 9.91388 13.8004 9.90861V9.90785ZM13.3331 11.1628L7.3066 9.48665C7.2748 9.48066 7.24417 9.50181 7.23784 9.53413L7.12028 9.9675C7.11488 9.98228 7.11561 9.99866 7.12231 10.0129C7.129 10.0271 7.14108 10.0379 7.15577 10.0429L13.1756 11.5842C13.1934 11.5894 13.2148 11.5713 13.2244 11.5457L13.3472 11.2171C13.3568 11.1937 13.3508 11.1681 13.3331 11.1636V11.1628Z" fill="white"/>
</g>
</g>
</svg>
