<svg width="65" height="64" viewBox="0 0 65 64" fill="none" xmlns="http://www.w3.org/2000/svg">
    <path fill-rule="evenodd" clip-rule="evenodd" d="M9.285 5.738C8.577 4.154 8.01 2 8.01 2s-.57 2.17-1.282 3.755C5.145 6.461 3 7.025 3 7.025s2.145.565 3.728 1.271c.711 1.585 1.282 3.755 1.282 3.755s.567-2.154 1.275-3.738c1.586-.714 3.766-1.287 3.766-1.287s-2.18-.574-3.766-1.288zM59.01 3s.567 2.154 1.275 3.738c1.587.714 3.766 1.288 3.766 1.288s-2.18.573-3.766 1.287c-.708 1.584-1.275 3.738-1.275 3.738s-.57-2.17-1.282-3.755C56.145 8.59 54 8.026 54 8.026s2.145-.565 3.727-1.27C58.44 5.17 59.01 3 59.01 3zM5.564 39s.291 1.107.652 1.902c.785.341 1.81.61 1.81.61s-1.025.27-1.81.612c-.36.795-.652 1.902-.652 1.902s-.278-1.055-.626-1.845C4.14 41.813 3 41.514 3 41.514s1.14-.3 1.938-.669c.348-.79.626-1.844.626-1.844zM59.7 26s.417 1.586.942 2.77c1.194.551 2.896 1 2.896 1s-1.702.447-2.896.998c-.525 1.184-.942 2.77-.942 2.77s-.436-1.656-.976-2.848c-1.18-.514-2.724-.92-2.724-.92s1.545-.407 2.724-.922c.54-1.191.976-2.848.976-2.848zM4.642 16.77C4.118 15.587 3.7 14 3.7 14s-.436 1.657-.976 2.848C1.544 17.363 0 17.77 0 17.77s1.545.407 2.724.921c.54 1.192.976 2.848.976 2.848s.418-1.586.942-2.77c1.194-.55 2.896-.999 2.896-.999s-1.702-.448-2.896-.998z" fill="#BBD8FD"/>
    <path fill-rule="evenodd" clip-rule="evenodd" d="M18.149 56.29c8.187 4.826 21.657 4.962 29.932.3 4.233-2.387 6.322-5.585 6.257-8.79-.013-.611.001-4.795.001-4.795s-2.885-1.797-6.082-3.687c-8.177-4.837-21.648-4.97-29.932-.3-3.703 2.088-6.264 3.825-6.264 3.825s-.009 4.558 0 4.958c.056 3.062 2.085 6.127 6.088 8.488z" fill="#ED9D11"/>
    <path fill-rule="evenodd" clip-rule="evenodd" d="M18.15 51.494c8.186 4.828 21.656 4.963 29.931.3 8.275-4.662 8.356-12.435.176-17.272-8.177-4.835-21.647-4.97-29.932-.3s-8.363 12.444-.176 17.272z" fill="#FFD01F"/>
    <path fill-rule="evenodd" clip-rule="evenodd" d="M33.456 51.158c-5.063 0-9.932-1.093-13.359-3.186-2.687-1.641-4.219-3.608-4.202-5.489.019-1.882 1.59-3.847 4.313-5.439 3.345-1.952 7.87-3.015 12.749-3.015 5.062 0 9.927 1.21 13.347 3.306 2.688 1.647 4.218 3.675 4.199 5.558-.019 1.882-1.588 3.764-4.306 5.35-3.337 1.948-7.862 2.915-12.739 2.915h-.002z" fill="#000"/>
    <path fill-rule="evenodd" clip-rule="evenodd" d="M20.208 38.483c3.343-1.952 7.871-3.015 12.749-3.015 5.06 0 9.927 1.21 13.347 3.306 2.332 1.428 3.79 3.143 4.124 4.801a3.61 3.61 0 0 0 .075-.683c.02-1.883-1.511-3.91-4.2-5.558-3.419-2.096-8.285-3.305-13.346-3.305-4.878 0-9.406 1.063-12.749 3.016-2.724 1.592-4.294 3.559-4.313 5.442-.002.25.025.5.076.75.341-1.666 1.845-3.355 4.237-4.754z" fill="#000"/>
    <path fill-rule="evenodd" clip-rule="evenodd" d="M32.33 46.701c.509-.292.679-.638.507-1.036-.171-.398-.538-.881-1.107-1.448l-3.44 1.97c.802.449 1.549.721 2.239.813.693.092 1.294-.007 1.8-.299zm.436-6.386c-.487.278-.671.593-.552.942.119.348.453.789 1.006 1.322l3.425-1.96c-.785-.414-1.502-.638-2.154-.676-.652-.037-1.226.088-1.725.373zm6.528 3.256c.006-.13-.033-.296-.115-.498a3.578 3.578 0 0 0-.363-.649 5.026 5.026 0 0 0-.616-.715 5.879 5.879 0 0 0-.876-.698l-3.595 2.06c.112.099.168.147.282.243.513.47.944.913 1.294 1.328.35.415.575.805.678 1.172.102.364.063.718-.121 1.057-.183.34-.553.67-1.107.988a5.811 5.811 0 0 1-1.92.701 7.519 7.519 0 0 1-2.053.061 9.543 9.543 0 0 1-2.094-.457 12.023 12.023 0 0 1-2.003-.886l-1.825 1.046c-.385-.224-.58-.336-.965-.557l1.86-1.066c-.831-.547-1.511-1.13-2.04-1.747-.53-.62-.883-1.261-1.06-1.923l2.615-.41c-.003.159.042.359.137.601.098.242.242.506.437.792.195.285.439.581.736.886.297.305.644.598 1.044.883l3.598-2.062a2.128 2.128 0 0 0-.17-.167 2.096 2.096 0 0 1-.169-.169 13.28 13.28 0 0 1-1.196-1.28c-.306-.384-.49-.74-.556-1.071a1.281 1.281 0 0 1 .169-.932c.177-.291.51-.576.998-.855.57-.323 1.179-.55 1.83-.682a8.083 8.083 0 0 1 2.023-.14 9.756 9.756 0 0 1 2.082.344c.687.192 1.362.453 2.02.78l1.757-1.005.955.553-1.756 1.006c.75.487 1.335.999 1.754 1.535.418.535.706 1.054.862 1.557-1.012.152-1.518.227-2.531.376z" fill="#000"/>
    <path fill-rule="evenodd" clip-rule="evenodd" d="M32.33 46.701c.509-.292.679-.638.507-1.036-.171-.398-.538-.881-1.107-1.448l-3.44 1.97c.802.449 1.549.721 2.239.813.693.092 1.294-.007 1.8-.299zm.436-6.386c-.487.278-.671.593-.552.942.119.348.453.789 1.006 1.322l3.425-1.96c-.785-.414-1.502-.638-2.154-.676-.652-.037-1.226.088-1.725.373zm6.528 3.256c.006-.13-.033-.296-.115-.498a3.578 3.578 0 0 0-.363-.649 5.026 5.026 0 0 0-.616-.715 5.879 5.879 0 0 0-.876-.698l-3.595 2.06c.112.099.168.147.282.243.513.47.944.913 1.294 1.328.35.415.575.805.678 1.172.102.364.063.718-.121 1.057-.183.34-.553.67-1.107.988a5.811 5.811 0 0 1-1.92.701 7.519 7.519 0 0 1-2.053.061 9.543 9.543 0 0 1-2.094-.457 12.023 12.023 0 0 1-2.003-.886l-1.825 1.046c-.385-.224-.58-.336-.965-.557l1.86-1.066c-.831-.547-1.511-1.13-2.04-1.747-.53-.62-.883-1.261-1.06-1.923l2.615-.41c-.003.159.042.359.137.601.098.242.242.506.437.792.195.285.439.581.736.886.297.305.644.598 1.044.883l3.598-2.062a2.128 2.128 0 0 0-.17-.167 2.096 2.096 0 0 1-.169-.169 13.28 13.28 0 0 1-1.196-1.28c-.306-.384-.49-.74-.556-1.071a1.281 1.281 0 0 1 .169-.932c.177-.291.51-.576.998-.855.57-.323 1.179-.55 1.83-.682a8.083 8.083 0 0 1 2.023-.14 9.756 9.756 0 0 1 2.082.344c.687.192 1.362.453 2.02.78l1.757-1.005.955.553-1.756 1.006c.75.487 1.335.999 1.754 1.535.418.535.706 1.054.862 1.557-1.012.152-1.518.227-2.531.376z" fill="#000"/>
    <path fill-rule="evenodd" clip-rule="evenodd" d="M32.33 45.284c.509-.291.679-.637.507-1.035-.171-.399-.538-.882-1.107-1.449l-3.44 1.97c.802.45 1.549.721 2.239.813.693.093 1.294-.007 1.8-.299zm.436-6.385c-.487.277-.671.592-.552.94.119.35.453.79 1.006 1.323l3.425-1.96c-.785-.414-1.502-.638-2.154-.676-.652-.037-1.226.088-1.725.373zm6.528 3.255c.006-.13-.033-.296-.115-.498a3.578 3.578 0 0 0-.363-.648 5.032 5.032 0 0 0-.616-.716 5.872 5.872 0 0 0-.876-.697l-3.595 2.06c.112.098.168.146.282.242.513.47.944.913 1.294 1.328.35.416.575.805.678 1.172.102.364.063.719-.121 1.058-.183.34-.553.67-1.107.987a5.811 5.811 0 0 1-1.92.702 7.515 7.515 0 0 1-2.053.06 9.544 9.544 0 0 1-2.094-.457 12.015 12.015 0 0 1-2.003-.886l-1.825 1.046c-.385-.224-.58-.336-.965-.557.744-.426 1.117-.639 1.86-1.066-.831-.547-1.511-1.129-2.04-1.747-.53-.62-.883-1.261-1.06-1.923l2.615-.41c-.003.16.042.359.137.601.098.243.242.506.437.792.195.285.439.581.736.886.297.305.644.598 1.044.883l3.598-2.062a2.129 2.129 0 0 0-.17-.167 2.08 2.08 0 0 1-.169-.169 13.29 13.29 0 0 1-1.196-1.28c-.306-.383-.49-.74-.556-1.07a1.28 1.28 0 0 1 .169-.933c.177-.29.51-.576.998-.855.57-.323 1.179-.55 1.83-.681a8.078 8.078 0 0 1 2.023-.14 9.75 9.75 0 0 1 2.082.344c.687.191 1.362.452 2.02.78.704-.403 1.054-.605 1.757-1.006l.955.553-1.756 1.006c.75.488 1.335 1 1.754 1.535.418.536.706 1.054.862 1.557-1.012.152-1.518.227-2.531.376z" fill="#FFD74C"/>
    <path fill-rule="evenodd" clip-rule="evenodd" d="M18.149 49.587c8.187 4.828 21.657 4.964 29.932.3 4.233-2.385 6.322-5.585 6.257-8.788-.013-.612.001-4.795.001-4.795s-2.885-1.799-6.082-3.688c-8.177-4.836-21.648-4.971-29.932-.3-3.703 2.089-6.264 3.826-6.264 3.826s-.009 4.558 0 4.957c.056 3.063 2.085 6.127 6.088 8.488z" fill="#ED9D11"/>
    <path fill-rule="evenodd" clip-rule="evenodd" d="M18.15 44.793c8.186 4.827 21.656 4.963 29.931.3 8.275-4.663 8.356-12.435.176-17.272-8.177-4.836-21.647-4.97-29.932-.3s-8.363 12.444-.176 17.272z" fill="#FFD01F"/>
    <path fill-rule="evenodd" clip-rule="evenodd" d="M33.456 44.587c-5.063 0-9.932-1.157-13.359-3.251-2.687-1.641-4.219-3.64-4.202-5.52.019-1.885 1.59-3.866 4.313-5.458 3.345-1.952 7.87-3.022 12.749-3.022 5.062 0 9.927 1.206 13.347 3.3 2.688 1.647 4.218 3.674 4.199 5.557-.019 1.882-1.588 3.828-4.306 5.413-3.337 1.95-7.862 2.98-12.739 2.98h-.002z" fill="#000"/>
    <path fill-rule="evenodd" clip-rule="evenodd" d="M20.208 31.783c3.343-1.953 7.871-3.016 12.749-3.016 5.06 0 9.927 1.21 13.347 3.305 2.332 1.428 3.79 3.143 4.124 4.802.046-.226.072-.456.075-.683.02-1.883-1.511-3.91-4.2-5.558-3.419-2.096-8.285-3.305-13.346-3.305-4.878 0-9.406 1.063-12.749 3.016-2.724 1.59-4.294 3.559-4.313 5.442a3.57 3.57 0 0 0 .076.75c.341-1.667 1.845-3.356 4.237-4.753z" fill="#000"/>
    <path fill-rule="evenodd" clip-rule="evenodd" d="M32.33 40c.509-.293.679-.637.507-1.035-.171-.4-.538-.883-1.107-1.45-1.376.79-2.064 1.182-3.44 1.971.802.45 1.549.72 2.239.812.693.094 1.294-.007 1.8-.299zm.436-6.385c-.487.278-.671.59-.552.94.119.348.453.79 1.006 1.322l3.425-1.96c-.785-.413-1.502-.638-2.154-.675-.652-.037-1.226.088-1.725.373zm6.528 3.255c.006-.13-.033-.296-.115-.497a3.582 3.582 0 0 0-.363-.65 4.95 4.95 0 0 0-.616-.715 5.885 5.885 0 0 0-.876-.697l-3.595 2.059c.112.098.168.146.282.242.513.47.944.914 1.294 1.33.35.415.575.804.678 1.17.102.366.063.72-.121 1.059-.183.338-.553.669-1.107.987a5.81 5.81 0 0 1-1.92.7 7.514 7.514 0 0 1-2.053.063 9.547 9.547 0 0 1-2.094-.46 11.9 11.9 0 0 1-2.003-.885l-1.825 1.046-.965-.557L25.755 40c-.831-.547-1.511-1.13-2.04-1.748-.53-.62-.883-1.261-1.06-1.924l2.615-.408c-.003.157.042.358.137.6.098.243.242.507.437.791.195.287.439.583.736.886a7.5 7.5 0 0 0 1.044.883c1.438-.823 2.158-1.237 3.598-2.06a2.111 2.111 0 0 0-.17-.168 2.096 2.096 0 0 1-.169-.169c-.492-.469-.89-.896-1.196-1.28-.306-.383-.49-.742-.556-1.07a1.279 1.279 0 0 1 .169-.933c.177-.29.51-.575.998-.855a6.125 6.125 0 0 1 1.83-.681 8.018 8.018 0 0 1 2.023-.14 9.849 9.849 0 0 1 2.082.342c.687.193 1.362.453 2.02.78.704-.401 1.054-.602 1.757-1.005l.955.554c-.702.403-1.053.604-1.756 1.005.75.487 1.335 1 1.754 1.535.418.537.706 1.056.862 1.559-1.012.15-1.518.226-2.531.375z" fill="#000"/>
    <path fill-rule="evenodd" clip-rule="evenodd" d="M32.33 40c.509-.293.679-.637.507-1.035-.171-.4-.538-.883-1.107-1.45-1.376.79-2.064 1.182-3.44 1.971.802.45 1.549.72 2.239.812.693.094 1.294-.007 1.8-.299zm.436-6.385c-.487.278-.671.59-.552.94.119.348.453.79 1.006 1.322l3.425-1.96c-.785-.413-1.502-.638-2.154-.675-.652-.037-1.226.088-1.725.373zm6.528 3.255c.006-.13-.033-.296-.115-.497a3.582 3.582 0 0 0-.363-.65 4.95 4.95 0 0 0-.616-.715 5.885 5.885 0 0 0-.876-.697l-3.595 2.059c.112.098.168.146.282.242.513.47.944.914 1.294 1.33.35.415.575.804.678 1.17.102.366.063.72-.121 1.059-.183.338-.553.669-1.107.987a5.81 5.81 0 0 1-1.92.7 7.514 7.514 0 0 1-2.053.063 9.547 9.547 0 0 1-2.094-.46 11.9 11.9 0 0 1-2.003-.885l-1.825 1.046-.965-.557L25.755 40c-.831-.547-1.511-1.13-2.04-1.748-.53-.62-.883-1.261-1.06-1.924l2.615-.408c-.003.157.042.358.137.6.098.243.242.507.437.791.195.287.439.583.736.886a7.5 7.5 0 0 0 1.044.883c1.438-.823 2.158-1.237 3.598-2.06a2.111 2.111 0 0 0-.17-.168 2.096 2.096 0 0 1-.169-.169c-.492-.469-.89-.896-1.196-1.28-.306-.383-.49-.742-.556-1.07a1.279 1.279 0 0 1 .169-.933c.177-.29.51-.575.998-.855a6.125 6.125 0 0 1 1.83-.681 8.018 8.018 0 0 1 2.023-.14 9.849 9.849 0 0 1 2.082.342c.687.193 1.362.453 2.02.78.704-.401 1.054-.602 1.757-1.005l.955.554c-.702.403-1.053.604-1.756 1.005.75.487 1.335 1 1.754 1.535.418.537.706 1.056.862 1.559-1.012.15-1.518.226-2.531.375z" fill="#000"/>
    <path fill-rule="evenodd" clip-rule="evenodd" d="M32.33 38.582c.509-.292.679-.636.507-1.034-.171-.4-.538-.883-1.107-1.45-1.376.79-2.064 1.182-3.44 1.971.802.45 1.549.72 2.239.812.693.094 1.294-.007 1.8-.299zm.436-6.384c-.487.278-.671.59-.552.94.119.348.453.79 1.006 1.322l3.425-1.96c-.785-.413-1.502-.638-2.154-.675-.652-.037-1.226.088-1.725.373zm6.528 3.255c.006-.13-.033-.296-.115-.497a3.582 3.582 0 0 0-.363-.65 4.95 4.95 0 0 0-.616-.715 5.885 5.885 0 0 0-.876-.697l-3.595 2.059c.112.098.168.146.282.242.513.47.944.914 1.294 1.33.35.415.575.805.678 1.17.102.366.063.72-.121 1.059-.183.338-.553.669-1.107.988a5.808 5.808 0 0 1-1.92.7 7.514 7.514 0 0 1-2.053.062 9.547 9.547 0 0 1-2.094-.46 11.9 11.9 0 0 1-2.003-.885l-1.825 1.046-.965-.557 1.86-1.064c-.831-.547-1.511-1.13-2.04-1.748-.53-.62-.883-1.26-1.06-1.924l2.615-.408c-.003.157.042.358.137.6.098.243.242.507.437.791.195.287.439.583.736.886a7.5 7.5 0 0 0 1.044.883c1.438-.823 2.158-1.237 3.598-2.06a2.097 2.097 0 0 0-.17-.168 2.11 2.11 0 0 1-.169-.169c-.492-.469-.89-.897-1.196-1.28-.306-.383-.49-.742-.556-1.07a1.279 1.279 0 0 1 .169-.933c.177-.29.51-.575.998-.855a6.123 6.123 0 0 1 1.83-.681 8.018 8.018 0 0 1 2.023-.14 9.842 9.842 0 0 1 2.082.343c.687.192 1.362.451 2.02.779.704-.401 1.054-.602 1.757-1.005l.955.554c-.702.403-1.053.604-1.756 1.005.75.487 1.335 1 1.754 1.535.418.537.706 1.056.862 1.559-1.012.15-1.518.226-2.531.375z" fill="#FFD74C"/>
    <path fill-rule="evenodd" clip-rule="evenodd" d="M15.315 42.886c8.186 4.828 21.657 4.963 29.931.3 4.233-2.386 6.322-5.584 6.257-8.788-.013-.611.002-4.795.002-4.795s-2.886-1.798-6.083-3.689c-8.177-4.835-21.647-4.97-29.932-.3-3.703 2.089-6.264 3.826-6.264 3.826s-.008 4.56 0 4.959c.057 3.06 2.085 6.126 6.088 8.487z" fill="#ED9D11"/>
    <path fill-rule="evenodd" clip-rule="evenodd" d="M15.315 38.09c8.187 4.829 21.657 4.965 29.932.301 8.274-4.662 8.355-12.435.175-17.27-8.177-4.837-21.647-4.972-29.932-.302-8.284 4.672-8.362 12.445-.175 17.272z" fill="#FFD01F"/>
    <path fill-rule="evenodd" clip-rule="evenodd" d="M33.456 37.63c-5.063 0-9.932-1.03-13.359-3.124-2.687-1.64-4.219-3.576-4.202-5.457.019-1.883 1.59-3.834 4.313-5.424 3.345-1.952 7.87-3.007 12.749-3.007 5.062 0 9.927 1.215 13.347 3.31 2.688 1.646 4.218 3.677 4.199 5.56-.019 1.882-1.588 3.702-4.306 5.288-3.337 1.948-7.862 2.854-12.739 2.854h-.002z" fill="#000"/>
    <path fill-rule="evenodd" clip-rule="evenodd" d="M20.208 25.082c3.343-1.953 7.871-3.016 12.749-3.016 5.06 0 9.927 1.209 13.347 3.305 2.332 1.428 3.79 3.143 4.124 4.801.046-.227.072-.455.075-.681.02-1.884-1.511-3.912-4.2-5.56-3.419-2.095-8.285-3.305-13.346-3.305-4.878 0-9.406 1.063-12.749 3.016-2.724 1.591-4.294 3.56-4.313 5.442-.002.25.025.5.076.75.341-1.666 1.845-3.355 4.237-4.752z" fill="#000"/>
    <path fill-rule="evenodd" clip-rule="evenodd" d="M32.33 33.298c.509-.292.679-.638.507-1.034-.171-.4-.538-.883-1.107-1.45l-3.44 1.971c.802.448 1.549.72 2.239.812.693.092 1.294-.007 1.8-.299zm.436-6.386c-.487.278-.671.593-.552.942.119.348.453.789 1.006 1.322l3.425-1.96c-.785-.414-1.502-.638-2.154-.676-.652-.036-1.226.088-1.725.373zm6.528 3.256c.006-.13-.033-.295-.115-.496a3.54 3.54 0 0 0-.363-.65 5.032 5.032 0 0 0-.616-.716 5.963 5.963 0 0 0-.876-.698c-1.437.825-2.157 1.236-3.595 2.06.112.099.168.147.282.243.513.47.944.914 1.294 1.328.35.417.575.806.678 1.172.102.366.063.72-.121 1.059-.183.338-.553.669-1.107.988a5.842 5.842 0 0 1-1.92.7 7.514 7.514 0 0 1-2.053.062 9.553 9.553 0 0 1-2.094-.46 11.9 11.9 0 0 1-2.003-.885l-1.825 1.046c-.385-.224-.58-.335-.965-.557.744-.427 1.117-.64 1.86-1.064-.831-.547-1.511-1.13-2.04-1.75-.53-.618-.883-1.259-1.06-1.922l2.615-.408c-.003.157.042.357.137.6.098.243.242.505.437.791.195.285.439.581.736.886.297.305.644.598 1.044.883 1.438-.824 2.158-1.237 3.598-2.06a2.137 2.137 0 0 0-.17-.17 2.07 2.07 0 0 1-.169-.166c-.492-.471-.89-.898-1.196-1.28-.306-.384-.49-.743-.556-1.072a1.279 1.279 0 0 1 .169-.932c.177-.292.51-.575.998-.855a6.128 6.128 0 0 1 1.83-.683 8.078 8.078 0 0 1 2.023-.14c.699.04 1.393.153 2.082.344.687.192 1.362.453 2.02.78.704-.401 1.054-.604 1.757-1.005l.955.554-1.756 1.005c.75.488 1.335 1 1.754 1.535.418.535.706 1.056.862 1.559l-2.531.374z" fill="#000"/>
    <path fill-rule="evenodd" clip-rule="evenodd" d="M32.33 33.298c.509-.292.679-.638.507-1.034-.171-.4-.538-.883-1.107-1.45l-3.44 1.971c.802.448 1.549.72 2.239.812.693.092 1.294-.007 1.8-.299zm.436-6.386c-.487.278-.671.593-.552.942.119.348.453.789 1.006 1.322l3.425-1.96c-.785-.414-1.502-.638-2.154-.676-.652-.036-1.226.088-1.725.373zm6.528 3.256c.006-.13-.033-.295-.115-.496a3.54 3.54 0 0 0-.363-.65 5.032 5.032 0 0 0-.616-.716 5.963 5.963 0 0 0-.876-.698c-1.437.825-2.157 1.236-3.595 2.06.112.099.168.147.282.243.513.47.944.914 1.294 1.328.35.417.575.806.678 1.172.102.366.063.72-.121 1.059-.183.338-.553.669-1.107.988a5.842 5.842 0 0 1-1.92.7 7.514 7.514 0 0 1-2.053.062 9.553 9.553 0 0 1-2.094-.46 11.9 11.9 0 0 1-2.003-.885l-1.825 1.046c-.385-.224-.58-.335-.965-.557.744-.427 1.117-.64 1.86-1.064-.831-.547-1.511-1.13-2.04-1.75-.53-.618-.883-1.259-1.06-1.922l2.615-.408c-.003.157.042.357.137.6.098.243.242.505.437.791.195.285.439.581.736.886.297.305.644.598 1.044.883 1.438-.824 2.158-1.237 3.598-2.06a2.137 2.137 0 0 0-.17-.17 2.07 2.07 0 0 1-.169-.166c-.492-.471-.89-.898-1.196-1.28-.306-.384-.49-.743-.556-1.072a1.279 1.279 0 0 1 .169-.932c.177-.292.51-.575.998-.855a6.128 6.128 0 0 1 1.83-.683 8.078 8.078 0 0 1 2.023-.14c.699.04 1.393.153 2.082.344.687.192 1.362.453 2.02.78.704-.401 1.054-.604 1.757-1.005l.955.554-1.756 1.005c.75.488 1.335 1 1.754 1.535.418.535.706 1.056.862 1.559l-2.531.374z" fill="#000"/>
    <path fill-rule="evenodd" clip-rule="evenodd" d="M32.33 31.88c.509-.291.679-.637.507-1.034-.171-.4-.538-.883-1.107-1.45-1.376.788-2.064 1.182-3.44 1.972.802.447 1.549.72 2.239.812.693.092 1.294-.007 1.8-.3zm.436-6.385c-.487.278-.671.592-.552.94.119.35.453.79 1.006 1.323l3.425-1.96c-.785-.414-1.502-.637-2.154-.676-.652-.035-1.226.088-1.725.373zm6.528 3.255c.006-.13-.033-.295-.115-.496a3.54 3.54 0 0 0-.363-.65 5.02 5.02 0 0 0-.616-.716 5.963 5.963 0 0 0-.876-.697c-1.437.825-2.157 1.236-3.595 2.06.112.098.168.146.282.243.513.47.944.914 1.294 1.328.35.416.575.806.678 1.172.102.365.063.72-.121 1.058-.183.339-.553.669-1.107.988a5.84 5.84 0 0 1-1.92.7 7.518 7.518 0 0 1-2.053.062 9.553 9.553 0 0 1-2.094-.459 11.9 11.9 0 0 1-2.003-.886l-1.825 1.046c-.385-.224-.58-.334-.965-.557l1.86-1.064c-.831-.547-1.511-1.13-2.04-1.749-.53-.619-.883-1.26-1.06-1.923l2.615-.408c-.003.157.042.357.137.6.098.243.242.505.437.792.195.285.439.58.736.885.297.305.644.598 1.044.883 1.438-.823 2.158-1.237 3.598-2.06a2.122 2.122 0 0 0-.17-.169 2.085 2.085 0 0 1-.169-.167c-.492-.47-.89-.897-1.196-1.28-.306-.384-.49-.742-.556-1.071a1.279 1.279 0 0 1 .169-.933c.177-.292.51-.575.998-.854a6.128 6.128 0 0 1 1.83-.683 8.078 8.078 0 0 1 2.023-.14c.699.04 1.393.152 2.082.344.687.191 1.362.452 2.02.78l1.757-1.005.955.554c-.702.4-1.053.602-1.756 1.004.75.488 1.335 1 1.754 1.535.418.536.706 1.056.862 1.559l-2.531.374z" fill="#FFD74C"/>
    <path fill-rule="evenodd" clip-rule="evenodd" d="M15.315 36.185c8.186 4.827 21.657 4.963 29.931.3 4.233-2.386 6.322-5.584 6.257-8.789-.013-.61.002-4.795.002-4.795s-2.886-1.797-6.083-3.688c-8.177-4.837-21.647-4.97-29.932-.3-3.703 2.089-6.264 3.826-6.264 3.826s-.008 4.558 0 4.957c.057 3.063 2.085 6.128 6.088 8.489z" fill="#ED9D11"/>
    <path fill-rule="evenodd" clip-rule="evenodd" d="M15.315 31.39c8.187 4.828 21.657 4.962 29.932.3 8.274-4.663 8.355-12.436.175-17.272-8.177-4.836-21.647-4.97-29.932-.3-8.284 4.67-8.362 12.443-.175 17.271z" fill="#FFD01F"/>
    <path fill-rule="evenodd" clip-rule="evenodd" d="M33.456 31.058c-5.063 0-9.932-1.093-13.359-3.188-2.687-1.642-4.219-3.61-4.202-5.49.019-1.883 1.59-3.849 4.313-5.44 3.345-1.953 7.87-3.015 12.749-3.015 5.062 0 9.927 1.21 13.347 3.305 2.688 1.647 4.218 3.675 4.199 5.558-.019 1.882-1.588 3.766-4.306 5.352-3.337 1.95-7.862 2.918-12.739 2.918h-.002z" fill="#000"/>
    <path fill-rule="evenodd" clip-rule="evenodd" d="M20.208 18.379c3.343-1.953 7.871-3.016 12.749-3.016 5.06 0 9.927 1.21 13.347 3.306 2.332 1.429 3.79 3.143 4.124 4.802a3.61 3.61 0 0 0 .075-.683c.02-1.884-1.511-3.91-4.2-5.558-3.419-2.097-8.285-3.305-13.346-3.305-4.878 0-9.406 1.063-12.749 3.015-2.724 1.592-4.294 3.559-4.313 5.442-.002.25.025.5.076.75.341-1.665 1.845-3.355 4.237-4.753z" fill="#000"/>
    <path fill-rule="evenodd" clip-rule="evenodd" d="M32.33 26.597c.509-.294.679-.638.507-1.036-.171-.398-.538-.882-1.107-1.448l-3.44 1.97c.802.449 1.549.72 2.239.813.693.092 1.294-.007 1.8-.3zm.436-6.386c-.487.278-.671.593-.552.941.119.349.453.79 1.006 1.322l3.425-1.96c-.785-.413-1.502-.637-2.154-.675-.652-.037-1.226.087-1.725.372zm6.528 3.255c.006-.13-.033-.296-.115-.497a3.578 3.578 0 0 0-.363-.65 5.032 5.032 0 0 0-.616-.715 5.878 5.878 0 0 0-.876-.697l-3.595 2.06c.112.098.168.146.282.243.513.469.944.912 1.294 1.328.35.415.575.805.678 1.172.102.364.063.718-.121 1.057-.183.34-.553.67-1.107.988a5.813 5.813 0 0 1-1.92.701 7.515 7.515 0 0 1-2.053.061 9.544 9.544 0 0 1-2.094-.458 12.015 12.015 0 0 1-2.003-.885L24.86 28.22c-.385-.224-.58-.336-.965-.557l1.86-1.066c-.831-.547-1.511-1.13-2.04-1.748-.53-.619-.883-1.26-1.06-1.923 1.046-.162 1.567-.245 2.615-.41-.003.16.042.36.137.602a4.3 4.3 0 0 0 .437.792c.195.285.439.581.736.886.297.304.644.598 1.044.883 1.438-.825 2.158-1.238 3.598-2.062a2.111 2.111 0 0 0-.17-.168 2.096 2.096 0 0 1-.169-.168c-.492-.47-.89-.897-1.196-1.28-.306-.384-.49-.741-.556-1.071a1.281 1.281 0 0 1 .169-.933c.177-.29.51-.575.998-.854.57-.323 1.179-.55 1.83-.682a8.013 8.013 0 0 1 2.023-.14 9.75 9.75 0 0 1 2.082.344c.687.191 1.362.452 2.02.78l1.757-1.005.955.552L39.209 20c.75.487 1.335.999 1.754 1.534.418.536.706 1.055.862 1.558-1.012.151-1.518.227-2.531.375z" fill="#000"/>
    <path fill-rule="evenodd" clip-rule="evenodd" d="M32.33 26.597c.509-.294.679-.638.507-1.036-.171-.398-.538-.882-1.107-1.448l-3.44 1.97c.802.449 1.549.72 2.239.813.693.092 1.294-.007 1.8-.3zm.436-6.386c-.487.278-.671.593-.552.941.119.349.453.79 1.006 1.322l3.425-1.96c-.785-.413-1.502-.637-2.154-.675-.652-.037-1.226.087-1.725.372zm6.528 3.255c.006-.13-.033-.296-.115-.497a3.578 3.578 0 0 0-.363-.65 5.032 5.032 0 0 0-.616-.715 5.878 5.878 0 0 0-.876-.697l-3.595 2.06c.112.098.168.146.282.243.513.469.944.912 1.294 1.328.35.415.575.805.678 1.172.102.364.063.718-.121 1.057-.183.34-.553.67-1.107.988a5.813 5.813 0 0 1-1.92.701 7.515 7.515 0 0 1-2.053.061 9.544 9.544 0 0 1-2.094-.458 12.015 12.015 0 0 1-2.003-.885L24.86 28.22c-.385-.224-.58-.336-.965-.557l1.86-1.066c-.831-.547-1.511-1.13-2.04-1.748-.53-.619-.883-1.26-1.06-1.923 1.046-.162 1.567-.245 2.615-.41-.003.16.042.36.137.602a4.3 4.3 0 0 0 .437.792c.195.285.439.581.736.886.297.304.644.598 1.044.883 1.438-.825 2.158-1.238 3.598-2.062a2.111 2.111 0 0 0-.17-.168 2.096 2.096 0 0 1-.169-.168c-.492-.47-.89-.897-1.196-1.28-.306-.384-.49-.741-.556-1.071a1.281 1.281 0 0 1 .169-.933c.177-.29.51-.575.998-.854.57-.323 1.179-.55 1.83-.682a8.013 8.013 0 0 1 2.023-.14 9.75 9.75 0 0 1 2.082.344c.687.191 1.362.452 2.02.78l1.757-1.005.955.552L39.209 20c.75.487 1.335.999 1.754 1.534.418.536.706 1.055.862 1.558-1.012.151-1.518.227-2.531.375z" fill="#000"/>
    <path fill-rule="evenodd" clip-rule="evenodd" d="M32.33 25.18c.509-.293.679-.638.507-1.036-.171-.398-.538-.882-1.107-1.448l-3.44 1.97c.802.449 1.549.72 2.239.813.693.092 1.294-.007 1.8-.3zm.436-6.386c-.487.278-.671.593-.552.941.119.349.453.79 1.006 1.322l3.425-1.96c-.785-.413-1.502-.637-2.154-.675-.652-.037-1.226.087-1.725.372zm6.528 3.255c.006-.13-.033-.296-.115-.497a3.578 3.578 0 0 0-.363-.65 5.032 5.032 0 0 0-.616-.715 5.885 5.885 0 0 0-.876-.697l-3.595 2.06c.112.098.168.146.282.243.513.469.944.913 1.294 1.328.35.415.575.805.678 1.172.102.364.063.718-.121 1.057-.183.34-.553.67-1.107.988a5.816 5.816 0 0 1-1.92.701 7.519 7.519 0 0 1-2.053.061 9.549 9.549 0 0 1-2.094-.458 12.023 12.023 0 0 1-2.003-.885l-1.825 1.045c-.385-.223-.58-.335-.965-.556l1.86-1.066c-.831-.547-1.511-1.13-2.04-1.747-.53-.62-.883-1.262-1.06-1.924l2.615-.41c-.003.16.042.36.137.602.098.242.242.506.437.792.195.285.439.581.736.886.297.304.644.598 1.044.883 1.438-.825 2.158-1.238 3.598-2.062a2.111 2.111 0 0 0-.17-.168 2.096 2.096 0 0 1-.169-.168c-.492-.47-.89-.897-1.196-1.28-.306-.384-.49-.741-.556-1.071a1.281 1.281 0 0 1 .169-.933c.177-.29.51-.575.998-.854.57-.323 1.179-.55 1.83-.682a8.018 8.018 0 0 1 2.023-.14 9.756 9.756 0 0 1 2.082.344c.687.191 1.362.452 2.02.78l1.757-1.005.955.552-1.756 1.007c.75.487 1.335.999 1.754 1.534.418.536.706 1.055.862 1.558-1.012.152-1.518.227-2.531.375z" fill="#FFD74C"/>
    <path fill-rule="evenodd" clip-rule="evenodd" d="M18.149 29.482c8.187 4.829 21.657 4.965 29.932.3 4.233-2.384 6.322-5.584 6.257-8.787-.013-.612.001-4.796.001-4.796s-2.885-1.798-6.082-3.687c-8.177-4.837-21.648-4.971-29.932-.3-3.703 2.088-6.264 3.826-6.264 3.826s-.009 4.557 0 4.957c.056 3.063 2.085 6.126 6.088 8.487z" fill="#ED9D11"/>
    <path fill-rule="evenodd" clip-rule="evenodd" d="M18.15 24.689c8.186 4.826 21.656 4.963 29.931.3 8.275-4.664 8.356-12.435.176-17.272-8.177-4.837-21.647-4.97-29.932-.3s-8.363 12.443-.176 17.272z" fill="#FFD454"/>
    <g filter="url(#0wm4z89kfa)">
        <path d="M40.992 16.727c-.706-.3-.743-.796-.458-1.233.174-.268.225-.54.154-.817-.134-.527-.688-1-1.659-1.42-.872-.363-1.842-.58-2.91-.652-1.06-.07-2.17.018-3.328.262-1.15.24-2.286.634-3.406 1.18-1.142.558-1.937 1.106-2.384 1.645-.44.542-.548 1.048-.324 1.518.232.473.772.893 1.621 1.26.964.402 2.017.624 3.16.667a9.432 9.432 0 0 0 1.77-.103c.93-.145 2-.154 2.689.143l.677.291c.849.366.776 1.013-.312 1.26-.644.147-1.328.261-2.05.342a20.136 20.136 0 0 1-4.584-.025 15.985 15.985 0 0 1-4.375-1.141c-1.491-.633-2.493-1.358-3.006-2.176-.498-.817-.452-1.673.137-2.567.596-.898 1.753-1.766 3.47-2.604a20.2 20.2 0 0 1 5.468-1.756 21.36 21.36 0 0 1 5.632-.225c1.834.173 3.49.572 4.966 1.199 1.277.542 2.2 1.145 2.77 1.81.569.663.734 1.346.495 2.049-.128.391-.385.776-.772 1.154-.516.504-1.937.577-2.794.213l-.647-.274z" fill="#ED9D11"/>
    </g>
    <defs>
        <filter id="0wm4z89kfa" x="21.925" y="10.484" width="23.386" height="10.705" filterUnits="userSpaceOnUse" color-interpolation-filters="sRGB">
            <feFlood flood-opacity="0" result="BackgroundImageFix"/>
            <feBlend in="SourceGraphic" in2="BackgroundImageFix" result="shape"/>
            <feColorMatrix in="SourceAlpha" values="0 0 0 0 0 0 0 0 0 0 0 0 0 0 0 0 0 0 127 0" result="hardAlpha"/>
            <feOffset dy="1.057"/>
            <feComposite in2="hardAlpha" operator="arithmetic" k2="-1" k3="1"/>
            <feColorMatrix values="0 0 0 0 0.354167 0 0 0 0 0.175608 0 0 0 0 0.175608 0 0 0 0.21 0"/>
            <feBlend in2="shape" result="effect1_innerShadow_356_5124"/>
        </filter>
    </defs>
</svg>
