<svg width="65" height="64" viewBox="0 0 65 64" fill="none" xmlns="http://www.w3.org/2000/svg">
<path fill-rule="evenodd" clip-rule="evenodd" d="M14 61C11.7909 61 10 59.2091 10 57V9C10 6.79086 11.7909 5 14 5H39L54 20V57C54 59.2091 52.2091 61 50 61H14Z" fill="#EDE5FE"/>
<path d="M54 20H42.9974C40.7883 20 39 18.2091 39 16V5L54 20Z" fill="#C6A8FF"/>
<path fill-rule="evenodd" clip-rule="evenodd" d="M33.7508 24.0635L41.0276 42.8284C41.4008 43.791 40.9244 44.8744 39.9634 45.2483C39.4482 45.4488 38.8707 45.4102 38.3866 45.1429L32.9127 42.1212C32.3524 41.8118 31.673 41.8115 31.1124 42.1203L25.6146 45.1481C24.7113 45.6457 23.5763 45.3155 23.0796 44.4106C22.8133 43.9255 22.7753 43.3472 22.9758 42.8313L30.2713 24.0621C30.6453 23.0999 31.7273 22.6235 32.688 22.9981C33.1757 23.1883 33.5613 23.5749 33.7508 24.0635Z" fill="white"/>
<path fill-rule="evenodd" clip-rule="evenodd" d="M21.2364 42.153L28.5318 23.3838C29.2799 21.4592 31.4439 20.5065 33.3653 21.2558C34.3407 21.6362 35.1118 22.4093 35.4908 23.3865L42.7676 42.1514C43.5142 44.0766 42.5613 46.2434 40.6393 46.9912C39.6088 47.3922 38.4538 47.315 37.4856 46.7805L32.0118 43.7588L26.514 46.7866C24.7073 47.7817 22.4373 47.1213 21.4439 45.3115C20.9113 44.3413 20.8353 43.1847 21.2364 42.153ZM33.7508 24.0635C33.5613 23.5749 33.1757 23.1884 32.688 22.9982C31.7273 22.6235 30.6453 23.0999 30.2713 24.0622L22.9758 42.8314C22.7753 43.3472 22.8133 43.9255 23.0796 44.4106C23.5763 45.3155 24.7113 45.6457 25.6147 45.1482L31.1124 42.1203C31.673 41.8115 32.3524 41.8119 32.9127 42.1212L38.3866 45.143C38.8707 45.4102 39.4482 45.4488 39.9635 45.2483C40.9244 44.8744 41.4009 43.791 41.0276 42.8284L33.7508 24.0635Z" fill="#6F3AD0"/>
<path fill-rule="evenodd" clip-rule="evenodd" d="M33.2154 27.0414L38.4809 40.5595C38.7412 41.2276 38.4114 41.9805 37.7445 42.2411C37.387 42.3808 36.9862 42.3547 36.6498 42.1699L33.2548 40.304C32.4788 39.8776 31.5392 39.8771 30.7628 40.3028L27.3511 42.1735C26.7231 42.5178 25.9353 42.287 25.5916 41.6579C25.4074 41.3209 25.3817 40.9194 25.5214 40.5616L30.8005 27.0404C31.0612 26.3726 31.8131 26.0429 32.4799 26.3041C32.8171 26.4362 33.0837 26.7035 33.2154 27.0414Z" fill="url(#paint0_linear_645_6079)"/>
<path d="M29.1704 26.5181L28.3757 28.4629L27.8705 28.511C23.2024 28.9883 19.8667 30.2518 19.8667 31.7353C19.8667 33.5766 25.0054 35.0789 31.4522 35.1598L32 35.1632C38.7011 35.1632 44.1333 33.6285 44.1333 31.7353C44.1333 30.1994 40.5581 28.8995 35.6306 28.4635L34.8374 26.5185L35.3928 26.555C41.5446 26.9997 46 28.7113 46 31.7353C46 35.2082 40.1239 36.9501 32.5504 37.0301L32 37.033L31.4496 37.0301C23.8761 36.9501 18 35.2082 18 31.7353C18 28.6197 22.7292 26.8973 29.1704 26.5181Z" fill="#6F3AD0"/>
<path fill-rule="evenodd" clip-rule="evenodd" d="M57.0103 5C57.0103 5 57.5772 7.15441 58.2853 8.73811C59.8715 9.45201 62.0513 10.0256 62.0513 10.0256C62.0513 10.0256 59.8715 10.5993 58.2853 11.3132C57.5772 12.8969 57.0103 15.0513 57.0103 15.0513C57.0103 15.0513 56.4392 12.8812 55.7275 11.296C54.1448 10.5901 52 10.0256 52 10.0256C52 10.0256 54.1448 9.46121 55.7275 8.75531C56.4392 7.17006 57.0103 5 57.0103 5Z" fill="#BBD8FD"/>
<path fill-rule="evenodd" clip-rule="evenodd" d="M5.564 25C5.564 25 5.85534 26.1071 6.21619 26.9016C7.00136 27.2433 8.02564 27.5128 8.02564 27.5128C8.02564 27.5128 7.00136 27.7824 6.21618 28.1241C5.85533 28.9186 5.564 30.0256 5.564 30.0256C5.564 30.0256 5.28642 28.9708 4.93755 28.1815C4.14093 27.8131 3 27.5128 3 27.5128C3 27.5128 4.14093 27.2126 4.93754 26.8442C5.28642 26.0548 5.564 25 5.564 25Z" fill="#BBD8FD"/>
<path fill-rule="evenodd" clip-rule="evenodd" d="M61.564 20C61.564 20 61.8553 21.1071 62.2162 21.9016C63.0014 22.2433 64.0256 22.5128 64.0256 22.5128C64.0256 22.5128 63.0014 22.7824 62.2162 23.1241C61.8553 23.9186 61.564 25.0256 61.564 25.0256C61.564 25.0256 61.2864 23.9708 60.9375 23.1815C60.1409 22.8131 59 22.5128 59 22.5128C59 22.5128 60.1409 22.2126 60.9375 21.8442C61.2864 21.0548 61.564 20 61.564 20Z" fill="#BBD8FD"/>
<path fill-rule="evenodd" clip-rule="evenodd" d="M3.70009 14C3.70009 14 4.11751 15.5862 4.64173 16.7707C5.8362 17.3213 7.53846 17.7692 7.53846 17.7692C7.53846 17.7692 5.8362 18.2172 4.64173 18.7678C4.11751 19.9523 3.70009 21.5385 3.70009 21.5385C3.70009 21.5385 3.2641 19.8817 2.72369 18.6902C1.54471 18.1757 0 17.7692 0 17.7692C0 17.7692 1.54472 17.3627 2.72369 16.8482C3.2641 15.6567 3.70009 14 3.70009 14Z" fill="#BBD8FD"/>
<defs>
<linearGradient id="paint0_linear_645_6079" x1="25.4324" y1="26.2145" x2="25.4324" y2="42.3332" gradientUnits="userSpaceOnUse">
<stop stop-color="#A86CEA"/>
<stop offset="1" stop-color="#6F3AD0"/>
</linearGradient>
</defs>
</svg>
