<svg width="120" height="80" viewBox="0 0 120 80" fill="none" xmlns="http://www.w3.org/2000/svg">
<rect width="120" height="80" rx="8" fill="url(#paint0_linear_5099_153901)"/>
<g filter="url(#filter0_d_5099_153901)">
<rect x="10" y="46" width="100" height="24" rx="12" fill="white"/>
<rect x="10.3462" y="46.3462" width="99.3077" height="23.3077" rx="11.6538" stroke="url(#paint1_linear_5099_153901)" stroke-width="0.692308" stroke-linejoin="bevel"/>
<path d="M21.043 63L24.5293 53.1016H26.7168L30.2168 63H28.3164L27.4893 60.5527H23.7637L22.9434 63H21.043ZM27.0107 59.1172L25.6641 55.125H25.582L24.2422 59.1172H27.0107ZM33.1699 63H31.3926V53.1016H33.1699V63ZM45.0098 56.4375C44.9414 56.0501 44.7979 55.7152 44.5791 55.4326C44.3604 55.1501 44.0824 54.9359 43.7451 54.79C43.4124 54.6396 43.0456 54.5645 42.6445 54.5645C42.0977 54.5645 41.6169 54.7012 41.2021 54.9746C40.7874 55.2435 40.4639 55.64 40.2314 56.1641C39.999 56.6882 39.8828 57.3171 39.8828 58.0508C39.8828 58.7891 39.999 59.4202 40.2314 59.9443C40.4639 60.4684 40.7874 60.8649 41.2021 61.1338C41.6214 61.4027 42.1022 61.5371 42.6445 61.5371C43.0365 61.5371 43.3965 61.4665 43.7246 61.3252C44.0573 61.1794 44.3353 60.9697 44.5586 60.6963C44.7819 60.4229 44.9323 60.097 45.0098 59.7188H46.8008C46.7096 60.3568 46.4795 60.9355 46.1104 61.4551C45.7458 61.9746 45.2627 62.3848 44.6611 62.6855C44.0596 62.9863 43.3783 63.1367 42.6172 63.1367C41.7467 63.1367 40.9674 62.9339 40.2793 62.5283C39.5957 62.1182 39.0602 61.5303 38.6729 60.7646C38.2855 59.9945 38.0918 59.0898 38.0918 58.0508C38.0918 57.0072 38.2855 56.1025 38.6729 55.3369C39.0648 54.5713 39.6025 53.9857 40.2861 53.5801C40.9743 53.1699 41.7513 52.9648 42.6172 52.9648C43.3464 52.9648 44.0094 53.1038 44.6064 53.3818C45.2035 53.6553 45.6934 54.054 46.0762 54.5781C46.459 55.0977 46.7005 55.7174 46.8008 56.4375H45.0098ZM50 63H48.25V53.1016H49.959V56.834H50.0547C50.2324 56.401 50.5036 56.0684 50.8682 55.8359C51.2373 55.599 51.6999 55.4805 52.2559 55.4805C52.7708 55.4805 53.2197 55.5898 53.6025 55.8086C53.9899 56.0228 54.2884 56.3395 54.498 56.7588C54.7077 57.1781 54.8125 57.6816 54.8125 58.2695V63H53.0762V58.543C53.0762 58.0371 52.9463 57.6475 52.6865 57.374C52.4313 57.096 52.0736 56.957 51.6133 56.957C51.2988 56.957 51.0186 57.0254 50.7725 57.1621C50.5309 57.2943 50.3418 57.488 50.2051 57.7432C50.0684 57.9984 50 58.3014 50 58.6523V63ZM56.125 60.9082C56.125 60.1426 56.3825 59.5911 56.8975 59.2539C57.417 58.9121 58.0801 58.7161 58.8867 58.666C59.6751 58.6113 60.3086 58.5749 60.7871 58.5566V57.9688C60.7871 57.5996 60.6709 57.3148 60.4385 57.1143C60.2061 56.9092 59.8757 56.8066 59.4473 56.8066C59.069 56.8066 58.7591 56.8864 58.5176 57.0459C58.276 57.2054 58.1211 57.4219 58.0527 57.6953H56.3711C56.4121 57.2715 56.5625 56.8932 56.8223 56.5605C57.082 56.2233 57.4398 55.959 57.8955 55.7676C58.3512 55.5762 58.8822 55.4805 59.4883 55.4805C60.0078 55.4805 60.4954 55.5625 60.9512 55.7266C61.4115 55.8861 61.7874 56.1572 62.0791 56.54C62.3753 56.9183 62.5234 57.4173 62.5234 58.0371V63H60.8555V61.9746H60.8008C60.6185 62.321 60.3451 62.6035 59.9805 62.8223C59.6159 63.041 59.1602 63.1504 58.6133 63.1504C58.1348 63.1504 57.7064 63.0638 57.3281 62.8906C56.9544 62.7174 56.6605 62.4622 56.4463 62.125C56.2321 61.7878 56.125 61.3822 56.125 60.9082ZM57.8066 60.8945C57.8066 61.209 57.9206 61.4505 58.1484 61.6191C58.3763 61.7832 58.6816 61.8652 59.0645 61.8652C59.4062 61.8652 59.7093 61.7969 59.9736 61.6602C60.238 61.5234 60.4408 61.3389 60.582 61.1064C60.7279 60.8695 60.8008 60.612 60.8008 60.334L60.7939 59.7256L59.1602 59.8281C58.7318 59.8646 58.3991 59.9717 58.1621 60.1494C57.9251 60.3271 57.8066 60.5755 57.8066 60.8945ZM67.8691 56.916H66.4062V60.7715C66.4062 61.0996 66.4746 61.3252 66.6113 61.4482C66.7526 61.5713 66.9486 61.6328 67.1992 61.6328C67.418 61.6328 67.6732 61.6237 67.9648 61.6055V63.0273C67.737 63.0729 67.4089 63.0957 66.9805 63.0957C66.5293 63.0957 66.1283 63.0228 65.7773 62.877C65.431 62.7266 65.1576 62.4987 64.957 62.1934C64.7611 61.888 64.6654 61.5098 64.6699 61.0586V56.916H63.6035V55.5762H64.6699V53.7988H66.4062V55.5762H67.8691V56.916Z" fill="#511BB2"/>
<rect x="90.6152" y="49.6924" width="16.6154" height="16.6154" rx="8.30769" fill="url(#paint2_linear_5099_153901)"/>
<path d="M102.782 53.4992L94.6825 55.4052C94.2893 55.5178 94.1854 56.0397 94.5534 56.2199L97.1408 57.6892L101.274 55.2535L98.1574 58.9008L99.1551 61.704C99.3005 62.071 99.8007 62.086 99.953 61.6864L103.237 54.0412C103.379 53.7588 103.111 53.44 102.782 53.4992Z" fill="white"/>
</g>
<path fill-rule="evenodd" clip-rule="evenodd" d="M20.495 12.0144L24.1203 21.3476C24.3063 21.8264 24.0689 22.3652 23.5902 22.5512C23.3335 22.6509 23.0458 22.6317 22.8046 22.4988L20.0775 20.9958C19.7983 20.842 19.4598 20.8418 19.1805 20.9954L16.4415 22.5014C15.9915 22.7489 15.426 22.5846 15.1785 22.1345C15.0459 21.8933 15.027 21.6056 15.1268 21.3491L18.7615 12.0137C18.9478 11.5351 19.4869 11.2982 19.9655 11.4845C20.2085 11.5791 20.4006 11.7714 20.495 12.0144Z" fill="white"/>
<path fill-rule="evenodd" clip-rule="evenodd" d="M14.2605 21.0112L17.8952 11.6759C18.2679 10.7186 19.346 10.2448 20.3032 10.6175C20.7892 10.8067 21.1734 11.1912 21.3622 11.6772L24.9875 21.0104C25.3594 21.968 24.8847 23.0457 23.9272 23.4177C23.4138 23.6171 22.8384 23.5787 22.356 23.3129L19.6289 21.8099L16.8899 23.3159C15.9898 23.8108 14.8588 23.4823 14.3639 22.5822C14.0986 22.0997 14.0607 21.5244 14.2605 21.0112ZM20.4951 12.0143C20.4007 11.7713 20.2086 11.5791 19.9657 11.4845C19.4871 11.2981 18.948 11.535 18.7616 12.0137L15.127 21.349C15.0271 21.6056 15.046 21.8932 15.1787 22.1345C15.4262 22.5846 15.9916 22.7488 16.4417 22.5013L19.1807 20.9953C19.46 20.8418 19.7985 20.8419 20.0776 20.9958L22.8047 22.4987C23.0459 22.6317 23.3336 22.6509 23.5903 22.5511C24.0691 22.3652 24.3064 21.8263 24.1205 21.3475L20.4951 12.0143Z" fill="#6F3AD0"/>
<path fill-rule="evenodd" clip-rule="evenodd" d="M20.2271 13.4952L22.8505 20.2188C22.9801 20.5511 22.8159 20.9256 22.4836 21.0552C22.3055 21.1247 22.1058 21.1117 21.9382 21.0198L20.2468 20.0918C19.8602 19.8796 19.3921 19.8794 19.0053 20.0911L17.3055 21.0216C16.9927 21.1928 16.6002 21.078 16.4289 20.7652C16.3372 20.5975 16.3244 20.3978 16.394 20.2198L19.024 13.4948C19.1539 13.1626 19.5285 12.9986 19.8607 13.1285C20.0287 13.1942 20.1616 13.3272 20.2271 13.4952Z" fill="url(#paint3_linear_5099_153901)"/>
<path d="M18.2126 13.2354L17.8167 14.2027L17.565 14.2266C15.2393 14.464 13.5774 15.0924 13.5774 15.8303C13.5774 16.7461 16.1376 17.4933 19.3494 17.5336L19.6223 17.5353C22.9608 17.5353 25.6672 16.7719 25.6672 15.8303C25.6672 15.0664 23.886 14.4198 21.4311 14.203L21.036 13.2356L21.3127 13.2537C24.3775 13.4749 26.5972 14.3262 26.5972 15.8303C26.5972 17.5576 23.6697 18.424 19.8965 18.4638L19.6223 18.4652L19.3481 18.4638C15.575 18.424 12.6475 17.5576 12.6475 15.8303C12.6475 14.2807 15.0035 13.424 18.2126 13.2354Z" fill="#6F3AD0"/>
<path fill-rule="evenodd" clip-rule="evenodd" d="M23.8477 11.5428L23.5967 10.6965C23.4945 10.4672 23.3771 10.2885 23.1332 10.2129L22.6397 10.1077C22.5371 10.0802 22.4648 9.97795 22.4648 9.86044C22.4648 9.74292 22.5371 9.64071 22.6397 9.61318L23.1332 9.50797C23.4253 9.42301 23.5064 9.27784 23.5967 9.05418L23.8477 8.18696C23.9136 8.0604 23.9855 7.9981 24.0633 8.00004L24.0963 8.00314C24.1615 8.01721 24.2224 8.07848 24.2789 8.18696L24.5299 9.05418C24.6203 9.27784 24.7013 9.42301 24.9935 9.50797L25.4869 9.61318C25.5895 9.64071 25.6618 9.74292 25.6618 9.86044C25.6618 9.97795 25.5895 10.0802 25.4869 10.1077L24.9935 10.2129C24.7495 10.2885 24.6321 10.4672 24.5299 10.6965L24.2789 11.5428C24.2367 11.6675 24.1648 11.7298 24.0633 11.7298C23.9618 11.7298 23.89 11.6675 23.8477 11.5428Z" fill="#9D75EC"/>
<path fill-rule="evenodd" clip-rule="evenodd" d="M14.8262 12.6354L14.617 11.9099C14.5319 11.7134 14.4341 11.5602 14.2308 11.4954L13.8196 11.4052C13.7341 11.3816 13.6738 11.294 13.6738 11.1933C13.6738 11.0926 13.7341 11.005 13.8196 10.9814L14.2308 10.8912C14.4742 10.8184 14.5418 10.6939 14.617 10.5022L14.8262 9.75888C14.8812 9.65041 14.941 9.597 15.0059 9.59867L15.0334 9.60133C15.0877 9.61339 15.1385 9.6659 15.1855 9.75888L15.3947 10.5022C15.47 10.6939 15.5376 10.8184 15.781 10.8912L16.1922 10.9814C16.2777 11.005 16.3379 11.0926 16.3379 11.1933C16.3379 11.294 16.2777 11.3816 16.1922 11.4052L15.781 11.4954C15.5777 11.5602 15.4799 11.7134 15.3947 11.9099L15.1855 12.6354C15.1503 12.7422 15.0905 12.7956 15.0059 12.7956C14.9213 12.7956 14.8614 12.7422 14.8262 12.6354Z" fill="#9D75EC"/>
<path fill-rule="evenodd" clip-rule="evenodd" d="M34 13C33.4477 13 33 13.4477 33 14V16C33 16.5523 33.4477 17 34 17H78C78.5523 17 79 16.5523 79 16V14C79 13.4477 78.5523 13 78 13H34ZM34 20C33.4477 20 33 20.4477 33 21V23C33 23.5523 33.4477 24 34 24H105C105.552 24 106 23.5523 106 23V21C106 20.4477 105.552 20 105 20H34ZM33 28C33 27.4477 33.4477 27 34 27H105C105.552 27 106 27.4477 106 28V30C106 30.5523 105.552 31 105 31H34C33.4477 31 33 30.5523 33 30V28ZM34 34C33.4477 34 33 34.4477 33 35V37C33 37.5523 33.4477 38 34 38H92C92.5523 38 93 37.5523 93 37V35C93 34.4477 92.5523 34 92 34H34Z" fill="#9D75EC"/>
<defs>
<filter id="filter0_d_5099_153901" x="9" y="46" width="102" height="26" filterUnits="userSpaceOnUse" color-interpolation-filters="sRGB">
<feFlood flood-opacity="0" result="BackgroundImageFix"/>
<feColorMatrix in="SourceAlpha" type="matrix" values="0 0 0 0 0 0 0 0 0 0 0 0 0 0 0 0 0 0 127 0" result="hardAlpha"/>
<feOffset dy="1"/>
<feGaussianBlur stdDeviation="0.5"/>
<feComposite in2="hardAlpha" operator="out"/>
<feColorMatrix type="matrix" values="0 0 0 0 0 0 0 0 0 0 0 0 0 0 0 0 0 0 0.1 0"/>
<feBlend mode="normal" in2="BackgroundImageFix" result="effect1_dropShadow_5099_153901"/>
<feBlend mode="normal" in="SourceGraphic" in2="effect1_dropShadow_5099_153901" result="shape"/>
</filter>
<linearGradient id="paint0_linear_5099_153901" x1="20" y1="20" x2="105" y2="70" gradientUnits="userSpaceOnUse">
<stop stop-color="#E6DAFF"/>
<stop offset="1" stop-color="#D6B9FB"/>
</linearGradient>
<linearGradient id="paint1_linear_5099_153901" x1="60" y1="46" x2="60" y2="70" gradientUnits="userSpaceOnUse">
<stop stop-color="#6F3AD0"/>
<stop offset="1" stop-color="#A86CEA"/>
</linearGradient>
<linearGradient id="paint2_linear_5099_153901" x1="107.231" y1="49.6924" x2="90.6152" y2="49.6924" gradientUnits="userSpaceOnUse">
<stop stop-color="#A86CEA"/>
<stop offset="1" stop-color="#6F3AD0"/>
</linearGradient>
<linearGradient id="paint3_linear_5099_153901" x1="16.3496" y1="13.084" x2="16.3496" y2="21.101" gradientUnits="userSpaceOnUse">
<stop stop-color="#A86CEA"/>
<stop offset="1" stop-color="#6F3AD0"/>
</linearGradient>
</defs>
</svg>
