<svg width="138" height="33" viewBox="0 0 138 33" fill="none" xmlns="http://www.w3.org/2000/svg">
<path fill-rule="evenodd" clip-rule="evenodd" d="M25.2289 0.5V10.196H28.9523V23.9933H24.9272V32.5L15.2765 24.2413V32.4347H13.7802V24.232L4.11852 32.5V23.88H0.152344V10.084H4.10754V0.5L13.7802 9.15867V0.753333H15.2751V9.40667L25.2289 0.5ZM15.2765 12.5587V22.3173L23.431 29.296V19.7533L15.2765 12.5587ZM13.7693 12.452L5.61474 19.6493V29.296L13.7693 22.3173V12.4533V12.452ZM24.9272 22.5587H27.4561V11.632H16.5546L24.9272 19.0187V22.5587ZM12.609 11.5187H1.6472V22.4453H4.11577V19.0107L12.6077 11.5173L12.609 11.5187ZM5.60377 3.80133V10.0813H12.6186L5.60377 3.80133ZM23.7327 3.80133L16.7178 10.0813H23.7327V3.80133Z" fill="#20808D"/>
<path d="M53.9733 12.0807C54.5004 11.095 55.2373 10.3358 56.1875 9.80162C57.136 9.26918 58.2489 9.00251 59.5253 9.00251C60.8018 9.00251 61.8587 9.26474 62.7431 9.79007C63.6284 10.3154 64.2907 11.0114 64.7289 11.8781C65.1671 12.7456 65.3867 13.6958 65.3867 14.7287V16.1598H55.4569C55.5369 17.4007 55.9555 18.3874 56.7129 19.119C57.4702 19.8514 58.4871 20.2167 59.7644 20.2167C60.8009 20.2167 61.5955 20.0061 62.1449 19.5847C62.696 19.1634 63.0978 18.5794 63.3538 17.831H65.6275C65.3244 18.9918 64.7067 19.999 63.7733 20.8496C62.8409 21.7012 61.504 22.1261 59.7653 22.1261C58.4569 22.1261 57.304 21.8594 56.3067 21.327C55.3102 20.7945 54.5395 20.0345 53.9973 19.0478C53.4551 18.0612 53.184 16.9003 53.184 15.5634C53.184 14.2265 53.4471 13.0665 53.9742 12.0798L53.9733 12.0807ZM62.9947 14.3705C62.9947 13.2887 62.7155 12.4425 62.1573 11.8292C61.5991 11.2167 60.7218 10.911 59.5244 10.911C58.408 10.911 57.4942 11.2087 56.7849 11.8052C56.0747 12.4016 55.64 13.2576 55.4809 14.3705H62.9947ZM68.3698 9.35985V11.3403C68.3698 11.4523 68.4258 11.5074 68.5378 11.5074C68.6018 11.5074 68.6489 11.4914 68.6818 11.4594C68.7147 11.4274 68.7458 11.3643 68.7769 11.2692C69.1911 9.96518 70.2204 9.31274 71.864 9.31274H72.9164V11.4594H71.552C70.4827 11.4594 69.6853 11.7136 69.1582 12.223C68.6311 12.7323 68.368 13.567 68.368 14.7287V21.7678H66.2142V9.35896H68.3698V9.35985ZM85.5627 19.1545C84.9964 20.1483 84.2622 20.8923 83.3609 21.3847C82.4596 21.8772 81.4898 22.1243 80.4533 22.1243C78.4115 22.1243 76.9751 21.3136 76.1458 19.6905C76.0818 19.5643 76.0018 19.5003 75.9067 19.5003C75.8116 19.5003 75.7627 19.5483 75.7627 19.6434V26.3003H73.6089V9.36074H75.7627V11.4843C75.7627 11.5794 75.8107 11.6274 75.9067 11.6274C76.0027 11.6274 76.0818 11.5634 76.1458 11.4372C76.9751 9.81407 78.4115 9.0034 80.4533 9.0034C81.4898 9.0034 82.4596 9.25051 83.3609 9.74296C84.2622 10.2354 84.9955 10.9794 85.5627 11.9741C86.1289 12.9678 86.4124 14.1661 86.4124 15.5643C86.4124 16.9625 86.1289 18.1598 85.5627 19.1545ZM83.0738 12.1394C82.2835 11.3198 81.2427 10.9101 79.9511 10.9101C78.6595 10.9101 77.6178 11.3198 76.8284 12.1394C76.0382 12.959 75.7484 14.1003 75.7484 15.5634C75.7484 17.0265 76.0382 18.1687 76.8284 18.9874C77.6187 19.807 78.6595 20.2167 79.9511 20.2167C81.2427 20.2167 82.2844 19.8078 83.0738 18.9874C83.864 18.1678 84.2587 17.0265 84.2587 15.5634C84.2587 14.1003 83.864 12.959 83.0738 12.1394ZM89.5378 4.5874V21.767H87.384V4.58918H89.5378V4.5874ZM91.3111 12.0798C91.8373 11.0941 92.5751 10.335 93.5253 9.80074C94.4738 9.26829 95.5867 9.00163 96.8622 9.00163C98.1378 9.00163 99.1964 9.26385 100.081 9.78918C100.966 10.3145 101.628 11.0105 102.067 11.8772C102.506 12.7447 102.724 13.695 102.724 14.7278V16.159H92.7947C92.8747 17.3998 93.2933 18.3865 94.0507 19.1181C94.808 19.8505 95.8249 20.2158 97.1022 20.2158C98.1387 20.2158 98.9324 20.0052 99.4827 19.5838C100.034 19.1625 100.436 18.5785 100.692 17.8301H102.965C102.662 18.991 102.044 19.9981 101.111 20.8487C100.179 21.7003 98.8418 22.1252 97.1031 22.1252C95.7947 22.1252 94.6418 21.8585 93.6444 21.3261C92.648 20.7936 91.8773 20.0336 91.3351 19.047C90.7929 18.0603 90.5218 16.8994 90.5218 15.5625C90.5218 14.2256 90.7849 13.0656 91.312 12.079H91.3111V12.0798ZM100.332 14.3696C100.332 13.2878 100.053 12.4416 99.4951 11.8283C98.9369 11.2158 98.0595 10.9101 96.8622 10.9101C95.7467 10.9101 94.832 11.2078 94.1227 11.8043C93.4124 12.4007 92.9787 13.2567 92.8187 14.3696H100.332ZM101.766 21.2896L106.695 15.2043L102.652 9.83629V9.35896H105.02L108.396 13.9874L112.033 9.35896H114.449V9.86029L109.807 15.5634L114.091 21.2896V21.767H111.77L108.108 16.7803L104.185 21.767H101.768V21.2896H101.766ZM117.576 5.32074V8.00607H115.06V5.32074H117.576ZM117.445 21.7678H115.291V9.35985H117.445V21.7678ZM118.124 9.35985H120.468V6.0194H122.622V9.35985H125.088L125.693 11.1785H122.622V17.1145C122.622 17.9252 122.602 18.5261 122.562 18.9163C122.522 19.3065 122.502 19.5412 122.502 19.6203C122.502 19.7323 122.533 19.8194 122.597 19.8825C122.661 19.9465 122.748 19.9776 122.861 19.9776C122.94 19.9776 123.176 19.9581 123.567 19.9181C123.957 19.8781 124.56 19.8585 125.374 19.8585H126.212V21.767H124.537C123.164 21.767 122.143 21.4336 121.474 20.7643C120.804 20.0958 120.468 19.079 120.468 17.7101V11.1776H118.126V9.35896H118.124V9.35985ZM125.737 9.35985H127.932L131.498 19.7696C131.547 19.8976 131.622 20.0656 131.867 20.0656C132.111 20.0656 132.187 19.8967 132.235 19.7696L135.8 9.35985H137.848V9.83718L133.388 23.223C133.004 24.3687 132.467 25.1678 131.773 25.6212C131.079 26.0745 130.273 26.3012 128.932 26.3012H126.635V24.3927H128.382C128.94 24.3927 129.395 24.4123 129.746 24.4523C130.096 24.4923 130.32 24.5118 130.416 24.5118C130.687 24.5118 130.87 24.3927 130.967 24.1545L131.637 22.3412C131.717 22.151 131.724 22.0078 131.661 21.911C131.629 21.847 131.59 21.807 131.542 21.7918C131.494 21.7758 131.422 21.7678 131.327 21.7678H129.868L125.739 9.36074H125.737V9.35985ZM51.8151 19.175C51.2489 20.1687 50.5147 20.9127 49.6133 21.4052C48.712 21.8976 47.7422 22.1447 46.7058 22.1447C44.664 22.1447 43.2276 21.3341 42.3982 19.711C42.3342 19.5847 42.2542 19.5207 42.1591 19.5207C42.064 19.5207 42.0151 19.5687 42.0151 19.6638V26.3207H39.8613V9.38118H42.0151V11.5047C42.0151 11.5998 42.0631 11.6478 42.1591 11.6478C42.2551 11.6478 42.3342 11.5838 42.3982 11.4576C43.2267 9.83451 44.664 9.02385 46.7058 9.02385C47.7422 9.02385 48.712 9.27096 49.6133 9.7634C50.5147 10.2558 51.248 10.9998 51.8151 11.9936C52.3813 12.9874 52.6649 14.1856 52.6649 15.5847C52.6649 16.9838 52.3813 18.1812 51.8151 19.175ZM49.3262 12.1598C48.536 11.3403 47.4951 10.9305 46.2036 10.9305C44.912 10.9305 43.8702 11.3403 43.0809 12.1598C42.2907 12.9794 42.0009 14.1207 42.0009 15.5838C42.0009 17.047 42.2907 18.1892 43.0809 19.0078C43.8711 19.8274 44.912 20.2372 46.2036 20.2372C47.4951 20.2372 48.5369 19.8283 49.3262 19.0078C50.1164 18.1883 50.5111 17.047 50.5111 15.5838C50.5111 14.1207 50.1164 12.9794 49.3262 12.1598Z" fill="#13343B"/>
</svg>
