<svg width="546" height="70" viewBox="0 0 546 70" fill="none" xmlns="http://www.w3.org/2000/svg">
<path d="M0.740625 68.2L22.3406 4.44H43.3006L64.9006 68.2H48.2606L42.1806 50.36L21.5406 56.04L17.3806 68.2H0.740625ZM26.6606 40.92L37.8606 37.8L32.8206 22.84L26.6606 40.92ZM88.7244 4.44V68.2H72.0844V4.44H88.7244ZM164.479 2.52V12.92C164.479 14.7867 164.319 16.5733 163.999 18.28C163.732 19.9333 163.305 21.5867 162.719 23.24L190.879 36.6L182.719 48.84L154.879 35.24C148.265 41.8 138.665 46.6 126.079 49.64L119.279 36.76C128.239 34.9467 135.225 32.0667 140.239 28.12C145.305 24.12 147.839 19.0267 147.839 12.84V2.52H164.479ZM120.399 54.52H189.599V68.28H120.399V54.52ZM243.836 67.48H195.116V53.72H199.916V15.96H195.116V2.2H243.836V15.96H239.036V53.72H243.836V67.48ZM264.876 68.28H248.316V0.599998H264.876V68.28ZM215.676 53.72H223.276V15.96H215.676V53.72ZM299.273 31.4V15.96H275.113V2.2H315.833V67.48H299.273V45.16H275.113V31.4H299.273ZM341.673 68.28H325.113V40.04L317.833 42.44V27.32L325.113 24.92V0.599998H341.673V68.28ZM439.291 58.6V69.88H377.691V42.28H438.491V53.56H394.251V58.6H439.291ZM415.051 1.4V38.28H374.331V1.4H390.011V8.04H399.371V1.4H415.051ZM438.491 25.32V39.48H421.931V0.599998H438.491V11.56H445.451V25.32H438.491ZM399.371 26.12V20.2H390.011V26.12H399.371ZM494.488 2.2V15.96H479.768V30.92C479.768 34.44 479.448 37.8267 478.808 41.08L496.808 55.08L488.568 67.32L472.888 54.92C470.755 57.8 468.088 60.3067 464.888 62.44C461.688 64.5733 457.848 66.2 453.368 67.32L446.248 55.24C449.288 54.3867 451.875 53.2933 454.008 51.96C456.141 50.5733 457.875 48.8933 459.208 46.92C460.595 44.8933 461.608 42.5733 462.248 39.96C462.888 37.2933 463.208 34.2533 463.208 30.84V15.96H449.288V2.2H494.488ZM515.288 24.04H522.248V37.8H515.288V68.28H498.728V0.599998H515.288V24.04ZM528.725 49.8V1.24H545.285V49.8H528.725ZM528.725 69.88V54.12H545.285V69.88H528.725Z" fill="url(#paint0_linear_2942_54488)"/>
<defs>
<linearGradient id="paint0_linear_2942_54488" x1="-1" y1="43.0002" x2="551" y2="43.0002" gradientUnits="userSpaceOnUse">
<stop stop-color="#79B5FF"/>
<stop offset="0.5" stop-color="#D2F7FF"/>
<stop offset="1" stop-color="#E3D9FC"/>
</linearGradient>
</defs>
</svg>
