<svg width="291" height="65" viewBox="0 0 291 65" fill="none" xmlns="http://www.w3.org/2000/svg">
<path d="M59.8032 23.968V0.839999H62.6032V11.368L65.7672 10.276V0.839999H68.5672V23.968H65.7672V12.6L62.6032 13.692V23.968H59.8032ZM47.9592 1.4V21.392H58.0112V23.688H45.1592V1.4H47.9592ZM82.9236 23.688V3.696H72.3116V1.4H85.7236V23.688H82.9236ZM92.8076 10.024H96.0836V12.32H92.8076V23.968H90.0076V0.839999H92.8076V10.024ZM118.782 1.12V14.588H105.37V1.12H118.782ZM115.982 12.292V3.416H108.17V12.292H115.982ZM109.346 16.828V22.232H126.146V24.528H106.546V16.828H109.346ZM125.866 8.232V17.276H123.066V0.839999H125.866V5.936H129.142V8.232H125.866ZM131.338 13.02H153.878V15.316H131.338V13.02ZM135.51 17.108V22.232H152.786V24.528H132.71V17.108H135.51ZM152.506 8.176V10.472H132.99V1.12H152.226V3.416H135.79V8.176H152.506ZM289.616 24.08C289.616 25.3493 289.392 26.2827 288.944 26.88C288.496 27.496 287.674 27.8787 286.48 28.028V26.432C287.058 26.3573 287.46 26.1707 287.684 25.872C287.908 25.5733 288.02 24.9947 288.02 24.136H286.536V21.14H289.616V24.08ZM1.51488 40.092H21.3109V42.388H17.4189V45.664H21.3109V47.96H12.7989V49.948H22.6829V52.244H0.142875V49.948H9.99888V47.96H1.51488V45.664H5.37888V42.388H1.51488V40.092ZM18.5109 57.536V56.108H1.51488V53.812H21.3109V59.832H4.31488V61.232H21.5909V63.528H1.51488V57.536H18.5109ZM8.17888 45.664H14.6189V42.388H8.17888V45.664ZM26.2647 42.696V40.4H39.6767V52.776H29.0647V60.392H40.2367V62.688H26.2647V50.48H36.8767V42.696H26.2647ZM46.7607 49.024H50.0367V51.32H46.7607V62.968H43.9607V39.84H46.7607V49.024ZM52.5967 42.696V40.4H66.5687V52.776H55.3967V60.392H67.1287V62.688H52.5967V50.48H63.7687V42.696H52.5967ZM73.9327 62.968H71.1327V39.84H73.9327V62.968ZM90.8211 40.512V43.788C90.8211 44.516 90.7744 45.216 90.6811 45.888C90.6064 46.56 90.4664 47.204 90.2611 47.82L100.145 53.952L98.8291 55.94L89.2811 50.06C88.4598 51.4227 87.2278 52.6173 85.5851 53.644C83.9611 54.6707 81.7958 55.52 79.0891 56.192L78.0251 54.008C79.8731 53.56 81.4318 53.028 82.7011 52.412C83.9704 51.7773 84.9971 51.0493 85.7811 50.228C86.5838 49.4067 87.1531 48.464 87.4891 47.4C87.8438 46.3173 88.0211 45.104 88.0211 43.76V40.512H90.8211ZM77.7171 60.672H100.257V62.968H77.7171V60.672ZM113.723 57.928H118.763V39.84H121.563V62.968H118.763V60.224H113.723V57.928ZM127.247 62.968H124.447V39.84H127.247V62.968ZM108.291 62.968V55.66H102.775V53.364H117.447V55.66H111.091V62.968H108.291ZM111.315 41.94C111.315 43.0227 111.175 43.9933 110.895 44.852L116.831 49.024L115.347 50.928L109.747 47.008C108.552 48.52 106.62 49.7893 103.951 50.816L102.663 48.604C103.802 48.2493 104.744 47.8573 105.491 47.428C106.256 46.9987 106.854 46.5227 107.283 46C107.731 45.4587 108.039 44.852 108.207 44.18C108.394 43.508 108.487 42.752 108.487 41.912V39.84H111.315V41.94ZM152.327 62.968H149.527V51.292L145.243 52.804C145.15 54.596 144.879 56.136 144.431 57.424C143.983 58.6933 143.414 59.7387 142.723 60.56C142.033 61.4 141.249 62.0067 140.371 62.38C139.513 62.772 138.626 62.968 137.711 62.968C136.703 62.968 135.742 62.7533 134.827 62.324C133.931 61.8947 133.129 61.2133 132.419 60.28C131.729 59.3653 131.178 58.1893 130.767 56.752C130.357 55.296 130.151 53.56 130.151 51.544C130.151 49.528 130.357 47.8013 130.767 46.364C131.178 44.9267 131.729 43.7507 132.419 42.836C133.129 41.9027 133.931 41.2213 134.827 40.792C135.742 40.344 136.703 40.12 137.711 40.12C138.645 40.12 139.55 40.3253 140.427 40.736C141.305 41.128 142.089 41.7533 142.779 42.612C143.47 43.452 144.03 44.5347 144.459 45.86C144.907 47.1667 145.169 48.744 145.243 50.592L149.527 49.08V39.84H152.327V62.968ZM132.951 51.544C132.951 53.2427 133.073 54.68 133.315 55.856C133.577 57.0133 133.922 57.9467 134.351 58.656C134.781 59.3653 135.285 59.8787 135.863 60.196C136.442 60.5133 137.058 60.672 137.711 60.672C138.346 60.672 138.953 60.5133 139.531 60.196C140.11 59.8973 140.614 59.3933 141.043 58.684C141.473 57.956 141.809 57.0133 142.051 55.856C142.313 54.68 142.443 53.2333 142.443 51.516C142.443 49.8173 142.313 48.3893 142.051 47.232C141.809 46.0747 141.473 45.1413 141.043 44.432C140.614 43.7227 140.11 43.2093 139.531 42.892C138.953 42.5747 138.346 42.416 137.711 42.416C137.058 42.416 136.442 42.5747 135.863 42.892C135.285 43.2093 134.781 43.7227 134.351 44.432C133.922 45.1413 133.577 46.084 133.315 47.26C133.073 48.4173 132.951 49.8453 132.951 51.544ZM172.52 62.968V51.516L169.552 52.552C169.496 54.4 169.272 55.9867 168.88 57.312C168.506 58.6187 168.012 59.692 167.396 60.532C166.78 61.372 166.061 61.988 165.24 62.38C164.418 62.772 163.541 62.968 162.608 62.968C161.6 62.968 160.666 62.7533 159.808 62.324C158.968 61.8947 158.24 61.2133 157.624 60.28C157.008 59.3653 156.522 58.1893 156.168 56.752C155.813 55.296 155.636 53.56 155.636 51.544C155.636 49.528 155.813 47.8013 156.168 46.364C156.522 44.9267 157.008 43.7507 157.624 42.836C158.24 41.9027 158.968 41.2213 159.808 40.792C160.666 40.344 161.6 40.12 162.608 40.12C163.541 40.12 164.409 40.316 165.212 40.708C166.033 41.1 166.752 41.7067 167.368 42.528C167.984 43.3493 168.478 44.4133 168.852 45.72C169.244 47.008 169.477 48.548 169.552 50.34L172.52 49.304V39.84H175.32V62.968H172.52ZM158.436 51.544C158.436 53.2427 158.529 54.68 158.716 55.856C158.902 57.0133 159.173 57.9467 159.528 58.656C159.882 59.3653 160.321 59.8787 160.844 60.196C161.366 60.5133 161.954 60.672 162.608 60.672C163.242 60.672 163.812 60.5133 164.316 60.196C164.838 59.8973 165.277 59.3933 165.632 58.684C166.005 57.956 166.285 57.0133 166.472 55.856C166.658 54.68 166.752 53.2333 166.752 51.516C166.752 49.8173 166.658 48.3893 166.472 47.232C166.285 46.0747 166.005 45.1413 165.632 44.432C165.277 43.7227 164.838 43.2093 164.316 42.892C163.812 42.5747 163.242 42.416 162.608 42.416C161.954 42.416 161.366 42.5747 160.844 42.892C160.321 43.2093 159.882 43.7227 159.528 44.432C159.173 45.1413 158.902 46.084 158.716 47.26C158.529 48.4173 158.436 49.8453 158.436 51.544ZM181.004 62.968H178.204V39.84H181.004V62.968ZM201.275 64.088C199.707 64.088 198.297 63.9853 197.047 63.78C195.796 63.5933 194.723 63.2947 193.827 62.884C192.949 62.4733 192.268 61.9413 191.783 61.288C191.316 60.6533 191.083 59.8787 191.083 58.964C191.083 58.0493 191.316 57.2747 191.783 56.64C192.268 55.9867 192.949 55.4547 193.827 55.044C194.723 54.6333 195.796 54.3347 197.047 54.148C198.297 53.9613 199.707 53.868 201.275 53.868C202.843 53.868 204.252 53.9613 205.503 54.148C206.753 54.3347 207.817 54.6333 208.695 55.044C209.591 55.4547 210.272 55.9867 210.739 56.64C211.224 57.2747 211.467 58.0493 211.467 58.964C211.467 59.8787 211.224 60.6533 210.739 61.288C210.272 61.9413 209.591 62.4733 208.695 62.884C207.817 63.2947 206.753 63.5933 205.503 63.78C204.252 63.9853 202.843 64.088 201.275 64.088ZM201.275 61.792C202.395 61.792 203.403 61.736 204.299 61.624C205.213 61.5307 205.988 61.372 206.623 61.148C207.276 60.924 207.78 60.6253 208.135 60.252C208.489 59.8973 208.667 59.468 208.667 58.964C208.667 58.46 208.489 58.0307 208.135 57.676C207.78 57.3213 207.276 57.032 206.623 56.808C205.988 56.584 205.213 56.4253 204.299 56.332C203.403 56.22 202.395 56.164 201.275 56.164C200.155 56.164 199.137 56.22 198.223 56.332C197.308 56.4253 196.524 56.584 195.871 56.808C195.236 57.032 194.741 57.3213 194.387 57.676C194.051 58.0307 193.883 58.46 193.883 58.964C193.883 59.468 194.051 59.8973 194.387 60.252C194.741 60.6253 195.236 60.924 195.871 61.148C196.524 61.372 197.308 61.5307 198.223 61.624C199.137 61.736 200.155 61.792 201.275 61.792ZM189.991 49.668H199.259V45.44H202.059V49.668H212.531V51.964H189.991V49.668ZM208.079 48.072V42.416H191.643V40.12H210.879V48.072H208.079ZM227.004 53.084C225.436 53.084 224.027 52.9347 222.776 52.636C221.526 52.3373 220.462 51.908 219.584 51.348C218.707 50.788 218.026 50.1067 217.54 49.304C217.074 48.5013 216.84 47.596 216.84 46.588C216.84 45.58 217.074 44.6747 217.54 43.872C218.026 43.0693 218.707 42.388 219.584 41.828C220.462 41.268 221.526 40.8387 222.776 40.54C224.027 40.2413 225.436 40.092 227.004 40.092C228.498 40.092 229.87 40.2413 231.12 40.54C232.371 40.8387 233.444 41.268 234.34 41.828C235.236 42.388 235.936 43.0693 236.44 43.872C236.944 44.6747 237.196 45.58 237.196 46.588C237.196 47.596 236.954 48.5013 236.468 49.304C236.002 50.1067 235.32 50.788 234.424 51.348C233.547 51.908 232.483 52.3373 231.232 52.636C229.982 52.9347 228.572 53.084 227.004 53.084ZM227.004 50.788C229.394 50.788 231.223 50.4053 232.492 49.64C233.762 48.856 234.396 47.8387 234.396 46.588C234.396 45.3373 233.762 44.3293 232.492 43.564C231.223 42.78 229.394 42.388 227.004 42.388C224.615 42.388 222.786 42.78 221.516 43.564C220.266 44.3293 219.64 45.3373 219.64 46.588C219.64 47.8387 220.266 48.856 221.516 49.64C222.786 50.4053 224.615 50.788 227.004 50.788ZM221.124 63.836V58.544H215.748V56.248H238.288V58.544H232.884V63.836H230.084V58.544H223.924V63.836H221.124ZM255.814 54.848C255.814 56.3227 255.618 57.5827 255.226 58.628C254.834 59.6547 254.311 60.4853 253.658 61.12C253.005 61.7733 252.249 62.24 251.39 62.52C250.531 62.8187 249.635 62.968 248.702 62.968C247.75 62.968 246.845 62.8187 245.986 62.52C245.146 62.24 244.399 61.7733 243.746 61.12C243.111 60.4853 242.598 59.6547 242.206 58.628C241.833 57.5827 241.646 56.3227 241.646 54.848C241.646 53.3733 241.833 52.1227 242.206 51.096C242.598 50.0693 243.111 49.2387 243.746 48.604C244.399 47.9507 245.146 47.4747 245.986 47.176C246.845 46.8773 247.75 46.728 248.702 46.728C249.635 46.728 250.531 46.8773 251.39 47.176C252.249 47.4747 253.005 47.9507 253.658 48.604C254.311 49.2387 254.834 50.0693 255.226 51.096C255.618 52.1227 255.814 53.3733 255.814 54.848ZM244.446 54.848C244.446 56.7707 244.829 58.2267 245.594 59.216C246.359 60.1867 247.395 60.672 248.702 60.672C249.953 60.672 250.979 60.1867 251.782 59.216C252.585 58.2453 252.986 56.78 252.986 54.82C252.986 52.8973 252.585 51.4507 251.782 50.48C250.979 49.5093 249.953 49.024 248.702 49.024C247.395 49.024 246.359 49.5187 245.594 50.508C244.829 51.4787 244.446 52.9253 244.446 54.848ZM262.366 49.024H265.642V51.32H262.366V62.968H259.566V39.84H262.366V49.024ZM240.946 42.08H247.302V39.056H250.102V42.08H256.486V44.376H240.946V42.08ZM286.206 56.612V42.696H269.21V40.4H289.006V56.612H286.206ZM267.838 60.672H277.106V49.22H279.906V60.672H290.378V62.968H267.838V60.672Z" fill="#E5E5E5"/>
<path d="M162.787 24.22L170.347 1.904H177.683L185.243 24.22H179.419L177.291 17.976L170.067 19.964L168.611 24.22H162.787ZM171.859 14.672L175.779 13.58L174.015 8.344L171.859 14.672ZM193.581 1.904V24.22H187.757V1.904H193.581ZM227.823 12.236V17.052H206.067V1.12H227.543V5.936H211.863V12.236H227.823ZM204.695 19.432H228.915V24.248H204.695V19.432ZM232.946 5.376V1.12H254.422V11.2H238.742V12.796H254.702V17.052H246.582V19.432H255.794V24.248H231.574V19.432H240.786V17.052H232.946V6.944H248.598V5.376H232.946ZM282.113 0.559999V14.42H276.317V0.559999H282.113ZM271.081 25.368C269.251 25.368 267.618 25.2653 266.181 25.06C264.743 24.8547 263.53 24.5373 262.541 24.108C261.551 23.6973 260.795 23.156 260.273 22.484C259.75 21.8307 259.489 21.0373 259.489 20.104C259.489 19.1893 259.75 18.4053 260.273 17.752C260.795 17.08 261.551 16.5293 262.541 16.1C263.53 15.6707 264.743 15.3627 266.181 15.176C267.618 14.9707 269.251 14.868 271.081 14.868C272.91 14.868 274.543 14.9707 275.981 15.176C277.418 15.3627 278.631 15.6707 279.621 16.1C280.61 16.5293 281.366 17.08 281.889 17.752C282.411 18.4053 282.673 19.1893 282.673 20.104C282.673 21.0373 282.411 21.8307 281.889 22.484C281.366 23.156 280.61 23.6973 279.621 24.108C278.631 24.5373 277.418 24.8547 275.981 25.06C274.543 25.2653 272.91 25.368 271.081 25.368ZM271.081 21.392C272.873 21.392 274.282 21.2893 275.309 21.084C276.354 20.8787 276.877 20.552 276.877 20.104C276.877 19.656 276.354 19.3293 275.309 19.124C274.282 18.9187 272.873 18.816 271.081 18.816C269.289 18.816 267.87 18.9187 266.825 19.124C265.798 19.3293 265.285 19.656 265.285 20.104C265.285 20.552 265.798 20.8787 266.825 21.084C267.87 21.2893 269.289 21.392 271.081 21.392ZM257.977 7.308C257.977 6.26267 258.173 5.32933 258.565 4.508C258.957 3.668 259.507 2.95867 260.217 2.38C260.945 1.78267 261.813 1.33467 262.821 1.036C263.847 0.718666 264.986 0.559999 266.237 0.559999C267.487 0.559999 268.617 0.718666 269.625 1.036C270.651 1.33467 271.519 1.78267 272.229 2.38C272.957 2.95867 273.517 3.668 273.909 4.508C274.301 5.32933 274.497 6.26267 274.497 7.308C274.497 8.33467 274.301 9.268 273.909 10.108C273.517 10.9293 272.957 11.6293 272.229 12.208C271.519 12.7867 270.651 13.2347 269.625 13.552C268.617 13.8693 267.487 14.028 266.237 14.028C264.986 14.028 263.847 13.8693 262.821 13.552C261.813 13.2347 260.945 12.7867 260.217 12.208C259.507 11.6293 258.957 10.9293 258.565 10.108C258.173 9.268 257.977 8.33467 257.977 7.308ZM266.237 9.492C267.002 9.492 267.646 9.296 268.169 8.904C268.691 8.512 268.953 7.98 268.953 7.308C268.953 6.59867 268.691 6.05733 268.169 5.684C267.646 5.292 267.002 5.096 266.237 5.096C265.471 5.096 264.827 5.292 264.305 5.684C263.782 6.05733 263.521 6.59867 263.521 7.308C263.521 7.98 263.782 8.512 264.305 8.904C264.827 9.296 265.471 9.492 266.237 9.492Z" fill="white"/>
</svg>
