<svg width="32" height="33" viewBox="0 0 32 33" fill="none" xmlns="http://www.w3.org/2000/svg">
<path fill-rule="evenodd" clip-rule="evenodd" d="M21.0001 5.5C21.5524 5.5 22.0001 5.94772 22.0001 6.5V26.5C22.0001 27.0523 21.5524 27.5 21.0001 27.5H11.0001C10.4478 27.5 10.0001 27.0523 10.0001 26.5V6.5C10.0001 5.94772 10.4478 5.5 11.0001 5.5H21.0001ZM20.0001 7.5H12.0001V25.5H20.0001V7.5Z" fill="#6F3AD0"/>
<path d="M5.44541 12.6681C4.98588 12.9744 4.8617 13.5953 5.16806 14.0548L6.79826 16.5001L5.16806 18.9454C4.8617 19.4049 4.98588 20.0258 5.44541 20.3322C5.90493 20.6385 6.5258 20.5143 6.83216 20.0548L8.83216 17.0548C9.05609 16.7189 9.05609 16.2813 8.83216 15.9454L6.83216 12.9454C6.5258 12.4859 5.90493 12.3617 5.44541 12.6681Z" fill="#6F3AD0"/>
<path d="M26.8322 14.0548C27.1385 13.5953 27.0143 12.9744 26.5548 12.6681C26.0953 12.3617 25.4744 12.4859 25.1681 12.9454L23.1681 15.9454C22.9441 16.2813 22.9441 16.7189 23.1681 17.0548L25.1681 20.0548C25.4744 20.5143 26.0953 20.6385 26.5548 20.3322C27.0143 20.0258 27.1385 19.4049 26.8322 18.9454L25.202 16.5001L26.8322 14.0548Z" fill="#6F3AD0"/>
</svg>
